<svg xmlns="http://www.w3.org/2000/svg" xml:space="preserve" style="enable-background:new 0 0 44 44" viewBox="0 0 44 44">
    <path d="M.94 44c-.52 0-.94-.42-.94-.94V3.75c0-.52.42-.94.94-.94h5.62c.25 0 .46-.21.46-.46V.95c0-.53.42-.95.94-.95s.94.42.94.94v1.4c0 .25.21.46.46.46h2.81c.25 0 .46-.21.46-.46V.94c0-.52.42-.94.94-.94s.94.42.94.94v1.4c0 .25.21.46.46.46h2.81c.25 0 .46-.21.46-.46V.94c0-.52.42-.94.94-.94s.94.42.94.94v1.4c0 .25.21.46.46.46h2.81c.25 0 .46-.21.46-.46V.94c0-.52.42-.94.94-.94s.94.42.94.94v1.4c0 .25.21.46.46.46H29c.25 0 .46-.21.46-.46V.94c.02-.52.44-.94.96-.94s.94.42.94.94v1.4c0 .25.21.46.46.46h2.81c.25 0 .46-.21.46-.46V.94c0-.52.42-.94.94-.94s.94.42.94.94v1.4c0 .25.21.46.46.46h5.62c.52 0 .94.42.94.94v39.31c0 .52-.42.94-.94.94H.94zm1.41-30.88c-.25 0-.46.21-.46.46v28.08c0 .25.21.46.46.46h39.31c.25 0 .46-.21.46-.46V13.58c0-.25-.21-.46-.46-.46H2.35zm0-8.43c-.25 0-.46.21-.46.46v5.62c0 .25.21.46.46.46h39.31c.25 0 .46-.21.46-.46V5.15c0-.25-.21-.46-.46-.46h-4.21c-.25 0-.46.21-.46.46v2.81c0 .52-.42.94-.94.94s-.94-.42-.94-.94V5.15c0-.25-.21-.46-.46-.46h-2.81c-.25 0-.46.21-.46.46v2.81c0 .52-.42.94-.94.94s-.94-.42-.94-.94V5.15c0-.25-.21-.46-.46-.46h-2.81c-.25 0-.46.21-.46.46v2.81c0 .52-.42.94-.94.94s-.94-.42-.94-.94V5.15c0-.25-.21-.46-.46-.46H20.6c-.25 0-.46.21-.46.46v2.81c0 .52-.42.94-.94.94s-.94-.42-.94-.94V5.15c0-.25-.21-.46-.46-.46h-2.81c-.25 0-.46.21-.46.46v2.81c0 .52-.42.94-.94.94s-.94-.42-.94-.94V5.15c0-.25-.21-.46-.46-.46H9.37c-.25 0-.46.21-.46.46v2.81c0 .52-.42.94-.94.94s-.95-.42-.95-.94V5.15c0-.25-.21-.46-.46-.46H2.35z" class="st0 svg-elem-1"/>
    <path d="M7.96 36.1c-.52 0-.94-.42-.94-.94v-3.61c0-.52.42-.94.94-.94h21.08c.52 0 .94.42.94.94v3.62c0 .52-.42.94-.94.94L7.96 36.1zm15.44-5.61c-.25 0-.46.21-.46.46v2.81c0 .25.21.46.46.46h4.21c.25 0 .46-.21.46-.46v-2.81c0-.25-.21-.46-.46-.46H23.4zm-7.02 0c-.25 0-.46.21-.46.46v2.81c0 .25.21.46.46.46h4.21c.25 0 .46-.21.46-.46v-2.81c0-.25-.21-.46-.46-.46h-4.21zm-7.01 0c-.25 0-.46.21-.46.46v2.81c0 .25.21.46.46.46h4.21c.25 0 .46-.21.46-.46v-2.81c0-.25-.21-.46-.46-.46H9.37z" class="st0 svg-elem-1"/>
    <path d="M7.96 24.55c-.52 0-.94-.42-.94-.94V20c0-.52.42-.94.94-.94h28.08c.52 0 .94.42.94.94v3.62c0 .52-.42.94-.94.94l-28.08-.01zm22.46-3.61c-.25 0-.46.21-.46.46v2.81c0 .25.21.46.46.46h4.21c.25 0 .46-.21.46-.46V21.4c0-.25-.21-.46-.46-.46h-4.21zm-7.02 0c-.25 0-.46.21-.46.46v2.81c0 .25.21.46.46.46h4.21c.25 0 .46-.21.46-.46V21.4c0-.25-.21-.46-.46-.46H23.4zm-7.02 0c-.25 0-.46.21-.46.46v2.81c0 .25.21.46.46.46h4.21c.25 0 .46-.21.46-.46V21.4c0-.25-.21-.46-.46-.46h-4.21zm-7.01 0c-.25 0-.46.21-.46.46v2.81c0 .25.21.46.46.46h4.21c.25 0 .46-.21.46-.46V21.4c0-.25-.21-.46-.46-.46H9.37z" class="st0 svg-elem-2"/>
    <path d="M7.96 31.36c-.52 0-.94-.42-.94-.94v-5.61c0-.52.42-.94.94-.94h28.08c.52 0 .94.42.94.94v5.62c0 .52-.42.94-.94.94l-28.08-.01zm22.46-5.61c-.25 0-.46.21-.46.46v2.81c0 .25.21.46.46.46h4.21c.25 0 .46-.21.46-.46v-2.81c0-.25-.21-.46-.46-.46h-4.21zm-7.02 0c-.25 0-.46.21-.46.46v2.81c0 .25.21.46.46.46h4.21c.25 0 .46-.21.46-.46v-2.81c0-.25-.21-.46-.46-.46H23.4zm-7.02 0c-.25 0-.46.21-.46.46v2.81c0 .25.21.46.46.46h4.21c.25 0 .46-.21.46-.46v-2.81c0-.25-.21-.46-.46-.46h-4.21zm-7.01 0c-.25 0-.46.21-.46.46v2.81c0 .25.21.46.46.46h4.21c.25 0 .46-.21.46-.46v-2.81c0-.25-.21-.46-.46-.46H9.37z" class="st1 svg-elem-3"/>
</svg>