<svg xmlns="http://www.w3.org/2000/svg" xml:space="preserve" style="enable-background:new 0 0 44 44" viewBox="0 0 44 44">
    <path d="M22 0C9.87 0 0 9.87 0 22c0 3.07.62 6.04 1.85 8.83.15.35.49.57.86.57.13 0 .26-.03.38-.08.48-.21.69-.77.49-1.24-1.13-2.55-1.69-5.27-1.69-8.08 0-7.43 4.06-13.92 10.08-17.4-.05 1.69.6 3.38 1.5 4.56.62.82 2.86 2.77 4.72 2.77h.14c.77-.04 1.42-.42 1.82-1.08.26-.43.36-.87.46-1.26l.01-.04c.03-.13.06-.25.1-.37.28-.91.98-1.38 2.09-1.87.32-.14.7-.24 1.06-.34.57-.15 1.21-.32 1.8-.68 1.22-.73 1.68-2.28 1.16-3.79 2.59.64 4.97 1.78 7.06 3.31-1.14.49-1.86 1.58-1.75 2.67.04.44.2.79.34 1.1.14.31.16.38.18.44.02.07.01.15 0 .22-.08.29-.45.58-.83.65-.1.02-.2.02-.31.02-.54 0-1.2-.19-1.69-.48l-.35-.22c-.55-.35-1.18-.76-2.08-.76-.12 0-.24.01-.36.02-1.19.12-2.17.78-2.71 1.81-.57 1.1-.54 2.47.08 3.59.78 1.41 2.6 2.93 4.73 2.93.15 0 .3-.01.45-.02.18-.02.35-.04.53-.07.21-.03.43-.05.7-.07h.04c.62.01 1.15.42 1.76.91.42.33.89.71 1.44.97.35.17.76.33 1.2.51 1.28.52 2.87 1.16 3.29 2.2.21.54.38 1.08.54 1.61l.02.06c.41 1.37.88 2.89 2.09 4.13-.3.95-.67 1.87-1.11 2.76-.51-.24-1.1-.42-1.69-.59-.98-.28-1.53-.46-1.75-.66l-.05-.05c-.35-.43-.26-.9-.04-1.77.15-.6.33-1.34.21-2.11-.39-2.43-2.68-3.24-4.71-3.96l-.04-.01c-.55-.2-1.12-.4-1.63-.64-1.77-.82-3.41-1.26-4.87-1.33-.12 0-.24-.01-.37-.01-1.01 0-1.79.23-2.38.69-.37.29-.54.62-.66.85l-.01.03c-.03.05-.06.12-.11.19-.2.28-.45.43-.95.66l-.3.13c-.79.35-1.78.79-2.26 1.92-.68 1.83.52 3.96 1.99 5.04 1.04.65 2.03.92 2.84 1.15 1.7.48 2.15.7 2.15 2.99 0 .41-.05.88-.11 1.38l-.01.1c-.21 1.94-.54 4.95 1.55 6.74-1.14.29-2.31.49-3.52.58-.25.02-.48.13-.64.32-.17.19-.25.43-.23.69 0 .49.41.88.9.88h.07C34.98 43.19 44 33.52 44 22 44 9.87 34.13 0 22 0zm2.03 2c.45.2.83.59 1 1.06.21.57.16 1.31-.34 1.61-.37.22-.85.35-1.31.47-.42.11-.89.23-1.34.44-1.25.56-2.6 1.36-3.12 3.04-.05.17-.1.35-.14.53-.03.12-.08.31-.08.39.01.1-.02.21-.07.29-.07.11-.19.18-.32.2-.04.01-.08.01-.13.01-.8 0-2.56-1.19-3.2-2.03-.86-1.13-1.47-2.98-.91-4.49C16.5 2.47 19.18 1.89 22 1.89c.68 0 1.35.04 2.01.1.01 0 .01.01.02.01zm16.86 21.36c-.17-.57-.37-1.21-.61-1.83-.71-1.79-2.72-2.6-4.33-3.25l-.06-.02c-.37-.15-.72-.29-1.04-.44-.36-.17-.71-.45-1.09-.75-.77-.61-1.63-1.29-2.89-1.31h-.02c-.36.02-.69.04-1.02.09l-.05.01c-.13.02-.26.04-.39.05-.08.01-.16.01-.25.01-1.13 0-2.49-.86-3.1-1.96-.32-.57-.34-1.26-.06-1.81.25-.47.67-.75 1.23-.8.05 0 .1-.01.15-.01.36 0 .62.15 1.1.46l.39.24c.77.47 1.77.75 2.67.75.21 0 .41-.02.6-.05 1.29-.21 2.58-1.36 2.42-2.86-.05-.42-.2-.77-.33-1.08-.13-.3-.17-.39-.18-.47-.03-.03-.03-.09-.02-.15.05-.25.33-.53.65-.66.3-.12.65-.17 1.03-.21 3.94 3.67 6.42 8.89 6.42 14.69 0 1.26-.12 2.49-.35 3.69-.38-.71-.63-1.51-.87-2.33zM29.3 40.75c-2.45-.81-2.42-2.89-2.11-5.74.07-.61.13-1.18.13-1.7 0-3.54-1.46-4.23-3.53-4.8-.72-.2-1.54-.43-2.28-.89-.01-.01-.02-.01-.03-.02-.86-.63-1.6-1.92-1.28-2.78.17-.41.68-.63 1.27-.89l.33-.15c.61-.29 1.2-.6 1.68-1.26.11-.15.19-.3.26-.44.02-.1.08-.19.16-.26.24-.19.64-.28 1.22-.28.08 0 .17 0 .27.01 1.22.06 2.62.45 4.16 1.16.56.26 1.16.47 1.83.71 2.03.72 3.28 1.25 3.48 2.49.06.38-.05.85-.18 1.35-.23.94-.55 2.23.41 3.41.59.72 1.68 1.03 2.74 1.34.59.17 1.01.3 1.3.43-2.25 3.73-5.7 6.68-9.83 8.31z" class="st0 svg-elem-1"/>
    <path d="M14.09 33.69c-.09 0-.15 0-.19.01-.51.04-.89.47-.86.99.03.51.45.89 1 .89h.04c.38.01 1.35.12 2.25.99 1.05 1.02 1.68 2.71 1.86 5.05.01.13-.03.25-.12.35-.09.09-.21.15-.34.15H2.4c-.13 0-.25-.05-.34-.15-.09-.09-.13-.22-.12-.35.18-2.33.81-4.03 1.86-5.05.94-.91 1.97-.99 2.26-.99h.1c.49 0 .9-.38.93-.87.02-.25-.06-.49-.23-.69-.16-.19-.39-.31-.65-.32h-.17c-.58 0-2.08.14-3.49 1.45C.87 36.72 0 39.39 0 43.06c0 .52.42.94.94.94h18.25c.52 0 .94-.42.94-.94 0-3.67-.87-6.33-2.57-7.92-1.44-1.35-3.02-1.45-3.47-1.45zM10.07 32.77c2.89 0 5.15-3.58 5.15-8.16 0-5.74-3.6-6.36-5.15-6.36s-5.15.62-5.15 6.36c-.01 4.57 2.26 8.16 5.15 8.16zm0-12.63c.81 0 3.27 0 3.27 4.47 0 3.34-1.53 6.28-3.27 6.28S6.8 27.96 6.8 24.61c0-4.47 2.46-4.47 3.27-4.47z" class="st1 svg-elem-2"/>
</svg>