<svg xmlns="http://www.w3.org/2000/svg" xml:space="preserve" style="enable-background:new 0 0 45.44 44.01" viewBox="0 0 45.44 44.01">
	<path class="st0 svg-elem-1" d="M.97 44.01c-.54 0-.97-.44-.97-.97s.44-.97.97-.97h1.45c.26 0 .48-.21.48-.48v-4.35c0-.54.44-.97.97-.97h1.45c.26 0 .48-.21.48-.48V16.94c0-.26-.21-.48-.48-.48h-2.9c-.54 0-.97-.44-.97-.97v-8.7c0-.54.44-.97.97-.97h10.15c.54 0 .97.44.97.97s-.44.97-.97.97h-8.7c-.26 0-.48.21-.48.48v5.8c0 .26.21.48.48.48h8.7c.54 0 .97.44.97.97s-.44.97-.97.97H8.22c-.26 0-.48.21-.48.48v4.35c0 .26.21.48.48.48h29c.26 0 .48-.21.48-.48v-4.35c0-.26-.21-.48-.48-.48h-4.35c-.54 0-.97-.44-.97-.97s.44-.97.97-.97h8.7c.26 0 .48-.21.48-.48v-5.8c0-.26-.21-.48-.48-.48h-8.7c-.54 0-.97-.44-.97-.97s.44-.97.97-.97h10.15c.54 0 .97.44.97.97v8.7c0 .54-.44.97-.97.97h-2.9c-.26 0-.48.21-.48.48v18.85c0 .26.21.48.48.48h1.45c.54 0 .97.44.97.97v4.35c0 .26.21.48.48.48h1.45c.54 0 .97.44.97.97s-.44.97-.97.97H.97zm4.35-5.8c-.26 0-.48.21-.48.48v2.9c0 .26.21.48.48.48h34.8c.26 0 .48-.21.48-.48v-2.9c0-.26-.21-.48-.48-.48H5.32zm29-8.7c-.26 0-.48.21-.48.48v5.8c0 .26.21.48.48.48h2.9c.26 0 .48-.21.48-.48v-5.8c0-.26-.21-.48-.48-.48h-2.9zm-5.8-5.8c-.26 0-.48.21-.48.48v11.6c0 .26.21.48.48.48h2.9c.26 0 .48-.21.48-.48v-11.6c0-.26-.21-.48-.48-.48h-2.9zm-8.7 0c-.26 0-.48.21-.48.48v11.6c0 .26.21.48.48.48h5.8c.26 0 .48-.21.48-.48v-11.6c0-.26-.21-.48-.48-.48h-5.8zm-5.8 0c-.26 0-.48.21-.48.48v11.6c0 .26.21.48.48.48h2.9c.26 0 .48-.21.48-.48v-11.6c0-.26-.21-.48-.48-.48h-2.9zm-5.8 5.8c-.26 0-.48.21-.48.48v5.8c0 .26.21.48.48.48h2.9c.26 0 .48-.21.48-.48v-5.8c0-.26-.21-.48-.48-.48h-2.9zm26.1-5.8c-.26 0-.48.21-.48.48v2.9c0 .26.21.48.48.48h2.9c.26 0 .48-.21.48-.48v-2.9c0-.26-.21-.48-.48-.48h-2.9zm-26.1 0c-.26 0-.48.21-.48.48v2.9c0 .26.21.48.48.48h2.9c.26 0 .48-.21.48-.48v-2.9c0-.26-.21-.48-.48-.48h-2.9z" />
	<path class="st1 svg-elem-2" d="M22.72 19.36c-.54 0-1.04-.32-1.27-.82-.03-.06-.06-.1-.11-.15-.22-.21-1.27-.74-1.79-.93-.04-.02-.12-.05-.15-.07-2.36-1.15-3.41-2.73-3.88-3.86-.44-1.04-.47-1.93-.44-2.36.02-.33.15-.65.36-.91 1.34-1.57.82-3.54.63-4.1-.29-.84-.73-1.51-.97-1.84-.47-.65-.41-1.56.15-2.13.65-.67 1.17-1.21 1.64-1.7.3-.31.69-.48 1.11-.48.07 0 .24.02.31.03.44.08.83.38 1.06.8.07.14.21.23.36.25h.14c.16 0 .38-.03.57-.07.7-.15 1.35-.49 1.53-.59.23-.12.48-.19.75-.19s.52.07.74.19c.24.13.85.45 1.52.59.2.05.42.07.58.07h.14c.16-.02.29-.11.36-.25.22-.42.63-.72 1.09-.81.06-.01.22-.03.28-.03.42 0 .82.17 1.11.48.49.51.99 1.04 1.64 1.7.56.57.62 1.48.15 2.13-.24.32-.67.99-.97 1.84-.19.56-.71 2.51.61 4.07.23.27.37.63.38.99.02.43-.02 1.3-.45 2.31-.46 1.13-1.52 2.71-3.89 3.86-.04.02-.13.06-.17.07-.48.18-1.56.71-1.86 1.07-.03.03-.05.07-.07.11-.18.41-.69.71-1.2.71l.01.02zM17.95 2.42c-.13 0-.25.05-.34.15-.16.17-.34.35-.52.54-.15.16-.18.4-.06.59.37.6.67 1.21.89 1.84.26.77.98 3.45-.78 5.75-.07.09-.1.21-.1.32.02.27.09.7.29 1.18.33.82 1.12 1.98 2.94 2.86.02 0 .03.01.05.02.01 0 1.21.43 2.11 1.14.09.07.19.1.29.1.1 0 .21-.03.29-.1.78-.61 1.8-1.02 2.2-1.17.02 0 .03-.01.04-.02 1.76-.86 2.53-2.01 2.86-2.82.21-.49.27-.92.29-1.19 0-.12-.03-.23-.1-.32-1.76-2.3-1.05-4.98-.79-5.74.27-.78.64-1.44.89-1.85.12-.19.09-.43-.06-.58l-.52-.54c-.09-.1-.22-.15-.34-.15-.11 0-.21.04-.3.11-.42.34-.99.52-1.65.52-.31 0-.63-.04-.97-.11-.65-.14-1.25-.39-1.64-.58-.07-.03-.14-.05-.21-.05s-.14.02-.21.05c-.56.27-1.13.47-1.65.58-.33.07-.64.11-.94.11-.68 0-1.25-.18-1.67-.52-.09-.07-.19-.11-.29-.12z" />
</svg>