<svg xmlns="http://www.w3.org/2000/svg" xml:space="preserve" style="enable-background:new 0 0 44 44" viewBox="0 0 44 44">
    <path d="M.94 44c-.52 0-.94-.42-.94-.94V26.21c0-.52.42-.94.94-.94h42.11c.52 0 .94.42.94.94v16.85c0 .52-.42.94-.94.94H.94zm1.41-16.85c-.25 0-.46.21-.46.46v14.04c0 .25.21.46.46.46h39.31c.25 0 .46-.21.46-.46V27.62c0-.25-.21-.46-.46-.46H2.35z" class="st0 svg-elem-1"/>
    <path d="M17.79 38.38c-.52 0-.94-.42-.94-.94v-5.62c0-.52.42-.94.94-.94h8.42c.52 0 .94.42.94.94v5.62c0 .52-.42.94-.94.94h-8.42zm1.4-5.61c-.25 0-.46.21-.46.46v2.81c0 .25.21.46.46.46h5.62c.25 0 .46-.21.46-.46v-2.81c0-.25-.21-.46-.46-.46h-5.62z" class="st0 svg-elem-1"/>
    <path d="M36.04 22.94c-.52 0-.94-.42-.94-.94v-9.83c0-.25-.21-.46-.46-.46h-7.25c-1.17 0-2.11-.95-2.11-2.11V2.35c0-.25-.21-.46-.46-.46H9.37c-.25 0-.46.21-.46.46V22c0 .52-.42.94-.94.94s-.94-.42-.94-.94V5.15c0-.25-.21-.46-.46-.46H3.75c-.25 0-.46.21-.46.46V22c0 .52-.42.94-.94.94s-.95-.42-.95-.94V3.75c0-.52.42-.94.94-.94h4.21c.25 0 .46-.21.46-.46C7.02 1.05 8.07 0 9.37 0h18.25c.25 0 .49.1.67.28L36.7 8.7c.18.18.28.41.28.67V22c0 .52-.42.94-.94.94zM27.62 2.47c-.06 0-.12.01-.18.04-.17.07-.28.24-.28.43v6.44c0 .25.21.46.46.46h6.44c.19 0 .35-.11.43-.28.07-.17.03-.37-.1-.5L27.94 2.6c-.09-.09-.2-.13-.32-.13z" class="st0 svg-elem-2"/>
    <path d="M14.98 15.92c-.52 0-.94-.42-.94-.94s.42-.94.94-.94h11.23c.52 0 .94.42.94.94s-.42.94-.94.94H14.98z" class="st1 svg-elem-3"/>
    <path d="M14.98 21.54c-.52 0-.94-.42-.94-.94s.42-.94.94-.94h14.04c.52 0 .94.42.94.94s-.42.94-.94.94H14.98z" class="st1 svg-elem-4"/>
</svg>