<svg xmlns="http://www.w3.org/2000/svg" xml:space="preserve" style="enable-background:new 0 0 45.44 45" viewBox="0 0 45.44 45">
    <path d="M.97 45c-.54 0-.97-.44-.97-.97s.44-.97.97-.97h1.45c.26 0 .48-.21.48-.48v-4.35c0-.54.44-.97.97-.97h1.45c.26 0 .48-.21.48-.48V19.93c0-.26-.21-.48-.48-.48h-2.9c-.54 0-.97-.44-.97-.97v-5.7c0-.54.44-.97.97-.97h20.15c.54 0 .97.44.97.97s-.44.97-.97.97H3.87c-.26 0-.48.21-.48.48v2.8c0 .26.21.48.48.48h18.7c.54 0 .97.44.97.97s-.44.97-.97.97H8.22c-.26 0-.48.21-.48.48v2.35c0 .26.21.48.48.48h29c.26 0 .48-.21.48-.48v-2.35c0-.26-.21-.48-.48-.48H22.87c-.54 0-.97-.44-.97-.97s.44-.97.97-.97h18.7c.26 0 .48-.21.48-.48v-2.8c0-.26-.21-.48-.48-.48h-18.7c-.54 0-.97-.44-.97-.97s.44-.97.97-.97h20.15c.54 0 .97.44.97.97v5.7c0 .54-.44.97-.97.97h-2.9c-.26 0-.48.21-.48.48v16.85c0 .26.21.48.48.48h1.45c.54 0 .97.44.97.97v4.35c0 .26.21.48.48.48h1.45c.54 0 .97.44.97.97s-.44.97-.97.97H.97zm4.35-5.8c-.26 0-.48.21-.48.48v2.9c0 .26.21.48.48.48h34.8c.26 0 .48-.21.48-.48v-2.9c0-.26-.21-.48-.48-.48H5.32zm29-8.7c-.26 0-.48.21-.48.48v5.8c0 .26.21.48.48.48h2.9c.26 0 .48-.21.48-.48v-5.8c0-.26-.21-.48-.48-.48h-2.9zm-5.8-5.8c-.26 0-.48.21-.48.48v11.6c0 .26.21.48.48.48h2.9c.26 0 .48-.21.48-.48v-11.6c0-.26-.21-.48-.48-.48h-2.9zm-8.7 0c-.26 0-.48.21-.48.48v11.6c0 .26.21.48.48.48h5.8c.26 0 .48-.21.48-.48v-11.6c0-.26-.21-.48-.48-.48h-5.8zm-5.8 0c-.26 0-.48.21-.48.48v11.6c0 .26.21.48.48.48h2.9c.26 0 .48-.21.48-.48v-11.6c0-.26-.21-.48-.48-.48h-2.9zm-5.8 5.8c-.26 0-.48.21-.48.48v5.8c0 .26.21.48.48.48h2.9c.26 0 .48-.21.48-.48v-5.8c0-.26-.21-.48-.48-.48h-2.9zm26.1-5.8c-.26 0-.48.21-.48.48v2.9c0 .26.21.48.48.48h2.9c.26 0 .48-.21.48-.48v-2.9c0-.26-.21-.48-.48-.48h-2.9zm-26.1 0c-.26 0-.48.21-.48.48v2.9c0 .26.21.48.48.48h2.9c.26 0 .48-.21.48-.48v-2.9c0-.26-.21-.48-.48-.48h-2.9z" class="st0 svg-elem-1"/>
    <path d="M22.72 12.9c-.55 0-1-.45-1-1V1c0-.55.45-1 1-1s1 .45 1 1v10.9c0 .56-.45 1-1 1z" class="st1 svg-elem-2"/>
    <path d="M31.9 7.9h-9.18c-.55 0-1-.45-1-1V1.45c0-.55.45-1 1-1h9.18c.55 0 1 .45 1 1V6.9c0 .56-.45 1-1 1zm-8.18-2h7.18V2.45h-7.18V5.9z" class="st1 svg-elem-3"/>
</svg>