<svg xmlns="http://www.w3.org/2000/svg" xml:space="preserve" style="enable-background:new 0 0 43.98 44.01" viewBox="0 0 43.98 44.01">
    <path d="M29.02 22.95c-.3 0-.59-.15-.77-.4l-5.88-8.23c-.09-.12-.23-.19-.37-.19-.14 0-.29.07-.37.19l-5.88 8.23c-.18.25-.46.4-.77.4H.94c-.33 0-.64-.18-.81-.46-.17-.29-.17-.65-.01-.94L7.14 8.91c.17-.3.48-.49.82-.49h6.36c.14 0 .27-.06.35-.17L21.24.36s.07-.05.1-.08c.02-.02.04-.04.06-.07.03-.02.06-.03.09-.05.06-.04.11-.07.16-.09.06-.02.11-.04.17-.05.07-.01.12-.02.17-.02.06 0 .12 0 .18.02.06.01.11.03.16.05.05.02.1.05.17.09.03.02.06.03.09.05.02.02.03.04.05.06.03.03.06.06.1.08l6.57 7.89c.09.11.22.17.35.17h6.36c.34 0 .66.19.82.49l7.02 12.64c.16.29.16.65-.01.94-.17.29-.48.47-.81.47H29h.02zm-6.46-11.53s.06.07.09.1.07.06.1.09c.01 0 .02.02.03.03l6.59 9.23c.09.12.23.19.38.19h10.93c.16 0 .31-.09.4-.23.08-.14.08-.31 0-.46l-5.46-9.83c-.08-.15-.24-.24-.4-.24h-6.19c-.28 0-.54-.12-.72-.34l-5.94-7.13c-.09-.11-.22-.17-.35-.17-.13 0-.27.06-.35.17l-5.94 7.13c-.18.22-.44.34-.72.34H8.82c-.17 0-.32.09-.4.24l-5.46 9.83c-.08.14-.08.32 0 .46s.23.23.4.23h10.93c.15 0 .29-.07.37-.19l6.6-9.24s.01 0 .02-.01c.03-.03.07-.06.1-.09s.06-.07.09-.1c.01 0 .02-.01.03-.02.03-.02.09-.04.15-.06l.05-.02s.06-.03.09-.04c.02 0 .04-.02.06-.02H22.2c.02 0 .04.01.06.02.03.01.06.03.09.04l.05.02c.06.02.11.04.14.06 0 0 .02.01.03.02l-.01-.01z" class="st0 svg-elem-1"/>
    <path d="M3.75 44.01c-.52 0-.94-.42-.94-.94V26.22c0-.52.42-.94.94-.94s.94.42.94.94v15.45c0 .25.21.46.46.46h4.21c.25 0 .46-.21.46-.46v-8.78c0-2.65 2-4.81 4.45-4.81s4.45 2.16 4.45 4.81v8.78c0 .25.21.46.46.46h19.65c.25 0 .46-.21.46-.46V26.22c0-.52.42-.94.94-.94s.94.42.94.94v16.85c0 .52-.42.94-.94.94H3.73h.02zm10.53-14.04c-1.39 0-2.57 1.34-2.57 2.92v8.78c0 .25.21.46.46.46h4.21c.25 0 .46-.21.46-.46v-8.78c0-1.58-1.18-2.92-2.56-2.92z" class="st0 svg-elem-2"/>
    <path d="M29.02 39.8c-.19 0-.38-.06-.54-.17-.24-.17-6-4.27-6.66-8.74-.23-1.55.15-2.96 1.14-4.21.69-.87 1.69-1.38 2.75-1.4h.06c1.05 0 2.12.51 2.85 1.38l.06.07c.09.09.21.14.33.14.13 0 .25-.05.33-.15 0 0 .12-.12.12-.13.68-.81 1.76-1.32 2.82-1.32h.04c1.06.02 2.06.53 2.75 1.4.98 1.24 1.36 2.66 1.14 4.21-.66 4.47-6.41 8.57-6.66 8.75-.16.11-.35.17-.54.17h.01zm-3.28-12.64c-.5 0-.96.25-1.3.68-.66.83-.9 1.74-.75 2.76.43 2.93 3.97 5.98 5.04 6.85.08.07.19.1.29.1s.2-.03.29-.1c1.07-.87 4.61-3.92 5.04-6.85.15-1.03-.1-1.93-.75-2.76-.34-.43-.8-.68-1.3-.68h-.06c-.52 0-.97.23-1.36.7l-1.17 1.23c-.17.17-.42.28-.68.28s-.52-.1-.68-.28l-1.11-1.17c-.43-.5-.92-.76-1.46-.76h-.04z" class="st1 svg-elem-3"/>
</svg>