<svg xmlns="http://www.w3.org/2000/svg" xml:space="preserve" style="enable-background:new 0 0 65.99 66" viewBox="0 0 65.99 66">
    <path d="M34.42 63.08c-.78 0-1.41-.63-1.41-1.41-.02-3.53-.73-6.46-1.95-8.04-.38-.49-.99-.82-1.77-1.24-2.15-1.16-5.39-2.91-6.35-10.38-.74-5.8-3.36-8.29-4.85-9.26-1-.65-1.86-.88-2.41-.97-.04-.01-.07-.01-.1-.01-.16 0-.32.06-.44.16-.15.13-.24.31-.25.51-.09 2.79-.01 8.55.89 10.33.87 1.72 4.04 7.88 5.91 11.5.17.34.21.72.09 1.08-.12.36-.36.65-.7.83-.2.1-.42.16-.65.16-.53 0-1.02-.29-1.26-.77-2.33-4.53-5.12-9.93-5.92-11.52-1.4-2.77-1.29-10.48-1.14-12.96.05-.96.83-2.1 2.85-2.18h.24c3.58 0 9.35 3.39 10.55 12.74.77 6.03 2.86 7.15 4.87 8.24.95.51 1.93 1.04 2.67 2.01 2.07 2.67 2.53 6.78 2.54 9.75.01.79-.62 1.43-1.41 1.43z" class="st0 svg-elem-1"/>
    <path d="M13.87 66c-.51 0-.98-.27-1.23-.72-.76-1.34-1.63-2.83-2.53-4.4-4.21-7.27-8.98-15.52-9.84-19-1.47-5.92 3.52-23.98 5.74-31.47.39-1.33 1.5-1.97 3.37-1.97.64 0 1.37.08 2.17.23 3.35.64 5 3.21 5.06 7.86.02 1.3-.11 2.75-.4 4.58-.09.58-.2 1.22-.35 2-.12.67-.7 1.16-1.38 1.16-.09 0-.18-.01-.27-.02-.37-.07-.7-.28-.91-.59-.21-.31-.29-.69-.23-1.06.12-.65.23-1.29.34-1.93.26-1.67.38-2.97.36-4.1-.05-4.05-1.43-4.86-2.76-5.11-.69-.13-1.24-.2-1.65-.2-.07 0-.13 0-.19.01-.29.02-.54.22-.62.49-3.2 10.94-6.59 25.22-5.54 29.43.77 3.09 5.84 11.87 9.55 18.28.91 1.57 1.77 3.07 2.54 4.42.19.33.24.71.13 1.07-.1.36-.34.67-.67.85-.2.13-.44.19-.69.19z" class="st0 svg-elem-2"/>
    <path d="M45.56 56.35c-.23 0-.44-.05-.65-.16-.34-.17-.58-.47-.7-.83s-.08-.74.09-1.08c1.87-3.62 5.04-9.78 5.91-11.5.9-1.79.98-7.54.89-10.33-.01-.2-.1-.38-.25-.51-.12-.1-.28-.16-.44-.16-.03 0-.07 0-.1.01-.55.08-1.41.32-2.41.97-1.49.97-4.11 3.46-4.85 9.26-.49 3.84-1.56 6.48-3.35 8.28-.27.27-.63.42-1.01.42-.37 0-.73-.15-1-.41-.55-.55-.56-1.45-.01-2 1.32-1.33 2.15-3.5 2.55-6.65 1.29-10.08 7.46-12.74 10.55-12.74h.24c2.02.07 2.8 1.22 2.85 2.17.15 2.49.26 10.19-1.14 12.97-.8 1.59-3.58 6.99-5.92 11.52-.23.47-.72.77-1.25.77z" class="st0 svg-elem-3"/>
    <path d="M52.12 66c-.25 0-.48-.06-.7-.19-.33-.19-.57-.49-.67-.86-.1-.36-.05-.75.13-1.07.77-1.35 1.63-2.84 2.54-4.42 3.71-6.41 8.78-15.18 9.55-18.28 1.05-4.21-2.33-18.49-5.55-29.44-.08-.28-.33-.47-.62-.49-.06 0-.13-.01-.21-.01-.39 0-.93.07-1.63.2-1.34.25-2.71 1.06-2.76 5.11-.01 1.13.1 2.44.36 4.1.1.64.22 1.28.34 1.93.07.37-.01.75-.23 1.06-.21.31-.54.52-.91.59-.09.02-.18.03-.27.03-.67 0-1.25-.49-1.38-1.16-.15-.78-.26-1.42-.35-2-.29-1.83-.42-3.29-.4-4.58.06-4.64 1.71-7.21 5.06-7.85.81-.15 1.54-.23 2.18-.23 1.87 0 2.97.64 3.36 1.97 2.22 7.49 7.21 25.55 5.74 31.47-.87 3.48-5.64 11.73-9.84 19.01-.91 1.57-1.77 3.06-2.53 4.4-.23.44-.71.71-1.21.71z" class="st0 svg-elem-4"/>
    <path d="M25.72 32.31c-.58 0-1.11-.37-1.32-.91-.9-2.35-.36-4.03.26-5.02 1.8-2.91 6.21-3.48 6.81-3.54 3.76-.14 6.6-1.34 8.7-3.66 4.39-4.87 4.16-13.37 3.98-15.86-.02-.21-.13-.41-.31-.53-.11-.08-.25-.11-.38-.11-.08 0-.15.01-.22.04-3.98 1.37-13.54 5.17-16.41 10.82-.95 1.87-1.08 3.77-.4 5.79.25.74-.15 1.54-.89 1.79-.15.05-.3.08-.46.08-.6 0-1.14-.39-1.34-.96-.93-2.74-.74-5.42.56-7.98C27.78 5.4 38.21 1.51 42.53.16c.34-.11.68-.16 1.03-.16.57 0 1.14.15 1.65.42 1.02.55 1.67 1.56 1.75 2.7.25 3.55.3 12.39-4.7 17.94-2.6 2.89-6.17 4.44-10.59 4.59h-.05c-.89.1-3.65.73-4.56 2.21-.26.43-.54 1.15-.02 2.52.28.73-.09 1.55-.82 1.82-.16.08-.33.11-.5.11z" class="st1 svg-elem-5"/>
    <path d="M32.3 19.11c-.61 0-1.15-.39-1.34-.98-.12-.36-.09-.74.08-1.08.17-.34.46-.59.82-.7 3.69-1.2 4.7-2.18 5.43-5.23.15-.64.72-1.08 1.38-1.08.11 0 .22.01.33.04.76.18 1.23.95 1.04 1.71-1.08 4.49-3.22 5.92-7.31 7.25-.13.05-.28.07-.43.07z" class="st1 svg-elem-6"/>
</svg>