<svg xmlns="http://www.w3.org/2000/svg" xml:space="preserve" id="Layer_1" x="0" y="0" style="enable-background:new 0 0 43.98 43.99" version="1.1" viewBox="0 0 43.98 43.99">
    <style>.st0{fill:#333}.st1{fill:#43baff}</style>
    <path d="M.94 43.98c-.52 0-.94-.42-.94-.94V20.58c0-.52.42-.94.94-.94h9.83c.25 0 .46-.21.46-.46v-4.21c0-.52.42-.94.94-.94h8.42c.25 0 .46-.21.46-.46V.94c0-.52.42-.94.94-.94h12.63c.35 0 .67.19.83.5s.15.68-.05.97L33.11 4.9c-.1.15-.1.36 0 .51l2.29 3.43c.19.29.21.66.05.97-.16.31-.48.5-.83.5H23.39c-.25 0-.46.21-.46.46v2.81c0 .25.21.46.46.46h8.42c.52 0 .94.42.94.94v4.21c0 .25.21.46.46.46h9.83c.52 0 .94.42.94.94v22.46c0 .52-.42.94-.94.94H.93l.01-.01zm32.29-22.46c-.25 0-.46.21-.46.46v19.65c0 .25.21.46.46.46h8.42c.25 0 .46-.21.46-.46V21.98c0-.25-.21-.46-.46-.46h-8.42zm-5.62 14.96c.52 0 .94.42.94.94v4.21c0 .25.21.46.46.46h1.4c.25 0 .46-.21.46-.46V16.36c0-.25-.21-.46-.46-.46H13.56c-.25 0-.46.21-.46.46v25.27c0 .25.21.46.46.46h1.4c.25 0 .46-.21.46-.46v-4.21c0-.52.42-.94.94-.94s.94.42.94.94v4.21c0 .25.21.46.46.46h8.42c.25 0 .46-.21.46-.46v-4.21c0-.52.42-.94.94-.94h.03zM2.34 21.52c-.25 0-.46.21-.46.46v19.65c0 .25.21.46.46.46h8.42c.25 0 .46-.21.46-.46V21.98c0-.25-.21-.46-.46-.46H2.34zM23.4 1.87c-.25 0-.46.21-.46.46v5.62c0 .25.21.46.46.46h8.61c.17 0 .33-.09.41-.24.08-.15.07-.33-.02-.47l-1.35-2.03c-.21-.32-.21-.73 0-1.05l1.35-2.03c.09-.14.1-.32.02-.47-.08-.15-.24-.24-.41-.24l-8.61-.01z" class="st0 svg-elem-1"/>
    <path d="M39.45 24.94c.69 0 1.25.56 1.25 1.25s-.56 1.25-1.25 1.25-1.25-.56-1.25-1.25.56-1.25 1.25-1.25zM35.44 36.17c.69 0 1.25.56 1.25 1.25s-.56 1.25-1.25 1.25-1.25-.56-1.25-1.25.56-1.25 1.25-1.25z" class="st0 svg-elem-1"/>
    <path d="M4.55 24.94c.69 0 1.25.56 1.25 1.25s-.56 1.25-1.25 1.25-1.25-.56-1.25-1.25.56-1.25 1.25-1.25zM8.56 24.94c.69 0 1.25.56 1.25 1.25s-.56 1.25-1.25 1.25-1.25-.56-1.25-1.25.56-1.25 1.25-1.25zM4.55 36.17c.69 0 1.25.56 1.25 1.25s-.56 1.25-1.25 1.25-1.25-.56-1.25-1.25.56-1.25 1.25-1.25zM8.56 36.17c.69 0 1.25.56 1.25 1.25s-.56 1.25-1.25 1.25-1.25-.56-1.25-1.25.56-1.25 1.25-1.25zM35.44 30.55c.69 0 1.25.56 1.25 1.25s-.56 1.25-1.25 1.25-1.25-.56-1.25-1.25.56-1.25 1.25-1.25zM39.45 30.55c.69 0 1.25.56 1.25 1.25s-.56 1.25-1.25 1.25-1.25-.56-1.25-1.25.56-1.25 1.25-1.25z" class="st0 svg-elem-1"/>
    <path d="M8.56 30.55c.69 0 1.25.56 1.25 1.25s-.56 1.25-1.25 1.25-1.25-.56-1.25-1.25.56-1.25 1.25-1.25zM15.99 30.55c.69 0 1.25.56 1.25 1.25s-.56 1.25-1.25 1.25-1.25-.56-1.25-1.25.56-1.25 1.25-1.25zM20 30.55c.69 0 1.25.56 1.25 1.25s-.56 1.25-1.25 1.25-1.25-.56-1.25-1.25.56-1.25 1.25-1.25z" class="st0 svg-elem-1"/>
    <path d="M20 24.94c.69 0 1.25.56 1.25 1.25s-.56 1.25-1.25 1.25-1.25-.56-1.25-1.25.56-1.25 1.25-1.25zM24 24.94c.69 0 1.25.56 1.25 1.25s-.56 1.25-1.25 1.25-1.25-.56-1.25-1.25.56-1.25 1.25-1.25zM28.01 24.94c.69 0 1.25.56 1.25 1.25s-.56 1.25-1.25 1.25-1.25-.56-1.25-1.25.56-1.25 1.25-1.25zM15.99 19.32c.69 0 1.25.56 1.25 1.25s-.56 1.25-1.25 1.25-1.25-.56-1.25-1.25.56-1.25 1.25-1.25z" class="st0 svg-elem-1"/>
    <path d="M24 19.32c.69 0 1.25.56 1.25 1.25s-.56 1.25-1.25 1.25-1.25-.56-1.25-1.25.56-1.25 1.25-1.25zM28.01 19.32c.69 0 1.25.56 1.25 1.25s-.56 1.25-1.25 1.25-1.25-.56-1.25-1.25.56-1.25 1.25-1.25zM20 36.17c.69 0 1.25.56 1.25 1.25s-.56 1.25-1.25 1.25-1.25-.56-1.25-1.25.56-1.25 1.25-1.25zM24 36.17c.69 0 1.25.56 1.25 1.25s-.56 1.25-1.25 1.25-1.25-.56-1.25-1.25.56-1.25 1.25-1.25z" class="st0 svg-elem-1"/>
    <path d="M28.01 30.55c.69 0 1.25.56 1.25 1.25s-.56 1.25-1.25 1.25-1.25-.56-1.25-1.25.56-1.25 1.25-1.25z" class="st0 svg-elem-1"/>
    <path d="M35.44 24.94c.69 0 1.25.56 1.25 1.25s-.56 1.25-1.25 1.25-1.25-.56-1.25-1.25.56-1.25 1.25-1.25z" class="st1 svg-elem-2"/>
    <path d="M39.45 36.17c.69 0 1.25.56 1.25 1.25s-.56 1.25-1.25 1.25-1.25-.56-1.25-1.25.56-1.25 1.25-1.25z" class="st1 svg-elem-2"/>
    <path d="M4.55 30.55c.69 0 1.25.56 1.25 1.25s-.56 1.25-1.25 1.25-1.25-.56-1.25-1.25.56-1.25 1.25-1.25z" class="st1 svg-elem-2"/>
    <path d="M24 30.55c.69 0 1.25.56 1.25 1.25s-.56 1.25-1.25 1.25-1.25-.56-1.25-1.25.56-1.25 1.25-1.25z" class="st1 svg-elem-2"/>
    <path d="M15.99 24.94c.69 0 1.25.56 1.25 1.25s-.56 1.25-1.25 1.25-1.25-.56-1.25-1.25.56-1.25 1.25-1.25z" class="st1 svg-elem-2"/>
    <path d="M20 19.32c.69 0 1.25.56 1.25 1.25s-.56 1.25-1.25 1.25-1.25-.56-1.25-1.25.56-1.25 1.25-1.25z" class="st1 svg-elem-2"/>
</svg>