<svg xmlns="http://www.w3.org/2000/svg" xml:space="preserve" style="enable-background:new 0 0 19.88 24" viewBox="0 0 19.88 24">
    <path d="M.67 19.88c-.37 0-.67-.3-.67-.67V2.04C0 .92.92 0 2.04 0h17.17c.37 0 .67.3.67.67v17.51c0 .37-.3.67-.67.67-.37 0-.37-.6-.37-.97L18.78 1.7c0-.2-.16-.36-.36-.36L1.89 1.21c-.39 0-.7.31-.7.7l-.12 17.3c0 .37-.03.67-.4.67z" class="st0 svg-elem-1"/>
    <path d="M6.85 7.42c-.37 0-.67-.25-.67-.57 0-.31.3-.57.67-.57h6.18c.37 0 .67.25.67.57 0 .31-.3.57-.67.57H6.85z" class="st0 svg-elem-1"/>
    <path d="M6.85 11.54c-.37 0-.67-.25-.67-.57 0-.31.3-.57.67-.57h6.18c.37 0 .67.25.67.57 0 .31-.3.57-.67.57H6.85z" class="st0 svg-elem-2"/>
    <path d="M13.03 21.94c-.37 0-.67-.3-.67-.67 0-.37.3-.43.67-.43h5.15c.2 0 .36-.16.36-.36L18.48 18c0-.2-.16-.36-.36-.36H2.67c-.77 0-1.33.8-1.33 1.57s.69 1.58 1.46 1.58h2.06c.37 0 .6.11.6.48s-.3.67-.67.67H2.73c-1.5 0-2.73-1.23-2.73-2.73s1.23-2.73 2.73-2.73h16.48c.37 0 .67.3.67.67v4.12c0 .37-.3.67-.67.67h-6.18z" class="st0 svg-elem-2"/>
    <path d="M6.21 24c-.09 0-.18-.02-.26-.05-.25-.1-.41-.35-.41-.62v-6.18c0-.37.3-.67.67-.67h4.12c.37 0 .67.3.67.67v6.18c0 .27-.16.52-.41.62-.09.03-.17.05-.26.05-.18 0-.35-.07-.47-.2l-1.33-1.33c-.07-.07-.16-.1-.25-.1s-.18.04-.25.1L6.68 23.8c-.12.13-.29.2-.47.2zm2.06-3.4c.18 0 .35.07.47.2l.3.3c.07.07.16.1.25.1.05 0 .09-.01.14-.03.13-.06.22-.19.22-.33v-2.66c0-.2-.16-.36-.36-.36H7.24c-.2 0-.36.16-.36.36v2.66c0 .15.09.28.22.33.04.02.09.03.14.03.09 0 .19-.04.25-.1l.3-.3c.13-.13.3-.2.48-.2z" class="st1 svg-elem-3"/>
</svg>