<?xml version="1.0" encoding="utf-8"?>
<!-- Generator: Adobe Illustrator 26.2.1, SVG Export Plug-In . SVG Version: 6.00 Build 0)  -->
<svg version="1.1" id="_x34_8x48" xmlns="http://www.w3.org/2000/svg" xmlns:xlink="http://www.w3.org/1999/xlink" x="0px" y="0px"
	 viewBox="0 0 43.2 47.2" style="enable-background:new 0 0 43.2 47.2;" xml:space="preserve">
<style type="text/css">
	.st0{fill:none;stroke:#333;stroke-width:2.2;stroke-linecap:round;stroke-linejoin:round;stroke-miterlimit:10;}
	.st1{fill:none;stroke:#129BE2;stroke-width:2;stroke-linecap:round;stroke-linejoin:round;stroke-miterlimit:10;}
	.st2{fill:none;stroke:#333;stroke-width:2;stroke-linecap:round;stroke-linejoin:round;stroke-miterlimit:10;}
</style>
<g>
	<path class="st0" d="M25.1,21.1v-18c0-1.1-0.9-2-2-2h-20c-1.1,0-2,0.9-2,2v35c0,1.1,0.9,2,2,2h11"/>
	<path class="st0" d="M22.14,25.88l1.74-0.99c0.55-0.31,1.6-0.45,2.23-0.12l1.74-0.99c0.82-0.46,2.17-0.22,2.73,0.75l1.74-0.99
		c0.82-0.46,2.17-0.22,2.73,0.75l5.13,9.06c1,1.76-0.14,3.81,0.52,4.98l1.4,2.75"/>
	<path class="st0" d="M24.11,29.36l-4.93-8.7c-0.54-0.96-1.76-1.3-2.73-0.75c-0.96,0.54-1.3,1.76-0.75,2.73l6.9,12.18
		c-0.28,0.92-1.32,1.36-2.17,0.91l-2.63-1.38c-2.48-1.13-4,1.15-3.52,2c0,0,6.13,4.67,6.85,5.05c1.15,0.61,6.68,2.6,7.1,3.34
		l0.88,1.36"/>
	<line class="st0" x1="26.11" y1="24.78" x2="28.08" y2="28.26"/>
	<line class="st0" x1="30.58" y1="24.55" x2="32.05" y2="27.16"/>
	<line class="st0" x1="11.6" y1="4.1" x2="14.6" y2="4.1"/>
	<rect x="5.1" y="8.1" class="st1" width="6" height="6"/>
	<rect x="15.1" y="8.1" class="st2" width="6" height="6"/>
	<rect x="5.1" y="18.1" class="st2" width="6" height="6"/>
	<rect x="5.1" y="28.1" class="st2" width="6" height="6"/>
</g>
</svg>
