<?xml version="1.0" encoding="utf-8"?>
<!-- Generator: Adobe Illustrator 26.2.1, SVG Export Plug-In . SVG Version: 6.00 Build 0)  -->
<svg version="1.1" id="Ñëîé_1" xmlns="http://www.w3.org/2000/svg" xmlns:xlink="http://www.w3.org/1999/xlink" x="0px" y="0px"
	 viewBox="0 0 1410.46 1410.46" style="enable-background:new 0 0 1410.46 1410.46;" xml:space="preserve">
<style type="text/css">
	.st0{fill:none;stroke:#129BE2;stroke-width:80;stroke-linecap:round;stroke-linejoin:round;stroke-miterlimit:10;}
	.st1{fill:none;stroke:#333333;stroke-width:80;stroke-linecap:round;stroke-linejoin:round;stroke-miterlimit:10;}
</style>
<g>
	<path class="st0" d="M722.58,456.55c0,0,229.66,15.58,168.2,248.67"/>
	<path class="st0" d="M722.58,283.12c0,0,416.55-29.39,345.16,422.11"/>
	<path class="st0" d="M722.58,128.56c0,0,580.33-41.09,500.92,612.37"/>
	<path class="st1" d="M1043.04,1370.46c80.94-4.82,152.3-28.54,220.91-61.32c30.94-14.78,51.04-40.54,63.29-72.4
		c13.04-33.92,26.18-67.81,39.02-101.81c9.62-25.48,1.71-48.83-13.8-68.19c-17.71-22.11-36.06-45.8-59.24-61.02
		c-59.45-39.05-120.15-76.88-183.35-109.34c-57.33-29.45-93.9-19.04-137.97,27.5c-20.6,21.75-40.11,44.55-61.09,65.9
		c-46.24,47.06-89.04,52.43-143.01,13.5c-68.79-49.62-137.92-99.47-192.62-165.55c-57.74-69.76-116.03-139.16-171-211.08
		c-14.61-19.12-20.14-46.42-25.28-70.92c-2.07-9.86,5.45-24.76,13.18-33.15c41.08-44.58,83.47-87.96,125.73-131.44
		c13.55-13.94,17.68-30.53,10.01-47.2c-19.01-41.28-37.35-83.24-60.78-122.01c-29.09-48.15-62.42-93.8-95.07-139.71
		c-28.72-40.39-60.31-49.79-110.69-36.7C95.41,88.59,29.18,229.62,41.42,367.06c15.2,170.57,79.85,325.06,180.78,462.87
		c105.63,144.23,227.86,272.43,379.91,369.4c115.68,73.77,238.2,132.05,372.84,161.97
		C998.48,1366.53,1022.87,1367.84,1043.04,1370.46z"/>
</g>
</svg>
