<svg xmlns="http://www.w3.org/2000/svg" xml:space="preserve" style="enable-background:new 0 0 244.3 244.3" viewBox="0 0 244.3 244.3">
    <path d="M122.15 0C54.8 0 0 54.8 0 122.15 0 189.5 54.8 244.3 122.15 244.3c67.35 0 122.15-54.8 122.15-122.15C244.3 54.8 189.5 0 122.15 0zm0 227.13c-57.89 0-104.99-47.1-104.99-104.99S64.26 17.16 122.15 17.16c57.89 0 104.99 47.1 104.99 104.99s-47.1 104.98-104.99 104.98z"/>
    <ellipse cx="166.17" cy="79.43" rx="16.93" ry="22.43"/>
    <ellipse cx="84.96" cy="79.43" rx="16.93" ry="22.43"/>
    <path d="m174.34 149.21-104.42.16c-2.83.01-5.48 1.11-7.48 3.11-1.99 2-3.09 4.66-3.09 7.48.01 5.82 4.75 10.56 10.58 10.56h.02l104.42-.16c5.83-.01 10.57-4.76 10.56-10.6 0-5.81-4.75-10.55-10.59-10.55z"/>
</svg>