<svg xmlns="http://www.w3.org/2000/svg" xml:space="preserve" style="enable-background:new 0 0 244.3 244.3" viewBox="0 0 244.3 244.3">
    <path d="M122.15 0C54.8 0 0 54.8 0 122.15 0 189.5 54.8 244.3 122.15 244.3S244.3 189.5 244.3 122.15C244.3 54.8 189.5 0 122.15 0zm0 17.16c57.89 0 104.99 47.1 104.99 104.99 0 57.89-47.1 104.99-104.99 104.99S17.16 180.04 17.16 122.15c0-57.89 47.1-104.99 104.99-104.99z"/>
    <path d="M183.74 137.6c-1.26-2.31-3.34-4-5.86-4.75-5.21-1.54-10.71 1.44-12.25 6.65-4.89 16.53-22.78 28.07-43.5 28.07-20.66 0-38.54-11.51-43.47-27.98-1.56-5.2-7.06-8.17-12.27-6.62-5.2 1.56-8.17 7.06-6.62 12.27 7.41 24.75 33.05 42.04 62.36 42.04 29.39 0 55.05-17.35 62.4-42.19.75-2.51.47-5.18-.79-7.49z"/>
    <ellipse cx="162.75" cy="79.43" rx="16.93" ry="22.43"/>
    <ellipse cx="81.55" cy="79.43" rx="16.93" ry="22.43"/>
</svg>