<svg xmlns="http://www.w3.org/2000/svg" xml:space="preserve" style="enable-background:new 0 0 244.3 244.3" viewBox="0 0 244.3 244.3">
    <path d="M122.15 0C54.8 0 0 54.8 0 122.15 0 189.5 54.8 244.3 122.15 244.3c67.35 0 122.15-54.8 122.15-122.15C244.3 54.8 189.5 0 122.15 0zm0 17.16c57.89 0 104.99 47.1 104.99 104.99s-47.1 104.99-104.99 104.99c-57.89 0-104.99-47.1-104.99-104.99S64.26 17.16 122.15 17.16z"/>
    <ellipse cx="162.75" cy="79.43" rx="16.93" ry="22.43"/>
    <path d="M64.62 79.43c0 12.39 7.58 22.43 16.93 22.43s16.93-10.04 16.93-22.43S90.9 57 81.55 57 64.62 67.04 64.62 79.43zM184.52 174.49c-7.41-24.75-33.05-42.04-62.35-42.04-29.39 0-55.05 17.35-62.4 42.19-.75 2.52-.47 5.19.79 7.5 1.26 2.31 3.34 4 5.86 4.74.91.27 1.86.41 2.8.41 4.33 0 8.22-2.9 9.45-7.06 4.89-16.53 22.78-28.07 43.5-28.07 20.66 0 38.54 11.51 43.47 27.98.75 2.52 2.45 4.6 4.76 5.85 2.32 1.25 4.98 1.52 7.5.77 5.21-1.56 8.18-7.07 6.62-12.27z"/>
</svg>