<?xml version="1.0" encoding="utf-8"?>
<!-- Generator: Adobe Illustrator 26.2.1, SVG Export Plug-In . SVG Version: 6.00 Build 0)  -->
<svg version="1.1" id="Layer_1" xmlns="http://www.w3.org/2000/svg" xmlns:xlink="http://www.w3.org/1999/xlink" x="0px" y="0px"
	 viewBox="0 0 976.69 796.51" style="enable-background:new 0 0 976.69 796.51;" xml:space="preserve">
<style type="text/css">
	.st0{clip-path:url(#SVGID_00000064345764211309202070000018146339920277958289_);fill:#333333;}
	.st1{clip-path:url(#SVGID_00000064345764211309202070000018146339920277958289_);fill:#129BE2;}
</style>
<g>
	<defs>
		<rect id="SVGID_1_" x="491.29" y="323.23" width="485.4" height="473.28"/>
	</defs>
	<clipPath id="SVGID_00000007421424923899012040000013023378793814433157_">
		<use xlink:href="#SVGID_1_"  style="overflow:visible;"/>
	</clipPath>
	<path style="clip-path:url(#SVGID_00000007421424923899012040000013023378793814433157_);" d="M617.53,796.51
		c-13.3,0-24.13-10.68-24.13-23.81v-60.13c-57.19-5.07-102.11-51.19-102.11-107.15V435.23c0-61.76,52.59-112,117.22-112h250.96
		c64.64,0,117.22,50.24,117.22,112v165.81c0,61.76-52.58,112-117.22,112H731.89l-99.4,78.28
		C628.19,794.68,622.9,796.51,617.53,796.51 M608.51,360.53c-44.07,0-79.92,33.51-79.92,74.7v170.19
		c0,38.77,33.78,70.32,75.29,70.32c14.79,0,26.82,11.84,26.82,26.39v43.13l79.59-62.69c5.56-4.39,12.61-6.83,19.83-6.83h129.35
		c44.07,0,79.92-33.51,79.92-74.7V435.23c0-41.19-35.85-74.7-79.92-74.7H608.51z M733.41,711.84l-0.02,0.02
		C733.4,711.85,733.4,711.85,733.41,711.84" class="st0" />
	<path style="clip-path:url(#SVGID_00000007421424923899012040000013023378793814433157_);fill:#129BE2;" d="M842.62,502.62H625.37
		c-10.3,0-18.65-8.35-18.65-18.65c0-10.3,8.35-18.65,18.65-18.65h217.25c10.3,0,18.65,8.35,18.65,18.65
		C861.27,494.27,852.92,502.62,842.62,502.62" class="st1" />
	<path style="clip-path:url(#SVGID_00000007421424923899012040000013023378793814433157_);fill:#129BE2;" d="M842.62,579.6H625.37
		c-10.3,0-18.65-8.35-18.65-18.65c0-10.3,8.35-18.65,18.65-18.65h217.25c10.3,0,18.65,8.35,18.65,18.65
		C861.27,571.25,852.92,579.6,842.62,579.6" class="st1" />
</g>
<g>
	<g>
		<g>
			<path d="M362.88,465c-5.35,0-10.62-1.8-14.85-5.08l-100.57-76.84H118.3C53.07,383.09,0,333.64,0,272.86V110.23
				C0,49.45,53.07,0,118.3,0H372c65.23,0,118.29,49.45,118.29,110.23v166.93c0,55.14-45.43,100.58-103.23,105.49v58.64
				C387.06,454.37,376.21,465,362.88,465z M370.88,430.45c0.01,0.01,0.03,0.02,0.04,0.03C370.91,430.47,370.9,430.46,370.88,430.45z
				 M118.3,37.3c-44.66,0-80.99,32.71-80.99,72.92v162.64c0,40.21,36.33,72.92,80.99,72.92h130.76c7.13,0,14.14,2.37,19.74,6.66
				l80.97,61.86v-42.26c0-14.48,12.07-26.27,26.91-26.27c42.08,0,76.32-30.79,76.32-68.63V110.23c0-40.21-36.33-72.92-80.99-72.92
				H118.3z M246.11,382.06c0.01,0.01,0.01,0.01,0.02,0.02L246.11,382.06z" class="st0" />
		</g>
		<g>
			<g>
				<path d="M353.77,171.99H136.52c-10.3,0-18.65-8.35-18.65-18.65s8.35-18.65,18.65-18.65h217.25c10.3,0,18.65,8.35,18.65,18.65
					S364.07,171.99,353.77,171.99z" class="st0" />
			</g>
			<g>
				<path d="M353.77,248.97H136.52c-10.3,0-18.65-8.35-18.65-18.65c0-10.3,8.35-18.65,18.65-18.65h217.25
					c10.3,0,18.65,8.35,18.65,18.65C372.42,240.62,364.07,248.97,353.77,248.97z" class="st0" />
			</g>
		</g>
	</g>
</g>
</svg>
