<?xml version="1.0" encoding="utf-8"?>
<!-- Generator: Adobe Illustrator 26.5.3, SVG Export Plug-In . SVG Version: 6.00 Build 0)  -->
<svg version="1.1" id="Isolation_Mode" xmlns="http://www.w3.org/2000/svg" xmlns:xlink="http://www.w3.org/1999/xlink" x="0px"
	 y="0px" viewBox="0 0 1033.48 641.18" style="enable-background:new 0 0 1033.48 641.18;" xml:space="preserve">
<style type="text/css">
	.st0{fill:#FFDDE2;}
	.st1{fill:#BF8E7E;}
	.st2{fill:#FF8686;}
	.st3{fill:#96C5B9;}
	.st4{fill:#1A1A1A;}
</style>
<g>
	<path class="st0" d="M378.31,596.25c1.04-3.05,4.08-4.97,7.3-4.57l6.44,0.86c15.53,2.09,29.87-8.39,32.63-23.82
		c2.27-12.67-4.19-25.54-15.7-31.29l-18.69-9.35c-10.38-5.19-22.84-3.75-31.76,3.67L326.6,558.3v69.13
		C368.09,624.72,377.89,597.47,378.31,596.25z"/>
	<path class="st1" d="M392.13,249.43c-6,19.36-15.52,35.48-28.32,47.95c-3.84,3.74-8.09,7.12-12.64,10.13v43.06l74.64,23.31
		c3.11,0.97,6.11,2.16,9.06,3.44c18.67-35.29-16.44-58.99-18.01-60.02c-2.88-1.89-3.89-5.65-2.32-8.72
		c19.53-38.31-1.54-59.08-9.75-65.32C401.1,245.84,396.86,247.9,392.13,249.43z"/>
	<path class="st2" d="M608.66,627.67h177.82l1.75-80.01l-176.42-22.71l1.73-13.4l13.4,1.73l-6.58-106.38l13.49-0.83l6.75,108.97
		l153.67,19.79l20-7.88l-13.37-175.1l-36.88,33.51c-1.25,1.14-2.88,1.76-4.55,1.76c-0.31,0-0.62-0.02-0.93-0.06
		c-1.99-0.28-3.75-1.42-4.81-3.13l-36.92-59.37l-87.68,21.14c-34.66,8.36-60.24,37.81-63.66,73.3l-14.05,145.66
		c-1.55,16.1,3.79,32.21,14.67,44.19C576.96,620.8,592.48,627.67,608.66,627.67z"/>
	<path class="st0" d="M781.68,291.49c-3.13,0-6.27-0.14-9.41-0.42c-0.12-0.01-0.25-0.03-0.37-0.04
		c-14.6-2.14-28.42-7.37-40.29-14.98l-4.66,39.23l33.97,54.62l38.66-35.14l-0.09-1.22c-3.44-17.3-2.29-32.12,3.4-44.25
		C796,290.73,788.88,291.49,781.68,291.49z"/>
	<path class="st0" d="M773.68,277.62c16.04,1.42,31.96-1.45,45.5-8.01c3.47-2.57,7.12-4.67,10.79-6.4c0.66-0.47,1.32-0.93,1.96-1.42
		c13.16-10.09,23.59-24.3,31.01-42.22c0.93-2.24,2.99-3.82,5.4-4.12c5.98-0.75,11.05-2.55,15.07-5.33
		c6.97-4.83,10.63-13.51,8.52-20.2c-0.58-1.84-1.62-3.76-3.09-5.69c-2.63-3.47-6.25-6.33-10.46-8.26c-1.47-0.68-2.65-1.86-3.32-3.33
		c-10.69-23.41-26.16-57.21-31.04-67.74c-2.94-0.29-7.08-0.77-13.06-1.48c-10.01-1.17-23.33-2.76-36.65-4.36
		c-20.47-2.45-40.92-4.92-49.27-5.93l-42.89,58.69c-1.37,1.88-3.59,2.94-5.94,2.75l-1.38-0.1c-4.22,0.96-8.1,2.82-11.26,5.41
		c-1.88,1.53-3.34,3.15-4.34,4.81c-3.62,6.01-2.09,15.31,3.55,21.63c3.26,3.65,7.77,6.58,13.4,8.71c2.27,0.86,3.91,2.87,4.28,5.27
		c3.02,19.16,9.84,35.42,20.27,48.3C733.12,263.88,752.4,274.46,773.68,277.62z M814.14,170.57c0.67-5.63,5.78-9.66,11.41-8.99
		c5.64,0.67,9.66,5.78,8.99,11.41c-0.67,5.63-5.78,9.66-11.41,8.99C817.5,181.31,813.47,176.2,814.14,170.57z M772.54,176.4
		l18.4-14.5l8.36,10.62l-13.09,10.32l10.32,13.09l-10.62,8.36l-14.5-18.4C769.1,182.96,769.6,178.71,772.54,176.4z M779.84,225.67
		c8.14,0.96,16.15-1.29,22.58-6.36l8.36,10.62c-7.87,6.2-17.38,9.48-27.25,9.48c-1.76,0-3.52-0.11-5.29-0.31
		c-11.72-1.39-22.19-7.26-29.49-16.53l10.62-8.36C764.44,220.63,771.71,224.71,779.84,225.67z M738.98,161.65
		c0.67-5.63,5.78-9.66,11.41-8.99c5.64,0.67,9.66,5.78,8.99,11.41c-0.67,5.63-5.78,9.66-11.41,8.99
		C742.34,172.39,738.32,167.28,738.98,161.65z"/>
	<path class="st0" d="M298.58,323.8c-0.06,0-0.12,0-0.19,0c-0.06,0-0.12,0-0.19,0c-14.75-0.41-29.09-3.97-41.78-10.14v41.87
		c0,2.92-1.88,5.51-4.66,6.42l-10.25,3.35c13.28,10.69,34.37,17.27,56.87,17.27c22.18,0,42.96-6.37,56.27-16.77l-12.27-3.83
		c-2.82-0.88-4.74-3.5-4.74-6.45v-40.6C325.65,320.32,312.29,323.42,298.58,323.8z"/>
	<path class="st1" d="M314.01,114.84l0-0.06c0.08-0.01,8.43-0.88,26.46-13.84l7.89,10.98c-9.83,7.07-17.34,11.07-22.81,13.35
		c5.68,14.51,24.47,52.28,67.9,58.61c0.38,0.06,0.75,0.14,1.11,0.26c1.55,0.5,3.06,1.1,4.53,1.77v-7.79
		c0-58.92-45.17-106.86-100.69-106.86c-55.52,0-100.69,47.94-100.69,106.86v7.83c0.58-0.26,1.13-0.56,1.72-0.8
		C206.13,171.95,238.88,116.33,314.01,114.84z"/>
	<path class="st0" d="M873.85,567.41c0.3-9.51-3.52-18.69-10.49-25.17c-9.23-8.59-22.78-11.15-34.52-6.53l-27.07,10.66L800,627.67
		h40.02c17.9,0,32.36-14.01,32.93-31.9L873.85,567.41z"/>
	<path class="st2" d="M813.46,338.92l13.97,182.99c15.68-4.74,33.03-0.83,45.14,10.43c9.83,9.14,15.22,22.08,14.79,35.5l-0.9,28.36
		c-0.39,12.38-5.52,23.41-13.61,31.47h5.63h8.72c29.25,0,54.01-22.8,56.38-51.9c0.05-0.58,0.17-1.14,0.35-1.67l10.98-128.35
		c3.27-38.2-19.63-73.47-55.75-86.09l37.88,131.49l-12.99,3.74l-46.24-160.51L813.46,338.92z"/>
	<path class="st1" d="M716.28,72.35c9.09,8.38,24.77,6.88,24.93,6.87l0,0.03c0.5-0.05,1.01-0.08,1.52-0.02
		c39.77,4.81,99.61,12,105.73,12.58c4.34-0.2,5.93,3.31,7.63,6.99c0.91,1.95,2.19,4.74,3.73,8.09c3.07,6.68,7.15,15.59,11.23,24.5
		c6.45,14.09,12.89,28.18,15.3,33.46c0.45,0.24,0.86,0.53,1.3,0.79c5.94-26.43,15.25-86.87-16.18-112.66
		C829.75,18.74,746.11,31.7,745.26,31.84c-1.97,0.33-3.99-0.26-5.51-1.57c-1.51-1.32-2.36-3.23-2.32-5.24l0.17-8.56
		c-27.7,12.34-28.07,36.35-28.07,36.62c0,0.04-0.02,0.08-0.02,0.12h0.02C709.37,61.76,711.58,68.02,716.28,72.35z"/>
	<path class="st0" d="M826.3,281.15c-2.26,1.76-4.38,3.78-6.27,6.09c-7.69,9.37-10.44,22.22-8.2,38.25l67.51-4.76l46.09-58.49
		c3.96-5.02,4.07-12.13,0.27-17.28c-4.61-6.24-13.22-7.67-19.59-3.25l-37.3,25.87c-1.15,0.79-2.51,1.19-3.9,1.2c0,0,0,0-0.01,0
		c-0.34,0-14.41,0.08-28.04,6.12C833.52,277.22,829.98,279.3,826.3,281.15z"/>
	<path class="st1" d="M693.05,141.02c0.09-0.02,0.18-0.03,0.28-0.05l35.7-48.86c-6.92-1.09-15.22-3.71-21.83-9.76
		c-5.01-4.58-8.32-10.43-9.96-17.42c-11.84,11.17-15.3,30.82-15.94,46.72c-0.51,12.76,0.67,24.79,1.75,32.69
		C686.19,142.86,689.55,141.72,693.05,141.02z"/>
	<path class="st0" d="M182.3,518.85c-5.27,3.4-8.42,8.45-9.97,11.96l67.36,8c-4.29-6.48-13.27-15.2-31.91-21.41
		C197.62,514.01,189.05,514.5,182.3,518.85z"/>
	<path class="st1" d="M170.5,374.34l72.42-23.69v-44.97c-3.54-2.53-6.86-5.3-9.94-8.29c-12.81-12.48-22.32-28.6-28.32-47.95
		c-4.73-1.52-8.97-3.59-12.66-6.18c-8.21,6.24-29.28,27.01-9.75,65.32c1.57,3.08,0.56,6.85-2.34,8.73
		c-1.56,1.03-36.87,24.86-17.84,60.31C164.82,376.41,167.61,375.28,170.5,374.34z"/>
	<path class="st0" d="M211.71,237.39c2.36,0.59,4.22,2.39,4.88,4.73c5.26,18.67,13.94,34.01,25.82,45.58
		c14.09,13.72,34.49,21.95,55.99,22.59c21.5-0.64,41.9-8.87,55.99-22.59c11.88-11.57,20.57-26.91,25.82-45.58
		c0.66-2.34,2.52-4.14,4.88-4.73c5.84-1.45,10.67-3.83,14.33-7.07c6.35-5.61,8.96-14.67,6.07-21.06c-0.79-1.76-2.05-3.54-3.74-5.28
		c-2.91-3.01-6.65-5.36-10.85-6.81c-51.73-7.87-72.9-53.44-78.63-68.8c-74.64,2.56-101.45,64.19-101.72,64.82
		c-0.76,1.81-2.27,3.2-4.14,3.81c-4.41,1.43-8.34,3.84-11.36,6.97c-1.69,1.75-2.95,3.53-3.74,5.29c-2.89,6.39-0.27,15.45,6.08,21.06
		C201.04,233.56,205.86,235.94,211.71,237.39z M336.24,189.43c5.67,0,10.28,4.6,10.28,10.27c0,5.68-4.6,10.27-10.28,10.27
		c-5.67,0-10.27-4.6-10.27-10.27C325.96,194.03,330.56,189.43,336.24,189.43z M285.33,209.9l16.57-16.56l9.56,9.56l-11.79,11.79
		l11.79,11.79l-9.56,9.56l-16.57-16.56c-1.27-1.27-1.98-2.99-1.98-4.78C283.35,212.89,284.07,211.17,285.33,209.9z M320.07,248.99
		l9.56,9.56c-8.61,8.61-19.92,12.92-31.23,12.92c-11.31,0-22.62-4.31-31.23-12.92l9.56-9.56
		C288.67,260.94,308.12,260.94,320.07,248.99z M260.55,189.43c5.67,0,10.28,4.6,10.28,10.27c0,5.68-4.6,10.27-10.28,10.27
		c-5.67,0-10.27-4.6-10.27-10.27C250.28,194.03,254.88,189.43,260.55,189.43z"/>
	<path class="st3" d="M313.09,627.67v-66.53l-176.04-20.92l1.59-13.42l19.88,2.36c0.76-2.7,2.21-5.97,4.79-9.92
		c1.9-2.91,5.23-7.15,10.24-10.74l-5.65-71.77l13.47-1.06l5.27,66.93c6.85-1.56,15.26-1.41,25.42,1.98
		c30.62,10.21,40.45,27.38,43.54,36.12l62.16,7.38l32.13-26.72c13.05-10.85,31.27-12.95,46.45-5.37l12.32,6.16l6.77-86.48
		l13.47,1.06l-7.26,92.75c1.49,1.13,2.9,2.35,4.22,3.65l32.31-11.4l4.5,12.74l-28.54,10.07c4.01,8.05,5.52,17.34,3.87,26.56
		c-4.04,22.56-25.01,37.85-47.72,34.84l-1.44-0.19c-2.89,5.54-8.82,14.43-19.73,21.92h71.88c14.38,0,28.09-6.18,37.61-16.97
		c9.52-10.78,13.95-25.15,12.17-39.42l-14.99-119.9c-3.77-30.18-24.96-55.53-53.99-64.6l-52.18-16.3
		c-15.27,15.91-41.89,25.62-71.2,25.62c-29.49,0-56.36-9.86-71.57-25.98l-52.12,17.05c-27.4,8.97-47.49,32.18-52.44,60.57
		L101.15,568.9c-2.55,14.62,1.47,29.53,11.02,40.89c9.55,11.36,23.55,17.88,38.39,17.88H313.09z"/>
	<path class="st0" d="M167.79,530.26l1.89,0.23c-0.35-0.41-0.76-0.8-1.26-1.15L167.79,530.26z"/>
	<path class="st4" d="M298.39,271.46c11.31,0,22.62-4.31,31.23-12.92l-9.56-9.56c-11.95,11.95-31.4,11.95-43.35,0l-9.56,9.56
		C275.77,267.16,287.08,271.46,298.39,271.46z"/>
	<path class="st4" d="M301.9,236.02l9.56-9.56l-11.79-11.79l11.79-11.79l-9.56-9.56l-16.57,16.56c-1.27,1.27-1.98,2.99-1.98,4.78
		c0,1.79,0.71,3.51,1.98,4.78L301.9,236.02z"/>
	<path class="st4" d="M260.55,209.98c5.67,0,10.28-4.6,10.28-10.27c0-5.67-4.6-10.27-10.28-10.27c-5.67,0-10.27,4.6-10.27,10.27
		C250.28,205.38,254.88,209.98,260.55,209.98z"/>
	<path class="st4" d="M336.24,209.98c5.67,0,10.28-4.6,10.28-10.27c0-5.67-4.6-10.27-10.28-10.27c-5.67,0-10.27,4.6-10.27,10.27
		C325.96,205.38,330.56,209.98,336.24,209.98z"/>
	<path class="st4" d="M319.85,641.18h43.25h77.88h167.68h184.43h46.93h38.46h8.72h146.28v-13.52H928.36
		c15.54-11.35,26.38-28.91,28.53-49.06c0.19-0.54,0.31-1.1,0.37-1.7l11.12-130.01c3.82-44.68-23.18-85.94-65.66-100.32l-8.12-2.75
		l-4.35-15.11l45.79-58.11c7.72-9.79,7.94-23.64,0.54-33.67c-8.98-12.16-25.74-14.94-38.16-6.33l-35.63,24.72
		c-1.34,0.06-3.27,0.19-5.55,0.44c6.5-8.01,12.11-17.18,16.71-27.53c6.53-1.28,12.3-3.63,17.17-7.01
		c11.83-8.19,17.59-23.07,13.71-35.39c-1.05-3.33-2.81-6.62-5.22-9.79c-0.12-0.16-0.26-0.3-0.39-0.45
		c6.01-23.25,21.8-99.47-19.16-133.07c-38.83-31.86-105.85-27.66-128.95-25.08l0.21-10.55c0.04-2.15-0.94-4.2-2.65-5.5
		c-1.71-1.31-3.93-1.72-6.01-1.12c-33.35,9.77-44.52,34-46.35,48.55c-37.97,21.79-28.29,89.28-25.53,104.66
		c-1.19,1.36-2.24,2.77-3.12,4.22c-6.66,11.06-4.54,26.87,5.04,37.61c3.95,4.43,9.01,8.06,15.06,10.83
		c3.68,19.93,11.23,37.06,22.47,50.96c2.7,3.34,5.68,6.48,8.89,9.41l-5.32,44.84l-87.85,21.18c-40.26,9.71-69.97,43.92-73.95,85.14
		l-14.05,145.66c-1.92,19.89,4.69,39.78,18.12,54.57c3.31,3.65,6.98,6.91,10.92,9.76h-86.83c3.06-2.39,5.94-5.06,8.55-8.02
		c12.08-13.69,17.71-31.92,15.44-50.04l-14.99-119.9c-3.45-27.61-19.36-51.73-42.33-66.09c6.6-12.39,8.65-24.88,6.05-37.23
		c-3.83-18.14-16.74-30.94-23.87-36.82c18.6-41.74-3.58-66.67-14.77-75.93c6.12-9.15,7.72-20.69,3.54-29.95
		c-1.23-2.72-2.99-5.35-5.2-7.85v-17.72c0-66.37-51.23-120.37-114.21-120.37c-62.98,0-114.21,54-114.21,120.37v17.72
		c-2.21,2.5-3.97,5.12-5.2,7.85c-4.18,9.26-2.59,20.81,3.54,29.95c-11.18,9.26-33.36,34.19-14.77,75.93
		c-7.12,5.87-20.04,18.68-23.86,36.82c-2.63,12.46-0.53,25.08,6.22,37.58c-21.51,13.58-36.67,35.68-41.16,61.47L87.84,566.58
		c-3.23,18.56,1.87,37.48,13.99,51.91c2.88,3.42,6.08,6.48,9.53,9.18H0v13.52h150.57H319.85z M840.02,627.67H800l1.78-81.29
		l27.07-10.66c11.74-4.62,25.29-2.06,34.52,6.53c6.97,6.49,10.79,15.66,10.49,25.17l-0.9,28.35
		C872.38,613.66,857.91,627.67,840.02,627.67z M924.05,494.89l12.99-3.74l-37.88-131.49c36.12,12.62,59.01,47.89,55.75,86.09
		L943.93,574.1c-0.18,0.53-0.3,1.09-0.35,1.67c-2.37,29.1-27.13,51.9-56.38,51.9h-8.72h-5.63c8.08-8.06,13.21-19.1,13.61-31.47
		l0.9-28.36c0.42-13.41-4.97-26.35-14.79-35.5c-12.1-11.26-29.46-15.17-45.14-10.43l-13.97-182.99l64.35-4.54L924.05,494.89z
		 M864.91,268.78C864.91,268.78,864.91,268.78,864.91,268.78c1.39-0.01,2.76-0.41,3.91-1.2l37.3-25.87
		c6.37-4.42,14.98-2.99,19.59,3.25c3.8,5.15,3.69,12.26-0.27,17.28l-46.09,58.49l-67.51,4.76c-2.24-16.03,0.51-28.88,8.2-38.25
		c1.89-2.3,4.01-4.32,6.27-6.09c3.69-1.85,7.23-3.93,10.57-6.25C850.49,268.86,864.57,268.78,864.91,268.78z M709.54,53.09
		c0-0.26,0.37-24.27,28.07-36.62l-0.17,8.56c-0.04,2,0.81,3.92,2.32,5.24c1.52,1.31,3.54,1.9,5.51,1.57
		c0.84-0.13,84.49-13.1,126.22,21.14c31.43,25.78,22.12,86.22,16.18,112.66c-0.44-0.26-0.85-0.55-1.3-0.79
		c-2.41-5.28-8.85-19.37-15.3-33.46c-4.08-8.91-8.16-17.82-11.23-24.5c-1.54-3.35-2.83-6.14-3.73-8.09
		c-1.71-3.68-3.29-7.19-7.63-6.99c-6.12-0.58-65.96-7.77-105.73-12.58c-0.51-0.06-1.02-0.04-1.52,0.02l0-0.03
		c-0.16,0.01-15.84,1.51-24.93-6.87c-4.7-4.33-6.91-10.59-6.74-19.14h-0.02C709.52,53.17,709.54,53.13,709.54,53.09z M681.29,111.67
		c0.64-15.9,4.11-35.56,15.94-46.72c1.64,6.98,4.95,12.83,9.96,17.42c6.61,6.05,14.92,8.67,21.83,9.76l-35.7,48.86
		c-0.09,0.02-0.18,0.03-0.28,0.05c-3.5,0.69-6.86,1.83-10.01,3.33C681.96,136.45,680.78,124.43,681.29,111.67z M700.47,200.29
		c-0.38-2.4-2.01-4.41-4.28-5.27c-5.64-2.13-10.14-5.06-13.4-8.71c-5.64-6.32-7.17-15.62-3.55-21.63c1-1.66,2.46-3.28,4.34-4.81
		c3.16-2.58,7.04-4.44,11.26-5.41l1.38,0.1c2.35,0.18,4.57-0.87,5.94-2.75l42.89-58.69c8.36,1.01,28.8,3.48,49.27,5.93
		c13.31,1.6,26.63,3.19,36.65,4.36c5.98,0.7,10.13,1.19,13.06,1.48c4.88,10.53,20.34,44.33,31.04,67.74
		c0.67,1.47,1.85,2.65,3.32,3.33c4.21,1.94,7.82,4.8,10.46,8.26c1.47,1.93,2.51,3.85,3.09,5.69c2.11,6.69-1.55,15.38-8.52,20.2
		c-4.02,2.78-9.09,4.58-15.07,5.33c-2.41,0.3-4.47,1.88-5.4,4.12c-7.42,17.93-17.85,32.13-31.01,42.22
		c-0.64,0.49-1.3,0.95-1.96,1.42c-3.68,1.73-7.32,3.83-10.79,6.4c-13.54,6.55-29.47,9.43-45.5,8.01
		c-21.28-3.17-40.56-13.74-52.93-29.03C710.31,235.71,703.49,219.46,700.47,200.29z M799.49,333.52l0.09,1.22l-38.66,35.14
		l-33.97-54.62l4.66-39.23c11.87,7.61,25.69,12.84,40.29,14.98c0.12,0.02,0.25,0.03,0.37,0.04c3.15,0.29,6.29,0.42,9.41,0.42
		c7.2,0,14.32-0.76,21.21-2.22C797.2,301.41,796.05,316.23,799.49,333.52z M566.09,608.82c-10.88-11.98-16.22-28.08-14.67-44.19
		l14.05-145.66c3.42-35.48,29.01-64.94,63.66-73.3l87.68-21.14l36.92,59.37c1.06,1.7,2.82,2.85,4.81,3.13
		c0.31,0.04,0.62,0.06,0.93,0.06c1.67,0,3.29-0.62,4.55-1.76l36.88-33.51l13.37,175.1l-20,7.88l-153.67-19.79l-6.75-108.97
		l-13.49,0.83l6.58,106.38l-13.4-1.73l-1.73,13.4l176.42,22.71l-1.75,80.01H608.66C592.48,627.67,576.96,620.8,566.09,608.82z
		 M326.6,627.43V558.3l31.93-26.55c8.92-7.41,21.38-8.86,31.76-3.67l18.69,9.35c11.51,5.75,17.97,18.62,15.7,31.29
		c-2.76,15.43-17.1,25.91-32.63,23.82l-6.44-0.86c-3.22-0.4-6.27,1.52-7.3,4.57C377.89,597.47,368.09,624.72,326.6,627.43z
		 M414.54,308.57c-1.56,3.07-0.55,6.83,2.32,8.72c1.57,1.04,36.68,24.73,18.01,60.02c-2.95-1.28-5.95-2.46-9.06-3.44l-74.64-23.31
		v-43.06c4.55-3.01,8.8-6.39,12.64-10.13c12.81-12.48,22.32-28.6,28.32-47.95c4.73-1.52,8.97-3.59,12.66-6.18
		C413,249.49,434.07,270.26,414.54,308.57z M342.39,361.99l12.27,3.83c-13.31,10.4-34.09,16.77-56.27,16.77
		c-22.5,0-43.59-6.59-56.87-17.27l10.25-3.35c2.78-0.91,4.66-3.5,4.66-6.42v-41.87c12.69,6.16,27.02,9.73,41.78,10.14
		c0.06,0,0.12,0,0.19,0c0.06,0,0.12,0,0.19,0c13.71-0.38,27.07-3.48,39.07-8.86v40.6C337.65,358.5,339.57,361.11,342.39,361.99z
		 M197.7,178.13c0-58.92,45.17-106.86,100.69-106.86c55.52,0,100.69,47.94,100.69,106.86v7.79c-1.47-0.67-2.98-1.27-4.53-1.77
		c-0.36-0.12-0.73-0.2-1.11-0.26c-43.44-6.33-62.22-44.11-67.9-58.61c5.47-2.28,12.98-6.28,22.81-13.35l-7.89-10.98
		c-18.03,12.96-26.37,13.83-26.46,13.84l0,0.06c-75.13,1.49-107.88,57.11-114.59,70.32c-0.59,0.24-1.15,0.54-1.72,0.8V178.13z
		 M191.3,209.26c0.79-1.76,2.05-3.54,3.74-5.29c3.02-3.13,6.95-5.54,11.36-6.97c1.87-0.61,3.38-2,4.14-3.81
		c0.27-0.64,27.08-62.27,101.72-64.82c5.73,15.36,26.9,60.93,78.63,68.8c4.2,1.45,7.95,3.79,10.85,6.81
		c1.69,1.74,2.94,3.52,3.74,5.28c2.89,6.4,0.27,15.45-6.07,21.06c-3.66,3.24-8.49,5.62-14.33,7.07c-2.36,0.59-4.22,2.39-4.88,4.73
		c-5.26,18.67-13.94,34.01-25.82,45.58c-14.09,13.72-34.49,21.95-55.99,22.59c-21.5-0.64-41.9-8.87-55.99-22.59
		c-11.88-11.57-20.57-26.91-25.82-45.58c-0.66-2.34-2.52-4.14-4.88-4.73c-5.84-1.45-10.67-3.83-14.33-7.07
		C191.03,224.7,188.42,215.65,191.3,209.26z M179.91,317.31c2.9-1.89,3.9-5.65,2.34-8.73c-19.53-38.31,1.54-59.08,9.75-65.32
		c3.69,2.59,7.93,4.65,12.66,6.18c6,19.36,15.52,35.48,28.32,47.95c3.07,2.99,6.4,5.76,9.94,8.29v44.97l-72.42,23.69
		c-2.89,0.94-5.68,2.07-8.43,3.28C143.04,342.16,178.35,318.33,179.91,317.31z M112.18,609.79c-9.55-11.36-13.57-26.27-11.02-40.89
		l21.11-121.14c4.95-28.4,25.04-51.61,52.44-60.57l52.12-17.05c15.22,16.12,42.08,25.98,71.57,25.98c29.31,0,55.93-9.71,71.2-25.62
		l52.18,16.3c29.03,9.07,50.22,34.42,53.99,64.6l14.99,119.9c1.78,14.27-2.65,28.64-12.17,39.42
		c-9.52,10.78-23.22,16.97-37.61,16.97H369.1c10.91-7.49,16.84-16.38,19.73-21.92l1.44,0.19c22.71,3.02,43.68-12.27,47.72-34.84
		c1.65-9.22,0.14-18.51-3.87-26.56l28.54-10.07l-4.5-12.74l-32.31,11.4c-1.32-1.3-2.73-2.52-4.22-3.65l7.26-92.75l-13.47-1.06
		l-6.77,86.48l-12.32-6.16c-15.18-7.58-33.4-5.48-46.45,5.37l-32.13,26.72l-62.16-7.38c-3.1-8.75-12.92-25.92-43.54-36.12
		c-10.16-3.39-18.57-3.54-25.42-1.98l-5.27-66.93l-13.47,1.06l5.65,71.77c-5,3.59-8.33,7.83-10.24,10.74
		c-2.58,3.96-4.03,7.23-4.79,9.92l-19.88-2.36l-1.59,13.42l176.04,20.92v66.53H150.57C135.73,627.67,121.73,621.15,112.18,609.79z
		 M239.7,538.81l-67.36-8c1.54-3.51,4.69-8.56,9.97-11.96c6.75-4.35,15.32-4.84,25.48-1.45C226.43,523.61,235.4,532.33,239.7,538.81
		z M169.68,530.49l-1.89-0.23l0.63-0.92C168.93,529.69,169.34,530.08,169.68,530.49z"/>
	<path class="st4" d="M748.76,222.56c7.3,9.27,17.77,15.14,29.49,16.53c1.77,0.21,3.53,0.31,5.29,0.31c9.86,0,19.38-3.28,27.25-9.48
		l-8.36-10.62c-6.43,5.07-14.44,7.33-22.58,6.36c-8.13-0.96-15.4-5.04-20.46-11.47L748.76,222.56z"/>
	<path class="st4" d="M785.91,204.29l10.62-8.36l-10.32-13.09l13.09-10.32l-8.36-10.62l-18.4,14.5c-2.93,2.31-3.44,6.56-1.13,9.49
		L785.91,204.29z"/>
	<path class="st4" d="M747.98,173.06c5.64,0.67,10.75-3.36,11.41-8.99c0.67-5.64-3.36-10.74-8.99-11.41
		c-5.64-0.67-10.74,3.36-11.41,8.99C738.32,167.28,742.34,172.39,747.98,173.06z"/>
	<path class="st4" d="M823.14,181.98c5.63,0.67,10.74-3.36,11.41-8.99c0.67-5.63-3.36-10.74-8.99-11.41
		c-5.64-0.67-10.75,3.36-11.41,8.99C813.47,176.2,817.5,181.31,823.14,181.98z"/>
</g>
</svg>
