<?xml version="1.0" encoding="utf-8"?>
<!-- Generator: Adobe Illustrator 26.2.1, SVG Export Plug-In . SVG Version: 6.00 Build 0)  -->
<svg version="1.1" id="Isolation_Mode" xmlns="http://www.w3.org/2000/svg" xmlns:xlink="http://www.w3.org/1999/xlink" x="0px"
	 y="0px" viewBox="0 0 311.7 323.44" style="enable-background:new 0 0 311.7 323.44;" xml:space="preserve">
<style type="text/css">
	.st0{fill:#999999;}
	.st1{fill:#222222;}
	.st2{fill:#2EB34A;}
</style>
<g>
	<g>
		<path class="st0" d="M210.08,319.44c-1.32-0.03-2.54-0.7-3.26-1.8l-3.7-5.62c-5.75-3.36-11.65-5.06-17.55-5.06
			c-7.91,0-13.67,3.04-15.78,4.34c-0.64,0.4-1.37,0.6-2.1,0.6c-0.57,0-1.15-0.12-1.68-0.37l-4.41-2.04l-8.52,2.79
			c-0.03,0.03-0.06,0.07-0.08,0.1c-0.77,0.88-1.87,1.37-3.01,1.37c-0.24,0-0.49-0.02-0.73-0.07l-14.28-2.65
			c-0.91-0.17-1.73-0.65-2.32-1.35l-13.52-15.99c-0.48-0.57-0.78-1.25-0.9-1.96c-0.78-0.13-1.51-0.49-2.1-1.06l-3.74-3.59
			l-1.34-0.55c-1.2-0.49-2.09-1.52-2.39-2.78c-0.3-1.26,0.03-2.58,0.87-3.56l2.42-2.78l0.99-2.49l-1.06-6.93
			c-0.09-0.59-0.05-1.18,0.12-1.73l-5.25,5.1c-0.76,0.74-1.77,1.13-2.79,1.13c-0.62,0-1.25-0.15-1.84-0.45
			c-1.58-0.81-6.7-4.56-9.61-19.42l-15.11-2.79c-2.06-0.38-3.48-2.29-3.25-4.37l0.96-8.64l-2.27-8.66
			c-0.32-1.23-0.04-2.55,0.77-3.54c0.76-0.94,1.9-1.48,3.1-1.48c0.07,0,0.13,0,0.2,0l35.24,1.76l-0.1-0.12l-12.48-4.33
			c-1.21-0.42-2.15-1.4-2.52-2.63s-0.12-2.56,0.66-3.58l3.9-5.08l-0.84-0.93l-2,0.28c-0.18,0.02-0.37,0.04-0.55,0.04
			c-1.53,0-2.94-0.88-3.61-2.28l-4.23-8.89l-5.84-3.76c-1.06-0.68-1.73-1.82-1.83-3.07c-0.09-1.25,0.41-2.48,1.36-3.31l6.65-5.79
			c0.07-0.59,0.27-1.17,0.62-1.7c0.73-1.13,1.97-1.79,3.27-1.82l7.06-3.27c0.54-0.25,1.11-0.37,1.68-0.37c1.12,0,2.22,0.47,3,1.36
			l6.82,7.74l13.17-4.97c0.46-0.17,0.94-0.26,1.41-0.26c0.73,0,1.45,0.2,2.09,0.59l10.67,6.54l19.64-19.18l-2.29-5.25
			c-0.83-1.9-0.07-4.12,1.75-5.11l2.77-1.52l-1.11-6.78l-8.35,2.85c-0.42,0.14-0.86,0.21-1.29,0.21c-0.76,0-1.52-0.22-2.17-0.64
			c-1.03-0.67-1.7-1.77-1.81-2.98L145,118.6h-7.27l-0.55,1.1c-0.54,1.08-1.55,1.86-2.73,2.11c-0.28,0.06-0.56,0.09-0.84,0.09
			c-0.91,0-1.8-0.31-2.51-0.89l-4.83-3.91l-4.5,11.35c-0.47,1.18-1.48,2.07-2.71,2.4c-0.33,0.09-0.67,0.13-1.01,0.13
			c-0.91,0-1.8-0.31-2.52-0.9l-0.64-0.52l-9.15,2.52l1.68,11.19c0.14,0.96-0.07,1.94-0.59,2.75l-1.68,2.62
			c-0.76,1.18-2.04,1.84-3.37,1.84c-0.58,0-1.17-0.13-1.72-0.39l-12.1-5.76l-0.57,0.14v4.9c0,1.52-0.86,2.9-2.22,3.58l-3.83,1.91
			c-0.57,0.28-1.18,0.42-1.78,0.42c-1.16,0-2.3-0.51-3.08-1.45l-7.59-9.18l-13.98,1.41c-0.42,1.54-1.74,2.75-3.42,2.94l-9.75,1.08
			c-0.15,0.02-0.29,0.02-0.44,0.02c-0.98,0-1.93-0.36-2.67-1.02c-0.67-0.6-1.12-1.41-1.27-2.28l-10.6-12.75
			c-1.05-1.26-1.22-3.03-0.44-4.47l1.19-2.19c0,0-3.99,0.1-4.02,0.1c-0.77,0-1.53-0.22-2.18-0.65l-6.36-4.13
			c-1.85-1.2-2.38-3.67-1.18-5.52l6.76-10.48c0.75-1.17,2.03-1.83,3.36-1.83c0.45,0,0.91,0.08,1.35,0.23l14.55,5.21l13.6-6.95
			l1.03-1.77l-2.34-2.7c-0.92-1.06-1.21-2.52-0.78-3.86l4.54-13.9l-0.15-12.85l-1.85-2.93c-0.45-0.7-0.66-1.53-0.61-2.36l0.4-7.09
			c0.02-0.3,0.07-0.6,0.15-0.89l0.73-2.52c0.38-1.32,1.42-2.35,2.74-2.73c0.36-0.1,0.74-0.16,1.1-0.16c0.97,0,1.92,0.35,2.66,1.02
			l5.83,5.21l8.27-6.27l4.28-13.17c0.36-1.12,1.2-2.02,2.29-2.47l11.29-4.61l-0.1-3.18c-0.05-1.55,0.81-3,2.2-3.69l25.58-12.87
			c0.28-0.14,0.57-0.24,0.87-0.32l21.6-5.17c0.31-0.07,0.62-0.11,0.93-0.11c0.97,0,1.93,0.36,2.67,1.02l9.25,8.3
			c1.85,0.35,7.86,1.4,13.73,1.4c4.71,0,7.31-0.68,8.66-1.25c0.5-0.21,1.02-0.31,1.55-0.31c0.66,0,1.32,0.16,1.91,0.48l9.65,5.24
			c1.53,0.83,2.35,2.56,2.02,4.27l-1.4,7.3l6.49,4.26c0.17,0.03,0.46,0.06,0.87,0.06c0.71,0,1.9-0.12,3.48-0.67
			c0.43-0.15,0.87-0.22,1.31-0.22c0.93,0,1.85,0.33,2.58,0.95c1.08,0.91,1.6,2.33,1.36,3.73c-0.19,1.11-0.06,1.69,0,1.88
			c0.08,0.24,0.2,0.37,0.24,0.4c0.13,0.06,0.22,0.11,0.34,0.19l8.61,5.32l15.96-2.02c0.28-0.04,0.66-0.09,1.12-0.09
			c1.34,0,2.56,0.38,3.54,1.11c1.1,0.84,2.39,2.46,2.53,5.62c0,0.11,0,0.21,0,0.32c-0.1,2.9,0.38,12.01,3.76,16.17
			c0.7,0.65,4.77,4.29,12.66,8.57l7.63,3.5c1.49,0.68,2.41,2.2,2.33,3.83l-0.29,5.91c-0.04,0.86-0.36,1.69-0.91,2.35
			c-1.65,2-7.27,9.42-10.18,21.09c-0.05,0.22-0.13,0.43-0.21,0.63c-0.11,0.27-2.91,7.26,2.69,16.4c0.04,0.06,0.07,0.12,0.11,0.19
			l3.5,6.47c0.55,1.01,0.63,2.2,0.24,3.28c-0.39,1.08-1.23,1.93-2.3,2.35l-3.92,1.53c0.24,1.79,1.79,5.87,10.52,9.45
			c1.17,0.26,5.12,1.1,8.18,1.1c0.41,0,0.78-0.02,1.11-0.05c0.13-0.01,0.26-0.02,0.38-0.02c1.01,0,1.99,0.38,2.73,1.08
			c1.57,1.46,7.11,6.37,13.42,8.84c0,0,5.97-0.21,6.01-0.21c1.02,0,1.99,0.39,2.74,1.08c1.24,1.17,5.4,5.32,6.79,9.9
			c0.63,2.07-0.5,4.26-2.55,4.95l-5.39,1.81l0.13,7.96l5.28,6.7c0.98,1.25,1.13,2.96,0.39,4.36c-2.8,5.25-7.66,13.82-11.13,16.98
			l-0.16,0.28l2.31,25.19c0.08,0.83-0.11,1.66-0.53,2.38l-5.27,9.01c-0.09,0.15-0.19,0.3-0.29,0.44l-9.4,12.09l-1.86,5.8
			c-0.33,1.03-1.06,1.88-2.02,2.36l-7.4,3.7l-13.25,11.37c-0.73,0.62-1.65,0.96-2.61,0.96c-0.09,0-0.18,0-0.27-0.01l-8.19-0.56
			l-13.8,8.01c-0.68,0.43-2.15,1.46-2.17,2.43c-0.01,0.73,0.75,1.47,0.99,1.68c0.67,0.6,1.12,1.42,1.27,2.3
			c0.15,0.74,0.09,1.52-0.19,2.25c-0.39,1.02-1.18,1.83-2.19,2.25c-0.6,0.25-1.3,0.38-2.06,0.38c0,0-9.1,1.45-9.1,1.45l-4.66,6.51
			c-0.75,1.05-1.96,1.67-3.25,1.67C210.13,319.44,210.11,319.44,210.08,319.44z"/>
		<path class="st1" d="M144.05,8l9.65,8.66l0.96,0.48c1.18,0.24,8.14,1.58,15.04,1.58c3.72,0,7.43-0.39,10.21-1.56l9.65,5.24
			l-1.65,8.59l0.89,2.1l7.85,5.16l0.45,0.22c0.19,0.07,0.99,0.32,2.35,0.32c1.19,0,2.81-0.2,4.79-0.89
			c-0.22,1.27-0.25,2.61,0.14,3.79c0.42,1.28,1.27,2.27,2.28,2.76l9.2,5.69l1.34,0.29l16.73-2.11c0,0,0.23-0.05,0.53-0.05
			c0.35,0,0.81,0.06,1.17,0.32c0.69,0.53,0.87,1.76,0.91,2.58c-0.02,0.52-0.35,12.98,4.83,19.05c0.18,0.18,4.52,4.4,13.8,9.42
			l7.76,3.56l-0.29,5.91c-1.79,2.16-7.86,10.17-10.98,22.67c-0.16,0.37-3.79,9.1,2.95,20.09l3.5,6.47l-5.13,2.01l-1.25,1.43
			c-0.08,0.37-1.96,9,13.23,15.09c0.66,0.16,5.53,1.27,9.39,1.27c0.52,0,1.02-0.02,1.49-0.07c2.07,1.93,8.07,7.16,15.1,9.8
			l0.79,0.13l6.28-0.22c1.73,1.62,4.73,4.96,5.7,8.14l-6.73,2.26l-1.4,1.98l0.17,10.05l0.45,1.23l5.68,7.21
			c-3.92,7.35-8.95,15.37-10.73,16.26l-1.12,2.02l2.42,26.42l-5.27,9.01L277.33,265l-2.07,6.47l-7.84,3.92l-13.62,11.69l-8.79-0.6
			l-1.17,0.27l-14.37,8.34c-2.68,1.66-4.07,3.6-4.11,5.78c-0.05,2.25,1.39,3.9,2.32,4.74c0.01,0.07,0.02,0.11,0.02,0.12
			c-0.11,0.05-0.33,0.07-0.52,0.07c-0.09,0-0.17,0-0.24-0.01l-10.33,1.64l-1.32,0.83l-5.13,7.17l-3.97-6.03l-0.65-0.61
			c-7.35-4.39-14.17-5.84-19.97-5.84c-8.9,0-15.42,3.42-17.88,4.94l-5.11-2.37l-1.5-0.09l-11.3,3.7l0.2,0.6l-14.28-2.65
			l-13.52-15.99l9.01-1.11l2.26-6.33l-14.55,4.13l-4.3-4.13l-2.06-0.83l2.87-3.3l1.64-4.13l-1.23-8l6.96-6.62l-6.34-4.41
			l-12.5,12.13c0,0-5.33-2.75-7.99-19.3l-17.84-3.29l1.04-9.38l-2.45-9.38l44.44,2.21l-6.76-7.99l-13.52-4.69l5.93-7.73l-4.5-4.96
			l-4.09,0.56l-4.72-9.92l-6.8-4.37l8.67-7.56l-0.68-0.78l0.48,0.15l8.17-3.79l7.71,8.75l2.26,0.57l14.44-5.45l11.96,7.33l2.51-0.28
			l21.7-21.19l0.44-2.28l-2.83-6.48l3.99-2.18l1.04-2.13l-1.71-10.43l-2.68-1.6l-10.54,3.6l-2.82-30.04l-2.03-1.86h-10.26
			l-1.83,1.13l-1.09,2.16l-6.9-5.57l-3.19,0.84l-5.48,13.81l-1.42-1.15l-1.83-0.39l-11.79,3.25l-1.48,2.28l1.93,12.9l-1.68,2.62
			l-12.72-6.06l-1.38-0.15l-2.73,0.69l-1.55,1.99v6.42l-3.83,1.91l-8.95-10.83l-19.82,2l0.26,2.56l-9.75,1.08v-0.82L29.82,131.5
			l4.5-8.27l-10.85,0.27l-6.36-4.13l6.76-10.48l16.18,5.8l16.18-8.27l3.07-5.25l-4.21-4.87l4.64-14.2l0.1-0.66l-0.15-13.71
			l-0.32-1.07l-2.15-3.4l0.4-7.09l0.73-2.52l7.03,6.28l2.61,0.1l10.03-7.61l0.71-1l4.47-13.75l12.55-5.12L97,30.56l-0.14-4.53
			l25.58-12.87L144.05,8 M144.05,0c-0.62,0-1.24,0.07-1.86,0.22l-21.6,5.17c-0.6,0.14-1.18,0.36-1.73,0.63L93.27,18.88
			c-2.78,1.4-4.5,4.28-4.4,7.39l0.01,0.41l-8.72,3.56c-2.18,0.89-3.86,2.7-4.59,4.94l-3.89,11.97l-4.64,3.52l-3.37-3.01
			c-1.49-1.33-3.39-2.03-5.33-2.03c-0.74,0-1.48,0.1-2.21,0.31c-2.64,0.76-4.71,2.82-5.47,5.46l-0.73,2.52
			c-0.17,0.58-0.27,1.17-0.3,1.78l-0.4,7.09c-0.09,1.66,0.33,3.32,1.22,4.73l1.25,1.98l0.12,11.06l-4.33,13.26
			c-0.83,2.54-0.33,5.33,1.31,7.42l-9.31,4.76l-12.92-4.63c-0.89-0.32-1.8-0.47-2.7-0.47c-2.66,0-5.22,1.33-6.72,3.66l-6.76,10.48
			c-2.39,3.7-1.33,8.64,2.37,11.05l6.36,4.13c0.83,0.54,1.75,0.92,2.71,1.12c-0.04,1.89,0.59,3.77,1.85,5.29l10.05,12.08
			c0.44,1.28,1.2,2.45,2.23,3.37c1.47,1.32,3.38,2.04,5.34,2.04c0.29,0,0.58-0.02,0.88-0.05l9.75-1.08
			c2.28-0.25,4.24-1.44,5.52-3.15l9.72-0.98l6.23,7.54c1.56,1.89,3.84,2.9,6.17,2.9c1.21,0,2.43-0.27,3.56-0.84l3.83-1.91
			c2.42-1.2,4.04-3.53,4.37-6.17l7.01,3.34c1.11,0.53,2.28,0.78,3.43,0.78c2.65,0,5.22-1.32,6.74-3.68l1.68-2.62
			c1.05-1.63,1.47-3.59,1.18-5.51l-1.15-7.69l3.87-1.07c1.21,0.69,2.57,1.05,3.96,1.05c0.67,0,1.35-0.09,2.02-0.26
			c2.47-0.64,4.48-2.42,5.42-4.79l2.49-6.29l0.6,0.49c1.44,1.16,3.22,1.78,5.03,1.78c0.56,0,1.13-0.06,1.68-0.18
			c1.94-0.42,3.64-1.54,4.79-3.12h1.28l2.31,24.65c0.23,2.44,1.56,4.64,3.62,5.97c1.31,0.85,2.82,1.28,4.35,1.28
			c0.87,0,1.74-0.14,2.58-0.43l1.79-0.61c-2.37,2.27-3.17,5.84-1.8,8.98l1.19,2.72l-15.44,15.07l-8.01-4.91
			c-1.27-0.78-2.72-1.18-4.18-1.18c-0.95,0-1.91,0.17-2.83,0.52l-10.59,4l-4.99-5.67c-1.56-1.77-3.76-2.71-6.01-2.71
			c-1.14,0-2.28,0.24-3.36,0.74l-6.44,2.98c-2.23,0.32-4.28,1.58-5.56,3.57c-0.35,0.53-0.62,1.1-0.83,1.68l-5.71,4.97
			c-1.9,1.65-2.91,4.1-2.72,6.61c0.18,2.51,1.54,4.79,3.65,6.15l4.88,3.14l3.74,7.86c0.78,1.65,2.08,2.93,3.63,3.71l-0.09,0.11
			c-1.56,2.04-2.06,4.7-1.32,7.17c0.1,0.35,0.23,0.68,0.38,1.01l-16.48-0.82c-0.13-0.01-0.27-0.01-0.4-0.01
			c-2.4,0-4.68,1.08-6.21,2.96c-1.61,1.98-2.18,4.6-1.53,7.07l2.08,7.94l-0.88,7.91c-0.46,4.17,2.37,7.99,6.5,8.75l12.49,2.3
			c3.27,14.01,8.73,18.29,11.12,19.53c1.16,0.6,2.42,0.89,3.67,0.89c1.65,0,3.28-0.51,4.65-1.49l-0.12,0.3l-1.97,2.27
			c-1.7,1.95-2.35,4.6-1.75,7.11c0.6,2.51,2.38,4.58,4.77,5.55l0.63,0.26l3.19,3.06c0.53,0.51,1.11,0.93,1.74,1.27
			c0.27,0.51,0.59,0.99,0.97,1.45l13.52,15.99c1.19,1.41,2.83,2.36,4.65,2.7l14.28,2.65c0.49,0.09,0.98,0.13,1.46,0.13
			c1.93,0,3.79-0.7,5.25-1.96l6.11-2l2.98,1.38c1.07,0.5,2.22,0.74,3.36,0.74c1.47,0,2.93-0.4,4.21-1.2
			c1.42-0.88,6.6-3.74,13.67-3.74c4.91,0,9.86,1.36,14.73,4.06l3.17,4.82c1.45,2.2,3.89,3.55,6.52,3.6c0.05,0,0.11,0,0.16,0
			c2.58,0,5-1.24,6.5-3.34l3.69-5.15l7.17-1.14c1.17-0.04,2.27-0.27,3.26-0.68c2.01-0.84,3.59-2.46,4.38-4.5
			c0.55-1.42,0.68-2.96,0.39-4.43c-0.18-0.98-0.54-1.92-1.05-2.76l11.79-6.84l6.97,0.48c0.18,0.01,0.36,0.02,0.55,0.02
			c1.91,0,3.76-0.68,5.21-1.93l12.87-11.05l6.96-3.48c1.93-0.96,3.38-2.66,4.04-4.72l1.64-5.12l8.96-11.53
			c0.22-0.28,0.41-0.57,0.59-0.87l5.27-9.01c0.84-1.44,1.21-3.11,1.06-4.77l-2.15-23.45c2.25-2.52,5.63-7.31,10.67-16.75
			c1.49-2.8,1.19-6.22-0.78-8.72l-4.45-5.64l-0.06-3.69l2.61-0.88c4.1-1.38,6.36-5.76,5.11-9.9c-1.63-5.37-6.05-9.94-7.88-11.65
			c-1.49-1.39-3.44-2.17-5.47-2.17c-0.09,0-0.19,0-0.28,0l-5.01,0.18c-5.35-2.3-10.04-6.46-11.41-7.74
			c-1.49-1.39-3.44-2.15-5.46-2.15c-0.25,0-0.51,0.01-0.77,0.04c-0.14,0.01-0.37,0.03-0.72,0.03c-2.15,0-5.23-0.55-6.97-0.93
			c-2.95-1.24-4.84-2.5-6.01-3.57c1.97-0.88,3.51-2.52,4.26-4.56c0.79-2.15,0.61-4.54-0.48-6.56l-3.5-6.47
			c-0.07-0.13-0.14-0.25-0.22-0.37c-4.34-7.08-2.55-12.39-2.39-12.83c0.16-0.37,0.28-0.76,0.38-1.15c2.78-11.14,8.3-18.2,9.38-19.51
			c1.1-1.33,1.74-2.98,1.83-4.7l0.29-5.91c0.16-3.27-1.68-6.3-4.66-7.67l-7.51-3.44c-6.78-3.69-10.52-6.84-11.51-7.73
			c-2.04-2.78-2.82-9.49-2.7-13.31c0.01-0.2,0.01-0.43,0-0.63c-0.21-4.71-2.32-7.27-4.05-8.59c-0.03-0.02-0.06-0.05-0.1-0.07
			c-1.67-1.23-3.72-1.89-5.92-1.89c-0.56,0-1.13,0.04-1.68,0.13l-14.5,1.83l-6.05-3.74c0.18-2.53-0.85-5.02-2.81-6.68
			c-1.47-1.24-3.31-1.9-5.17-1.9c-0.88,0-1.77,0.15-2.63,0.44c-0.78,0.27-1.38,0.38-1.77,0.42l-3.32-2.18l0.9-4.67
			c0.66-3.42-0.98-6.87-4.04-8.54l-9.65-5.24c-1.19-0.64-2.5-0.97-3.82-0.97c-1.05,0-2.11,0.21-3.1,0.62
			c-0.67,0.28-2.7,0.93-7.11,0.93c-4.69,0-9.48-0.71-11.9-1.14l-8.41-7.55C147.91,0.71,146,0,144.05,0L144.05,0z"/>
	</g>
</g>
<g>
	<g>
		<path class="st2" d="M15.89,165.72c-1.85,0-3.5-1.29-3.9-3.15l-7.9-36.14c-0.28-1.27,0.08-2.59,0.95-3.55
			c0.76-0.84,1.84-1.3,2.96-1.3c0.16,0,0.33,0.01,0.49,0.03l16.96,2.11c1.41,0.18,2.62,1.09,3.18,2.4l13.07,30.57
			c0.49,1.14,0.42,2.43-0.18,3.51c-0.6,1.08-1.66,1.82-2.88,2.01l-22.14,3.46C16.3,165.71,16.1,165.72,15.89,165.72z"/>
		<path class="st1" d="M8,125.58l16.96,2.11l13.07,30.57l-22.14,3.46L8,125.58 M8,117.58c-2.23,0-4.38,0.94-5.91,2.61
			c-1.75,1.92-2.46,4.56-1.91,7.1l7.9,36.14c0.81,3.72,4.11,6.29,7.81,6.29c0.41,0,0.83-0.03,1.24-0.1l22.14-3.46
			c2.44-0.38,4.57-1.87,5.76-4.03c1.2-2.16,1.33-4.75,0.36-7.02l-13.07-30.57c-1.12-2.62-3.54-4.44-6.37-4.79l-16.96-2.11
			C8.66,117.6,8.33,117.58,8,117.58L8,117.58z"/>
	</g>
</g>
<g>
	<g>
		<g>
			<path class="st0" d="M140.5,189.15c-0.72,0-1.44-0.19-2.09-0.59l-10.64-6.52L114.62,187c-0.46,0.17-0.94,0.26-1.41,0.26
				c-1.13,0-2.23-0.48-3-1.36l-6.82-7.74l-6.55,3.04c-0.54,0.25-1.12,0.37-1.68,0.37c-1.38,0-2.71-0.72-3.45-1.98l-4.2-7.17
				c-0.79-1.35-0.72-3.04,0.18-4.32l2.34-3.33l-6.49-3c-0.54-0.25-1.02-0.62-1.4-1.08l-2.97-3.6c-0.78-0.94-1.08-2.18-0.83-3.38
				s1.04-2.21,2.13-2.75l3.04-1.52v-4.88c0-1.83,1.24-3.42,3.01-3.87l0.46-0.12c0.33-0.08,0.66-0.13,0.99-0.13
				c0.59,0,1.18,0.13,1.72,0.39l12.14,5.78l1.75-2.72l-1.67-11.15c-0.3-2,0.94-3.91,2.89-4.45l9.01-2.49
				c0.35-0.1,0.71-0.14,1.07-0.14c0.9,0,1.79,0.31,2.51,0.89l0.71,0.58l4.49-11.35c0.47-1.18,1.47-2.07,2.7-2.4
				c0.34-0.09,0.68-0.13,1.02-0.13c0.9,0,1.79,0.31,2.51,0.89l4.83,3.9l0.57-1.14c0.68-1.35,2.06-2.21,3.58-2.21h7.11
				c2.06,0,3.79,1.57,3.98,3.62l2.67,28.31l8.35-2.85c0.42-0.14,0.86-0.21,1.29-0.21c0.72,0,1.43,0.19,2.06,0.57
				c1.01,0.6,1.7,1.62,1.89,2.79l1.08,6.6c0.27,1.68-0.54,3.34-2.03,4.16l-2.79,1.52l2.3,5.27c0.67,1.52,0.32,3.3-0.87,4.46
				l-19.54,19.08C142.53,188.76,141.52,189.15,140.5,189.15z"/>
			<path class="st1" d="M126.3,117.27l6.71,5.42l3.12-0.67l1.66-3.31h7.11l2.91,30.79l2.71,1.73l10.69-3.65l1.08,6.6l-4.36,2.38
				l-0.9,2.62l3.01,6.91l-19.54,19.08l-11.45-7.02l-1.79-0.17l-14.05,5.3l-7.78-8.84l-2.4-0.5l-7.88,3.66l-4.2-7.17l3.69-5.24
				l-0.81-3.04l-8.61-3.99l-2.97-3.6l4.11-2.05l1.14-1.83v-6.09l0.46-0.12l13.69,6.52l2.61-0.74l3.08-4.78l0.3-1.42l-1.78-11.87
				l9.01-2.49l2.77,2.24l3.2-0.83L126.3,117.27 M126.3,109.27c-0.68,0-1.36,0.09-2.03,0.26c-2.46,0.65-4.47,2.43-5.4,4.79
				l-2.94,7.42c-0.35-0.05-0.71-0.07-1.06-0.07c-0.71,0-1.43,0.1-2.13,0.29l-9.01,2.49c-3.9,1.08-6.38,4.9-5.78,8.9l1.13,7.53
				l-7.67-3.66c-1.08-0.52-2.26-0.78-3.44-0.78c-0.67,0-1.33,0.08-1.99,0.25l-0.46,0.12c-3.54,0.91-6.01,4.1-6.01,7.75v2.4
				l-0.82,0.41c-2.18,1.09-3.75,3.11-4.26,5.5c-0.51,2.39,0.1,4.87,1.66,6.75l2.97,3.6c0.76,0.92,1.72,1.66,2.81,2.17l2.17,1.01
				c-1.43,2.47-1.44,5.55,0.03,8.04l4.2,7.17c1.48,2.52,4.15,3.96,6.91,3.96c1.13,0,2.28-0.24,3.36-0.75l3.84-1.78l4.84,5.5
				c1.55,1.76,3.75,2.71,6.01,2.71c0.95,0,1.9-0.17,2.82-0.52l11.32-4.27l8.97,5.5c1.29,0.79,2.74,1.18,4.18,1.18
				c2.04,0,4.05-0.78,5.59-2.28l19.54-19.08c2.38-2.32,3.07-5.88,1.74-8.92l-0.84-1.93c2.71-1.7,4.17-4.88,3.64-8.07l-1.08-6.6
				c-0.38-2.32-1.76-4.36-3.78-5.57c-1.26-0.75-2.68-1.14-4.11-1.14c-0.87,0-1.74,0.14-2.59,0.43l-3.55,1.21l-2.2-23.26
				c-0.39-4.11-3.84-7.25-7.96-7.25h-7.11c-1.79,0-3.49,0.6-4.85,1.64l-1.61-1.3C129.88,109.88,128.11,109.27,126.3,109.27
				L126.3,109.27z"/>
		</g>
	</g>
</g>
<g>
	<g>
		<path class="st2" d="M57.47,204.68c-0.54,0-1.08-0.11-1.58-0.33l-15.36-6.62c-0.98-0.42-1.76-1.23-2.15-2.23s-0.36-2.11,0.08-3.09
			l2.78-6.17l-12.41-9.38c-1.35-1.02-1.91-2.78-1.4-4.39c0.51-1.61,1.97-2.73,3.66-2.8c0,0,14.64-0.55,14.69-0.55
			c1.89,0,3.53,1.33,3.92,3.19l1.13,5.49c1.16,0.2,2.74,0.38,4.59,0.38c2.65,0,5.24-0.37,7.73-1.1c1.06-1.29,3.16-4.08,4.17-7
			c0.17-0.81,0.58-3.82-1.94-5.73l-17.38-1.03c-2.05-0.12-3.67-1.77-3.76-3.82l-0.41-9.65c-0.05-1.24,0.48-2.44,1.43-3.24l3.83-3.2
			c0.61-0.51,1.37-0.83,2.17-0.91l17.16-1.72c0.13-0.01,0.27-0.02,0.4-0.02c1.19,0,2.32,0.53,3.08,1.45l8.59,10.39l4.44,5.5
			c0.02,0.01,0.03,0.03,0.05,0.04l6.54,3.02c1.08,0.5,1.88,1.45,2.19,2.59c0.31,1.15,0.09,2.37-0.59,3.34l-2.31,3.29l4.59,7.82
			c0.97,1.66,0.63,3.77-0.82,5.04l-7.41,6.46c-0.74,0.65-1.68,0.99-2.63,0.99c-0.58,0-1.16-0.12-1.7-0.38
			c-0.83-0.39-1.48-1.04-1.87-1.82l-21.16,15.41C59.13,204.42,58.3,204.68,57.47,204.68z"/>
		<path class="st1" d="M68.83,144.77l8.59,10.39l4.71,5.83l0.32,0.25l0.37,0.45l0.11-0.09l6.93,3.2l-3.03,4.31l-0.09,2.22l5.22,8.9
			l-7.41,6.46l0.14-5.85l-27.23,19.83l-15.36-6.62l4.09-9.08l-14.95-11.31l14.54-0.55l1.65,8c0,0,3.2,1.07,7.99,1.07
			c2.88,0,6.34-0.39,10.02-1.63c0,0,4.1-4.41,5.74-9.38c0,0,1.84-7.17-4.51-10.75l-18.43-1.1l-0.41-9.65l3.83-3.2L68.83,144.77
			 M68.83,136.77c-0.27,0-0.53,0.01-0.8,0.04l-17.16,1.72c-1.59,0.16-3.1,0.79-4.33,1.82l-3.83,3.2c-1.91,1.6-2.97,3.99-2.86,6.48
			l0.41,9.65c0.09,2.19,1.06,4.15,2.57,5.54l-11.88,0.45c-3.38,0.13-6.31,2.37-7.33,5.59c-1.02,3.23,0.11,6.74,2.81,8.78l9.86,7.46
			l-1.47,3.26c-0.88,1.95-0.94,4.18-0.17,6.18c0.78,2,2.32,3.6,4.29,4.45l15.36,6.62c1.02,0.44,2.1,0.65,3.17,0.65
			c1.67,0,3.32-0.52,4.71-1.53l18.48-13.46c0.16,0.09,0.33,0.18,0.5,0.25c1.09,0.51,2.25,0.76,3.4,0.76c1.9,0,3.77-0.67,5.26-1.97
			l7.41-6.46c2.9-2.53,3.59-6.76,1.64-10.08l-3.29-5.6l0.83-1.18c1.37-1.94,1.8-4.39,1.18-6.68s-2.22-4.19-4.37-5.19l-5.72-2.64
			l-3.85-4.77c-0.02-0.02-0.04-0.05-0.06-0.07l-8.59-10.39C73.47,137.83,71.2,136.77,68.83,136.77L68.83,136.77z M54.17,174.16
			l-0.55-2.65c-0.32-1.54-1.06-2.89-2.09-3.96l11.87,0.71c0.08,0.3,0.07,0.6,0.03,0.84c-0.62,1.61-1.71,3.28-2.59,4.47
			c-1.76,0.41-3.57,0.62-5.42,0.62C54.99,174.2,54.57,174.19,54.17,174.16L54.17,174.16z"/>
	</g>
</g>
</svg>
