<?xml version="1.0" encoding="utf-8"?>
<!-- Generator: Adobe Illustrator 26.2.1, SVG Export Plug-In . SVG Version: 6.00 Build 0)  -->
<svg version="1.1" id="Isolation_Mode" xmlns="http://www.w3.org/2000/svg" xmlns:xlink="http://www.w3.org/1999/xlink" x="0px"
	 y="0px" viewBox="0 0 18.75 19.75" style="enable-background:new 0 0 18.75 19.75;" xml:space="preserve">
<style type="text/css">
	.st0{fill:#9A4814;stroke:#000000;stroke-width:0.75;stroke-linecap:round;stroke-linejoin:round;stroke-miterlimit:10;}
	.st1{fill:#FFCB19;}
	.st2{fill:#FF9C19;}
	.st3{fill:#FFFFFF;}
	.st4{fill:none;stroke:#000000;stroke-width:0.75;stroke-linecap:round;stroke-linejoin:round;stroke-miterlimit:10;}
	.st5{fill:#FFE0B8;stroke:#000000;stroke-width:0.75;stroke-linecap:round;stroke-linejoin:round;stroke-miterlimit:10;}
	.st6{fill:#FFE0B8;}
	.st7{fill:#FEBA6F;}
	.st8{fill:#9A4814;}
	.st9{fill:#6B3212;}
</style>
<g>
	<rect x="3.38" y="6.38" class="st0" width="12" height="8"/>
	<path class="st1" d="M12.38,12.38h-6c-3.31,0-6,2.69-6,6v0.83c0.31,0.11,0.65,0.17,1,0.17h16c0.35,0,0.69-0.06,1-0.17v-0.83
		C18.38,15.06,15.69,12.38,12.38,12.38z"/>
	<path class="st2" d="M12.38,12.38h-2c3.31,0,6,2.69,6,6v1h1c0.35,0,0.69-0.06,1-0.17v-0.83C18.38,15.06,15.69,12.38,12.38,12.38z"
		/>
	<path class="st3" d="M8.38,12.38h-2c-3.31,0-6,2.69-6,6v0.83c0.31,0.11,0.65,0.17,1,0.17h1v-1C2.38,15.06,5.06,12.38,8.38,12.38z"
		/>
	<path class="st4" d="M12.38,12.38h-6c-3.31,0-6,2.69-6,6v0.83c0.31,0.11,0.65,0.17,1,0.17h16c0.35,0,0.69-0.06,1-0.17v-0.83
		C18.38,15.06,15.69,12.38,12.38,12.38z"/>
	<circle class="st5" cx="9.38" cy="12.62" r="2.25"/>
	<circle class="st6" cx="9.38" cy="6.38" r="6"/>
	<path class="st7" d="M15.38,6.38c0-3.31-2.69-6-6-6c-0.34,0-0.67,0.03-1,0.08c2.84,0.48,5,2.94,5,5.92s-2.16,5.44-5,5.92
		c0.33,0.05,0.66,0.08,1,0.08C12.69,12.38,15.38,9.69,15.38,6.38z"/>
	<path class="st3" d="M5.38,6.38c0-2.97,2.16-5.44,5-5.92c-0.33-0.05-0.66-0.08-1-0.08c-3.31,0-6,2.69-6,6s2.69,6,6,6
		c0.34,0,0.67-0.03,1-0.08C7.54,11.82,5.38,9.35,5.38,6.38z"/>
	<path class="st8" d="M9.38,0.38c-3.13,0-5.71,2.4-5.98,5.47c0.75,0.34,1.59,0.53,2.48,0.53c2.25,0,4.21-1.24,5.23-3.06
		c0.6,1.78,2.28,3.06,4.27,3.06C15.38,3.06,12.69,0.38,9.38,0.38z"/>
	<path class="st9" d="M12.37,5.23c0.8,0.71,1.85,1.15,3,1.15c0-3.2-2.51-5.82-5.67-5.99C11.28,1.43,12.32,3.21,12.37,5.23z"/>
	<path class="st3" d="M10.38,0.46c-0.33-0.05-0.66-0.08-1-0.08c-3.13,0-5.71,2.4-5.98,5.47C4.01,6.12,4.68,6.3,5.38,6.35
		C5.39,3.39,7.54,0.93,10.38,0.46z"/>
	<path class="st4" d="M3.4,5.84c0.75,0.34,1.59,0.53,2.48,0.53c2.25,0,4.21-1.24,5.23-3.06c0.6,1.78,2.28,3.06,4.27,3.06"/>
	<circle class="st4" cx="9.38" cy="6.38" r="6"/>
</g>
<g>
	<path class="st4" d="M8.46,10.04c0.2,0.24,0.54,0.4,0.92,0.4s0.71-0.16,0.92-0.4"/>
	<circle cx="11.5" cy="7.02" r="0.5"/>
	<circle cx="7.25" cy="7.02" r="0.5"/>
</g>
<path class="st7" d="M9.2,8.68h0.35c0.25,0,0.46-0.13,0.46-0.28"/>
<path class="st7" d="M12.54,8.8c0-0.29-0.24-0.53-0.53-0.53c-0.06,0-0.29,0-0.35,0c-0.29,0-0.53,0.24-0.53,0.53
	c0,0.29,0.24,0.53,0.53,0.53c0.06,0,0.29,0,0.35,0C12.3,9.33,12.54,9.1,12.54,8.8z"/>
<path class="st7" d="M6.21,8.8c0-0.29,0.24-0.53,0.53-0.53c0.06,0,0.29,0,0.35,0c0.29,0,0.53,0.24,0.53,0.53
	c0,0.29-0.24,0.53-0.53,0.53c-0.06,0-0.29,0-0.35,0C6.45,9.33,6.21,9.1,6.21,8.8z"/>
</svg>
