<?xml version="1.0" encoding="utf-8"?>
<!-- Generator: Adobe Illustrator 26.2.1, SVG Export Plug-In . SVG Version: 6.00 Build 0)  -->
<svg version="1.1" id="Layer_1" xmlns="http://www.w3.org/2000/svg" xmlns:xlink="http://www.w3.org/1999/xlink" x="0px" y="0px"
	 viewBox="0 0 335.15 365.96" style="enable-background:new 0 0 335.15 365.96;" xml:space="preserve">
<style type="text/css">
	.st0{clip-path:url(#SVGID_00000172432647977823408190000006413165008696875706_);fill:#252525;}
	.st1{clip-path:url(#SVGID_00000172432647977823408190000006413165008696875706_);fill:#F49D2A;}
	.st2{clip-path:url(#SVGID_00000172432647977823408190000006413165008696875706_);fill:#FFBE1D;}
	.st3{clip-path:url(#SVGID_00000172432647977823408190000006413165008696875706_);fill:#222222;}
	.st4{clip-path:url(#SVGID_00000172432647977823408190000006413165008696875706_);fill:#87CC46;}
	.st5{clip-path:url(#SVGID_00000172432647977823408190000006413165008696875706_);fill:#5BB234;}
	.st6{clip-path:url(#SVGID_00000172432647977823408190000006413165008696875706_);fill:#8C6239;}
	.st7{clip-path:url(#SVGID_00000172432647977823408190000006413165008696875706_);fill:#348FD9;}
	.st8{clip-path:url(#SVGID_00000172432647977823408190000006413165008696875706_);fill:#F4BAA6;}
	.st9{clip-path:url(#SVGID_00000172432647977823408190000006413165008696875706_);fill:#65BEEF;}
</style>
<g>
	<defs>
		<rect id="SVGID_1_" width="335.15" height="365.96"/>
	</defs>
	<clipPath id="SVGID_00000012438803761268238740000004690189791771550617_">
		<use xlink:href="#SVGID_1_"  style="overflow:visible;"/>
	</clipPath>
	<path style="clip-path:url(#SVGID_00000012438803761268238740000004690189791771550617_);fill:#252525;" d="M126.83,20
		c2.76,0,5-2.24,5-5V5c0-2.76-2.24-5-5-5c-2.76,0-5,2.24-5,5v10C121.83,17.76,124.07,20,126.83,20"/>
	<path style="clip-path:url(#SVGID_00000012438803761268238740000004690189791771550617_);fill:#252525;" d="M95,24.85
		c0.92,1.6,2.6,2.5,4.33,2.5c0.85,0,1.71-0.21,2.5-0.67c2.39-1.38,3.21-4.44,1.83-6.83l-5-8.65c-1.38-2.39-4.44-3.21-6.83-1.83
		c-2.39,1.38-3.21,4.44-1.83,6.83L95,24.85z"/>
	<path style="clip-path:url(#SVGID_00000012438803761268238740000004690189791771550617_);fill:#252525;" d="M68.03,41.83l8.65,5
		c0.79,0.46,1.65,0.67,2.5,0.67c1.73,0,3.41-0.9,4.33-2.5c1.38-2.39,0.56-5.45-1.83-6.83l-8.65-5c-2.39-1.39-5.45-0.56-6.83,1.83
		C64.82,37.39,65.64,40.45,68.03,41.83"/>
	<path style="clip-path:url(#SVGID_00000012438803761268238740000004690189791771550617_);fill:#252525;" d="M61.83,75h10
		c2.76,0,5-2.24,5-5c0-2.76-2.24-5-5-5h-10c-2.76,0-5,2.24-5,5C56.83,72.76,59.07,75,61.83,75"/>
	<path style="clip-path:url(#SVGID_00000012438803761268238740000004690189791771550617_);fill:#252525;" d="M176.83,70
		c0,2.76,2.24,5,5,5h10c2.76,0,5-2.24,5-5c0-2.76-2.24-5-5-5h-10C179.07,65,176.83,67.24,176.83,70"/>
	<path style="clip-path:url(#SVGID_00000012438803761268238740000004690189791771550617_);fill:#252525;" d="M174.48,47.5
		c0.85,0,1.71-0.21,2.5-0.67l8.65-5c2.39-1.38,3.21-4.44,1.83-6.83c-1.38-2.39-4.45-3.22-6.83-1.83l-8.65,5
		c-2.39,1.38-3.21,4.44-1.83,6.83C171.08,46.6,172.76,47.5,174.48,47.5"/>
	<path style="clip-path:url(#SVGID_00000012438803761268238740000004690189791771550617_);fill:#252525;" d="M151.83,26.68
		c0.79,0.46,1.65,0.67,2.5,0.67c1.73,0,3.41-0.9,4.33-2.5l5-8.65c1.38-2.39,0.56-5.45-1.83-6.83c-2.39-1.38-5.45-0.56-6.83,1.83
		l-5,8.65C148.62,22.24,149.44,25.3,151.83,26.68"/>
	<path style="clip-path:url(#SVGID_00000012438803761268238740000004690189791771550617_);fill:#F49D2A;" d="M164.67,70.52
		c0,20.9-16.94,37.84-37.84,37.84c-20.9,0-37.84-16.94-37.84-37.84c0-20.9,16.94-37.84,37.84-37.84
		C147.73,32.69,164.67,49.63,164.67,70.52"/>
	<path style="clip-path:url(#SVGID_00000012438803761268238740000004690189791771550617_);fill:#252525;" d="M126.83,120
		c-2.76,0-5,2.24-5,5v10c0,2.76,2.24,5,5,5c2.76,0,5-2.24,5-5v-10C131.83,122.24,129.59,120,126.83,120"/>
	<path style="clip-path:url(#SVGID_00000012438803761268238740000004690189791771550617_);fill:#252525;" d="M158.66,115.15
		c-0.93-1.6-2.61-2.5-4.33-2.5c-0.85,0-1.71,0.21-2.5,0.67c-2.39,1.38-3.21,4.44-1.83,6.83l5,8.65c1.38,2.39,4.44,3.21,6.83,1.83
		c2.39-1.38,3.21-4.44,1.83-6.83L158.66,115.15z"/>
	<path style="clip-path:url(#SVGID_00000012438803761268238740000004690189791771550617_);fill:#252525;" d="M185.63,98.17l-8.65-5
		c-0.79-0.46-1.65-0.67-2.5-0.67c-1.73,0-3.41,0.9-4.33,2.5c-1.38,2.39-0.56,5.45,1.83,6.83l8.65,5c2.39,1.39,5.45,0.56,6.83-1.83
		C188.84,102.61,188.02,99.55,185.63,98.17"/>
	<path style="clip-path:url(#SVGID_00000012438803761268238740000004690189791771550617_);fill:#252525;" d="M79.18,92.5
		c-0.85,0-1.71,0.22-2.5,0.67l-8.65,5c-2.39,1.38-3.21,4.44-1.83,6.83c1.38,2.39,4.45,3.22,6.83,1.83l8.65-5
		c2.39-1.38,3.21-4.44,1.83-6.83C82.59,93.4,80.91,92.5,79.18,92.5"/>
	<path style="clip-path:url(#SVGID_00000012438803761268238740000004690189791771550617_);fill:#252525;" d="M101.83,113.32
		c-0.79-0.46-1.65-0.67-2.5-0.67c-1.73,0-3.41,0.9-4.33,2.5l-5,8.65c-1.38,2.39-0.56,5.45,1.83,6.83s5.45,0.56,6.83-1.83l5-8.65
		C105.04,117.76,104.22,114.7,101.83,113.32"/>
	<path style="clip-path:url(#SVGID_00000012438803761268238740000004690189791771550617_);fill:#FFBE1D;" d="M164.31,66.98
		c-2.51-18.46-18.33-32.69-37.48-32.69S91.86,48.52,89.35,66.98H164.31z"/>
	<path style="clip-path:url(#SVGID_00000012438803761268238740000004690189791771550617_);fill:#222222;" d="M126.83,112.86
		c-23.35,0-42.34-18.99-42.34-42.34c0-23.34,18.99-42.34,42.34-42.34c23.34,0,42.34,18.99,42.34,42.34
		C169.17,93.87,150.18,112.86,126.83,112.86 M126.83,37.19c-18.38,0-33.34,14.96-33.34,33.34c0,18.38,14.96,33.34,33.34,33.34
		s33.34-14.95,33.34-33.34C160.17,52.14,145.21,37.19,126.83,37.19"/>
	<polygon style="clip-path:url(#SVGID_00000012438803761268238740000004690189791771550617_);fill:#87CC46;" points="296.35,229.96 
		313.13,254.21 294.14,254.21 203.01,254.21 191.16,254.21 172.18,254.21 188.96,229.96 208.78,201.32 264.68,201.32 276.53,201.32 
			"/>
	<polygon style="clip-path:url(#SVGID_00000012438803761268238740000004690189791771550617_);fill:#5BB234;" points="299.91,307.1 
		273.49,307.1 264.68,307.1 220.63,307.1 154.56,307.1 175.13,277.35 191.16,254.21 203.01,254.21 294.14,254.21 310.18,277.35 
		330.75,307.1 	"/>
	<polygon style="clip-path:url(#SVGID_00000012438803761268238740000004690189791771550617_);fill:#8C6239;" points="242.65,359.99 
		203.01,359.99 220.63,342.36 220.63,324.73 220.63,307.1 264.68,307.1 264.68,324.73 264.68,342.36 282.3,359.99 	"/>
	<polygon style="clip-path:url(#SVGID_00000012438803761268238740000004690189791771550617_);fill:#5BB234;" points="276.53,201.31 
		264.68,201.31 208.78,201.31 194.2,201.31 203.27,186.55 224.02,152.83 261.29,152.83 282.03,186.55 291.11,201.31 	"/>
	<polygon style="clip-path:url(#SVGID_00000012438803761268238740000004690189791771550617_);fill:#87CC46;" points="261.28,152.83 
		224.02,152.83 211.82,152.83 242.65,95.53 273.49,152.83 	"/>
	<path style="clip-path:url(#SVGID_00000012438803761268238740000004690189791771550617_);fill:#222222;" d="M269.08,342.09v-29.03
		h61.67c1.64,0,3.14-0.91,3.9-2.36c0.76-1.45,0.65-3.2-0.28-4.55l-31.82-45.97h10.58c1.64,0,3.14-0.91,3.9-2.36
		c0.76-1.45,0.65-3.21-0.28-4.55l-31.82-45.97h6.17c1.6,0,3.07-0.87,3.85-2.26c0.78-1.39,0.74-3.1-0.1-4.46l-25.69-41.77h4.32
		c1.55,0,2.99-0.81,3.78-2.15c0.79-1.33,0.83-2.98,0.1-4.35L246.53,95c-1.54-2.86-6.22-2.86-7.76,0l-30.83,57.3
		c-0.74,1.37-0.7,3.02,0.1,4.35c0.79,1.34,2.23,2.15,3.78,2.15h4.32l-25.69,41.77c-0.84,1.36-0.87,3.07-0.1,4.46
		c0.78,1.39,2.25,2.26,3.85,2.26h6.17l-31.82,45.97c-0.93,1.35-1.04,3.1-0.28,4.55c0.76,1.46,2.26,2.36,3.9,2.36h10.58l-31.82,45.97
		c-0.93,1.35-1.04,3.1-0.28,4.55c0.76,1.46,2.26,2.36,3.9,2.36h61.67v29.03l-16.33,16.34c-1.26,1.26-1.64,3.15-0.96,4.8
		c0.68,1.65,2.29,2.72,4.07,2.72h79.28c1.78,0,3.39-1.07,4.07-2.72c0.68-1.65,0.31-3.54-0.95-4.8L269.08,342.09z M242.65,106.39
		l23.46,43.59h-46.92L242.65,106.39z M226.48,158.8h32.34l24.4,39.67h-15.57l-7.7-19.27c-0.9-2.26-3.46-3.37-5.73-2.46
		c-2.26,0.9-3.36,3.47-2.45,5.73l6.39,15.99h-56.09L226.48,158.8z M211.09,207.28h63.13l30.5,44.08h-94.58l10.03-20.07
		c1.09-2.18,0.21-4.82-1.97-5.91c-2.18-1.08-4.82-0.2-5.91,1.97l-12,24.01h-19.7L211.09,207.28z M193.47,260.17h98.37l30.51,44.08
		h-19.71l-12-24.01c-1.09-2.18-3.73-3.06-5.91-1.97c-2.18,1.09-3.06,3.74-1.97,5.91l10.03,20.07h-16.12l-3.4-10.21
		c-0.77-2.31-3.26-3.55-5.57-2.79c-2.31,0.77-3.55,3.26-2.79,5.57l2.47,7.42H162.96L193.47,260.17z M247.06,357.14v-8.82
		c0-2.44-1.97-4.41-4.41-4.41c-2.43,0-4.4,1.97-4.4,4.41v8.82h-24.6l10.1-10.11c0.83-0.83,1.29-1.94,1.29-3.12v-30.85h35.24v30.85
		c0,1.17,0.46,2.29,1.29,3.12l10.1,10.11H247.06z"/>
	<path style="clip-path:url(#SVGID_00000012438803761268238740000004690189791771550617_);fill:#348FD9;" d="M67.54,310.65H28.72
		c-12.48,0-22.59-10.11-22.59-22.59v-27.91c0-12.47,10.11-22.59,22.59-22.59h38.82c12.48,0,22.59,10.11,22.59,22.59v27.91
		C90.13,300.54,80.02,310.65,67.54,310.65"/>
	<path style="clip-path:url(#SVGID_00000012438803761268238740000004690189791771550617_);fill:#F4BAA6;" d="M66.13,197.58
		c0,9.94-8.06,18-18,18s-18-8.06-18-18c0-9.94,8.06-18,18-18S66.13,187.64,66.13,197.58"/>
	
		<rect x="24.13" y="286.49" style="clip-path:url(#SVGID_00000012438803761268238740000004690189791771550617_);fill:#65BEEF;" width="48" height="73.09"/>
	<path style="clip-path:url(#SVGID_00000012438803761268238740000004690189791771550617_);fill:#222222;" d="M24.13,364.58
		c-2.76,0-5-2.24-5-5v-96c0-2.76,2.24-5,5-5s5,2.24,5,5v96C29.13,362.35,26.89,364.58,24.13,364.58"/>
	<path style="clip-path:url(#SVGID_00000012438803761268238740000004690189791771550617_);fill:#222222;" d="M72.13,364.58
		c-2.76,0-5-2.24-5-5v-96c0-2.76,2.24-5,5-5c2.76,0,5,2.24,5,5v96C77.13,362.35,74.89,364.58,72.13,364.58"/>
	<path style="clip-path:url(#SVGID_00000012438803761268238740000004690189791771550617_);fill:#222222;" d="M72.13,316.35
		c-2.76,0-5-2.24-5-5s2.24-5,5-5c7.17,0,13-5.83,13-13v-35.76c0-10.48-8.52-19-19-19h-36c-10.48,0-19,8.52-19,19v35.76
		c0,7.17,5.83,13,13,13c2.76,0,5,2.24,5,5s-2.24,5-5,5c-12.68,0-23-10.32-23-23v-35.76c0-15.99,13.01-29,29-29h36
		c15.99,0,29,13.01,29,29v35.76C95.13,306.03,84.81,316.35,72.13,316.35"/>
	<path style="clip-path:url(#SVGID_00000012438803761268238740000004690189791771550617_);fill:#222222;" d="M48.13,364.58
		c-2.76,0-5-2.24-5-5v-54c0-2.76,2.24-5,5-5c2.76,0,5,2.24,5,5v54C53.13,362.35,50.89,364.58,48.13,364.58"/>
	<path style="clip-path:url(#SVGID_00000012438803761268238740000004690189791771550617_);fill:#222222;" d="M48.13,220.58
		c-12.68,0-23-10.32-23-23c0-12.68,10.32-23,23-23s23,10.32,23,23C71.13,210.27,60.81,220.58,48.13,220.58 M48.13,184.58
		c-7.17,0-13,5.83-13,13s5.83,13,13,13s13-5.83,13-13S55.3,184.58,48.13,184.58"/>
	<path style="clip-path:url(#SVGID_00000012438803761268238740000004690189791771550617_);fill:#222222;" d="M222.6,105.26
		c-1.11,0-2.23-0.37-3.16-1.13c-6.14-5.02-12.77-9.47-19.72-13.24c-2.43-1.32-3.33-4.35-2.01-6.78c1.32-2.43,4.35-3.33,6.78-2.01
		c7.5,4.07,14.66,8.88,21.28,14.29c2.14,1.75,2.45,4.9,0.7,7.04C225.48,104.63,224.05,105.26,222.6,105.26"/>
	<path style="clip-path:url(#SVGID_00000012438803761268238740000004690189791771550617_);fill:#222222;" d="M5,202.58
		c-2.76,0-5-2.24-5-5c0-41.39,18.53-80.01,50.83-105.96c2.15-1.73,5.3-1.38,7.03,0.77c1.73,2.15,1.39,5.3-0.77,7.03
		C27.17,123.46,10,159.24,10,197.58C10,200.35,7.76,202.58,5,202.58"/>
	<path style="clip-path:url(#SVGID_00000012438803761268238740000004690189791771550617_);fill:#222222;" d="M135.83,333.41
		c-13.24,0-26.33-1.9-38.91-5.66c-2.65-0.79-4.15-3.57-3.36-6.22c0.79-2.64,3.58-4.15,6.22-3.36c11.65,3.48,23.78,5.24,36.05,5.24
		c11.91,0,23.69-1.66,35.03-4.94c2.65-0.77,5.42,0.76,6.19,3.42c0.77,2.65-0.76,5.42-3.41,6.19
		C161.4,331.62,148.68,333.41,135.83,333.41"/>
</g>
</svg>
