<?xml version="1.0" encoding="utf-8"?>
<!-- Generator: Adobe Illustrator 26.2.1, SVG Export Plug-In . SVG Version: 6.00 Build 0)  -->
<svg version="1.1" id="Isolation_Mode" xmlns="http://www.w3.org/2000/svg" xmlns:xlink="http://www.w3.org/1999/xlink" x="0px"
	 y="0px" viewBox="0 0 285 245" style="enable-background:new 0 0 285 245;" xml:space="preserve">
<style type="text/css">
	.st0{fill:#F9BB3D;}
	.st1{fill:#E89838;}
	.st2{fill:#7296B1;}
	.st3{fill:#0E88CC;}
	.st4{fill:#1FB2E5;}
	.st5{fill:#8EABC1;}
	.st6{fill:#252525;}
</style>
<g>
	<g>
		<polygon class="st0" points="5,125 20,145 55,112.35 90,79.65 95,75 90,45 		"/>
		<polygon class="st1" points="90,45 95,75 125,85.9 150,95 145,65 		"/>
		<polygon class="st0" points="150,5 135,25 170,45 145,65 150,95 160,87.2 219.15,41.23 196.5,30.35 		"/>
		<polygon class="st2" points="280,210 280,240 5,240 5,210 20,210 55,210 90,210 125,210 160,210 195,210 230,210 265,210 		"/>
		<rect x="230" y="60" class="st3" width="35" height="150"/>
		<polygon class="st4" points="230,60 230,210 195,210 195,60 215,60 		"/>
		<polygon class="st3" points="195,60 195,210 160,210 160,87.2 		"/>
		<polygon class="st4" points="160,87.2 160,210 125,210 125,85.9 150,95 		"/>
		<polygon class="st3" points="125,85.9 125,210 90,210 90,79.65 95,75 		"/>
		<polygon class="st4" points="90,79.65 90,210 55,210 55,112.35 		"/>
		<polygon class="st3" points="55,112.35 55,210 20,210 20,145 		"/>
		<rect x="5" y="210" class="st5" width="275" height="15"/>
	</g>
	<g>
		<path class="st6" d="M190.12,57.46l-41.01,31.89l-22.15-8.06c-0.01,0-0.02-0.01-0.03-0.01L96.71,70.3
			c-1.75-0.64-3.74-0.24-5.11,1.04l-70.94,66.21l-8.97-11.97l79.5-74.82l52.1,18.95c1.63,0.58,3.46,0.29,4.83-0.8l25-20
			c1.29-1.03,1.99-2.64,1.86-4.29c-0.13-1.65-1.07-3.13-2.5-3.95L142.4,23.47l9.01-12.01l64.71,32.71c2.43,1.33,5.46,0.43,6.78-2
			c1.32-2.42,0.43-5.46-2-6.78L152.39,0.61c-2.18-1.19-4.9-0.59-6.39,1.39l-15,20c-0.86,1.15-1.19,2.61-0.9,4.01
			c0.29,1.4,1.17,2.62,2.42,3.33l28.61,16.35l-17.07,13.65L91.71,40.3c-1.77-0.65-3.76-0.24-5.14,1.06l-85,80
			c-1.86,1.74-2.1,4.6-0.57,6.64l14,18.67V205H5c-2.76,0-5,2.24-5,5v30c0,2.76,2.24,5,5,5h275c2.76,0,5-2.24,5-5v-30
			c0-2.76-2.24-5-5-5h-10V100c0-2.76-2.24-5-5-5c-2.76,0-5,2.24-5,5v105h-25V65h29c1.37,0,1.94-0.19,3.62-1.55
			c1.85-1.49,0.94-5.62-2.62-6.26 M153.08,98.94l1.92-1.5V205h-25V93.05l18.29,6.65C149.91,100.29,151.71,100,153.08,98.94z
			 M25,147.17l25-23.33V165c0,2.76,2.24,5,5,5c2.76,0,5-2.24,5-5v-50.5l36.17-33.76L120,89.41V205H95V105c0-2.76-2.24-5-5-5
			c-2.76,0-5,2.24-5,5v100H60v-15c0-2.76-2.24-5-5-5c-2.76,0-5,2.24-5,5v15H25V147.17z M275,235H10v-20h265V235z M225,205h-25V85
			c0-2.76-2.24-5-5-5c-2.76,0-5,2.24-5,5v120h-25V89.67L196.71,65H225V205z"/>
		<circle class="st6" cx="265" cy="80" r="5"/>
	</g>
</g>
<g>
	<path class="st6" d="M163.28,78.29l52.96-41.77c2.18-1.72,5.33-1.34,7.05,0.83v0c1.72,2.18,1.34,5.33-0.83,7.05l-52.96,41.77
		c-2.18,1.72-5.33,1.34-7.05-0.83v0C160.73,83.17,161.1,80.01,163.28,78.29z"/>
</g>
</svg>
