<?xml version="1.0" encoding="utf-8"?>
<!-- Generator: Adobe Illustrator 27.5.0, SVG Export Plug-In . SVG Version: 6.00 Build 0)  -->
<svg version="1.1" id="Layer_1" xmlns="http://www.w3.org/2000/svg" xmlns:xlink="http://www.w3.org/1999/xlink" x="0px" y="0px"
	 viewBox="0 0 400.79 238.37" style="enable-background:new 0 0 400.79 238.37;" xml:space="preserve">
<style type="text/css">
	.st0{fill:#5BB234;}
	.st1{fill:#40BD60;}
	.st2{fill:none;stroke:#222222;stroke-width:9;stroke-miterlimit:10;}
	.st3{fill:none;stroke:#222222;stroke-width:8;stroke-miterlimit:10;}
	.st4{fill:#65BEEF;}
	.st5{fill:none;stroke:#222222;stroke-width:9;stroke-linecap:round;stroke-linejoin:round;stroke-miterlimit:10;}
	.st6{fill:#87CC46;}
	.st7{fill:#252525;}
	.st8{opacity:0.35;fill:none;stroke:#FFFFFF;stroke-width:5;stroke-linecap:round;stroke-linejoin:round;stroke-miterlimit:10;}
</style>
<path class="st0" d="M331.69,202.39c0,10.46-6.13,19.95-15.68,24.22c-1.82,0.81-3.73,1.57-5.76,2.29
	c-9.41,3.32-19.72,4.97-30.93,4.97c-17.25,0-31.02-5.28-41.33-15.83c-10.31-10.55-15.83-25.24-16.55-44.05l-0.09-11.4
	c0-12.96,2.29-24.29,6.87-33.96c4.58-9.68,11.14-17.12,19.67-22.34c8.53-5.21,18.41-7.82,29.62-7.82c16.4,0,29.14,3.75,38.21,11.26
	c3.89,3.21,7.08,7.11,9.58,11.67c5.4,9.87-1.77,21.93-13.02,21.93h0c-5.96,0-11.31-3.58-13.66-9.06c-1.2-2.81-2.75-5.04-4.65-6.68
	c-3.62-3.13-8.74-4.7-15.38-4.7c-7.96,0-14.11,3.38-18.45,10.13c-4.34,6.75-6.54,16.4-6.6,28.94v7.96c0,13.15,2.25,23.02,6.74,29.62
	c4.49,6.6,11.56,9.9,21.21,9.9c8.26,0,14.41-1.84,18.45-5.52v-20.44h-11.17c-6.02,0-10.9-4.88-10.9-10.9l0,0
	c0-6.02,4.88-10.9,10.9-10.9h31.03c6.56,0,11.88,5.32,11.88,11.88V202.39z"/>
<path class="st1" d="M73.38,197.01c0-4.64-1.64-8.26-4.93-10.85c-3.29-2.59-9.06-5.28-17.32-8.05c-8.26-2.77-15.01-5.46-20.26-8.05
	c-17.06-8.38-25.6-19.9-25.6-34.55c0-7.3,2.13-13.73,6.38-19.31c4.25-5.58,10.27-9.92,18.04-13.02c7.78-3.1,16.52-4.66,26.23-4.66
	c9.47,0,17.95,1.69,25.46,5.07c7.51,3.38,13.34,8.19,17.5,14.43c0.04,0.06,0.08,0.12,0.12,0.19c5.99,9.1-0.56,21.2-11.45,21.2h-3.24
	c-5.34,0-10.18-3.12-12.43-7.96c-0.81-1.73-1.92-3.24-3.35-4.52c-3.29-2.95-7.73-4.43-13.34-4.43c-5.67,0-10.15,1.25-13.43,3.75
	c-3.29,2.5-4.93,5.68-4.93,9.54c0,3.38,1.81,6.44,5.43,9.18c3.62,2.74,9.98,5.58,19.08,8.5c9.1,2.93,16.58,6.08,22.43,9.45
	c14.23,8.2,21.35,19.51,21.35,33.92c0,11.52-4.34,20.56-13.02,27.13c-8.68,6.57-20.59,9.86-35.73,9.86
	c-10.67,0-20.34-1.91-28.99-5.74c-8.65-3.83-15.17-9.07-19.54-15.74c-0.59-0.91-1.15-1.83-1.66-2.77
	c-4.97-9.13,1.63-20.25,12.02-20.25h3.44c5.81,0,10.92,3.71,12.84,9.19c0.91,2.6,2.28,4.74,4.1,6.41c3.65,3.35,9.57,5.02,17.77,5.02
	c5.25,0,9.39-1.13,12.44-3.39C71.86,204.3,73.38,201.12,73.38,197.01z"/>
<path class="st2" d="M331.69,202.39c0,10.46-6.13,19.95-15.68,24.22c-1.82,0.81-3.73,1.57-5.76,2.29
	c-9.41,3.32-19.72,4.97-30.93,4.97c-17.25,0-31.02-5.28-41.33-15.83c-10.31-10.55-15.83-25.24-16.55-44.05l-0.09-11.4
	c0-12.96,2.29-24.29,6.87-33.96c4.58-9.68,11.14-17.12,19.67-22.34c8.53-5.21,18.41-7.82,29.62-7.82c16.4,0,29.14,3.75,38.21,11.26
	c3.89,3.21,7.08,7.11,9.58,11.67c5.4,9.87-1.77,21.93-13.02,21.93h0c-5.96,0-11.31-3.58-13.66-9.06c-1.2-2.81-2.75-5.04-4.65-6.68
	c-3.62-3.13-8.74-4.7-15.38-4.7c-7.96,0-14.11,3.38-18.45,10.13c-4.34,6.75-6.54,16.4-6.6,28.94v7.96c0,13.15,2.25,23.02,6.74,29.62
	c4.49,6.6,11.56,9.9,21.21,9.9c8.26,0,14.41-1.84,18.45-5.52v-20.44h-11.17c-6.02,0-10.9-4.88-10.9-10.9l0,0
	c0-6.02,4.88-10.9,10.9-10.9h31.03c6.56,0,11.88,5.32,11.88,11.88V202.39z"/>
<path class="st2" d="M73.38,197.01c0-4.64-1.64-8.26-4.93-10.85c-3.29-2.59-9.06-5.28-17.32-8.05c-8.26-2.77-15.01-5.46-20.26-8.05
	c-17.06-8.38-25.6-19.9-25.6-34.55c0-7.3,2.13-13.73,6.38-19.31c4.25-5.58,10.27-9.92,18.04-13.02c7.78-3.1,16.52-4.66,26.23-4.66
	c9.47,0,17.95,1.69,25.46,5.07c7.51,3.38,13.34,8.19,17.5,14.43c0.04,0.06,0.08,0.12,0.12,0.19c5.99,9.1-0.56,21.2-11.45,21.2h-3.24
	c-5.34,0-10.18-3.12-12.43-7.96c-0.81-1.73-1.92-3.24-3.35-4.52c-3.29-2.95-7.73-4.43-13.34-4.43c-5.67,0-10.15,1.25-13.43,3.75
	c-3.29,2.5-4.93,5.68-4.93,9.54c0,3.38,1.81,6.44,5.43,9.18c3.62,2.74,9.98,5.58,19.08,8.5c9.1,2.93,16.58,6.08,22.43,9.45
	c14.23,8.2,21.35,19.51,21.35,33.92c0,11.52-4.34,20.56-13.02,27.13c-8.68,6.57-20.59,9.86-35.73,9.86
	c-10.67,0-20.34-1.91-28.99-5.74c-8.65-3.83-15.17-9.07-19.54-15.74c-0.59-0.91-1.15-1.83-1.66-2.77
	c-4.97-9.13,1.63-20.25,12.02-20.25h3.44c5.81,0,10.92,3.71,12.84,9.19c0.91,2.6,2.28,4.74,4.1,6.41c3.65,3.35,9.57,5.02,17.77,5.02
	c5.25,0,9.39-1.13,12.44-3.39C71.86,204.3,73.38,201.12,73.38,197.01z"/>
<path class="st1" d="M378.81,210.88c0-2.63-0.93-4.68-2.79-6.15c-1.86-1.47-5.13-2.99-9.81-4.56c-4.68-1.57-8.51-3.09-11.48-4.56
	c-9.67-4.75-14.5-11.27-14.5-19.57c0-4.13,1.2-7.78,3.61-10.94c2.41-3.16,5.82-5.62,10.22-7.38c4.41-1.76,9.36-2.64,14.86-2.64
	c5.36,0,10.17,0.96,14.42,2.87c4.25,1.91,7.56,4.64,9.92,8.17c0.02,0.04,0.05,0.07,0.07,0.11c3.39,5.15-0.32,12.01-6.49,12.01h-1.83
	c-3.03,0-5.77-1.77-7.04-4.51c-0.46-0.98-1.09-1.84-1.9-2.56c-1.86-1.67-4.38-2.51-7.56-2.51c-3.21,0-5.75,0.71-7.61,2.13
	c-1.86,1.42-2.79,3.22-2.79,5.41c0,1.91,1.02,3.65,3.07,5.2c2.05,1.55,5.65,3.16,10.81,4.82c5.16,1.66,9.39,3.44,12.71,5.35
	c8.06,4.65,12.09,11.05,12.09,19.22c0,6.53-2.46,11.65-7.38,15.37c-4.92,3.72-11.67,5.59-20.24,5.59c-6.05,0-11.52-1.08-16.42-3.25
	c-4.9-2.17-8.59-5.14-11.07-8.92c-0.34-0.51-0.65-1.04-0.94-1.57c-2.82-5.17,0.92-11.47,6.81-11.47h1.95c3.29,0,6.19,2.1,7.28,5.21
	c0.52,1.47,1.29,2.68,2.33,3.63c2.07,1.9,5.42,2.84,10.07,2.84c2.97,0,5.32-0.64,7.05-1.92C377.95,215,378.81,213.2,378.81,210.88z"
	/>
<path class="st3" d="M378.81,210.88c0-2.63-0.93-4.68-2.79-6.15c-1.86-1.47-5.13-2.99-9.81-4.56c-4.68-1.57-8.51-3.09-11.48-4.56
	c-9.67-4.75-14.5-11.27-14.5-19.57c0-4.13,1.2-7.78,3.61-10.94c2.41-3.16,5.82-5.62,10.22-7.38c4.41-1.76,9.36-2.64,14.86-2.64
	c5.36,0,10.17,0.96,14.42,2.87c4.25,1.91,7.56,4.64,9.92,8.17c0.02,0.04,0.05,0.07,0.07,0.11c3.39,5.15-0.32,12.01-6.49,12.01h-1.83
	c-3.03,0-5.77-1.77-7.04-4.51c-0.46-0.98-1.09-1.84-1.9-2.56c-1.86-1.67-4.38-2.51-7.56-2.51c-3.21,0-5.75,0.71-7.61,2.13
	c-1.86,1.42-2.79,3.22-2.79,5.41c0,1.91,1.02,3.65,3.07,5.2c2.05,1.55,5.65,3.16,10.81,4.82c5.16,1.66,9.39,3.44,12.71,5.35
	c8.06,4.65,12.09,11.05,12.09,19.22c0,6.53-2.46,11.65-7.38,15.37c-4.92,3.72-11.67,5.59-20.24,5.59c-6.05,0-11.52-1.08-16.42-3.25
	c-4.9-2.17-8.59-5.14-11.07-8.92c-0.34-0.51-0.65-1.04-0.94-1.57c-2.82-5.17,0.92-11.47,6.81-11.47h1.95c3.29,0,6.19,2.1,7.28,5.21
	c0.52,1.47,1.29,2.68,2.33,3.63c2.07,1.9,5.42,2.84,10.07,2.84c2.97,0,5.32-0.64,7.05-1.92C377.95,215,378.81,213.2,378.81,210.88z"
	/>
<g>
	<g>
		<path class="st4" d="M128.28,100.61h31.75c8.26,0,15.34,0.84,21.25,2.5c5.91,1.67,11.27,4.8,16.08,9.39
			c12.52,11.69,18.79,29.46,18.79,53.31c0,7.87-0.63,15.06-1.89,21.56c-1.26,6.5-3.2,12.36-5.83,17.58
			c-2.62,5.22-5.99,9.88-10.09,14c-3.23,3.16-6.75,5.69-10.58,7.6c-3.83,1.91-7.95,3.25-12.35,4.02c-4.4,0.78-9.37,1.16-14.89,1.16
			h-31.75c-4.43,0-7.77-0.73-10.01-2.19c-2.24-1.46-3.71-3.52-4.39-6.17c-0.68-2.65-1.03-6.1-1.03-10.33v-96.15
			c0-5.72,1.18-9.87,3.53-12.43C119.23,101.9,123.03,100.61,128.28,100.61z M143.66,131.47v69.31h14.38c3.15,0,5.62-0.09,7.41-0.28
			c1.79-0.18,3.64-0.65,5.56-1.39c1.92-0.74,3.58-1.79,4.98-3.14c6.35-5.85,9.52-15.93,9.52-30.23c0-10.08-1.4-17.62-4.19-22.64
			c-2.79-5.02-6.23-8.21-10.32-9.58c-4.09-1.37-9.03-2.05-14.82-2.05H143.66z"/>
	</g>
</g>
<g>
	<g>
		<path class="st5" d="M128.28,100.61h31.75c8.26,0,15.34,0.84,21.25,2.5c5.91,1.67,11.27,4.8,16.08,9.39
			c12.52,11.69,18.79,29.46,18.79,53.31c0,7.87-0.63,15.06-1.89,21.56c-1.26,6.5-3.2,12.36-5.83,17.58
			c-2.62,5.22-5.99,9.88-10.09,14c-3.23,3.16-6.75,5.69-10.58,7.6c-3.83,1.91-7.95,3.25-12.35,4.02c-4.4,0.78-9.37,1.16-14.89,1.16
			h-31.75c-4.43,0-7.77-0.73-10.01-2.19c-2.24-1.46-3.71-3.52-4.39-6.17c-0.68-2.65-1.03-6.1-1.03-10.33v-96.15
			c0-5.72,1.18-9.87,3.53-12.43C119.23,101.9,123.03,100.61,128.28,100.61z M143.66,131.47v69.31h14.38c3.15,0,5.62-0.09,7.41-0.28
			c1.79-0.18,3.64-0.65,5.56-1.39c1.92-0.74,3.58-1.79,4.98-3.14c6.35-5.85,9.52-15.93,9.52-30.23c0-10.08-1.4-17.62-4.19-22.64
			c-2.79-5.02-6.23-8.21-10.32-9.58c-4.09-1.37-9.03-2.05-14.82-2.05H143.66z"/>
	</g>
</g>
<path class="st0" d="M268.56,40.41c0.6,1.26,1.12,2.61,1.6,3.98C281.15,75.32,251.09,86,251.09,86l-7.12-20.04L268.56,40.41z"/>
<path class="st6" d="M243.97,65.96L251.09,86c0,0-30.06,10.68-41.05-20.25c-0.49-1.37-0.94-2.75-1.27-4.1L243.97,65.96z"/>
<path class="st0" d="M253.39,19.54l-18.92,19.7L221.42,2.5C221.42,2.5,238.69,6.22,253.39,19.54z"/>
<path class="st6" d="M221.42,2.5l13.05,36.74l-27.11-3.35C210.37,16.28,221.42,2.5,221.42,2.5z"/>
<path class="st0" d="M234.47,39.24l9.49,26.72l-35.2-4.31c-2.58-9.16-2.65-17.94-1.4-25.76L234.47,39.24z"/>
<path class="st6" d="M268.56,40.41l-24.59,25.55l-9.49-26.72l18.92-19.7C259.29,24.82,264.77,31.68,268.56,40.41z"/>
<path class="st7" d="M256.14,17.96c-15.23-13.8-32.86-17.72-33.6-17.88c-1.31-0.28-2.67,0.2-3.51,1.25
	c-0.48,0.59-11.68,14.76-14.79,35.05c-1.49,9.3-0.98,18.48,1.46,27.16c0.31,1.28,0.74,2.65,1.37,4.45
	c9.73,27.39,33.29,25.21,42.14,23.31l2.47,6.96c0.66,1.85,2.68,2.81,4.53,2.15c1.85-0.66,2.81-2.68,2.15-4.53l-2.47-6.96
	c8.06-4.11,27.71-17.28,17.99-44.67c-0.64-1.79-1.17-3.13-1.69-4.21C268.55,31.66,263.15,24.22,256.14,17.96z M264.64,40.8
	l-18.88,19.62l-6.84-19.26l14.91-15.52C258.29,30.12,261.91,35.18,264.64,40.8z M248.57,20.87l-12.31,12.82L227.5,9.03
	C232.91,11.01,240.91,14.7,248.57,20.87z M220.82,11.4l8.76,24.67l-17.64-2.18C213.99,24.26,217.88,16.35,220.82,11.4z M210.88,40.9
	l21.36,2.64l6.84,19.26l-27.03-3.31C210.62,53.45,210.23,47.23,210.88,40.9z M214.29,66.9l27.44,3.36l5.1,14.36
	C239.46,86.14,222.26,87.18,214.29,66.9z M253.5,82.22l-5.09-14.34l19.17-19.92C274.16,68.63,260.18,78.73,253.5,82.22z"/>
<path class="st8" d="M18.21,124.49c0,0,5.03-9.45,14.71-11.77"/>
<path class="st8" d="M243.73,124.49c0,0,5.03-9.45,14.71-11.77"/>
<path class="st8" d="M124.18,126.43c0,0-1.16-12.81,1.26-14.58c1.5-1.1,10.29-0.9,10.29-0.9"/>
</svg>
