<?xml version="1.0" encoding="utf-8"?>
<!-- Generator: Adobe Illustrator 26.2.1, SVG Export Plug-In . SVG Version: 6.00 Build 0)  -->
<svg version="1.1" id="Layer_1" xmlns="http://www.w3.org/2000/svg" xmlns:xlink="http://www.w3.org/1999/xlink" x="0px" y="0px"
	 viewBox="0 0 308.41 281.35" style="enable-background:new 0 0 308.41 281.35;" xml:space="preserve">
<style type="text/css">
	.st0{fill:#68C6F9;}
	.st1{fill:#80DCE8;}
	.st2{fill:#F4BAA6;}
	.st3{fill:#DC94FF;}
	.st4{fill:#E1BAFF;}
	.st5{fill:#15B76D;}
	.st6{fill:#348FD9;}
	.st7{fill:#65BEEF;}
	.st8{fill:#87CC46;}
	.st9{fill:#5BB234;}
	.st10{fill:#8C6239;}
	.st11{fill:#222222;}
	.st12{fill:#252525;}
	.st13{fill:none;stroke:#222222;stroke-width:10;stroke-linecap:round;stroke-linejoin:round;stroke-miterlimit:10;}
</style>
<path class="st0" d="M159.05,108.8L159.05,108.8c-7.37,0-13.34-5.97-13.34-13.34V40.48h26.68v54.98
	C172.39,102.83,166.41,108.8,159.05,108.8z"/>
<g>
	<polygon class="st1" points="66.45,84.72 72.84,96.14 85.61,105.23 99.75,108.14 116.39,103.85 128.39,92.46 133.67,77.17 
		121.22,71.56 106.32,77.17 93.16,71.56 79.03,77.17 71.1,73.11 64.71,73.11 	"/>
	<rect x="123.22" y="247.03" class="st2" width="21.68" height="24.58"/>
	<polygon class="st3" points="167.4,247.03 100.5,247.03 121.14,208.04 147.13,208.04 	"/>
	<rect x="110.34" y="170.17" class="st4" width="47.59" height="37.64"/>
	<path class="st5" d="M90.42,280.15H66.75v-47.63c0-3.95,3.2-7.14,7.14-7.14h9.38c3.95,0,7.14,3.2,7.14,7.14V280.15z"/>
	<rect x="8.38" y="170.17" class="st6" width="44.13" height="47.45"/>
	<rect x="16.99" y="216.07" class="st7" width="25.99" height="53.62"/>
	<circle class="st2" cx="29.99" cy="145.23" r="7.42"/>
	<circle class="st2" cx="133.95" cy="145.23" r="7.42"/>
	<circle class="st2" cx="78.59" cy="203.71" r="7.42"/>
	<path class="st8" d="M232.74,184.24v38c0,0-52.25,0-52.25-56c0-4.7,0.29-9.22,0.9-13.59L232.74,184.24z"/>
	<path class="st9" d="M196.35,110.57l37.05,23.56c-0.43,8.22-0.67,17.05-0.67,26.36v23.75l-51.35-31.59
		C183.43,136.32,189.18,122.3,196.35,110.57z"/>
	<path class="st8" d="M242.24,65.49c0,0-6.65,26.6-8.84,68.64l-37.05-23.56C214.64,80.5,242.24,65.49,242.24,65.49z"/>
	<path class="st9" d="M288.13,110.57l-37.05,23.56c-2.19-42.04-8.84-68.64-8.84-68.64S269.84,80.5,288.13,110.57z"/>
	<path class="st9" d="M303.09,152.66c0.62,4.37,0.9,8.88,0.9,13.59c0,56-52.25,56-52.25,56v-38L303.09,152.66z"/>
	<path class="st8" d="M303.09,152.66l-51.35,31.59v-23.75c0-9.31-0.24-18.15-0.67-26.36l37.05-23.56
		C295.3,122.3,301.05,136.32,303.09,152.66z"/>
	<path class="st10" d="M251.08,134.13c0.43,8.22,0.67,17.05,0.67,26.36v23.75v38v43.11c0,5.23-4.28,9.5-9.5,9.5
		c-5.23,0-9.5-4.28-9.5-9.5v-43.11v-38v-23.75c0-9.31,0.24-18.15,0.67-26.36c2.19-42.04,8.84-68.64,8.84-68.64
		S248.89,92.09,251.08,134.13z"/>
	<g>
		<path class="st11" d="M29.99,157.9c-6.98,0-12.66-5.68-12.66-12.66s5.68-12.66,12.66-12.66s12.66,5.68,12.66,12.66
			S36.97,157.9,29.99,157.9z M29.99,140.57c-2.57,0-4.66,2.09-4.66,4.66s2.09,4.66,4.66,4.66s4.66-2.09,4.66-4.66
			S32.56,140.57,29.99,140.57z"/>
		<path class="st11" d="M55.98,222.87c-2.21,0-4-1.79-4-4v-38.98c0-4.96-4.04-9-9-9H16.99c-4.96,0-8.99,4.04-8.99,9v38.98
			c0,2.21-1.79,4-4,4s-4-1.79-4-4v-38.98c0-9.37,7.62-17,16.99-17h25.99c9.37,0,17,7.62,17,17v38.98
			C59.98,221.08,58.19,222.87,55.98,222.87z"/>
		<path class="st11" d="M29.99,271.76c-2.21,0-4-1.79-4-4v-40.22c0-2.21,1.79-4,4-4s4,1.79,4,4v40.22
			C33.99,269.96,32.2,271.76,29.99,271.76z"/>
		<path class="st11" d="M16.99,270.52H4c-2.21,0-4-1.79-4-4s1.79-4,4-4h8.99v-60.97c0-4.96-4.04-8.99-8.99-8.99c-2.21,0-4-1.79-4-4
			s1.79-4,4-4c9.37,0,16.99,7.62,16.99,16.99v64.97C20.99,268.73,19.2,270.52,16.99,270.52z"/>
		<path class="st11" d="M55.98,270.52h-13c-2.21,0-4-1.79-4-4v-64.97c0-9.37,7.62-16.99,17-16.99c2.21,0,4,1.79,4,4s-1.79,4-4,4
			c-4.96,0-9,4.04-9,8.99v60.97h9c2.21,0,4,1.79,4,4S58.19,270.52,55.98,270.52z"/>
		<path class="st11" d="M29.99,188.22c-2.21,0-4-1.79-4-4v-17.33c0-2.21,1.79-4,4-4s4,1.79,4,4v17.33
			C33.99,186.43,32.2,188.22,29.99,188.22z"/>
	</g>
	<g>
		<path class="st11" d="M133.95,157.9c-6.98,0-12.66-5.68-12.66-12.66s5.68-12.66,12.66-12.66s12.66,5.68,12.66,12.66
			S140.93,157.9,133.95,157.9z M133.95,140.57c-2.57,0-4.66,2.09-4.66,4.66s2.09,4.66,4.66,4.66s4.66-2.09,4.66-4.66
			S136.52,140.57,133.95,140.57z"/>
		<path class="st11" d="M159.94,214.21c-2.21,0-4-1.79-4-4v-30.32c0-4.96-4.04-9-9-9h-25.99c-4.96,0-8.99,4.04-8.99,9v30.32
			c0,2.21-1.79,4-4,4s-4-1.79-4-4v-30.32c0-9.37,7.62-17,16.99-17h25.99c9.37,0,17,7.62,17,17v30.32
			C163.94,212.42,162.14,214.21,159.94,214.21z"/>
		<path class="st11" d="M133.95,274.85c-2.21,0-4-1.79-4-4v-43.32c0-2.21,1.79-4,4-4s4,1.79,4,4v43.32
			C137.95,273.06,136.16,274.85,133.95,274.85z"/>
		<path class="st11" d="M120.95,274.85c-2.21,0-4-1.79-4-4v-17.66H99.29c-1.42,0-2.73-0.75-3.45-1.97s-0.74-2.73-0.05-3.97
			l21.15-38.08v-7.63c0-4.96-4.04-8.99-8.99-8.99c-2.21,0-4-1.79-4-4s1.79-4,4-4c9.37,0,16.99,7.62,16.99,16.99v8.66
			c0,0.68-0.17,1.35-0.5,1.94l-18.36,33.04h14.86c2.21,0,4,1.79,4,4v21.66C124.95,273.06,123.16,274.85,120.95,274.85z
			 M120.95,210.21L120.95,210.21L120.95,210.21z"/>
		<path class="st11" d="M146.94,274.85c-2.21,0-4-1.79-4-4v-21.66c0-2.21,1.79-4,4-4h14.86l-18.36-33.04
			c-0.33-0.59-0.5-1.26-0.5-1.94v-8.66c0-9.37,7.62-16.99,17-16.99c2.21,0,4,1.79,4,4s-1.79,4-4,4c-4.96,0-9,4.04-9,8.99v7.63
			l21.16,38.08c0.69,1.24,0.67,2.75-0.05,3.97s-2.03,1.97-3.45,1.97h-17.66v17.66C150.94,273.06,149.15,274.85,146.94,274.85z"/>
		<path class="st11" d="M133.95,188.22c-2.21,0-4-1.79-4-4v-17.33c0-2.21,1.79-4,4-4s4,1.79,4,4v17.33
			C137.95,186.43,136.16,188.22,133.95,188.22z"/>
	</g>
	<path class="st11" d="M78.59,216.37c-6.98,0-12.66-5.68-12.66-12.66s5.68-12.66,12.66-12.66s12.66,5.68,12.66,12.66
		S85.57,216.37,78.59,216.37z M78.59,199.05c-2.57,0-4.66,2.09-4.66,4.66s2.09,4.66,4.66,4.66s4.66-2.09,4.66-4.66
		S81.16,199.05,78.59,199.05z"/>
	<path class="st11" d="M91.58,281.35c-2.21,0-4-1.79-4-4v-38.98c0-4.96-4.04-9-8.99-9c-4.96,0-9,4.04-9,9v38.98c0,2.21-1.79,4-4,4
		s-4-1.79-4-4v-38.98c0-9.37,7.62-17,17-17c9.37,0,16.99,7.62,16.99,17v38.98C95.58,279.55,93.79,281.35,91.58,281.35z"/>
	<path class="st11" d="M78.59,281.35c-2.21,0-4-1.79-4-4v-17.33c0-2.21,1.79-4,4-4s4,1.79,4,4v17.33
		C82.59,279.55,80.8,281.35,78.59,281.35z"/>
	<path class="st12" d="M291.94,110.77c-18.65-30.65-46.27-45.92-47.44-46.55c-1.4-0.77-3.11-0.77-4.51,0
		c-1.17,0.63-28.79,15.9-47.44,46.54c-8.4,13.75-13.63,28.47-15.53,43.68c-0.64,4.48-0.95,9.12-0.95,14.18
		c0,49.43,38.39,58.44,51.99,60.08v38.18c0,7.82,6.36,14.18,14.18,14.18c7.82,0,14.18-6.36,14.18-14.18v-38.18
		c13.6-1.64,51.99-10.65,51.99-60.08c0-5.06-0.31-9.7-0.94-14.1C305.56,139.23,300.33,124.5,291.94,110.77z M297.64,152.71
		l-41.22,25.36V162.9c0-8.09-0.21-16.02-0.56-23.7l30.41-19.34C292.05,130.31,295.85,141.31,297.64,152.71z M281.36,111.78
		l-26.09,16.59c-1.51-22.21-4.14-39.38-6.07-49.8C257.79,84.83,270.81,95.92,281.36,111.78z M235.28,78.59
		c-1.93,10.42-4.56,27.58-6.07,49.78l-26.09-16.59C213.65,95.97,226.68,84.86,235.28,78.59z M198.21,119.86l30.41,19.34
		c-0.35,7.68-0.56,15.61-0.56,23.7v15.17l-41.22-25.36C188.62,141.35,192.42,130.33,198.21,119.86z M185.52,168.61
		c0-1.91,0.08-3.71,0.18-5.51l42.36,26.06v30.08C216.04,217.73,185.52,209.81,185.52,168.61z M246.97,266.88
		c0,2.61-2.12,4.73-4.73,4.73s-4.73-2.12-4.73-4.73V162.9c0-8.89,0.22-17.63,0.66-25.99c0.87-16.77,2.48-31.1,4.07-42.17
		c1.59,11.08,3.2,25.4,4.07,42.17c0.43,8.35,0.66,17.1,0.66,25.99V266.88z M256.42,219.25v-30.08l42.36-26.06
		c0.1,1.79,0.17,3.59,0.17,5.51C298.96,209.81,268.44,217.73,256.42,219.25z"/>
	<g>
		<path class="st11" d="M112.54,36.45V17.48h3.48c1.48,0,2.67-1.2,2.67-2.67V3.29c0-1.48-1.2-2.67-2.67-2.67H83.15
			c-1.48,0-2.67,1.2-2.67,2.67v11.52c0,1.48,1.2,2.67,2.67,2.67h3.48v18.98c-14.88,5.07-26.1,21.2-26.1,37.07
			c0,20.43,18.62,39.05,39.05,39.05c20.43,0,39.05-18.62,39.05-39.05C138.63,57.66,127.41,41.52,112.54,36.45z M91.03,43
			c1.15-0.32,1.95-1.37,1.95-2.57V13.81c0-1.48-1.2-2.67-2.67-2.67h-2.48V7.96h23.52v3.17h-2.48c-1.48,0-2.67,1.2-2.67,2.67v26.62
			c0,1.2,0.8,2.25,1.95,2.57c13.63,3.81,23.15,16.37,23.15,30.53c0,0.1-0.01,0.2-0.01,0.31c-1.17-0.34-2.01-0.96-3.04-1.74
			c-1.83-1.38-4.1-3.09-8.38-3.09c-4.28,0-6.56,1.71-8.38,3.09c-1.55,1.17-2.67,2.02-5.17,2.02c-2.49,0-3.61-0.85-5.16-2.02
			c-1.83-1.38-4.1-3.09-8.38-3.09c-4.28,0-6.55,1.71-8.38,3.09c-1.55,1.17-2.67,2.02-5.16,2.02c-2.49,0-3.61-0.85-5.16-2.02
			c-1.43-1.08-3.14-2.35-5.86-2.86C69.9,56.89,78.8,46.42,91.03,43z M99.59,105.23c-17.1,0-31.08-13.62-31.68-30.58
			c1.12,0.35,1.94,0.96,2.93,1.71c1.83,1.38,4.1,3.09,8.38,3.09c4.28,0,6.55-1.71,8.38-3.09c1.55-1.17,2.67-2.02,5.16-2.02
			c2.49,0,3.61,0.85,5.16,2.02c1.83,1.38,4.1,3.09,8.38,3.09c4.28,0,6.56-1.71,8.38-3.09c1.55-1.17,2.67-2.02,5.17-2.02
			c2.49,0,3.62,0.85,5.17,2.02c1.41,1.06,3.09,2.31,5.74,2.84C128.09,93.98,115.13,105.23,99.59,105.23z"/>
		<path class="st11" d="M91.03,54.4c0.33,0,0.66-0.06,0.98-0.19c0.64-0.25,1.31-0.47,1.98-0.66c1.42-0.4,2.25-1.87,1.85-3.29
			c-0.4-1.42-1.87-2.25-3.29-1.85c-0.85,0.24-1.69,0.52-2.5,0.84c-1.37,0.54-2.05,2.09-1.51,3.46C88.95,53.76,89.96,54.4,91.03,54.4
			z"/>
		<path class="st11" d="M76.28,70.03c0.23,0.06,0.47,0.09,0.7,0.09c1.18,0,2.26-0.78,2.58-1.97c1.05-3.9,3.21-7.39,6.23-10.09
			c1.1-0.99,1.19-2.67,0.21-3.77c-0.98-1.1-2.67-1.19-3.77-0.21c-3.79,3.4-6.49,7.78-7.82,12.68
			C74.01,68.18,74.86,69.64,76.28,70.03z"/>
	</g>
	<path class="st11" d="M180.75,0h-43.4c-1.48,0-2.67,1.2-2.67,2.67V17.3c0,1.48,1.2,2.67,2.67,2.67h4.36v73.88
		c0,8.46,8.88,17.34,17.34,17.34c8.46,0,17.34-8.88,17.34-17.34V19.97h4.36c1.48,0,2.67-1.2,2.67-2.67V2.67
		C183.42,1.2,182.22,0,180.75,0z M176.08,13.62h-4.36c-1.48,0-2.67,1.2-2.67,2.67v77.56c0,5.51-4.48,9.99-9.99,9.99
		c-5.51,0-9.99-4.48-9.99-9.99V80.89h8.69c1.48,0,2.67-1.2,2.67-2.67s-1.2-2.67-2.67-2.67h-8.69V63.37h8.69
		c1.48,0,2.67-1.2,2.67-2.67c0-1.48-1.2-2.67-2.67-2.67h-8.69V45.86h8.69c1.48,0,2.67-1.2,2.67-2.67c0-1.48-1.2-2.67-2.67-2.67
		h-8.69V16.3c0-1.48-1.2-2.67-2.67-2.67h-4.36V7.34h34.06V13.62z"/>
</g>
<path class="st13" d="M30.39,119.93c1.44-8.31,3.82-16.3,7.02-23.85c3.23-7.62,7.29-14.8,12.07-21.43"/>
<path class="st13" d="M207.23,231.69c-5.14,3.75-10.62,7.06-16.39,9.88c-3.56,1.74-7.24,3.3-11.01,4.66"/>
<path class="st13" d="M186.84,40.14c5.98,2.93,11.65,6.38,16.95,10.29c5.81,4.29,11.19,9.14,16.04,14.47"/>
</svg>
