<?xml version="1.0" encoding="utf-8"?>
<!-- Generator: Adobe Illustrator 26.2.1, SVG Export Plug-In . SVG Version: 6.00 Build 0)  -->
<svg version="1.1" id="Isolation_Mode" xmlns="http://www.w3.org/2000/svg" xmlns:xlink="http://www.w3.org/1999/xlink" x="0px"
	 y="0px" viewBox="0 0 320 255" style="enable-background:new 0 0 320 255;" xml:space="preserve">
<style type="text/css">
	.st0{fill:#FCD088;}
	.st1{fill:#F9BB3D;}
	.st2{fill:#7296B1;}
	.st3{fill:#999999;}
	.st4{fill:#FCF3EA;}
	.st5{fill:#EDE5DD;}
	.st6{fill:#FFFFFF;}
	.st7{fill:#E0D0C1;}
	.st8{fill:#252525;}
	.st9{fill:#23A9F4;}
	.st10{fill:#6BD7FF;}
	.st11{fill:#1F191A;}
</style>
<g>
	<g>
		<polygon class="st0" points="273.4,184.25 252.2,163.05 273.4,141.8 185,110 266.33,191.32 		"/>
		<polygon class="st1" points="185,110 216.8,198.4 238.05,177.2 259.25,198.4 266.33,191.32 		"/>
		<path class="st2" d="M5,225h310c0,13.8-11.2,25-25,25h-85h-25h-40h-25H30C16.2,250,5,238.8,5,225z"/>
		<circle class="st3" cx="75" cy="195" r="10"/>
		<circle class="st3" cx="155" cy="195" r="10"/>
		<polygon class="st4" points="165,85 165,125 80,125 70,85 		"/>
		<path class="st2" d="M314.5,25H5.5c1-4.9,3.4-9.3,6.8-12.7C16.85,7.8,23.1,5,30,5h260C302.1,5,312.2,13.6,314.5,25z"/>
		<path class="st5" d="M315,225H5v-15V30c0-1.7,0.15-3.4,0.5-5h309c0.35,1.6,0.5,3.3,0.5,5v180V225z"/>
		<path class="st6" d="M25,115L25,115c-2.76,0-5-2.24-5-5V50c0-2.76,2.24-5,5-5l0,0c2.76,0,5,2.24,5,5v60
			C30,112.76,27.76,115,25,115z"/>
		<circle class="st6" cx="25" cy="130" r="5"/>
		<circle class="st7" cx="292.5" cy="202.5" r="7.5"/>
	</g>
	<g>
		<path class="st8" d="M210.58,255H290c16.54,0,30-13.46,30-30V30c0-2.15-0.21-4.18-0.61-6.03C316.57,10.08,304.21,0,290,0H30
			C22.02,0,14.48,3.11,8.76,8.76c-4.16,4.15-6.98,9.42-8.15,15.16C0.21,25.79,0,27.84,0,30v195c0,16.54,13.46,30,30,30h79.42
			 M10,220V30h300v190H10z M30,10h260c7.28,0,13.79,3.98,17.29,10H12.69c0.86-1.51,1.89-2.91,3.12-4.15C19.63,12.08,24.67,10,30,10z
			 M290,245H30c-9.29,0-17.05-6.4-19.29-15h298.58C307.05,238.6,299.29,245,290,245z"/>
		<path class="st8" d="M245,55h50c2.76,0,5-2.24,5-5s-2.24-5-5-5h-50c-2.76,0-5,2.24-5,5S242.24,55,245,55z"/>
		<path class="st8" d="M295,65h-30c-2.76,0-5,2.24-5,5s2.24,5,5,5h30c2.76,0,5-2.24,5-5S297.76,65,295,65z"/>
		<circle class="st8" cx="245" cy="70" r="5"/>
	</g>
</g>
<path class="st9" d="M160.03,170.47L160.03,170.47c-14.84,0-26.86-12.03-26.86-26.86V76.86c0-14.84,12.03-26.86,26.86-26.86h0
	c14.84,0,26.86,12.03,26.86,26.86v66.74C186.89,158.44,174.87,170.47,160.03,170.47z"/>
<path class="st10" d="M186.57,110V76.97c0-14.84-12.03-26.86-26.86-26.86h0c-14.84,0-26.86,12.03-26.86,26.86V110H186.57z"/>
<g>
	<g>
		<g>
			<path class="st11" d="M159.99,175.05c-17.63,0-31.98-14.34-31.98-31.98V76.56c0-17.63,14.34-31.98,31.98-31.98
				c17.63,0,31.98,14.34,31.98,31.98v66.51C191.97,160.7,177.62,175.05,159.99,175.05z M159.99,54.81
				c-11.99,0-21.74,9.76-21.74,21.74v66.51c0,11.99,9.75,21.74,21.74,21.74c11.99,0,21.74-9.76,21.74-21.74V76.56
				C181.73,64.57,171.98,54.81,159.99,54.81z"/>
		</g>
		<g>
			<path class="st11" d="M160.22,195.51h-0.54c-30.17,0-54.69-25.59-54.69-55.87v-2.96c0-2.83,2.29-5.12,5.12-5.12
				c2.83,0,5.12,2.29,5.12,5.12v2.96c0,24.32,20.26,45.64,44.46,45.64h0.54c23.62,0,44.54-20.9,44.54-45.64v-2.96
				c0-2.83,2.29-5.12,5.12-5.12c2.83,0,5.12,2.29,5.12,5.12v2.96C214.99,170.45,189.89,195.51,160.22,195.51z"/>
		</g>
		<g>
			<path class="st11" d="M180.78,213.42h-43.49c-2.83,0-5.12-2.29-5.12-5.12c0-2.83,2.29-5.12,5.12-5.12h43.49
				c2.83,0,5.12,2.29,5.12,5.12C185.89,211.13,183.6,213.42,180.78,213.42z"/>
		</g>
		<g>
			<path class="st11" d="M158.71,208.3c-2.83,0-5.12-2.29-5.12-5.12V190.4c0-2.83,2.29-5.12,5.12-5.12s5.12,2.29,5.12,5.12v12.79
				C163.83,206.01,161.54,208.3,158.71,208.3z"/>
		</g>
		<g>
			<path class="st11" d="M152.22,85.81c-2.83,0-5.12-2.29-5.12-5.12V67.9c0-2.83,2.29-5.12,5.12-5.12c2.83,0,5.12,2.29,5.12,5.12
				v12.79C157.34,83.52,155.05,85.81,152.22,85.81z"/>
		</g>
		<g>
			<path class="st11" d="M167.76,85.81c-2.83,0-5.12-2.29-5.12-5.12V67.9c0-2.83,2.29-5.12,5.12-5.12c2.83,0,5.12,2.29,5.12,5.12
				v12.79C172.88,83.52,170.58,85.81,167.76,85.81z"/>
		</g>
	</g>
</g>
</svg>
