<?xml version="1.0" encoding="utf-8"?>
<!-- Generator: Adobe Illustrator 26.2.1, SVG Export Plug-In . SVG Version: 6.00 Build 0)  -->
<svg version="1.1" id="Isolation_Mode" xmlns="http://www.w3.org/2000/svg" xmlns:xlink="http://www.w3.org/1999/xlink" x="0px"
	 y="0px" viewBox="0 0 320 310.06" style="enable-background:new 0 0 320 310.06;" xml:space="preserve">
<style type="text/css">
	.st0{fill:#7D562E;}
	.st1{fill:#58391B;}
	.st2{fill:#5EAC24;}
	.st3{fill:#8AD355;}
	.st4{fill:#ADE080;}
	.st5{fill:#47811B;}
	.st6{fill:#C9A575;}
	.st7{fill:#252525;}
</style>
<g>
	<g>
		<path class="st0" d="M230,233.21c8.05-2.95,17.95-4.5,30-3.15c34.55,3.85,48.45,28.3,53.05,39.45c1.3,3.15,1.95,6.45,1.95,9.8
			c0,7.15-2.9,13.55-7.55,18.2c-4.65,4.65-11.05,7.55-18.2,7.55H30.75C16.5,305.06,5,293.56,5,279.31c0-3.35,0.65-6.65,1.95-9.8
			c4.6-11.15,18.5-35.6,53.05-39.45c12.05-1.35,21.95,0.2,30,3.15c6.4-11.15,20.7-26.95,50.85-31.7c5.75-0.95,12.15-1.45,19.15-1.45
			s13.35,0.5,19.15,1.45C209.35,206.26,223.6,222.06,230,233.21z"/>
		<path class="st1" d="M307.45,287.49c-4.65,4.65-11.05,7.55-18.2,7.55H30.75c-12.54,0-22.93-8.91-25.25-20.76
			c-0.33,1.65-0.5,3.33-0.5,5.02c0,14.25,11.5,25.75,25.75,25.75h258.5c7.15,0,13.55-2.9,18.2-7.55c4.65-4.65,7.55-11.05,7.55-18.2
			c0-1.69-0.17-3.37-0.5-5.03C313.49,279.4,310.99,283.96,307.45,287.49z"/>
		<path class="st1" d="M211.79,213.79C194.63,237.4,200,260.06,200,260.06s8.05-18.75,30-26.85
			C226.59,227.26,220.9,220,211.79,213.79z"/>
		<path class="st1" d="M107.81,213.79c17.16,23.61,11.79,46.27,11.79,46.27s-8.05-18.75-30-26.85
			C93.01,227.26,98.7,220,107.81,213.79z"/>
		<path class="st2" d="M149.9,96.86c0,2.45-0.05,5.45-0.15,8.95C14.75,151.71,5,11.46,5,11.46S113.8,47.31,149.9,96.86z"/>
		<path class="st3" d="M170,90.06c0,0,0,2.5,0.1,6.8C206.2,47.31,315,11.46,315,11.46S195-28.19,170,90.06z"/>
		<path class="st4" d="M256.37,13.43c1.81,4.62-6.51,12.2-18.59,16.93c-12.07,4.73-23.33,4.81-25.14,0.18s6.51-12.2,18.59-16.93
			C243.31,8.89,254.56,8.8,256.37,13.43z"/>
		<path class="st5" d="M170.25,105.81c-0.1-3.5-0.15-6.5-0.15-8.95c-0.1-4.3-0.1-6.8-0.1-6.8c0-15-10-30-10-30s-10,15-10,30
			c0,0,0,2.5-0.1,6.8c0,2.45-0.05,5.45-0.15,8.95c-0.55,23.2-2.45,66.95-8.9,95.7c5.75-0.95,12.15-1.45,19.15-1.45
			c7,0,13.4,0.5,19.15,1.45C172.7,172.76,170.8,129.01,170.25,105.81z"/>
		<path class="st3" d="M150,90.06c0,0,0,2.5-0.1,6.8C113.8,47.31,5,11.46,5,11.46S125-28.19,150,90.06z"/>
		<path class="st2" d="M170.1,96.86c0,2.45,0.05,5.45,0.15,8.95C305.25,151.71,315,11.46,315,11.46S206.2,47.31,170.1,96.86z"/>
		<circle class="st6" cx="65" cy="270.06" r="10"/>
		<circle class="st6" cx="147.5" cy="272.56" r="12.5"/>
		<circle class="st6" cx="255" cy="270.06" r="10"/>
		<circle class="st6" cx="175" cy="235.06" r="10"/>
		<path class="st3" d="M106.54,71.03c-4.71,0.93-10.89,2.6-16.85,5.54C107.1,86.89,127,98.11,129.02,93.7
			C130.79,89.84,121.55,81.19,106.54,71.03z"/>
		<path class="st3" d="M78.43,69.86c3.52-2.23,8.87-4.77,16.52-6.27c-3.72-2.28-7.62-4.59-11.7-6.9
			c-12.91-7.33-45.41-22.65-47.98-17.06c-2.57,5.59,20.38,16.73,41.36,29.17C77.21,69.13,77.83,69.5,78.43,69.86z"/>
		<path class="st5" d="M230.94,89.37c-19.7,6.94-34.48,8.15-31.65,11.74c3.36,4.28,28.46,7.2,52.45-4.61
			C243.92,92.72,235.66,90.47,230.94,89.37z"/>
		<path class="st5" d="M294.69,45.86c-3.81-4.84-19.82,21.72-42.16,33.98c-3.14,1.72-6.26,3.24-9.33,4.62
			c8.19,1.34,15,3.67,19.44,5.5C282.17,75.89,298.39,50.57,294.69,45.86z"/>
	</g>
	<g>
		<path class="st7" d="M317.67,267.6c-4.7-11.4-19.67-38.34-57.11-42.51c-10.11-1.13-19.58-0.3-28.32,2.25
			c-7.73-11.69-22.21-25.06-48.87-30.14c-5.24-25.54-7.2-61.28-7.92-84.48c16.03,4.87,30.95,7.31,44.69,7.31
			c19.39,0,36.45-4.84,51.01-14.53c43.87-29.17,48.65-91.08,48.84-93.71c0.16-2.28-1.25-4.38-3.42-5.09
			c-2.33-0.77-57.55-18.55-102.25,7.14c-20.3,11.67-34.9,30.51-43.75,55.91c-2.89-7.12-6.16-12.1-6.4-12.47
			c-1.86-2.78-6.46-2.78-8.32,0c-0.24,0.37-3.52,5.35-6.4,12.47c-8.86-25.4-23.45-44.24-43.75-55.91
			C60.98-11.84,5.76,5.94,3.43,6.71C1.26,7.43-0.15,9.52,0.01,11.8c0.18,2.62,4.97,64.54,48.84,93.71
			c14.57,9.69,31.62,14.53,51.01,14.53c13.74,0,28.66-2.44,44.69-7.32c-0.72,23.18-2.67,58.94-7.92,84.49
			c-27.69,5.32-42.02,19.87-48.87,30.13c-8.73-2.56-18.21-3.39-28.33-2.26C22,229.26,7.03,256.21,2.33,267.6
			C0.78,271.34,0,275.28,0,279.31c0,16.96,13.79,30.75,30.75,30.75H170c2.76,0,5-2.24,5-5c0-2.76-2.24-5-5-5H30.75
			c-11.44,0-20.75-9.31-20.75-20.75c0-2.71,0.53-5.37,1.57-7.9c4.02-9.75,16.84-32.8,48.98-36.38c10.09-1.14,19.42-0.17,27.71,2.87
			c19.53,7.21,27.07,23.98,27.14,24.13c1.09,2.53,4.02,3.7,6.57,2.62c2.54-1.09,3.71-4.03,2.62-6.57
			c-0.33-0.77-7.77-17.55-27.19-27.1c7.21-9.93,20.37-20.79,44.27-24.55c0.02,0,0.05-0.01,0.07-0.01c0,0,0,0,0.01,0
			c11.03-1.81,25.36-1.84,36.63,0.02c23.85,3.75,37.01,14.61,44.22,24.54c-19.42,9.55-26.86,26.33-27.19,27.1
			c-1.09,2.54,0.09,5.48,2.62,6.57c2.53,1.08,5.48-0.08,6.57-2.62c0.07-0.17,7.43-16.86,27.13-24.13c8.3-3.04,17.62-4.01,27.72-2.87
			c32.14,3.58,44.96,26.64,48.98,36.39c1.04,2.52,1.57,5.18,1.57,7.89c0,5.53-2.16,10.74-6.09,14.66
			c-3.92,3.93-9.13,6.09-14.66,6.09H235c-2.76,0-5,2.24-5,5c0,2.76,2.24,5,5,5h54.25c8.21,0,15.93-3.2,21.73-9.02
			c5.81-5.81,9.02-13.53,9.02-21.73C320,275.28,319.22,271.34,317.67,267.6z M265.61,97.18c-22.93,15.24-53.36,16.88-90.45,4.95
			c-0.03-1.28-0.04-2.46-0.05-3.58c30.05-39.63,109.1-70.69,133.9-79.69C306.33,35.81,296.8,76.44,265.61,97.18z M219.25,22.55
			c26.98-15.53,59.18-13.36,78.09-10.07c-28.35,10.74-86.96,35.58-119.84,68.28C185.18,53.69,199.17,34.11,219.25,22.55z
			 M100.7,22.51c20.11,11.56,34.11,31.16,41.81,58.24C109.61,48.05,50.97,23.2,22.64,12.47C41.51,9.16,73.67,6.98,100.7,22.51z
			 M54.43,97.21C23.28,76.53,13.71,35.83,10.99,18.86C35.8,27.86,114.82,58.9,144.88,98.55c-0.01,1.11-0.02,2.29-0.05,3.58
			C107.77,114.05,77.36,112.43,54.43,97.21z M147.13,195.68c5.41-28.83,7.1-67.96,7.62-89.74c0.1-3.56,0.15-6.6,0.15-8.97
			c0.1-4.37,0.1-6.91,0.1-6.91c0-7.08,2.58-14.31,5.01-19.55c2.42,5.22,4.99,12.44,4.99,19.55c0,0,0,2.54,0.1,6.8
			c0,2.49,0.05,5.54,0.15,9.07c0.52,21.8,2.2,60.94,7.62,89.77C164.5,194.89,155.39,194.89,147.13,195.68z"/>
		<path class="st7" d="M147.5,265.06c4.14,0,7.5,3.36,7.5,7.5c0,2.76,2.24,5,5,5c2.76,0,5-2.24,5-5c0-9.65-7.85-17.5-17.5-17.5
			c-9.65,0-17.5,7.85-17.5,17.5c0,9.65,7.85,17.5,17.5,17.5c2.76,0,5-2.24,5-5c0-2.76-2.24-5-5-5c-4.14,0-7.5-3.36-7.5-7.5
			C140,268.42,143.36,265.06,147.5,265.06z"/>
		<path class="st7" d="M65,275.06c-2.76,0-5,2.24-5,5c0,2.76,2.24,5,5,5c8.27,0,15-6.73,15-15c0-8.27-6.73-15-15-15
			c-8.27,0-15,6.73-15,15c0,2.76,2.24,5,5,5c2.76,0,5-2.24,5-5c0-2.76,2.24-5,5-5c2.76,0,5,2.24,5,5
			C70,272.82,67.76,275.06,65,275.06z"/>
		<path class="st7" d="M255,265.06c2.76,0,5,2.24,5,5c0,2.76,2.24,5,5,5s5-2.24,5-5c0-8.27-6.73-15-15-15c-8.27,0-15,6.73-15,15
			c0,8.27,6.73,15,15,15c2.76,0,5-2.24,5-5c0-2.76-2.24-5-5-5c-2.76,0-5-2.24-5-5C250,267.3,252.24,265.06,255,265.06z"/>
		<path class="st7" d="M190,235.06c0-8.27-6.73-15-15-15c-2.76,0-5,2.24-5,5s2.24,5,5,5c2.76,0,5,2.24,5,5s-2.24,5-5,5
			c-2.76,0-5-2.24-5-5c0-2.76-2.24-5-5-5c-2.76,0-5,2.24-5,5c0,8.27,6.73,15,15,15C183.27,250.06,190,243.33,190,235.06z"/>
		<path class="st7" d="M214.8,300.04h-25c-2.76,0-5,2.24-5,5c0,2.76,2.24,5,5,5h25c2.76,0,5-2.24,5-5
			C219.8,302.28,217.56,300.04,214.8,300.04z"/>
	</g>
</g>
</svg>
