<?xml version="1.0" encoding="utf-8"?>
<!-- Generator: Adobe Illustrator 26.2.1, SVG Export Plug-In . SVG Version: 6.00 Build 0)  -->
<svg version="1.1" id="Layer_1" xmlns="http://www.w3.org/2000/svg" xmlns:xlink="http://www.w3.org/1999/xlink" x="0px" y="0px"
	 viewBox="0 0 303.6 207.05" style="enable-background:new 0 0 303.6 207.05;" xml:space="preserve">
<style type="text/css">
	.st0{fill:#B8E6FF;}
	.st1{fill:#222222;}
	.st2{opacity:0.8;fill:#FFFFFF;}
</style>
<circle class="st0" cx="179.86" cy="172.37" r="29.99"/>
<circle class="st0" cx="262.16" cy="152.36" r="35.73"/>
<circle class="st0" cx="201.48" cy="41.39" r="35.73"/>
<path class="st0" d="M197.3,140.22H67.19c-16.17,0-29.28-13.11-29.28-29.28v0c0-16.17,13.11-29.28,29.28-29.28H197.3
	c16.17,0,29.28,13.11,29.28,29.28v0C226.58,127.11,213.47,140.22,197.3,140.22z"/>
<g>
	<path class="st1" d="M195.52,86.73c-1.2,0-2.05-0.05-2.46-0.07H29.87c-2.76,0-5-2.24-5-5s2.24-5,5-5h163.38
		c0.14,0,0.29,0.01,0.43,0.02c0.15,0.02,16.35,1.2,27.33-8.93c7.04-6.49,10.61-16.41,10.61-29.47c0-17.89-14-27.91-27.17-28.27
		c-10.56-0.28-22.17,5.65-23.12,23.16c-0.33,6.19,1.1,10.88,4.26,13.92c5.72,5.51,15.6,4.68,15.7,4.68
		c2.73-0.25,5.18,1.77,5.44,4.51c0.26,2.74-1.74,5.18-4.48,5.45c-0.59,0.06-14.46,1.32-23.54-7.37c-5.39-5.15-7.87-12.46-7.37-21.72
		c1.25-23.12,17.63-33.06,33.38-32.61c17.89,0.48,36.9,14.06,36.9,38.27c0,16.02-4.68,28.43-13.92,36.9
		C216.36,85.57,201.55,86.73,195.52,86.73z"/>
	<path class="st1" d="M184.31,207.05c-11.77,0-24.07-6.99-26.79-23.34c-1.1-6.61,0.06-12.28,3.45-16.84
		c5.48-7.37,14.57-8.73,15.59-8.86c2.74-0.35,5.24,1.59,5.59,4.33c0.35,2.74-1.59,5.24-4.33,5.59c-0.03,0-5.87,0.87-8.86,4.95
		c-1.7,2.32-2.22,5.33-1.58,9.18c2,11.98,11.24,15.52,18.55,14.92c9.27-0.77,19.24-8.03,19.24-22.16
		c0-28.93-31.88-29.59-33.24-29.61H75.39c-2.76,0-5-2.24-5-5s2.24-5,5-5h96.59c0.46,0,10.77,0.12,21.17,4.86
		c10.05,4.58,22.03,14.33,22.03,34.75c0,19.55-14.29,30.96-28.42,32.13C185.95,207.02,185.13,207.05,184.31,207.05z"/>
	<path class="st1" d="M262.93,193.85c-16.26,0-32.96-9.94-34.86-32.7c-0.77-9.21,1.42-16.87,6.5-22.78
		c8.43-9.79,21.73-10.78,22.29-10.82c2.75-0.15,5.14,1.9,5.32,4.66c0.18,2.75-1.9,5.14-4.66,5.32c-0.08,0.01-9.78,0.8-15.42,7.42
		c-3.24,3.79-4.61,8.96-4.07,15.37c1.51,18.07,14.52,24.01,26.15,23.5c14.26-0.59,29.42-10.9,29.42-28.82
		c0-12.17-3.53-21.58-10.5-27.99c-12.64-11.62-32.52-10.08-32.72-10.06c-0.14,0.01-0.28,0.02-0.42,0.02H5c-2.76,0-5-2.24-5-5
		s2.24-5,5-5h244.77c2.67-0.18,24.91-1.28,40.09,12.68c9.11,8.37,13.73,20.27,13.73,35.35c0,24.15-20.1,38.03-39,38.81
		C264.05,193.83,263.49,193.85,262.93,193.85z"/>
	<path class="st1" d="M59.81,145.22H42c-2.76,0-5-2.24-5-5s2.24-5,5-5h17.81c2.76,0,5,2.24,5,5S62.57,145.22,59.81,145.22z"/>
</g>
<circle class="st2" cx="213.18" cy="28.94" r="9.17"/>
<circle class="st2" cx="275.58" cy="156.49" r="9.17"/>
<circle class="st2" cx="191.03" cy="178.3" r="7.84"/>
</svg>
