<?xml version="1.0" encoding="utf-8"?>
<!-- Generator: Adobe Illustrator 26.2.1, SVG Export Plug-In . SVG Version: 6.00 Build 0)  -->
<svg version="1.1" id="Isolation_Mode" xmlns="http://www.w3.org/2000/svg" xmlns:xlink="http://www.w3.org/1999/xlink" x="0px"
	 y="0px" viewBox="0 0 159.41 94.25" style="enable-background:new 0 0 159.41 94.25;" xml:space="preserve">
<style type="text/css">
	.st0{fill:#32B34A;}
	.st1{fill:#222222;}
</style>
<g>
	<g>
		<path class="st0" d="M152.43,14.81c-1.21,0-2.49-0.36-3.68-1.04c-3.26-1.84-5.11-5.55-4.21-8.44c0.63-2.05,2.46-3.33,4.77-3.33
			c1.21,0,2.48,0.36,3.67,1.04c3.27,1.86,5.11,5.58,4.2,8.48C156.54,13.55,154.72,14.81,152.43,14.81
			C152.43,14.81,152.43,14.81,152.43,14.81z"/>
		<path class="st1" d="M149.31,4c0.83,0,1.76,0.25,2.68,0.77c2.44,1.39,3.92,4.13,3.29,6.14c-0.39,1.23-1.48,1.9-2.84,1.9
			c-0.84,0-1.77-0.25-2.7-0.78c-2.44-1.38-3.91-4.11-3.29-6.11C146.83,4.68,147.94,4,149.31,4 M149.31,0c-3.18,0-5.8,1.87-6.69,4.75
			c-1.19,3.8,1.02,8.44,5.14,10.76c1.49,0.85,3.11,1.29,4.66,1.29c3.15,0,5.77-1.85,6.66-4.71c1.2-3.81-1-8.46-5.12-10.81
			C152.48,0.45,150.86,0,149.31,0L149.31,0z"/>
	</g>
</g>
<g>
	<g>
		<path class="st0" d="M23.69,92.25c-2.18,0-3.68-0.53-3.84-0.59c-0.38-0.14-0.71-0.39-0.94-0.72L2.37,67.74
			c-0.34-0.47-0.45-1.07-0.31-1.64c2.97-12.02,12.33-21.8,12.73-22.21C37.27,20.47,99.54,9.88,102.18,9.44
			c0.04-0.01,0.09-0.01,0.13-0.02l19.25-1.91c0.24-0.05,0.49-0.08,0.75-0.08c3.86,0,13.48,7.82,17.44,11.18
			c0.16,0.13,0.3,0.29,0.41,0.47l7.18,11.59c0.2,0.32,0.3,0.68,0.3,1.05v12.59c0,0.72-0.39,1.39-1.02,1.75
			c-7.89,4.41-14.13,21.05-14.19,21.22c-0.21,0.55-0.64,0.99-1.2,1.19l-21.57,7.74c-0.22,0.08-0.45,0.12-0.68,0.12
			c-0.11,0-0.21-0.01-0.32-0.03l-11.04-1.76l-7.9,10.64c-0.38,0.51-0.98,0.81-1.61,0.81c-0.15,0-0.29-0.02-0.44-0.05
			c-1.46-0.33-3.49-0.5-6.04-0.5c-9.63,0-23.22,2.41-23.36,2.44c-0.12,0.02-0.23,0.03-0.35,0.03c-0.05,0-0.11,0-0.16-0.01
			l-22.59-1.83C31.39,91.15,26.88,92.25,23.69,92.25z"/>
		<path class="st1" d="M122.31,9.43c3.54,0,16.15,10.71,16.15,10.71l7.18,11.59v12.59c-8.63,4.83-15.09,22.27-15.09,22.27
			l-21.57,7.74l-12.24-1.95l-8.62,11.62c-1.73-0.39-3.98-0.55-6.48-0.55c-9.93,0-23.71,2.47-23.71,2.47L34.2,83.99
			c-3.46,5.22-7.68,6.27-10.51,6.27c-1.89,0-3.15-0.47-3.15-0.47L4,66.58c2.87-11.63,12.23-21.3,12.23-21.3
			c22.28-23.21,86.28-33.87,86.28-33.87l19.41-1.93C122.03,9.44,122.16,9.43,122.31,9.43 M122.31,5.43c-0.36,0-0.72,0.03-1.06,0.1
			l-19.14,1.9c-0.09,0.01-0.17,0.02-0.26,0.03c-2.67,0.44-65.57,11.15-88.51,35.04c-0.4,0.42-10.13,10.58-13.23,23.11
			c-0.28,1.13-0.05,2.33,0.63,3.28l16.54,23.21c0.47,0.66,1.12,1.15,1.88,1.43c0.32,0.12,2.06,0.71,4.53,0.71
			c2.85,0,8.01-0.85,12.39-6.1L57.6,89.9c0.11,0.01,0.22,0.01,0.32,0.01c0.24,0,0.47-0.02,0.71-0.06c0.13-0.02,13.55-2.41,23-2.41
			c2.98,0,4.69,0.24,5.6,0.45c0.29,0.07,0.59,0.1,0.88,0.1c1.25,0,2.45-0.59,3.21-1.62l7.18-9.67l9.84,1.57
			c0.21,0.03,0.42,0.05,0.63,0.05c0.46,0,0.92-0.08,1.35-0.24l21.57-7.74c1.11-0.4,1.99-1.27,2.4-2.38
			c1.66-4.47,7.29-16.8,13.3-20.17c1.26-0.71,2.05-2.04,2.05-3.49V31.72c0-0.74-0.21-1.47-0.6-2.11l-7.18-11.59
			c-0.22-0.35-0.49-0.67-0.81-0.94C131.94,9.35,125.64,5.43,122.31,5.43L122.31,5.43z"/>
	</g>
</g>
</svg>
