<?xml version="1.0" encoding="utf-8"?>
<!-- Generator: Adobe Illustrator 26.2.1, SVG Export Plug-In . SVG Version: 6.00 Build 0)  -->
<svg version="1.1" id="Isolation_Mode" xmlns="http://www.w3.org/2000/svg" xmlns:xlink="http://www.w3.org/1999/xlink" x="0px"
	 y="0px" viewBox="0 0 284.55 319.89" style="enable-background:new 0 0 284.55 319.89;" xml:space="preserve">
<style type="text/css">
	.st0{fill:#A3795A;}
	.st1{fill:#15B76D;}
	.st2{fill:#87CC46;}
	.st3{fill:#5BB234;}
	.st4{fill:#B9E28A;}
	.st5{fill:#252525;}
	.st6{fill:#39CAFD;stroke:#252525;stroke-width:8;stroke-miterlimit:10;}
</style>
<g>
	<g>
		<path class="st0" d="M115,284.89v15c0,8.28-6.72,15-15,15l0,0l0,0c-8.28,0-15-6.72-15-15v-15c0-15,15-35,15-35
			S115,269.89,115,284.89z"/>
		<path class="st1" d="M100,222.39v27.5c0,0-15,20-15,35c0,0-80-20-80-125h37.5c0-7.25-2.15-14.2-5.35-20.65
			c-1.4-2.7-2.15-5.75-2.15-9c0-12.8,11.6-22.85,24.7-19.8c7.2,1.65,13.05,7.6,14.75,14.95c1.15,5,0.45,9.75-1.55,13.75
			c-3.2,6.5-5.4,13.45-5.4,20.75H100v37.5c-7.3,0-14.25-2.2-20.75-5.4c-4-2-8.75-2.7-13.75-1.55c-7.35,1.7-13.3,7.55-14.95,14.75
			c-3.05,13.1,7,24.7,19.8,24.7c3.25,0,6.3-0.75,9-2.15C85.8,224.54,92.75,222.39,100,222.39z"/>
		<path class="st2" d="M157.5,159.89H195c0,105-80,125-80,125c0-15-15-35-15-35v-27.5c-7.25,0-14.2,2.15-20.65,5.35
			c-2.7,1.4-5.75,2.15-9,2.15c-12.8,0-22.85-11.6-19.8-24.7c1.65-7.2,7.6-13.05,14.95-14.75c5-1.15,9.75-0.45,13.75,1.55
			c6.5,3.2,13.45,5.4,20.75,5.4v-37.5h32.5c0,7.3-2.2,14.25-5.4,20.75c-2,4-2.7,8.75-1.55,13.75c1.7,7.35,7.55,13.3,14.75,14.95
			c13.1,3.05,24.7-7,24.7-19.8c0-3.25-0.75-6.3-2.15-9C159.65,174.09,157.5,167.14,157.5,159.89z"/>
		<path class="st2" d="M129.65,89.89c12.8,0,22.85,11.6,19.8,24.7c-1.65,7.2-7.6,13.05-14.95,14.75c-5,1.15-9.75,0.45-13.75-1.55
			c-6.5-3.2-13.45-5.4-20.75-5.4v37.5H67.5c0-7.3,2.2-14.25,5.4-20.75c2-4,2.7-8.75,1.55-13.75c-1.7-7.35-7.55-13.3-14.75-14.95
			c-13.1-3.05-24.7,7-24.7,19.8c0,3.25,0.75,6.3,2.15,9c3.2,6.45,5.35,13.4,5.35,20.65H5c0-105,95-130,95-130v67.5
			c7.25,0,14.2-2.15,20.65-5.35C123.35,90.64,126.4,89.89,129.65,89.89z"/>
		<path class="st1" d="M275.55,84.59l-34.05,15.6v0.05c3,6.55,7.85,11.95,13.5,16.5c2.35,1.9,4.3,4.35,5.7,7.3
			c5.3,11.6-1.05,25.55-14.2,28.3c-7.25,1.5-15.05-1.5-19.65-7.45c-3.15-4.1-4.5-8.7-4.35-13.15c0.2-7.25-0.7-14.5-3.75-21.1
			l-29.5,13.55l-15.65-34.1c6.6-3,13.85-3.9,21.1-3.7c4.45,0.15,9.1-1.2,13.15-4.35c5.95-4.6,8.95-12.4,7.45-19.65
			c-2.7-13.15-16.7-19.5-28.3-14.2c-3,1.35-5.45,3.35-7.3,5.75c-4.55,5.6-9.95,10.45-16.55,13.45L135,6.04
			C135,6.04,231.75-10.86,275.55,84.59z"/>
		<path class="st3" d="M127.52,260.17c-1.99,0-3.88-1.2-4.65-3.17c-1.01-2.56,0.24-5.46,2.81-6.48l0,0
			c0.15-0.06,14.93-6.13,22.63-20.96c1.27-2.45,4.29-3.41,6.74-2.13c2.45,1.27,3.4,4.29,2.13,6.74
			c-9.48,18.24-27.08,25.35-27.82,25.64C128.75,260.06,128.13,260.17,127.52,260.17z"/>
		<path class="st4" d="M53.47,90.78c-0.78,0-1.56-0.18-2.3-0.56c-2.45-1.27-3.4-4.29-2.13-6.74c9.48-18.24,27.09-25.35,27.83-25.65
			c2.58-1.01,5.48,0.25,6.49,2.82c1.01,2.56-0.24,5.46-2.81,6.48l0,0c-0.15,0.06-14.93,6.13-22.63,20.96
			C57.02,89.8,55.27,90.78,53.47,90.78z"/>
	</g>
	<g>
		<path class="st5" d="M280.1,82.5C235.2-15.32,135.15,0.94,134.14,1.11c-1.53,0.27-2.85,1.23-3.56,2.6c-0.72,1.37-0.77,3-0.12,4.41
			l28.15,61.35c1.15,2.5,4.09,3.61,6.62,2.47c6.72-3.05,12.72-7.91,18.45-14.95c1.42-1.84,3.23-3.27,5.41-4.25
			c4.34-1.98,9.24-1.9,13.46,0.25c4.12,2.09,6.91,5.79,7.86,10.42c1.11,5.33-1.15,11.23-5.62,14.69c-2.93,2.28-6.36,3.43-9.95,3.3
			c-8.96-0.24-16.62,1.11-23.31,4.15c-1.21,0.55-2.15,1.56-2.61,2.8c-0.47,1.25-0.41,2.62,0.14,3.83l15.65,34.1
			c0.56,1.21,1.56,2.14,2.81,2.6c1.25,0.47,2.63,0.41,3.82-0.14l24.61-11.3c1.19,4.15,1.7,8.82,1.56,14.14
			c-0.2,5.86,1.66,11.52,5.39,16.38c4.8,6.21,12.22,9.78,19.79,9.78c1.61,0,3.23-0.16,4.83-0.49c7.57-1.58,13.88-6.4,17.32-13.2
			c3.5-6.93,3.65-14.98,0.37-22.14c-1.69-3.58-4.07-6.62-7.08-9.06c-4.11-3.31-7.3-6.72-9.68-10.34l29.18-13.37
			c1.21-0.55,2.14-1.56,2.6-2.81C280.7,85.08,280.65,83.71,280.1,82.5z M239.42,95.64c-1.85,0.84-4.12,2.87-2.47,6.68
			c3.08,6.72,7.96,12.71,14.9,18.31c1.82,1.47,3.28,3.34,4.3,5.49c1.97,4.32,1.89,9.21-0.23,13.41c-2.09,4.13-5.8,6.95-10.43,7.91
			c-5.35,1.11-11.24-1.15-14.67-5.6c-2.29-2.98-3.44-6.42-3.32-9.96c0.25-9.04-1.13-16.67-4.21-23.34
			c-0.84-1.83-2.99-3.83-6.62-2.45l-24.96,11.46L180.4,92.92c4.17-1.18,8.83-1.68,14.14-1.53c5.9,0.21,11.59-1.67,16.38-5.39
			c7.53-5.83,11.17-15.49,9.28-24.61c-1.55-7.55-6.34-13.86-13.13-17.31c-6.95-3.53-15.01-3.68-22.11-0.44
			c-3.68,1.66-6.78,4.1-9.13,7.16c-3.33,4.1-6.75,7.28-10.37,9.64l-23.05-50.24C164,8.4,232.57,8.97,268.85,82.16L239.42,95.64z"/>
		<path class="st5" d="M195,154.89h-37.5c-2.76,0-5,2.24-5,5c0,7.33,1.98,15.02,5.91,22.95c1.05,2.04,1.59,4.29,1.59,6.7
			c0,4.78-2.12,9.21-5.82,12.14c-3.61,2.87-8.14,3.85-12.77,2.78c-5.31-1.22-9.73-5.72-10.99-11.2c-0.83-3.63-0.44-7.22,1.16-10.42
			c3.98-8.09,5.91-15.6,5.91-22.96c0-2.76-2.24-5-5-5H105v-27.11c4.28,0.65,8.75,2.14,13.52,4.49c5.27,2.64,11.2,3.32,17.11,1.95
			c9.27-2.15,16.61-9.41,18.69-18.49c1.76-7.53,0.04-15.27-4.69-21.24c-4.84-6.1-12.12-9.6-19.98-9.6c-4.03,0-7.83,0.91-11.22,2.67
			c-4.7,2.33-9.14,3.81-13.43,4.45V29.89c0-1.55-0.72-3.01-1.95-3.96c-1.23-0.94-2.82-1.26-4.33-0.88C97.74,25.31,0,52.28,0,159.89
			c0,94.31,63.65,122.87,80,128.65v11.35c0,11.03,8.97,20,20,20s20-8.97,20-20v-11.35c16.35-5.77,80-34.33,80-128.65
			C200,157.13,197.76,154.89,195,154.89z M95,36.75v60.64c0,2.76,2.24,5,5,5c7.32,0,15.01-1.98,22.95-5.91
			c2.03-1.05,4.28-1.59,6.69-1.59c4.79,0,9.21,2.12,12.15,5.82c2.87,3.61,3.86,8.14,2.78,12.77c-1.22,5.31-5.72,9.73-11.2,11
			c-3.62,0.83-7.22,0.44-10.42-1.16c-8.09-3.98-15.6-5.91-22.96-5.91c-2.76,0-5,2.24-5,5v32.5H72.89c0.65-4.28,2.14-8.75,4.49-13.51
			c2.64-5.27,3.31-11.19,1.95-17.11c-2.14-9.27-9.41-16.61-18.49-18.7c-7.53-1.75-15.27-0.04-21.24,4.69
			C33.5,115.1,30,122.39,30,130.24c0,4.02,0.91,7.82,2.67,11.23c2.33,4.7,3.8,9.13,4.45,13.43h-27C12.58,73.28,74.64,44.12,95,36.75
			z M10.12,164.89H42.5c2.76,0,5-2.24,5-5c0-7.33-1.98-15.02-5.91-22.95c-1.05-2.04-1.59-4.29-1.59-6.7c0-4.78,2.12-9.21,5.82-12.14
			c3.61-2.87,8.13-3.86,12.77-2.78c5.31,1.22,9.73,5.72,10.99,11.2c0.83,3.63,0.44,7.22-1.16,10.42c-3.98,8.09-5.91,15.6-5.91,22.96
			c0,2.76,2.24,5,5,5H95V192c-4.28-0.65-8.75-2.14-13.52-4.49c-5.27-2.63-11.19-3.31-17.11-1.95c-9.27,2.15-16.61,9.41-18.69,18.49
			c-1.76,7.53-0.04,15.27,4.69,21.24c4.84,6.1,12.12,9.6,19.98,9.6c4.03,0,7.83-0.91,11.22-2.67c4.7-2.33,9.14-3.81,13.43-4.45
			v20.51c-2.98,4.22-11.66,17.32-14.25,29.91C63.66,271.56,12.21,244.95,10.12,164.89z M110,299.89c0,5.52-4.49,10-10,10
			s-10-4.48-10-10v-15c0-8.08,5.54-18.87,10-26.05c4.46,7.18,10,17.97,10,26.05V299.89z M119.27,278.25
			c-2.58-12.61-11.29-25.75-14.27-29.98v-25.89c0-2.76-2.24-5-5-5c-7.32,0-15.01,1.98-22.95,5.91c-2.03,1.05-4.28,1.59-6.69,1.59
			c-4.79,0-9.21-2.12-12.15-5.82c-2.87-3.61-3.86-8.14-2.78-12.77c1.22-5.31,5.72-9.73,11.2-11c3.61-0.83,7.22-0.44,10.42,1.16
			c8.09,3.98,15.6,5.91,22.96,5.91c2.76,0,5-2.24,5-5v-32.5h22.11c-0.65,4.28-2.14,8.75-4.49,13.51
			c-2.64,5.27-3.31,11.19-1.95,17.11c2.14,9.27,9.41,16.61,18.49,18.7c7.52,1.74,15.27,0.04,21.24-4.69
			c6.1-4.84,9.59-12.12,9.59-19.98c0-4.02-0.91-7.82-2.67-11.23c-2.33-4.7-3.8-9.13-4.45-13.43h27.06
			C187.9,245.92,136.5,271.83,119.27,278.25z"/>
	</g>
</g>
<circle class="st6" cx="250.04" cy="243.52" r="30.51"/>
</svg>
