<?xml version="1.0" encoding="utf-8"?>
<!-- Generator: Adobe Illustrator 26.2.1, SVG Export Plug-In . SVG Version: 6.00 Build 0)  -->
<svg version="1.1" id="Layer_1" xmlns="http://www.w3.org/2000/svg" xmlns:xlink="http://www.w3.org/1999/xlink" x="0px" y="0px"
	 viewBox="0 0 337.98 295.88" style="enable-background:new 0 0 337.98 295.88;" xml:space="preserve">
<style type="text/css">
	.st0{fill:#4FB0EA;}
	.st1{fill:#222222;}
	.st2{fill:#007DC9;}
	.st3{opacity:0.5;fill:#FFFFFF;}
</style>
<path id="XMLID_3651_" class="st0" d="M217.02,73.57c-20.49-30.63-40.64-55.24-41.49-56.27l-6.54-7.97l-6.54,7.97
	c-0.85,1.03-21,25.65-41.49,56.27c-28.15,42.07-42.43,73.8-42.43,94.28c0,24.16,9.41,46.88,26.49,63.96
	c17.09,17.09,39.8,26.49,63.96,26.49s46.88-9.41,63.96-26.49c17.09-17.09,26.49-39.8,26.49-63.96
	C259.45,147.36,245.18,115.64,217.02,73.57z"/>
<path class="st1" d="M168.99,261.87c-25.5,0-49.47-9.93-67.5-27.96c-18.03-18.03-27.96-42-27.96-67.5
	c0-21.49,14.56-54.15,43.27-97.06c20.59-30.77,40.92-55.62,41.78-56.67L168.99,0l10.41,12.68c0.86,1.04,21.19,25.9,41.78,56.67
	c28.71,42.91,43.27,75.57,43.27,97.06c0,25.5-9.93,49.47-27.96,67.5C218.46,251.94,194.49,261.87,168.99,261.87z M168.99,15.76
	l-2.68,3.26c-0.84,1.03-20.88,25.51-41.2,55.88c-27.59,41.24-41.58,72.02-41.58,91.5c0,22.83,8.89,44.29,25.03,60.43
	s37.6,25.03,60.43,25.03s44.29-8.89,60.43-25.03c16.14-16.14,25.03-37.6,25.03-60.43c0-19.48-13.99-50.26-41.58-91.5
	c-20.32-30.37-40.36-54.86-41.2-55.88L168.99,15.76z"/>
<path class="st1" d="M292.84,295.88c-10.78,0-18.84-4.25-25.96-7.99c-5.95-3.13-11.08-5.83-16.98-5.83c-5.71,0-10.52,2.59-16.1,5.59
	c-7.18,3.86-15.32,8.24-27.21,8.24c-11.72,0-19.2-4.28-25.79-8.05c-5.42-3.1-10.1-5.78-16.65-5.78c-6.25,0-9.96,2.4-14.64,5.44
	c-5.76,3.74-12.94,8.39-25.81,8.39c-12.92,0-19.79-4.68-25.3-8.43c-4.42-3.01-7.92-5.39-14.17-5.39c-6.38,0-10.71,2.43-16.18,5.5
	c-6.96,3.91-14.85,8.33-28.24,8.33c-24.44,0-37.96-14.87-38.53-15.5c-1.84-2.06-1.65-5.22,0.41-7.06s5.22-1.65,7.06,0.41
	c0.44,0.48,11.26,12.15,31.06,12.15c10.78,0,16.89-3.43,23.35-7.05c5.94-3.33,12.08-6.77,21.08-6.77c9.33,0,14.89,3.79,19.8,7.13
	c5.06,3.45,9.84,6.7,19.68,6.7c9.92,0,15-3.29,20.37-6.78c5.1-3.3,10.87-7.05,20.08-7.05c9.21,0,15.52,3.61,21.62,7.1
	c6.05,3.46,11.76,6.73,20.83,6.73c9.38,0,15.74-3.42,22.48-7.05c6.2-3.33,12.61-6.78,20.83-6.78c8.37,0,15.11,3.55,21.64,6.99
	c6.68,3.52,12.99,6.84,21.3,6.84c16.56,0,37.27-12.93,37.48-13.06c2.34-1.47,5.42-0.77,6.9,1.57c1.47,2.34,0.77,5.42-1.57,6.9
	C334.7,281.88,312.26,295.88,292.84,295.88z"/>
<path class="st1" d="M43.67,90.14c-2.76,0-5-2.24-5-5V58.81c0-2.76,2.24-5,5-5s5,2.24,5,5v26.32C48.67,87.9,46.43,90.14,43.67,90.14
	z"/>
<path class="st1" d="M43.67,180.14c-2.76,0-5-2.24-5-5v-66.32c0-2.76,2.24-5,5-5s5,2.24,5,5v66.32
	C48.67,177.9,46.43,180.14,43.67,180.14z"/>
<path class="st1" d="M178.67,132.14c-2.76,0-5-2.24-5-5v-26.32c0-2.76,2.24-5,5-5s5,2.24,5,5v26.32
	C183.67,129.9,181.43,132.14,178.67,132.14z"/>
<path class="st1" d="M178.67,222.14c-2.76,0-5-2.24-5-5v-66.32c0-2.76,2.24-5,5-5s5,2.24,5,5v66.32
	C183.67,219.9,181.43,222.14,178.67,222.14z"/>
<path class="st1" d="M294.67,91.14c-2.76,0-5-2.24-5-5V45.81c0-2.76,2.24-5,5-5s5,2.24,5,5v40.32
	C299.67,88.9,297.43,91.14,294.67,91.14z"/>
<path class="st1" d="M294.67,174.14c-2.76,0-5-2.24-5-5v-56.32c0-2.76,2.24-5,5-5s5,2.24,5,5v56.32
	C299.67,171.9,297.43,174.14,294.67,174.14z"/>
<path class="st2" d="M202.08,228.56c-2.04,0-3.96-1.26-4.7-3.29c-0.95-2.59,0.39-5.46,2.98-6.41c18.77-6.85,27.42-31.27,27.5-31.52
	c0.9-2.61,3.75-3.99,6.36-3.09c2.61,0.9,3.99,3.75,3.09,6.36c-0.41,1.19-10.33,29.18-33.53,37.64
	C203.23,228.46,202.65,228.56,202.08,228.56z"/>
<path id="XMLID_3655_" class="st3" d="M124.33,199.19c-8.39-2.85-13.61-9.27-15.52-19.09c-1.57-8.03-0.31-15.36-0.29-15.5
	c0.58-3.19-1.54-6.24-4.73-6.82c-3.19-0.58-6.25,1.53-6.84,4.73c-0.07,0.38-1.66,9.3,0.24,19.46c2.67,14.26,10.74,24.06,23.35,28.35
	c0.63,0.21,1.27,0.31,1.89,0.31c2.45,0,4.73-1.54,5.56-3.99C129.04,203.57,127.4,200.23,124.33,199.19z"/>
<path class="st3" d="M106.47,148.24c-0.26,0-0.53-0.02-0.8-0.06c-2.72-0.44-4.57-2.98-4.15-5.69c0.12-0.79,1.34-7.85,6.29-13.23
	c1.87-2.03,5.03-2.17,7.06-0.29c2.03,1.87,2.17,5.03,0.29,7.06c-2.94,3.2-3.77,7.98-3.78,8.02
	C110.99,146.49,108.87,148.24,106.47,148.24z"/>
</svg>
