<?xml version="1.0" encoding="utf-8"?>
<!-- Generator: Adobe Illustrator 26.5.3, SVG Export Plug-In . SVG Version: 6.00 Build 0)  -->
<svg version="1.1" id="Isolation_Mode" xmlns="http://www.w3.org/2000/svg" xmlns:xlink="http://www.w3.org/1999/xlink" x="0px"
	 y="0px" viewBox="0 0 634 503.16" style="enable-background:new 0 0 634 503.16;" xml:space="preserve">
<style type="text/css">
	.st0{fill:#FFF8F5;}
	.st1{fill:#FF8585;}
	.st2{fill:#FFDEE7;}
	.st3{fill:#D18A73;}
	.st4{fill:#1A1A1A;}
</style>
<g>
	<path class="st0" d="M75.51,467.05l-7.46,25.11h80.64c-5.14-39.52-16.92-71.79-22.29-85.02
		C102.08,418.83,83.48,440.25,75.51,467.05z"/>
	<path class="st1" d="M250.73,365.01v-15.87h-80.61c-27.51,0-50.44,19.8-55.39,45.89c10.52-5.67,22.02-9.79,34.25-11.96
		L250.73,365.01z"/>
	<polygon class="st0" points="264.51,457.03 303.99,439.47 255.56,380.54 241.44,383.05 	"/>
	<path class="st2" d="M367.04,321.79c-15.14,7.36-32.26,11.61-49.87,12.1c-0.08,0-0.15,0-0.22,0s-0.15,0-0.22,0
		c-17.61-0.49-34.72-4.74-49.87-12.1v47.1l50.09,60.95l50.09-60.95V321.79z"/>
	<path class="st0" d="M408.48,385.89l-26.39,84.6c-0.69,2.2-2.28,4-4.38,4.95c-1.06,0.48-2.19,0.72-3.32,0.72
		c-1.12,0-2.23-0.23-3.28-0.7l-54.16-24.09l-54.16,24.09c-1.04,0.46-2.16,0.7-3.28,0.7c-1.13,0-2.27-0.24-3.32-0.72
		c-2.1-0.95-3.69-2.75-4.38-4.95l-26.39-84.6l-33.33,5.91c6.06,14.67,20.27,53.09,24.86,100.28c3.47-0.14,6.94-0.27,10.42-0.27
		h176.17c4.48,0,8.94,0.12,13.39,0.35c4.58-47.22,18.81-85.68,24.87-100.35L408.48,385.89z"/>
	<path class="st0" d="M507.51,407.14c-5.37,13.25-17.17,45.58-22.3,85.02h80.65l-7.46-25.11
		C550.43,440.25,531.83,418.83,507.51,407.14z"/>
	<path class="st1" d="M151.79,398.95c-3.5,0.62-6.92,1.48-10.28,2.45c5.92,14.55,18.27,48.63,23.45,90.75h35.78
		c-4.94-48.26-20.7-87.55-24.95-97.46L151.79,398.95z"/>
	<path class="st2" d="M383.79,290.78c14.18-13.81,24.55-32.12,30.82-54.41c0.78-2.79,3.01-4.95,5.82-5.64
		c6.98-1.73,12.74-4.57,17.11-8.44c7.58-6.7,10.7-17.51,7.25-25.15c-0.95-2.1-2.45-4.22-4.47-6.31c-3.61-3.74-8.3-6.62-13.56-8.32
		c-1.56-0.51-2.93-1.48-3.93-2.79l-43.27-56.87c-34.38-4.03-62.22-16.07-78.61-24.78l3.19,16.48c0.45,2.31-0.14,4.7-1.59,6.54
		c-1.46,1.84-3.65,2.96-6,3.05c-22.23,0.88-35.95-9.65-43.66-18.69l-41.21,73.34c-0.99,1.77-2.62,3.1-4.54,3.72
		c-5.27,1.71-9.95,4.59-13.56,8.32c-2.02,2.09-3.52,4.21-4.46,6.31c-3.45,7.64-0.33,18.45,7.25,25.15
		c4.37,3.87,10.13,6.71,17.11,8.44c2.81,0.7,5.04,2.85,5.82,5.64c6.27,22.29,16.64,40.6,30.82,54.41
		c16.82,16.38,41.17,26.21,66.83,26.97C342.62,316.99,366.96,307.17,383.79,290.78z M362.13,183.15c6.77,0,12.27,5.49,12.27,12.27
		c0,6.77-5.49,12.27-12.27,12.27c-6.77,0-12.27-5.49-12.27-12.27C349.86,188.65,355.35,183.15,362.13,183.15z M301.36,207.59
		l19.78-19.77l11.41,11.41l-14.07,14.07l14.07,14.07l-11.41,11.41L301.36,219c-1.51-1.51-2.36-3.56-2.36-5.7
		S299.85,209.1,301.36,207.59z M259.51,195.42c0-6.77,5.49-12.27,12.27-12.27c6.77,0,12.27,5.49,12.27,12.27
		c0,6.77-5.49,12.27-12.27,12.27C265,207.69,259.51,202.19,259.51,195.42z M291.08,254.26c14.27,14.27,37.48,14.27,51.75,0
		l11.41,11.41c-10.28,10.28-23.78,15.42-37.28,15.42c-13.5,0-27-5.14-37.28-15.42L291.08,254.26z"/>
	<polygon class="st0" points="329.91,439.47 369.39,457.03 392.47,383.05 378.35,380.54 	"/>
	<path class="st3" d="M199.08,168.27L245.31,86c1.51-2.68,4.46-4.27,7.49-4.1c3.08,0.17,5.78,2.08,6.98,4.92
		c0.33,0.75,7.62,16.91,26.55,20.52l-4.63-23.92c-0.63-3.24,0.78-6.53,3.55-8.32c2.77-1.78,6.36-1.7,9.04,0.21
		c0.48,0.34,49.65,34.52,113.66,32.7l0.46,16.13c-2.53,0.07-5.04,0.1-7.53,0.07l33.35,43.82c0.76,0.29,1.48,0.66,2.22,0.99
		c6.56-25.72,14.34-82.21-31.79-113.9c-30.87-21.2-75.77-44.93-114.46-37.59c-19.95,3.78-36.82,15.71-50.16,35.46
		c-1.36,2.01-3.55,3.3-5.97,3.52c-1,0.11-26.7,3.44-44.22,43.39c-12.22,27.86,0.84,61.82,4.6,70.49
		C195.94,169.61,197.49,168.9,199.08,168.27z"/>
	<path class="st1" d="M383.18,365.01l101.75,18.06c12.23,2.17,23.73,6.29,34.25,11.96c-4.95-26.09-27.88-45.89-55.39-45.89h-80.61
		V365.01z"/>
	<path class="st1" d="M482.11,398.95l-24-4.26c-4.26,9.92-20.01,49.2-24.95,97.46h35.78c5.18-42.12,17.52-76.2,23.45-90.75
		C489.03,400.43,485.62,399.58,482.11,398.95z"/>
	<path class="st4" d="M75.51,467.05c7.97-26.8,26.57-48.22,50.89-59.91c5.37,13.23,17.15,45.5,22.29,85.02h16.27
		c-5.18-42.12-17.52-76.2-23.45-90.75c3.36-0.97,6.77-1.83,10.28-2.45l24-4.26c4.26,9.92,20.01,49.2,24.95,97.46h216.19
		c-4.45-0.23-8.91-0.35-13.39-0.35H227.38c-3.49,0-6.96,0.13-10.42,0.27c-4.59-47.19-18.8-85.61-24.86-100.28l33.33-5.91l26.39,84.6
		c0.69,2.2,2.28,4,4.38,4.95c1.06,0.48,2.19,0.72,3.32,0.72c1.12,0,2.23-0.23,3.28-0.7l54.16-24.09l54.16,24.09
		c1.04,0.46,2.16,0.7,3.28,0.7c1.13,0,2.27-0.24,3.32-0.72c2.1-0.95,3.69-2.75,4.38-4.95l26.39-84.6l33.33,5.91
		c-6.06,14.67-20.29,53.13-24.87,100.35h16.22c4.94-48.26,20.69-87.54,24.95-97.46l24,4.26c3.5,0.62,6.92,1.48,10.28,2.45
		c-5.92,14.55-18.26,48.63-23.45,90.75h16.26c5.13-39.44,16.93-71.77,22.3-85.02c24.32,11.69,42.92,33.11,50.89,59.91l7.46,25.11
		h16.83l-8.83-29.7c-6.86-23.07-20.48-42.71-38.55-56.9h1.02c0-40-32.54-72.54-72.54-72.54h-80.61v-20.76
		c4.22-3.02,8.19-6.33,11.86-9.9c15.29-14.89,26.65-34.13,33.81-57.24c7.57-2.43,14.07-6.03,19.38-10.72
		c12.87-11.38,17.61-29.83,11.27-43.87c-1.71-3.79-4.25-7.45-7.56-10.88c-0.43-0.44-0.92-0.83-1.36-1.26
		c2.76-9.74,6.38-25.89,6.74-44.4c0.78-40.18-14.27-72.04-43.54-92.15C365.22,8.46,322.62-5.05,287.19,1.68
		c-23.35,4.43-43.04,17.7-58.59,39.48c-9.96,2.38-36.01,12.29-53.53,52.26c-17.11,39.02,4.91,84.32,5.85,86.23l2.19-1.08
		c-0.37,0.36-0.78,0.68-1.14,1.06c-3.31,3.43-5.85,7.09-7.56,10.88c-6.34,14.04-1.6,32.49,11.27,43.87
		c5.31,4.69,11.81,8.29,19.38,10.72c7.16,23.11,18.52,42.35,33.81,57.24c3.67,3.58,7.64,6.88,11.86,9.9v20.76h-80.61
		c-40,0-72.54,32.54-72.54,72.54h1.02c-18.06,14.19-31.69,33.83-38.55,56.9l-8.83,29.7h16.83L75.51,467.05z M266.86,368.88v-47.1
		c15.14,7.36,32.26,11.61,49.87,12.1c0.08,0,0.15,0,0.22,0s0.15,0,0.22,0c17.61-0.49,34.72-4.74,49.87-12.1v47.1l-50.09,60.95
		L266.86,368.88z M369.39,457.03l-39.48-17.56l48.43-58.93l14.12,2.51L369.39,457.03z M463.79,349.14
		c27.51,0,50.44,19.8,55.39,45.89c-10.52-5.67-22.02-9.79-34.25-11.96l-101.75-18.06v-15.87H463.79z M189.84,99.9
		c17.52-39.95,43.23-43.28,44.22-43.39c2.42-0.22,4.61-1.51,5.97-3.52c13.34-19.74,30.22-31.67,50.16-35.46
		c38.68-7.34,83.59,16.39,114.46,37.59c46.13,31.68,38.35,88.17,31.79,113.9c-0.74-0.32-1.46-0.69-2.22-0.99l-33.35-43.82
		c2.49,0.03,5,0,7.53-0.07l-0.46-16.13c-64.01,1.82-113.18-32.36-113.66-32.7c-2.68-1.91-6.27-1.99-9.04-0.21
		c-2.77,1.79-4.18,5.08-3.55,8.32l4.63,23.92c-18.93-3.61-26.22-19.77-26.55-20.52c-1.2-2.84-3.9-4.75-6.98-4.92
		c-3.03-0.17-5.98,1.42-7.49,4.1l-46.22,82.27c-1.59,0.63-3.14,1.35-4.65,2.13C190.68,161.72,177.62,127.76,189.84,99.9z
		 M250.12,290.78c-14.18-13.81-24.55-32.12-30.82-54.41c-0.78-2.79-3.01-4.95-5.82-5.64c-6.98-1.73-12.74-4.57-17.11-8.44
		c-7.58-6.7-10.7-17.51-7.25-25.15c0.95-2.1,2.45-4.22,4.46-6.31c3.6-3.74,8.29-6.62,13.56-8.32c1.93-0.63,3.55-1.95,4.54-3.72
		l41.21-73.34c7.71,9.05,21.43,19.58,43.66,18.69c2.35-0.1,4.54-1.21,6-3.05c1.46-1.84,2.04-4.23,1.59-6.54l-3.19-16.48
		c16.38,8.71,44.22,20.76,78.61,24.78l43.27,56.87c1,1.31,2.37,2.28,3.93,2.79c5.26,1.71,9.95,4.59,13.56,8.32
		c2.01,2.09,3.52,4.21,4.47,6.31c3.44,7.63,0.33,18.44-7.25,25.15c-4.37,3.87-10.13,6.71-17.11,8.44c-2.81,0.7-5.04,2.85-5.82,5.64
		c-6.27,22.29-16.64,40.6-30.82,54.41c-16.82,16.38-41.17,26.21-66.83,26.97C291.29,316.99,266.94,307.17,250.12,290.78z
		 M255.56,380.54l48.44,58.93l-39.48,17.56l-23.08-73.99L255.56,380.54z M170.11,349.14h80.61v15.87l-101.75,18.06
		c-12.23,2.17-23.73,6.29-34.25,11.96C119.67,368.94,142.61,349.14,170.11,349.14z"/>
	<path class="st4" d="M354.23,265.66l-11.41-11.41c-14.27,14.27-37.48,14.27-51.75,0l-11.41,11.41
		c10.28,10.28,23.78,15.42,37.28,15.42C330.46,281.08,343.95,275.94,354.23,265.66z"/>
	<path class="st4" d="M321.14,238.77l11.41-11.41l-14.07-14.07l14.07-14.07l-11.41-11.41l-19.78,19.77
		c-1.51,1.51-2.36,3.56-2.36,5.7s0.85,4.19,2.36,5.7L321.14,238.77z"/>
	<path class="st4" d="M284.04,195.42c0-6.77-5.49-12.27-12.27-12.27c-6.77,0-12.27,5.49-12.27,12.27c0,6.77,5.49,12.27,12.27,12.27
		C278.55,207.69,284.04,202.19,284.04,195.42z"/>
	<path class="st4" d="M362.13,207.69c6.77,0,12.27-5.49,12.27-12.27c0-6.77-5.49-12.27-12.27-12.27c-6.77,0-12.27,5.49-12.27,12.27
		C349.86,202.19,355.35,207.69,362.13,207.69z"/>
	<path class="st4" d="M628,503.16H6c-3.31,0-6-2.69-6-6s2.69-6,6-6h622c3.31,0,6,2.69,6,6S631.31,503.16,628,503.16z"/>
</g>
</svg>
