<?xml version="1.0" encoding="utf-8"?>
<!-- Generator: Adobe Illustrator 26.2.1, SVG Export Plug-In . SVG Version: 6.00 Build 0)  -->
<svg version="1.1" id="Layer_3" xmlns="http://www.w3.org/2000/svg" xmlns:xlink="http://www.w3.org/1999/xlink" x="0px" y="0px"
	 viewBox="0 0 58 56" style="enable-background:new 0 0 58 56;" xml:space="preserve">
<style type="text/css">
	.st0{fill:#7F85FC;}
	.st1{fill:#6762FF;}
	.st2{fill:#FFFFFF;}
	.st3{fill:none;stroke:#000000;stroke-width:2;stroke-linecap:round;stroke-linejoin:round;stroke-miterlimit:10;}
	.st4{fill:#CCDCFF;}
	.st5{fill:#FFE0B8;}
	.st6{fill:#FEBA6F;}
	.st7{fill:#FEBA6F;stroke:#000000;stroke-width:2;stroke-linecap:round;stroke-linejoin:round;stroke-miterlimit:10;}
	.st8{fill:#FFE0B8;stroke:#000000;stroke-width:2;stroke-linecap:round;stroke-linejoin:round;stroke-miterlimit:10;}
	.st9{fill:#2B1A14;}
	.st10{fill:#1A1008;}
</style>
<g>
	<g>
		<path class="st0" d="M54,55v-2c0-3.39-1.84-6.52-4.81-8.17L31.5,35h-5L8.81,44.83C5.84,46.48,4,49.61,4,53v2H54z"/>
		<path class="st1" d="M49.19,44.83L31.5,35H29v2.28l17.19,9.55C49.16,48.48,51,51.61,51,55h3v-2C54,49.61,52.16,46.48,49.19,44.83z
			"/>
		<path class="st2" d="M26.5,35L8.81,44.83C5.84,46.48,4,49.61,4,53v2h3c0-3.39,1.84-6.52,4.81-8.17L29,37.28V35H26.5z"/>
		<path class="st3" d="M6.58,46.55C4.95,48.26,4,50.56,4,53v2"/>
		<path class="st3" d="M54,55v-2c0-3.39-1.84-6.52-4.81-8.17L31.5,35h-5L8.81,44.83"/>
		<path class="st2" d="M29,50c5.95,0,10.96-3.99,12.51-9.44l3.48,1.93C44.72,37.76,40.8,34,36,34H22c-4.8,0-8.72,3.76-8.99,8.49
			l3.48-1.93C18.04,46.01,23.05,50,29,50z"/>
		<path class="st4" d="M31.5,37l9.41,5.23c0.24-0.54,0.44-1.09,0.6-1.67l3.48,1.93C44.72,37.76,40.8,34,36,34H22
			c-4.8,0-8.72,3.76-8.99,8.49l3.48-1.93c0.16,0.57,0.36,1.13,0.6,1.67L26.5,37H31.5z"/>
		<path class="st3" d="M24.44,49.18C25.86,49.71,27.4,50,29,50s3.14-0.29,4.56-0.82"/>
		<path class="st3" d="M38.43,45.94c1.42-1.5,2.49-3.34,3.07-5.38l3.48,1.93C44.72,37.76,40.8,34,36,34H22
			c-4.8,0-8.72,3.76-8.99,8.49l3.48-1.93c0.58,2.04,1.65,3.88,3.07,5.38"/>
		<line class="st3" x1="36" y1="47" x2="36" y2="52"/>
		<line class="st3" x1="22" y1="47" x2="22" y2="52"/>
	</g>
	<g>
		<line class="st3" x1="45" y1="55" x2="1" y2="55"/>
		<line class="st3" x1="49" y1="55" x2="48" y2="55"/>
		<line class="st3" x1="57" y1="55" x2="52" y2="55"/>
	</g>
	<g>
		<path class="st5" d="M22,34v5c0,3.87,3.13,7,7,7s7-3.13,7-7v-5H22z"/>
		<path class="st6" d="M29,42c3.01,0,5.64-1.67,7-4.13V34H22v3.87C23.36,40.33,25.99,42,29,42z"/>
		<path class="st3" d="M22,34v5c0,3.87,3.13,7,7,7s7-3.13,7-7v-5H22z"/>
	</g>
	<g>
		<path class="st7" d="M42.5,20c-1.38,0-2.5,1.12-2.5,2.5V28h1c2.49,0,4.5-2.1,4.5-4.7C45.5,21.48,44.16,20,42.5,20z"/>
		<path class="st8" d="M15.5,20c1.38,0,2.5,1.12,2.5,2.5V28h-1c-2.49,0-4.5-2.1-4.5-4.7C12.5,21.48,13.84,20,15.5,20z"/>
		<path class="st5" d="M23,9c-3.87,0-7,3.13-7,7v12c0,3.14,1.51,6.09,4.05,7.93l0.43,0.31C22.96,38.03,25.94,39,29,39
			s6.04-0.97,8.52-2.76l0.43-0.31C40.49,34.09,42,31.14,42,28V16c0-3.87-3.13-7-7-7H23z"/>
		<path class="st6" d="M35,9h-3c3.87,0,7,3.13,7,7v12c0,3.14-1.51,6.09-4.05,7.93l-0.43,0.31c-2.07,1.5-4.49,2.42-7.02,2.68
			C28,38.97,28.5,39,29,39c3.06,0,6.04-0.97,8.52-2.76l0.43-0.31C40.49,34.09,42,31.14,42,28V16C42,12.13,38.87,9,35,9z"/>
		<path class="st2" d="M23.05,35.93C20.51,34.09,19,31.14,19,28V16c0-3.87,3.13-7,7-7h-3c-3.87,0-7,3.13-7,7v12
			c0,3.14,1.51,6.09,4.05,7.93l0.43,0.31C22.96,38.03,25.94,39,29,39c0.5,0,1-0.03,1.5-0.08c-2.52-0.26-4.95-1.18-7.02-2.68
			L23.05,35.93z"/>
		<path class="st3" d="M26.25,32.8C26.86,33.53,27.86,34,29,34s2.14-0.47,2.75-1.2"/>
		<path class="st6" d="M29.5,30c0.72,0,1.3-0.36,1.3-0.8c0-0.11-0.09-0.2-0.2-0.2h-3.2c-0.11,0-0.2,0.09-0.2,0.2
			c0,0.44,0.58,0.8,1.3,0.8H29.5z"/>
		<path class="st6" d="M37.5,26h-1c-0.83,0-1.5,0.67-1.5,1.5s0.67,1.5,1.5,1.5h1c0.83,0,1.5-0.67,1.5-1.5S38.33,26,37.5,26z"/>
		<path class="st6" d="M20.5,26h1c0.83,0,1.5,0.67,1.5,1.5S22.33,29,21.5,29h-1c-0.83,0-1.5-0.67-1.5-1.5S19.67,26,20.5,26z"/>
		<circle cx="35" cy="24" r="1.5"/>
		<circle cx="23" cy="24" r="1.5"/>
		<path class="st3" d="M33,19.1c1.69-0.79,3.8-0.8,5.5-0.02"/>
		<path class="st3" d="M25,19.1c-1.69-0.79-3.8-0.8-5.5-0.02"/>
		<path class="st3" d="M23,9c-3.87,0-7,3.13-7,7v12c0,3.14,1.51,6.09,4.05,7.93l0.43,0.31C22.96,38.03,25.94,39,29,39
			s6.04-0.97,8.52-2.76l0.43-0.31C40.49,34.09,42,31.14,42,28V16c0-3.87-3.13-7-7-7H23z"/>
	</g>
	<g>
		<path class="st9" d="M44,20.44V14c0-6.25-3.77-9.18-6.92-9.67C35.9,2.22,32.25,1,29,1c-8.28,0-15,5.82-15,13v6.44
			c0.44-0.28,0.95-0.44,1.5-0.44c0.17,0,0.34,0.02,0.5,0.05c0.09-1.89,1.78-2.66,3.37-1.99c1.81,0.76,3.94,1.2,6.23,1.2
			c5.64,0,10.36-2.68,11.64-6.27c0.38,2.83,2.16,4.49,4.75,5.02v2.05c0.16-0.03,0.33-0.05,0.5-0.05C43.05,20,43.56,20.16,44,20.44z"
			/>
		<path class="st10" d="M37.08,4.33C37,4.35,36.92,4.36,36.84,4.38C39.08,5.77,41,8.54,41,13v4.72c0.32,0.11,0.65,0.2,1,0.28v2.05
			c0.16-0.03,0.33-0.05,0.5-0.05c0.55,0,1.06,0.16,1.5,0.44V14C44,7.75,40.23,4.82,37.08,4.33z"/>
		<path class="st2" d="M32,2c0.89,0,1.81,0.09,2.7,0.27C33.08,1.45,30.97,1,29,1c-8.28,0-15,5.82-15,13v6.44
			c0.44-0.28,0.95-0.44,1.5-0.44c0.17,0,0.34,0.02,0.5,0.05c0.04-0.88,0.43-1.52,1-1.88V15C17,7.82,23.72,2,32,2z"/>
		<path class="st3" d="M19.15,4.19c-0.24,0.18-0.47,0.37-0.7,0.56"/>
		<path class="st3" d="M16.38,6.98C14.87,9,14,11.41,14,14v6.44c0.44-0.28,0.95-0.44,1.5-0.44c0.17,0,0.34,0.02,0.5,0.05
			c0.09-1.89,1.78-2.66,3.37-1.99c1.81,0.76,3.94,1.2,6.23,1.2c5.64,0,10.36-2.68,11.64-6.27c0.38,2.83,2.16,4.49,4.75,5.02v2.05
			c0.16-0.03,0.33-0.05,0.5-0.05c0.55,0,1.06,0.16,1.5,0.44V14c0-6.25-3.77-9.18-6.92-9.67C35.9,2.22,32.25,1,29,1
			c-2.66,0-5.15,0.6-7.32,1.65"/>
	</g>
</g>
</svg>
