<?xml version="1.0" encoding="utf-8"?>
<!-- Generator: Adobe Illustrator 26.2.1, SVG Export Plug-In . SVG Version: 6.00 Build 0)  -->
<svg version="1.1" id="Layer_1" xmlns="http://www.w3.org/2000/svg" xmlns:xlink="http://www.w3.org/1999/xlink" x="0px" y="0px"
	 viewBox="0 0 280 320" style="enable-background:new 0 0 280 320;" xml:space="preserve">
<style type="text/css">
	.st0{clip-path:url(#SVGID_00000085967077021460374270000010135196936824212104_);fill:#15B76D;}
	.st1{clip-path:url(#SVGID_00000085967077021460374270000010135196936824212104_);fill:#F49D2A;}
	.st2{clip-path:url(#SVGID_00000085967077021460374270000010135196936824212104_);fill:#E88418;}
	.st3{clip-path:url(#SVGID_00000085967077021460374270000010135196936824212104_);fill:#65BEEF;}
	.st4{clip-path:url(#SVGID_00000085967077021460374270000010135196936824212104_);fill:#309358;}
	.st5{clip-path:url(#SVGID_00000085967077021460374270000010135196936824212104_);fill:#FFBE1D;}
	.st6{clip-path:url(#SVGID_00000085967077021460374270000010135196936824212104_);fill:#47A3E2;}
	.st7{clip-path:url(#SVGID_00000085967077021460374270000010135196936824212104_);fill:#252525;}
</style>
<g>
	<defs>
		<rect id="SVGID_1_" width="280" height="320"/>
	</defs>
	<clipPath id="SVGID_00000055677791796653919380000006793101143921550226_">
		<use xlink:href="#SVGID_1_"  style="overflow:visible;"/>
	</clipPath>
	<path style="clip-path:url(#SVGID_00000055677791796653919380000006793101143921550226_);fill:#15B76D;" d="M273.25,158.35
		c1.15,7.05,1.75,14.3,1.75,21.65c0,62.05-41.85,114.3-98.85,130.1l7.15-30.65l-20.4-35.65l10.2-25.5l25.5,10.2L215,215v-20l25-10
		l10-20L273.25,158.35z"/>
	<path style="clip-path:url(#SVGID_00000055677791796653919380000006793101143921550226_);fill:#F49D2A;" d="M222.05,72.85
		c-1.55,5.45-3.9,10.75-6.85,15.8C202.55,110,179.7,137.3,140,155c-39.7-17.7-62.55-45-75.2-66.35c-2.95-5.05-5.3-10.35-6.85-15.8
		c-2-6.45-2.95-13.1-2.95-19.8c0-6.9,1.05-13.8,3.1-20.55c2.5-8.1,7.85-15,14.95-19.85S89,5,98.4,5C130,5,140,33.15,140,33.15
		s2.5-7.05,8.95-14.05C155.4,12.05,165.8,5,181.6,5c9.4,0,18.25,2.8,25.35,7.65S219.4,24.4,221.9,32.5
		C225.95,45.8,226,59.7,222.05,72.85"/>
	<path style="clip-path:url(#SVGID_00000055677791796653919380000006793101143921550226_);fill:#E88418;" d="M221.9,32.5
		c-1.51-4.9-4.16-9.28-7.51-13.11c1.21,9.54,0.45,19.19-2.39,28.46c-1.58,5.45-3.97,10.75-6.98,15.8
		c-9.63,15.96-25.08,35.25-49.16,51.37c-16.57,11.09-38.3,11.09-54.87,0c-19.53-13.07-33.3-28.2-42.97-41.97
		c1.55,5.38,3.87,10.61,6.79,15.6C77.45,110,100.3,137.3,140,155c39.7-17.7,62.55-45,75.2-66.35c2.95-5.05,5.3-10.35,6.85-15.8
		C226,59.7,225.95,45.8,221.9,32.5"/>
	<path style="clip-path:url(#SVGID_00000055677791796653919380000006793101143921550226_);fill:#15B76D;" d="M247.15,97.85L235,110
		v30l-26.25,22.25L175,165l-37.55,22.75l-45.85-15.3L71.2,136.8l-30.55-10.2l-5-32.25c6.6-8.05,14.05-15.25,22.3-21.5
		c1.55,5.45,3.9,10.75,6.85,15.8C77.45,110,100.3,137.3,140,155c39.7-17.7,62.55-45,75.2-66.35c2.95-5.05,5.3-10.35,6.85-15.8
		C231.45,80,239.9,88.45,247.15,97.85"/>
	<path style="clip-path:url(#SVGID_00000055677791796653919380000006793101143921550226_);fill:#15B76D;" d="M117.05,238.7
		l10.2,25.45L105,285l2.4,26C48.6,296.45,5,243.3,5,180c0-6.3,0.45-12.5,1.3-18.55l35.1,8.2l29.8,23.2l-5.05,25.45l20.35,20.4
		H117.05z"/>
	<path style="clip-path:url(#SVGID_00000055677791796653919380000006793101143921550226_);fill:#65BEEF;" d="M273.25,158.35L250,165
		l-10,20l-25,10v20l-16.4,13.5l-25.5-10.2l-10.2,25.5l20.4,35.65l-7.15,30.65c-11.5,3.2-23.6,4.9-36.15,4.9
		c-11.25,0-22.15-1.35-32.6-4l-2.4-26l22.25-20.85l-10.2-25.45H86.5l-20.35-20.4l5.05-25.45l-29.8-23.2l-35.1-8.2
		c3.45-25.3,13.9-48.35,29.35-67.1l5,32.25l30.55,10.2l20.4,35.65l45.85,15.3L175,165l33.75-2.75L235,140v-30l12.15-12.15
		C260.45,115.2,269.65,135.85,273.25,158.35"/>
	<path style="clip-path:url(#SVGID_00000055677791796653919380000006793101143921550226_);fill:#309358;" d="M250,220
		c0,2.76-2.24,5-5,5c-2.76,0-5-2.24-5-5c0-2.76,2.24-5,5-5C247.76,215,250,217.24,250,220"/>
	<path style="clip-path:url(#SVGID_00000055677791796653919380000006793101143921550226_);fill:#FFBE1D;" d="M90.7,38.28
		c4.56-4.56,11.03-5.5,15.06-2.43c1.89-5.58,1.38-11-1.99-14.37c-5.6-5.6-16.86-3.43-25.15,4.85c-8.28,8.28-10.46,19.54-4.85,25.15
		c3.41,3.41,8.91,3.9,14.56,1.93C85.19,49.4,86.11,42.86,90.7,38.28"/>
	<path style="clip-path:url(#SVGID_00000055677791796653919380000006793101143921550226_);fill:#309358;" d="M237.67,248.98
		c1.79-2.5,3.49-5.1,5.06-7.72c1.43-2.36,0.66-5.44-1.71-6.86c-2.36-1.44-5.44-0.66-6.86,1.7c-1.45,2.39-3,4.78-4.65,7.09
		c-11.76,16.65-28.01,29.64-46.52,37.56l-2.75,11.8C203.2,284.36,223.45,269.11,237.67,248.98"/>
	<path style="clip-path:url(#SVGID_00000055677791796653919380000006793101143921550226_);fill:#47A3E2;" d="M140.05,289.62
		c-2.76,0-5,2.24-5,5c0,2.76,2.24,5,5,5c11.85,0,23.45-1.71,34.44-5.08c1.95-0.58,3.84-1.31,5.75-1.99l2.75-11.8
		c-3.72,1.59-7.51,3.06-11.4,4.22C161.52,288.06,150.91,289.62,140.05,289.62"/>
	<path style="clip-path:url(#SVGID_00000055677791796653919380000006793101143921550226_);fill:#252525;" d="M50.53,243.11
		c-4.86-6.84-8.88-14.11-11.95-21.6c-1.04-2.55-3.97-3.79-6.52-2.73c-2.55,1.04-3.78,3.96-2.73,6.52
		c3.36,8.2,7.75,16.15,13.04,23.58c7.12,10.14,15.81,19.15,25.82,26.76c0.9,0.69,1.97,1.02,3.02,1.02c1.51,0,3-0.68,3.98-1.97
		c1.67-2.2,1.25-5.34-0.95-7.01C65.04,260.68,57.07,252.42,50.53,243.11"/>
	<path style="clip-path:url(#SVGID_00000055677791796653919380000006793101143921550226_);fill:#252525;" d="M280,180
		c0-7.5-0.61-15.06-1.81-22.44c-3.63-22.69-12.99-44.39-27.08-62.76c-6.88-8.93-14.77-16.88-23.41-23.79
		c3.29-13.11,2.98-26.85-1.02-39.98c-2.76-8.95-8.76-16.94-16.9-22.5C201.73,3.03,191.72,0,181.6,0c-18.15,0-29.78,8.55-36.33,15.71
		c-2.15,2.33-3.91,4.68-5.32,6.83C133.78,13.23,121.03,0,98.4,0C88.28,0,78.27,3.03,70.23,8.52c-8.14,5.56-14.15,13.55-16.91,22.52
		C51.12,38.29,50,45.69,50,53.05c0,6.14,0.8,12.15,2.28,17.95c-7.46,5.96-14.37,12.7-20.49,20.17c-16.43,19.93-26.95,44-30.44,69.59
		C0.45,167.12,0,173.6,0,180c0,64.52,43.67,120.38,106.17,135.85C117.03,318.6,128.41,320,140,320c12.76,0,25.38-1.71,37.49-5.08
		c0.1-0.03,0.2-0.07,0.3-0.1c0.01,0,0.02-0.01,0.03-0.01C237.99,297.97,280,242.6,280,180 M183.03,302.63l5.14-22.04
		c0.29-1.23,0.1-2.52-0.53-3.62l-19.2-33.55l7.44-18.61l20.86,8.35c1.7,0.67,3.62,0.38,5.04-0.78l16.4-13.5
		c1.15-0.95,1.82-2.37,1.82-3.86v-16.62l21.86-8.74c1.14-0.45,2.07-1.31,2.62-2.41l9.02-18.03l15.51-4.43c0.6,5.06,1,10.14,1,15.23
		C270,235.33,234.63,284.53,183.03,302.63 M62.88,33.97c2.1-6.8,6.71-12.9,13-17.2C82.27,12.41,90.27,10,98.4,10
		c27.55,0,36.53,23.83,36.89,24.82c0.71,1.99,2.59,3.31,4.7,3.32H140c2.1,0,3.98-1.32,4.7-3.3c0.02-0.06,2.31-6.26,7.93-12.36
		C160.21,14.2,169.96,10,181.6,10c8.13,0,16.13,2.41,22.52,6.78c6.28,4.29,10.9,10.4,12.99,17.17c3.76,12.32,3.81,25.28,0.13,37.52
		c-1.39,4.87-3.52,9.8-6.34,14.62c-11.49,19.38-33.06,45.95-70.9,63.41c-37.84-17.46-59.41-44.03-70.88-63.38
		c-2.83-4.86-4.97-9.78-6.36-14.65c-0.01-0.03-0.02-0.07-0.03-0.11C60.92,65.53,60,59.37,60,53.05C60,46.68,60.97,40.25,62.88,33.97
		 M55.58,81.18c1.36,3.35,2.98,6.71,4.92,10.02c12.43,20.98,35.96,49.86,77.47,68.36c1.63,0.75,3.42,0.29,4.07,0
		c41.5-18.5,65.04-47.39,77.48-68.39c1.92-3.29,3.53-6.62,4.89-9.95c5.77,4.91,11.11,10.38,16,16.31l-8.94,8.94
		c-0.94,0.94-1.46,2.21-1.46,3.54v27.69l-23.26,19.71l-32.15,2.62c-0.78,0.06-1.52,0.31-2.19,0.71l-35.57,21.55l-41.85-13.96
		l-19.45-33.99c-0.61-1.07-1.59-1.87-2.76-2.26l-27.66-9.24l-4.18-26.95C45.45,90.57,50.33,85.64,55.58,81.18 M10,180
		c0-4.12,0.28-8.26,0.68-12.39l28.52,6.66l26.5,20.63l-4.45,22.43c-0.33,1.64,0.19,3.32,1.36,4.5l20.35,20.4
		c0.94,0.94,2.21,1.47,3.54,1.47h27.17l7.67,19.13l-19.76,18.52c-1.13,1.05-1.7,2.57-1.56,4.11l1.73,18.68
		C47.4,287.5,10,237.5,10,180 M112.05,306.9l-1.84-19.92l20.46-19.18c1.5-1.41,1.99-3.59,1.23-5.51l-10.21-25.45
		c-0.76-1.89-2.6-3.14-4.64-3.14H88.57l-17-17.04l4.53-22.84c0.37-1.85-0.34-3.75-1.83-4.92l-29.8-23.2
		c-0.57-0.44-1.23-0.76-1.93-0.92l-30.51-7.13c3.14-18.23,10.13-35.5,20.51-50.73l3.17,20.44c0.29,1.85,1.58,3.38,3.36,3.98
		l28.74,9.6l19.45,33.99c0.61,1.06,1.59,1.87,2.76,2.26l45.85,15.3c1,0.32,2.86,0.47,4.17-0.46l36.54-22.14l32.57-2.65
		c1.04-0.09,2.03-0.5,2.83-1.17l26.25-22.25c1.12-0.95,1.77-2.34,1.77-3.81v-27.93l6.52-6.52c10.34,14.8,17.5,31.64,20.95,49.25
		l-18.85,5.39c-1.34,0.39-2.47,1.32-3.1,2.57l-9.15,18.3l-23.23,9.29c-1.9,0.76-3.15,2.6-3.15,4.64v17.64l-12.29,10.12l-22.75-9.1
		c-2.54-1.02-5.47,0.21-6.5,2.79l-10.2,25.5c-0.57,1.42-0.45,3.01,0.3,4.34l19.42,33.94l-6,25.74
		C152.45,310.91,131.4,311.21,112.05,306.9"/>
	<path style="clip-path:url(#SVGID_00000055677791796653919380000006793101143921550226_);fill:#252525;" d="M140,137.8
		c0.77,0,1.56-0.18,2.29-0.56c18.93-9.8,35.12-22.96,48.1-39.1c1.73-2.15,1.39-5.3-0.76-7.03c-2.16-1.73-5.3-1.38-7.03,0.76
		c-12.1,15.05-27.21,27.33-44.9,36.5c-2.45,1.27-3.41,4.29-2.14,6.74C136.45,136.82,138.19,137.8,140,137.8"/>
	<path style="clip-path:url(#SVGID_00000055677791796653919380000006793101143921550226_);fill:#252525;" d="M35,205
		c0-2.76-2.24-5-5-5c-2.76,0-5,2.24-5,5c0,2.76,2.24,5,5,5C32.76,210,35,207.76,35,205"/>
	<path style="clip-path:url(#SVGID_00000055677791796653919380000006793101143921550226_);fill:#252525;" d="M197.96,83.45
		c2.76,0,5-2.24,5-5c0-2.76-2.24-5-5-5c-2.76,0-5,2.24-5,5C192.96,81.21,195.2,83.45,197.96,83.45"/>
</g>
</svg>
