<?xml version="1.0" encoding="utf-8"?>
<!-- Generator: Adobe Illustrator 26.2.1, SVG Export Plug-In . SVG Version: 6.00 Build 0)  -->
<svg version="1.1" id="Isolation_Mode" xmlns="http://www.w3.org/2000/svg" xmlns:xlink="http://www.w3.org/1999/xlink" x="0px"
	 y="0px" viewBox="0 0 450.3 400.42" style="enable-background:new 0 0 450.3 400.42;" xml:space="preserve">
<style type="text/css">
	.st0{fill:#32B34A;}
	.st1{fill:#222222;}
</style>
<g>
	<g>
		<g>
			<path class="st0" d="M319.64,395.42c-6.89,0-10.96-2.39-12.42-3.45c-0.37-0.26-0.71-0.57-1-0.93l-9.92-12.15l-5.47,0.24
				l-5.2,4.16c-0.89,0.71-2,1.09-3.12,1.09c-0.35,0-0.7-0.04-1.04-0.11c-1.46-0.31-2.71-1.26-3.4-2.59l-1.86-3.59l-22.7-11.38
				c-2.28-1.14-3.33-3.82-2.45-6.21l0.6-1.62h-5.3c-1.31,0-2.58-0.52-3.51-1.44l-5.86-5.79l-6.33,0.47l-4.3,6.79
				c-0.9,1.42-2.44,2.29-4.12,2.33c0,0-13.13,0.28-13.17,0.28c-1.01,0-1.99-0.3-2.83-0.88l-11.64-7.97l-4.59,9.89
				c-1.84,7.59-6.23,8.55-7.54,8.67c-0.14,0.01-0.29,0.02-0.43,0.02c-0.13,0-0.26-0.01-0.39-0.02l-0.25-0.02l-16.54,1.83
				c-0.18,0.02-0.37,0.03-0.55,0.03c-1.38,0-2.71-0.57-3.67-1.6l-9.68-10.44c-1.5-1.62-1.76-4.03-0.65-5.93l4.5-7.67l-2.3-24.97
				c-0.15-1.58,0.47-3.14,1.66-4.2c2.08-1.85,5.9-7.73,9.91-15.22l-4.89-6.2c-0.68-0.86-1.05-1.92-1.07-3.01l-0.14-7.86
				c-0.04-2.18,1.34-4.13,3.4-4.83l4.45-1.5c-0.99-2.38-3.11-4.94-4.89-6.67c0,0-5.59,0.2-5.66,0.2c-0.63,0-1.25-0.12-1.83-0.35
				c-6.58-2.59-12.24-7.35-14.64-9.54c-0.37,0.03-0.76,0.04-1.17,0.04c-3.12,0-7.29-0.75-9.26-1.2c-0.26-0.06-0.52-0.14-0.77-0.24
				c-10.87-4.38-13.15-10.22-13.55-13.31c-0.29-2.27,1-4.46,3.14-5.29l2.92-1.14l-3.01-5.57c-6.03-9.92-4.01-18.07-3.08-20.7
				c3.13-12.25,8.95-20.27,11.01-22.83l0.25-5.02l-7.08-3.24c-0.1-0.05-0.2-0.1-0.3-0.15c-7.89-4.28-12.36-8.1-13.56-9.19
				c-0.18-0.16-0.35-0.33-0.5-0.51c-4.99-5.86-4.97-17.47-4.93-19.46c-0.04-0.95-0.24-1.66-0.53-1.88c-0.2-0.15-0.53-0.17-0.66-0.17
				c-0.06,0-0.11,0-0.14,0.01c-0.17,0.04-0.34,0.07-0.52,0.09l-15.75,1.98c-0.21,0.03-0.42,0.04-0.62,0.04
				c-0.92,0-1.83-0.26-2.62-0.74l-8.63-5.32c-1.27-0.71-2.17-1.83-2.62-3.26c-0.29-0.89-0.37-1.84-0.33-2.78
				c-1.52,0.4-2.79,0.53-3.77,0.53c-0.58,0-1.14-0.04-1.64-0.13c-0.68-0.12-1.33-0.37-1.91-0.75l-6.41-4.21
				c-1.69-1.11-2.54-3.13-2.17-5.12l1.26-6.59l-8.69-4.73c-2.51,0.97-5.8,1.44-9.99,1.44c-5.22,0-11.06-0.76-14.79-1.47
				c-0.89-0.17-1.73-0.58-2.4-1.19l-9.32-8.36c-1-0.9-1.6-2.17-1.66-3.52c-0.05-1.35,0.44-2.66,1.36-3.64l24.76-26.19
				c0.95-1.01,2.27-1.56,3.63-1.56c0.28,0,0.57,0.02,0.85,0.07l37.51,6.47l41.27-7.99c0.31-0.06,0.63-0.09,0.95-0.09
				c0.49,0,0.97,0.07,1.45,0.21l34.98,10.56l50.77-14.03l24.23-41.06l14-24.6c0.81-1.42,2.26-2.36,3.89-2.51
				C244.8,5.01,244.96,5,245.11,5c1.46,0,2.87,0.64,3.82,1.77l8.51,10.08c0.38,0.45,0.68,0.97,0.88,1.53
				c0.5,1.39,50.46,138.97,98.16,195.67l29.32,24.68c1.24,1.04,1.9,2.62,1.76,4.23c0,0.05-0.5,7.91,3.99,17.4
				c0.05,0.11,0.1,0.22,0.14,0.33l7.71,19.84l10.24,9.18c0.65,0.58,1.14,1.33,1.41,2.16c0.11,0.32,10.83,32.48,26.3,43.35
				c1.29,0.91,2.08,2.37,2.12,3.94c0,0.12,0.48,13.14,5.47,25.76c0.54,1.37,0.45,2.92-0.25,4.22c-0.7,1.3-1.95,2.22-3.39,2.52
				c-11.99,2.45-19.53,14.8-21.55,18.53c-0.89,1.64-2.59,2.61-4.39,2.61c-0.39,0-0.78-0.04-1.17-0.14l-4.86-1.16
				c-0.79-0.19-1.51-0.56-2.12-1.09l-5.77-5.03l-1.16,1.35c-0.95,1.11-2.34,1.75-3.8,1.75h-8.21l-5.96,3.08
				c-0.72,0.37-1.51,0.56-2.3,0.56c-0.98,0-1.95-0.29-2.79-0.85l-10.62-7.14l-12.64-0.3c-1.65-0.04-3.17-0.89-4.07-2.27l-2.47-3.78
				l-8.3,11.66c-0.51,0.71-1.19,1.28-1.98,1.64C330.9,393.96,325.01,395.42,319.64,395.42z M99.39,152.64"/>
			<path class="st1" d="M245.11,10l8.51,10.08c0,0,50.39,139.67,99.32,197.52l29.64,24.96c0,0-0.74,8.98,4.45,19.95l8.14,20.96
				l11.13,9.97c0,0,11.13,33.91,28.18,45.88c0,0,0.42,13.8,5.81,27.44c-13.98,2.86-22.45,16.44-24.95,21.04l-4.86-1.16l-8.01-6.99
				l-2.9,0.21l-3.1,3.61h-8.93l-0.94,0.23l-6.6,3.42l-11.33-7.62l-1.1-0.35l-13.51-0.32l-4.83-7.41l-3.39-0.06l-10.8,15.18
				c-6.42,2.96-11.54,3.88-15.42,3.88c-6.43,0-9.49-2.52-9.55-2.54l-10.86-13.3l-1.67-0.75l-7.91,0.35l-1.19,0.45l-5.96,4.76
				l-2.3-4.45l-0.91-0.89l-23.55-11.81l2.07-5.59l-1.92-2.76h-9.54l-6.82-6.72l-1.59-0.59l-9.15,0.68l-1.58,0.95l-5.09,8.05
				l-13.06,0.28l-14.52-9.94l-3.01,0.83l-6.18,13.31l-0.14,0.41c-0.96,4.25-2.73,5.08-3.17,5.12l-0.73-0.06l-17.01,1.88l-9.68-10.44
				l4.98-8.49l0.28-1.22L157.49,322c4.03-3.58,10.03-14.71,11.92-18.33l-0.21-2.22l-6.08-7.71l-0.14-7.86l7.01-2.36l1.39-2.08
				c-0.45-6.45-7.68-12.74-7.98-13.01l-1.41-0.5l-6.69,0.24c-7.53-2.97-13.94-9.37-14.01-9.44l-1.9-0.56
				c-0.46,0.11-1.06,0.15-1.73,0.15c-2.53,0-6.2-0.63-8.16-1.07c-8.67-3.5-10.23-7.51-10.46-9.3l6.04-2.36l1.05-2.89l-4.66-8.61
				c-5.64-9.19-2.85-16.13-2.63-16.73c3.45-13.71,10.58-21.73,10.65-21.8l0.52-1.28l0.4-7.99l-1.19-1.96l-8.89-4.08
				c-8.49-4.6-12.62-8.55-12.64-8.55c-3.34-3.93-3.83-12.97-3.74-16.25c-0.08-2.69-0.93-4.65-2.53-5.86
				c-1.26-0.95-2.67-1.16-3.65-1.16c-0.75,0-1.27,0.12-1.28,0.14l-15.75,1.98l-8.75-5.4c-0.17-0.08-0.28-0.18-0.36-0.45
				c-0.43-1.29,0.49-4.01,1.27-5.53l-2.89-2.69c-3.49,2.13-5.98,2.49-7.26,2.49c-0.38,0-0.65-0.03-0.81-0.06l-6.41-4.21l1.66-8.71
				l-1.04-2.18l-11.87-6.46l-1.96,0c-2.1,1.14-5.5,1.54-9.13,1.54c-5.17,0-10.82-0.8-13.85-1.38L10,109.16l24.76-26.19l38.41,6.62
				l42.17-8.16l36.36,10.98l54.11-14.95l25.25-42.8L245.11,10 M245.11,0c-0.31,0-0.61,0.01-0.92,0.04c-3.25,0.3-6.16,2.17-7.77,5.01
				l-14,24.6L199.26,68.9L151.83,82l-33.6-10.14c-0.94-0.28-1.91-0.43-2.89-0.43c-0.64,0-1.27,0.06-1.9,0.18l-40.37,7.82l-36.6-6.31
				c-0.57-0.1-1.13-0.15-1.7-0.15c-2.72,0-5.36,1.11-7.27,3.13L2.73,102.29c-1.85,1.96-2.84,4.59-2.73,7.28
				c0.11,2.7,1.31,5.23,3.31,7.03l9.32,8.36c1.36,1.22,3.02,2.04,4.81,2.38c3.95,0.75,10.16,1.56,15.72,1.56
				c3.73,0,6.84-0.33,9.48-1.03l3.61,1.96l-0.57,3c-0.76,3.97,0.95,8.01,4.33,10.23l6.41,4.21c1.16,0.76,2.46,1.27,3.83,1.5
				c0.72,0.12,1.49,0.19,2.28,0.2c0.92,2.03,2.42,3.7,4.36,4.81l8.57,5.28c1.58,0.98,3.4,1.49,5.25,1.49c0.41,0,0.83-0.03,1.25-0.08
				L94,158.98c0.26,5.13,1.43,13.78,6.06,19.22c0.3,0.36,0.63,0.69,0.97,1c1.7,1.54,6.41,5.47,14.51,9.86c0.2,0.11,0.4,0.21,0.6,0.3
				l4,1.83l0,0.08c-2.78,3.76-7.94,11.82-10.88,23.19c-1.18,3.48-3.36,13.2,3.53,24.62l0.41,0.76c-2.93,2.1-4.56,5.68-4.08,9.39
				c0.53,4.17,3.4,11.97,16.64,17.31c0.5,0.2,1.01,0.36,1.54,0.48c0.57,0.13,5.44,1.2,9.68,1.31c3.13,2.67,8.51,6.74,14.66,9.16
				c1.17,0.46,2.41,0.7,3.67,0.7c0.12,0,0.24,0,0.37-0.01l1-0.04c-2.33,1.9-3.73,4.79-3.67,7.92l0.14,7.86
				c0.04,2.19,0.79,4.3,2.15,6.02l2.84,3.6c-3.64,6.5-6.3,10.13-7.26,10.98c-2.38,2.11-3.61,5.23-3.32,8.4l2.16,23.37l-3.69,6.28
				c-2.24,3.81-1.71,8.63,1.29,11.87l9.68,10.44c1.9,2.05,4.57,3.2,7.33,3.2c0.37,0,0.73-0.02,1.1-0.06l16.08-1.78
				c0.18,0.01,0.37,0.02,0.55,0.02c0.29,0,0.57-0.01,0.86-0.04c4.35-0.37,9.67-3.73,11.85-11.96l1.91-4.11l6.77,4.63
				c1.67,1.14,3.64,1.75,5.65,1.75c0.07,0,0.14,0,0.22,0l13.06-0.28c3.35-0.07,6.44-1.82,8.23-4.65l2.95-4.67l1.55-0.12l4.25,4.19
				c1.76,1.73,4.09,2.75,6.54,2.87c0.51,3.06,2.43,5.83,5.38,7.31l21.25,10.65l1.11,2.15c1.38,2.66,3.87,4.56,6.8,5.19
				c0.69,0.15,1.39,0.22,2.08,0.22c2.25,0,4.46-0.76,6.24-2.19l3.93-3.14l1.33-0.06l8.34,10.21c0.57,0.7,1.24,1.32,1.97,1.84
				c1.91,1.37,7.04,4.38,15.32,4.38c6.1,0,12.69-1.61,19.6-4.79c1.59-0.73,2.95-1.86,3.97-3.29l4.27-6
				c1.74,1.54,3.99,2.44,6.37,2.49l11.18,0.26l9.41,6.33c1.68,1.13,3.63,1.7,5.58,1.7c1.57,0,3.15-0.37,4.6-1.12l4.87-2.52h6.99
				c1.8,0,3.54-0.48,5.06-1.37l2.38,2.08c1.22,1.06,2.67,1.81,4.24,2.19l4.86,1.16c0.78,0.19,1.56,0.28,2.33,0.28
				c3.6,0,7.01-1.95,8.78-5.23c1.26-2.31,8.03-13.94,18.16-16.01c2.9-0.59,5.38-2.44,6.79-5.04s1.59-5.69,0.51-8.44
				c-4.64-11.75-5.11-23.97-5.12-24.09c-0.11-3.13-1.68-6.06-4.25-7.86c-11.7-8.22-21.81-32.84-24.43-40.82
				c-0.55-1.67-1.52-3.16-2.83-4.33l-9.35-8.38l-7.27-18.73c-0.09-0.22-0.18-0.44-0.28-0.66c-3.68-7.78-3.55-14.25-3.52-14.91
				c0.33-3.28-1.01-6.29-3.53-8.41l-28.99-24.4C313,154.3,263.52,18.06,263.03,16.69c-0.4-1.12-1-2.15-1.77-3.06l-8.51-10.08
				C250.84,1.29,248.04,0,245.11,0L245.11,0z"/>
		</g>
	</g>
</g>
</svg>
