<?xml version="1.0" encoding="utf-8"?>
<!-- Generator: Adobe Illustrator 26.2.1, SVG Export Plug-In . SVG Version: 6.00 Build 0)  -->
<svg version="1.1" id="Layer_1" xmlns="http://www.w3.org/2000/svg" xmlns:xlink="http://www.w3.org/1999/xlink" x="0px" y="0px"
	 viewBox="0 0 238.13 179.26" style="enable-background:new 0 0 238.13 179.26;" xml:space="preserve">
<style type="text/css">
	.st0{fill:#DCC19F;stroke:#252525;stroke-width:8;stroke-miterlimit:10;}
	.st1{fill:#252525;}
	.st2{fill:#FFE7C9;}
	.st3{fill:#F03A5A;}
</style>
<path class="st0" d="M220.58,175.26H35.3c-7.48,0-13.55-6.07-13.55-13.55V38.29c0-7.48,6.07-13.55,13.55-13.55h185.28
	c7.48,0,13.55,6.07,13.55,13.55v123.42C234.13,169.19,228.06,175.26,220.58,175.26z"/>
<path class="st1" d="M202.45,157.16H15.87C7.11,157.16,0,150.06,0,141.29V15.87C0,7.11,7.11,0,15.87,0h186.58
	c8.77,0,15.87,7.11,15.87,15.87v125.42C218.32,150.06,211.22,157.16,202.45,157.16z"/>
<path class="st2" d="M201.19,148.76H17.9c-5.34,0-9.68-4.33-9.68-9.68v-121c0-5.34,4.33-9.68,9.68-9.68h183.29
	c5.34,0,9.68,4.33,9.68,9.68v121C210.87,144.42,206.54,148.76,201.19,148.76z"/>
<g>
	<path class="st1" d="M161.82,87.21h-110c-2.76,0-5,2.24-5,5c0,2.76,2.24,5,5,5h110c2.76,0,5-2.24,5-5
		C166.82,89.45,164.59,87.21,161.82,87.21z"/>
	<path class="st1" d="M141.82,112.21h-90c-2.76,0-5,2.24-5,5c0,2.76,2.24,5,5,5h90c2.76,0,5-2.24,5-5
		C146.82,114.44,144.59,112.21,141.82,112.21z"/>
	<circle class="st1" cx="161.82" cy="117.21" r="5"/>
	<path class="st1" d="M168,67.74H54.18c-4.06,0-7.35-3.29-7.35-7.35V40.55c0-4.06,3.29-7.35,7.35-7.35H168
		c4.06,0,7.35,3.29,7.35,7.35v19.84C175.35,64.45,172.06,67.74,168,67.74z"/>
	<path class="st3" d="M166.06,62.32H55.35c-1.71,0-3.1-1.39-3.1-3.1V41.81c0-1.71,1.39-3.1,3.1-3.1h110.71c1.71,0,3.1,1.39,3.1,3.1
		v17.42C169.16,60.94,167.77,62.32,166.06,62.32z"/>
</g>
</svg>
