<?xml version="1.0" encoding="utf-8"?>
<!-- Generator: Adobe Illustrator 26.2.1, SVG Export Plug-In . SVG Version: 6.00 Build 0)  -->
<svg version="1.1" id="Isolation_Mode" xmlns="http://www.w3.org/2000/svg" xmlns:xlink="http://www.w3.org/1999/xlink" x="0px"
	 y="0px" viewBox="0 0 374.42 570.36" style="enable-background:new 0 0 374.42 570.36;" xml:space="preserve">
<style type="text/css">
	.st0{fill:#32B34A;}
	.st1{fill:#999999;}
</style>
<g>
	<g>
		<path class="st0" d="M254.93,486.55c-0.55,0-1.1-0.08-1.64-0.23c-1.56-0.45-2.88-1.5-3.64-2.94l-9.62-17.95
			c-0.35-0.65-0.57-1.36-0.67-2.09l-0.75-5.94c-0.09-0.69-0.05-1.37,0.09-2.01l-1.62-5.54c-0.48-1.66-0.23-3.45,0.7-4.9
			c0.93-1.46,2.44-2.44,4.15-2.71l1.79-0.27c9.93-18.27,36.94-32.5,45.15-36.51l0.28-2.88c0.29-2.96,2.7-5.27,5.68-5.42l6.53-0.32
			c0.1,0,0.2-0.01,0.29-0.01c1.56,0,3.06,0.61,4.18,1.7l4.55,4.42l4.68,0.66c0.96,0.14,1.88,0.5,2.67,1.07l4.12,2.96
			c1.55,1.12,2.48,2.9,2.5,4.81c0.02,1.91-0.88,3.71-2.41,4.86l-4.25,3.18l-14.94,37.35c-0.61,1.53-1.83,2.74-3.36,3.35l-2,0.79
			l8.34,5.61c2.03,1.37,3.03,3.83,2.52,6.22l-1.48,6.98c-0.38,1.79-1.56,3.31-3.19,4.12c-0.84,0.42-1.76,0.63-2.68,0.63
			c-0.87,0-1.73-0.19-2.53-0.56c-3.61-1.68-14.4-6.04-20.81-6.04c-0.91,0-1.47,0.09-1.78,0.17c-1.78,0.93-5.76,3.15-8.18,5.1
			c-1.23,1-2.53,1.58-3.84,1.58c-0.88,0-1.76-0.27-2.62-0.86c-0.12-0.02-0.29-0.05-0.52-0.05c-0.79,0-1.72,0.29-2.68,0.85
			C257.01,486.28,255.98,486.55,254.93,486.55z"/>
		<path d="M301.66,402.82l5.48,5.32l1.14,0.56l5.97,0.84l4.12,2.96l-5.6,4.19l-15.56,38.91l-12.59,4.98l17.79,11.98l-1.48,6.98
			c0,0-14.16-6.6-23.34-6.6c-1.53,0-2.92,0.18-4.08,0.61c0,0-5.93,3-9.64,5.99c0,0-1.21-0.65-3.22-0.65c-1.5,0-3.46,0.37-5.68,1.65
			l-9.62-17.95l-0.75-5.94l0.69-0.2l-2.41-8.28l3.8-0.58l1.54-1.16c9.43-20.1,44.9-36.34,45.25-36.51l1.19-1.67l0.49-5.11
			L301.66,402.82 M301.66,390.82c-0.2,0-0.39,0-0.59,0.01l-6.53,0.32c-5.81,0.29-10.56,4.7-11.31,10.43
			c-3.94,2.04-9.68,5.2-15.78,9.2c-12.79,8.38-22,17.02-27.48,25.73c-2.98,0.74-5.57,2.59-7.24,5.2c-1.86,2.91-2.37,6.49-1.4,9.81
			l1.27,4.34c-0.05,0.75-0.03,1.51,0.07,2.28l0.75,5.94c0.18,1.46,0.63,2.88,1.33,4.18l9.62,17.95c1.53,2.86,4.16,4.98,7.29,5.87
			c1.08,0.31,2.19,0.46,3.29,0.46c1.97,0,3.93-0.49,5.69-1.43c1.05,0.29,2.13,0.44,3.21,0.44c2.69,0,5.36-0.9,7.54-2.66
			c1.61-1.3,4.37-2.92,6.23-3.94c4.47,0.02,13.34,3.21,18.24,5.48c1.6,0.74,3.33,1.11,5.05,1.11c1.84,0,3.68-0.42,5.37-1.27
			c3.27-1.63,5.62-4.66,6.38-8.24l1.48-6.98c1.02-4.79-0.97-9.71-5.03-12.45l-1.5-1.01c0.28-0.49,0.53-1.01,0.75-1.54l14.31-35.78
			l2.9-2.17c3.06-2.29,4.85-5.9,4.81-9.72c-0.04-3.82-1.89-7.4-4.99-9.63l-4.12-2.96c-1.58-1.14-3.41-1.87-5.34-2.14l-2.74-0.39
			l-3.14-3.06C307.78,392.04,304.78,390.82,301.66,390.82L301.66,390.82z"/>
	</g>
</g>
<g>
	<g>
		<path class="st1" d="M320.26,417.09c-1.53,0-3.05-0.58-4.21-1.72c-0.97-0.95-1.55-2.16-1.73-3.43l-0.8-0.58l-4.83-0.68
			c-1.26-0.18-2.44-0.75-3.35-1.64l-4.4-4.28l-6.41,0.32c-0.1,0-0.2,0.01-0.3,0.01c-1.84,0-3.59-0.85-4.73-2.3l-33.18-42.44
			c-0.96-1.22-1.4-2.77-1.24-4.31l0.3-2.92c0.17-1.68,1.04-3.2,2.4-4.21c1.04-0.77,2.29-1.18,3.57-1.18c0.38,0,0.77,0.04,1.16,0.11
			l1.76,0.35c2.52-0.71,11.13-3.84,14.75-14.18c0.6-1.72,1.96-3.08,3.68-3.68c2.78-0.97,12.19-4.3,16.47-6.42
			c0.85-0.42,1.76-0.62,2.66-0.62c1.9,0,3.75,0.9,4.9,2.54l10.56,14.94l7.84-2.35l1.25-2.59c0.78-1.61,2.23-2.79,3.97-3.22
			c0.47-0.12,0.96-0.17,1.43-0.17c1.28,0,2.53,0.41,3.58,1.18l4.56,3.39c0.23-0.03,0.46-0.04,0.7-0.04c1.06,0,2.13,0.28,3.1,0.87
			c2.06,1.24,3.12,3.54,2.86,5.81l2.86,6.93c0.58,1.4,0.6,2.96,0.08,4.38l-3.27,8.79l0.67,12.75c0.16,3.12-2.1,5.85-5.2,6.26
			l-7.4,0.99c-0.27,0.04-0.53,0.05-0.8,0.05c-0.52,0-1.04-0.07-1.53-0.2c-0.73,6.15-1,13.81,0.06,22.41
			c0.26,2.14-0.64,4.25-2.37,5.54l-5.84,4.36C322.78,416.7,321.51,417.09,320.26,417.09z"/>
		<path d="M301.83,329.28l12.21,17.26l2.26,0.78l12.23-3.67l1.26-1.07l2-4.16l7.86,5.84l0.97-1.31c-0.15,0.31-0.28,0.6-0.43,0.91
			l3.7,8.98l-3.7,9.96l0.73,13.99l-7.4,0.99l-3.71-11.97c0,0-6.68,16.96-3.72,40.91l-5.84,4.36l1.08-1.5l-5.11-3.67l-0.91-0.36
			l-5.79-0.82l-5.63-5.49l-1.54-0.58l-8.13,0.4l-33.18-42.44l0.3-2.92l2.62,0.51h0.8c0.6-0.12,14.59-3.04,19.92-18.25
			C287.9,334.87,297.3,331.53,301.83,329.28 M340.63,342.96L340.63,342.96 M301.83,317.28c-1.8,0-3.61,0.4-5.31,1.24
			c-3.15,1.56-10.22,4.19-15.79,6.13c-3.45,1.2-6.16,3.91-7.37,7.36c-2.23,6.37-6.97,9-9.48,9.97l-0.22-0.04
			c-0.77-0.15-1.54-0.22-2.31-0.22c-2.55,0-5.05,0.81-7.14,2.35c-2.71,2-4.45,5.06-4.8,8.41l-0.3,2.92
			c-0.32,3.09,0.57,6.18,2.48,8.63l33.18,42.44c2.28,2.92,5.77,4.61,9.45,4.61c0.2,0,0.4,0,0.6-0.01l3.8-0.19l2.52,2.46
			c1.83,1.78,4.17,2.93,6.7,3.29l1.91,0.27c0.55,0.99,1.25,1.92,2.09,2.75c2.32,2.28,5.36,3.44,8.42,3.44
			c2.51,0,5.04-0.79,7.18-2.38l5.84-4.36c3.45-2.58,5.26-6.81,4.73-11.09c-0.72-5.84-0.78-11.21-0.51-15.9l5.01-0.67
			c6.2-0.83,10.72-6.28,10.4-12.52l-0.6-11.51l2.84-7.63c1.05-2.84,1-5.96-0.15-8.76l-2.37-5.75c-0.21-5.93-4.72-10.76-10.51-11.47
			c-0.05-0.01-0.1-0.01-0.15-0.02l-3.01-2.24c-2.09-1.55-4.61-2.37-7.16-2.37c-0.96,0-1.92,0.11-2.87,0.35
			c-3.48,0.86-6.39,3.22-7.94,6.44l-0.1,0.21l-1.18,0.35l-8.07-11.42C309.32,319.08,305.62,317.28,301.83,317.28L301.83,317.28z"/>
	</g>
</g>
<g>
	<g>
		<path class="st1" d="M212.87,369.33c-1.29,0-2.56-0.42-3.6-1.2l-6.03-4.53l-11.55,4.58c-0.72,0.29-1.47,0.42-2.21,0.42
			c-1.71,0-3.37-0.73-4.54-2.07l-10.51-12.13c-0.82-0.95-1.32-2.12-1.44-3.37l-0.25-2.71c-0.62,0.75-1.43,1.35-2.37,1.73
			c-4.95,7.04-14.2,9.64-18.11,10.44c-0.4,0.08-0.81,0.12-1.21,0.12c-1.41,0-2.78-0.49-3.88-1.42l-6.17-5.22
			c-1.94,0.92-4.26,1.38-6.95,1.38c-3.75,0-7.83-0.93-10.57-1.85l-2.52,0.27c-0.21,0.02-0.42,0.03-0.64,0.03
			c-1.66,0-3.26-0.69-4.4-1.92l-6.56-7.08c-2.05-2.22-2.14-5.62-0.19-7.93l4.95-5.9c-6.35-5.46-10.83-13.69-12.11-16.19
			c-5.66-5.39-12.06-6.54-16.48-6.54c-1.38,0-2.4,0.12-2.89,0.19c-0.29,0.04-0.58,0.06-0.87,0.06c-0.96,0-1.91-0.23-2.77-0.68
			l-19.25-10.03c-1.39-0.73-2.44-1.97-2.93-3.46l-1.87-5.72c-0.68-2.07-0.18-4.34,1.3-5.94l3.78-4.08l-5.44-17
			c-0.55-1.73-0.29-3.61,0.7-5.12c1-1.51,2.62-2.5,4.43-2.68c5.58-0.55,8.96-1.67,10.18-2.14c10.8-11.05,12.91-20.74,13.31-24.43
			c0.23-2.06,1.5-3.84,3.33-4.74c0.37-1.28,0.28-4.51-0.43-7.67c-0.61-1.48-1.11-2.46-1.49-3.11L81,213.35
			c-0.78,0.35-1.62,0.53-2.47,0.53c-0.75,0-1.5-0.14-2.21-0.42c-14.54-5.77-22.29-11.69-23.68-18.08c-0.54-2.44-0.08-4.97,1.26-6.96
			c0.32-0.48,0.7-0.92,1.16-1.31l1.74-1.46l-1.54-3.79c-0.65-1.61-0.58-3.42,0.21-4.97l2.78-5.47c-5.69-9.38-5.96-14.83-5.11-17.79
			c0.35-1.21,1.07-2.28,2.06-3.06l3.1-2.43l-6.56-13.24c-0.76-1.54-0.83-3.34-0.18-4.93l2.77-6.78c0.62-1.53,1.85-2.73,3.39-3.32
			c0.7-0.27,1.43-0.4,2.17-0.4c0.88,0,1.76,0.19,2.58,0.58l6.91,3.28l0.62-1.46l-3.8-4.02c-2.21-2.34-2.18-6.02,0.08-8.32l4.88-4.98
			c1.15-1.17,2.7-1.8,4.29-1.8c0.64,0,1.28,0.1,1.9,0.31l4.08,1.37l7.45-0.14l-1.37-1.34c-1.85-1.82-2.33-4.62-1.17-6.94l2.83-5.72
			l-0.1-2.43c-0.07-1.68,0.57-3.31,1.76-4.5c1.13-1.12,2.65-1.75,4.23-1.75c0.09,0,0.18,0,0.28,0.01l1.24,0.06
			c0.2-1.26,0.52-2.62,0.96-4.1c0.56-1.89,2.01-3.39,3.89-4.01c0.61-0.2,1.24-0.3,1.87-0.3c1.3,0,2.58,0.42,3.64,1.23
			c4.73,3.6,8.38,4.63,10.59,4.87c0.49-1.95,1.26-4.36,2.3-7.19c0.67-1.82,2.18-3.21,4.06-3.72c0.52-0.14,1.05-0.21,1.57-0.21
			c1.37,0,2.72,0.47,3.81,1.36l6.32,5.19c0.7,0.58,1.27,1.31,1.65,2.14l3.17,6.93c0.25-0.29,0.53-0.56,0.84-0.8
			c1.07-0.84,2.38-1.27,3.69-1.27c0.79,0,1.59,0.16,2.34,0.48l7.42,3.15l5.83-10.44l-5.6-6.57c-0.54-0.63-0.94-1.38-1.18-2.17
			l-1.02-3.41c-0.62-2.07-0.08-4.32,1.42-5.88l3.46-3.6c0.09-3.6,1.46-5.94,2.37-7.1c1.08-1.38,2.71-2.23,4.46-2.31
			c11.14-0.52,17.08-8.88,19.62-13.82c0.78-1.51,2.16-2.62,3.81-3.05c0.5-0.13,1.01-0.2,1.52-0.2c1.16,0,2.3,0.34,3.29,0.98
			c0.95,0.62,3.67,2.08,8.33,2.08c4.21,0,8.93-1.17,14.06-3.47l8.77-12.32c1.13-1.58,2.95-2.52,4.89-2.52c0.04,0,0.08,0,0.12,0
			c1.98,0.04,3.82,1.06,4.9,2.72l2.64,4.05l11.9,0.28c1.14,0.03,2.26,0.38,3.21,1.02l9.91,6.66l5.15-2.67
			c0.85-0.44,1.8-0.67,2.76-0.67h7.55l1.18-1.38c1.04-1.21,2.53-1.96,4.12-2.08c0.14-0.01,0.29-0.02,0.43-0.02
			c1.45,0,2.85,0.52,3.95,1.48l6.09,5.32l3.02,0.72c3.43-5.9,12.35-18.61,26.57-20.95C322.55,6.03,322.88,6,323.2,6
			c2.29,0,4.42,1.32,5.42,3.44c1.51,3.21,3.25,6.06,5.16,8.49c0.83,1.06,1.29,2.37,1.29,3.71v41.91
			c3.71,5.24,14.03,21.4,13.34,38.14c-0.08,1.84-0.99,3.54-2.48,4.61l-7.55,5.47c-0.53,4.84-1.25,16.4,2.29,26.6
			c0.07,0.21,0.13,0.42,0.18,0.64c0.23,1.01,5.35,24.58-6.55,49.69l-0.67,25.15l2.29,4.64c0.59,1.19,0.77,2.55,0.5,3.86
			c-0.36,1.87-0.75,7.79,2.16,9.95c1.99,1.48,2.86,4.03,2.2,6.42l-2.22,7.99c-0.41,1.48-1.38,2.75-2.7,3.54l-2.19,1.31l0.12,0.28
			l3.67,2.07l19.1-14.58c1.06-0.81,2.34-1.23,3.64-1.23c0.64,0,1.29,0.1,1.91,0.31c1.89,0.64,3.34,2.17,3.87,4.09l2.21,7.99
			c0.21,0.76,0.27,1.55,0.17,2.33c-0.09,0.75-2.25,17.78-9.4,31.39c0.68,7.06,1.58,30.41-11.85,59.02
			c-0.76,1.63-2.22,2.83-3.97,3.27c-0.48,0.12-0.98,0.18-1.47,0.18c-1.28,0-2.53-0.41-3.58-1.18l-5.62-4.17l-0.61,1.26
			c-0.73,1.52-2.07,2.66-3.68,3.14l-9.95,2.99c-0.57,0.17-1.15,0.25-1.72,0.25c-1.91,0-3.76-0.92-4.9-2.54l-10.43-14.76
			c-4.43,2.01-11.2,4.46-15.04,5.81c-5.37,14.02-17.83,17.83-20.36,18.46c-0.48,0.12-0.97,0.18-1.46,0.18
			c-0.39,0-0.77-0.04-1.16-0.11l-16.29-3.2l-12.68,11.92c-0.86,0.81-1.94,1.34-3.1,1.54l-17.23,2.95
			C213.55,369.3,213.21,369.33,212.87,369.33z M174.51,335.21c1.39,1.54,1.88,3.68,1.33,5.65c0.02-0.01,11.38-5.69,11.38-5.69
			l-0.59-1.5c-0.63-1.6-0.54-3.39,0.24-4.92l3.68-7.2c0.77-1.52,2.15-2.63,3.8-3.07l15.39-4.11l3.55-9.17
			c0.43-1.11,1.19-2.07,2.17-2.76l0.28-0.2l1.3-11.29c0.1-0.88,0.39-1.72,0.86-2.47l4.02-6.49l-1.69-1.69
			c-1.71-1.71-2.23-4.29-1.3-6.53l1.39-3.38l-6.38-8.23l-19.32,7.06l-6.24,17.09c-0.75,2.05-2.55,3.53-4.71,3.87l-15.01,2.33
			l10.21,1.54c3.03,0.46,5.23,3.13,5.1,6.19l-0.07,1.61c-0.09,2.22-1.4,4.2-3.4,5.15l-5.73,2.74l-2.01,3.57l3.39,5.09
			c0.88,1.32,1.2,2.95,0.89,4.51l-0.39,1.95c-0.54,2.67-2.81,4.65-5.53,4.81l-1.52,0.09L174.51,335.21z"/>
		<path d="M323.2,12c1.59,3.38,3.53,6.67,5.88,9.64v43.88c0,0,14.08,17.97,13.35,35.92l-9.64,6.98c0,0-2.96,16.96,2.22,31.92
			c0,0,5.19,22.97-6.66,46.91l-0.75,27.92l2.95,5.97c0,0-2.24,10.99,4.46,15.96l-2.22,7.99l-6.68,4l2.97,6.97l8.89,5l22.24-16.97
			l2.21,7.99c0,0-2.21,17.97-9.63,30.92c0,0,4.1,25.28-11.09,57.67l-9.46-7.03l-3.07,0.76l-2.68,5.57l-9.95,2.99l-12.4-17.55
			l-2.81-0.53c-2.6,1.74-14.54,6.04-18.92,7.55l-1.28,1.32c-3.95,12.53-14.61,15.82-16.77,16.37l-18.27-3.59l-1.8,0.52l-14.16,13.31
			l-17.23,2.95l-7.8-5.86l-1.99-0.27l-13.6,5.39l-10.51-12.13l-0.4-4.27l14.57-7.29l0.99-2.58l-1.91-4.87l3.68-7.2l17.33-4.62
			l1.38-1.24l4.28-11.04l1.74-1.21l0.87-1.45l1.5-13.07l5.66-9.15l-0.29-2.53l-3.9-3.9l2.26-5.5l-0.28-2.03l-9.55-12.32l-2.33-0.67
			l-23.76,8.67l-1.22,1.22l-6.87,18.82L165.01,287l-1.7,1.62l-1.39,6.77l1.71,2.44l14.33,2.15l-0.07,1.61l-6.86,3.28l-0.9,0.85
			l-3.81,6.77l0.08,2.14l4.73,7.1l-0.39,1.95l-4.32,0.25l-1.64,1l-2.26,3.82l0.24,2.42l7.3,8.06l-1.78,4.36l-0.15,0.87v0.01
			l-0.96,0.31l-1.14,0.92c-3.52,6.09-12.19,8.33-14.99,8.91l-8.45-7.15l-2.76,0.11c-1.33,1.32-3.48,1.77-5.79,1.77
			c-3.58,0-7.53-1.09-9.4-1.79l-0.93-0.11l-3.4,0.36l-6.56-7.08l7.67-9.14l-0.53-3.08c-7.85-4.64-13.75-16.85-13.8-16.98l-0.4-0.57
			c-7.42-7.41-16.03-8.72-21.16-8.72c-1.68,0-2.99,0.14-3.76,0.25l-19.25-10.03l-1.87-5.72l5.35-5.77l0.45-2.02l-6.14-19.2
			c8.24-0.81,12.42-2.76,12.76-2.94l0.54-0.38c12.61-12.62,15.09-24.17,15.57-28.56c0.7-0.25,1.32-0.66,1.84-1.24
			c3.01-3.35,1.3-11.7,0.83-13.64c-2.15-5.42-4.18-7.91-6.6-8.06c-0.09-0.01-0.18-0.01-0.26-0.01c-1.08,0-1.98,0.55-2.54,1.18
			l-3.93,1.77c-16.8-6.67-19.61-11.85-20.04-13.78c-0.34-1.52,0.44-2.39,0.42-2.39l3.95-3.31l0.58-2.34l-2.61-6.45l3.79-7.47
			l-0.11-2.05c-6.62-10.19-5.77-14.19-5.59-14.81l5.62-4.41l0.57-2.52l-7.98-16.12l2.77-6.78l10.64,5.06l2.77-1.05l3.22-7.65
			l-0.4-2.21l-5.56-5.89l4.88-4.98l4.71,1.58l0.69,0.11l17.54-0.33l1.4-3.51l-8.08-7.93L95,92l0.2-1l-0.14-3.42l5.19,0.24l2.12-2.29
			c-0.22-1.79,0.33-4.31,0.92-6.29c6.81,5.19,12.23,6.16,15.33,6.16c1.72,0,2.71-0.3,2.83-0.34l1.43-1.81
			c0.14-2,1.48-6.08,2.57-9.04l6.32,5.19l3.76,8.21l0.72,0.85l5.93,3.99l3.17-2.02l-0.42-2.68l10.69,4.54l2.59-0.89l8.89-15.94
			l-0.23-2.33l-7.38-8.65l-1.02-3.41l4.61-4.8l0.57-1.62c-0.26-2.63,0.56-4.12,1.06-4.75c14.48-0.67,21.9-11.68,24.68-17.06
			c1.69,1.11,5.52,3.06,11.63,3.06c4.57,0,10.4-1.1,17.54-4.47l0.8-0.67l9.38-13.17l3.77,5.79l1.67,0.93l13.98,0.33l11.85,7.96
			l2.09,0.12l7.23-3.74h9.37l1.56-0.72l2.36-2.75l6.83,5.96l0.87,0.45l6.92,1.66l2.33-1.12C299.64,32.27,308.14,14.47,323.2,12
			 M323.2,0c-0.65,0-1.3,0.05-1.95,0.16c-13.28,2.18-22.48,11.82-27.64,19.03l-3.12-2.73c-2.19-1.91-5-2.96-7.89-2.96
			c-0.29,0-0.58,0.01-0.86,0.03c-2.87,0.21-5.55,1.43-7.58,3.44h-4.85c-1.92,0-3.81,0.46-5.52,1.34l-1.99,1.03l-6.96-4.68
			c-1.9-1.28-4.13-1.98-6.41-2.04l-8.74-0.2l-0.91-1.4c-2.17-3.32-5.84-5.36-9.81-5.45c-0.08,0-0.17,0-0.25,0
			c-3.88,0-7.52,1.87-9.77,5.04l-7.8,10.94c-3.75,1.52-7.22,2.32-10.15,2.32c-3.28,0-4.87-0.98-5.04-1.1
			c-1.97-1.3-4.27-1.97-6.58-1.97c-1.02,0-2.04,0.13-3.05,0.39c-3.29,0.86-6.06,3.08-7.61,6.1c-1.96,3.79-6.45,10.2-14.57,10.58
			c-3.5,0.16-6.76,1.85-8.92,4.62c-1.79,2.3-2.95,5.1-3.41,8.14l-2.01,2.09c-3,3.12-4.08,7.61-2.84,11.75l1.02,3.41
			c0.48,1.6,1.28,3.08,2.37,4.35l2.89,3.39l-1.17,2.1l-2.46-1.05c-1.51-0.64-3.1-0.95-4.69-0.95c-0.53,0-1.06,0.04-1.58,0.11
			l-0.67-1.46c-0.76-1.66-1.88-3.12-3.29-4.28l-6.32-5.19c-2.17-1.79-4.87-2.73-7.62-2.73c-1.05,0-2.11,0.14-3.15,0.42
			c-3.75,1.02-6.78,3.79-8.12,7.44c-0.21,0.57-0.4,1.11-0.59,1.63c-0.91-0.51-1.92-1.16-3.03-2.01c-2.12-1.61-4.68-2.45-7.27-2.45
			c-1.25,0-2.51,0.2-3.74,0.6c-3.75,1.23-6.66,4.23-7.77,8.01c-0.02,0.07-0.04,0.14-0.06,0.21c-1.91,0.56-3.68,1.58-5.12,3.02
			c-2.39,2.37-3.66,5.64-3.52,9l0.04,0.89l-2.15,4.34c-0.67,1.35-1.06,2.77-1.19,4.2l-0.51-0.17c-1.25-0.42-2.53-0.62-3.81-0.62
			c-3.17,0-6.28,1.26-8.57,3.6l-4.88,4.98c-2.23,2.28-3.38,5.24-3.43,8.21c-1.02,0.11-2.03,0.36-3,0.74
			c-3.08,1.19-5.52,3.59-6.77,6.65l-2.77,6.78c-1.3,3.19-1.18,6.78,0.35,9.87l4.41,8.91c-1.61,1.49-2.79,3.39-3.4,5.51
			c-1.53,5.34-0.21,11.79,4.05,19.63l-1.31,2.58c-1.56,3.07-1.72,6.67-0.45,9.87c-0.3,0.36-0.57,0.73-0.82,1.11
			c-2.22,3.34-2.98,7.52-2.08,11.55c1.87,8.56,10.56,15.67,27.32,22.33c1.42,0.57,2.93,0.85,4.43,0.85c0.62,0,1.24-0.05,1.85-0.14
			c-1.71,1.85-2.83,4.23-3.11,6.84c-0.25,2.31-1.77,10.32-10.67,19.87c-1.4,0.42-3.88,1.02-7.45,1.37
			c-3.61,0.35-6.86,2.32-8.85,5.35c-1.99,3.03-2.51,6.8-1.4,10.25l4.37,13.66l-1.4,1.51c-2.96,3.19-3.96,7.74-2.61,11.88l1.87,5.72
			c0.97,2.98,3.08,5.47,5.86,6.92l19.25,10.03c1.72,0.9,3.62,1.36,5.55,1.36c0.58,0,1.16-0.04,1.74-0.13
			c0.26-0.04,0.97-0.13,2.01-0.13c3.13,0,7.57,0.76,11.62,4.24c1.45,2.76,4.49,8.02,8.81,12.86l-1.4,1.66
			c-3.89,4.63-3.72,11.43,0.39,15.87l6.56,7.08c2.28,2.47,5.48,3.85,8.8,3.85c0.42,0,0.85-0.02,1.27-0.07l1.29-0.14
			c2.59,0.77,6.77,1.75,11.16,1.75c2.12,0,3.99-0.23,5.64-0.62l3.6,3.05c2.19,1.85,4.94,2.84,7.75,2.84c0.81,0,1.62-0.08,2.43-0.25
			c3.56-0.73,10.83-2.74,16.82-7.58l10.11,11.67c2.33,2.69,5.66,4.14,9.07,4.14c1.48,0,2.98-0.28,4.42-0.84l8.42-3.34l3.35,2.51
			c2.09,1.57,4.62,2.4,7.21,2.4c0.67,0,1.35-0.06,2.03-0.17l17.23-2.95c2.32-0.4,4.48-1.47,6.19-3.08l10.44-9.81l13.27,2.6
			c0.76,0.15,1.54,0.22,2.31,0.22c0.98,0,1.97-0.12,2.93-0.36c8.14-2.05,18.02-8.21,23.37-19.5c2.85-1.02,5.78-2.11,8.45-3.18
			l7.64,10.82c2.29,3.24,5.97,5.08,9.8,5.08c1.15,0,2.31-0.17,3.45-0.51l9.95-2.99c1.34-0.4,2.59-1.03,3.69-1.85l0.92,0.68
			c2.09,1.55,4.6,2.36,7.15,2.36c0.98,0,1.96-0.12,2.93-0.36c3.49-0.88,6.4-3.28,7.93-6.54c13-27.71,13.16-51.01,12.52-60.35
			c7.02-14.29,9.15-31.1,9.25-31.87c0.19-1.56,0.08-3.15-0.34-4.67l-2.21-7.99c-1.06-3.84-3.96-6.9-7.74-8.17
			c-1.25-0.42-2.54-0.63-3.83-0.63c-2.6,0-5.16,0.84-7.28,2.46l-6.12,4.67c0.77-4.31-0.87-8.74-4.33-11.5
			c-0.31-0.83-0.4-2.83-0.17-4.25c0.6-2.67,0.2-5.19-1.02-7.65l-1.63-3.31l0.6-22.42c12.07-26.53,6.68-51.34,6.44-52.41
			c-0.1-0.43-0.22-0.86-0.37-1.28c-2.64-7.61-2.59-16.24-2.23-21.38l5.34-3.87c2.98-2.16,4.8-5.56,4.95-9.23
			c0.7-17.2-8.58-33.24-13.34-40.27V21.64c0-2.69-0.91-5.31-2.57-7.43c-1.63-2.07-3.13-4.54-4.45-7.34C332.05,2.63,327.79,0,323.2,0
			L323.2,0z M199.28,273.89l12.59-4.6l1.57,2.02l-0.07,0.17c-1.53,3.72-1.08,7.89,1.07,11.17l-1.65,2.67
			c-0.93,1.5-1.52,3.19-1.72,4.94l-1.03,8.98c-1.01,1.1-1.81,2.38-2.35,3.78l-2.45,6.32l-12.45,3.32c-3.29,0.88-6.05,3.11-7.59,6.14
			l-2.13,4.18c0.29-2.77-0.39-5.57-1.95-7.91l-0.87-1.31l2.83-1.35c4-1.91,6.62-5.88,6.81-10.31l0.07-1.61
			c0.09-2.09-0.36-4.08-1.24-5.85c2.41-1.39,4.3-3.59,5.29-6.29L199.28,273.89L199.28,273.89z M179.52,331.86
			c0.24-0.26,0.48-0.53,0.69-0.82c-0.01,0.3-0.01,0.61,0,0.92l-0.45,0.23C179.69,332.07,179.6,331.96,179.52,331.86L179.52,331.86z"
			/>
	</g>
</g>
<g>
	<g>
		<path class="st1" d="M59.24,564.36c-2.4,0-4.6-1.44-5.54-3.7l-13.71-33.02c-0.73-1.77-0.58-3.77,0.41-5.41
			c0.33-0.54,0.73-1.01,1.19-1.42l-2.82-31.44c-0.07-0.82,0.02-1.65,0.29-2.44l1.84-5.5l-11.86-5.89c-1.33-0.66-2.37-1.79-2.92-3.18
			L8.55,427.74c-0.31-0.78-0.45-1.61-0.41-2.44l0.64-15.79c0.05-1.33,0.55-2.61,1.41-3.63l9.52-11.27
			c-2.5-10.61-9.66-18.25-11.89-20.43c-1.58-1.54-2.19-3.84-1.58-5.96l1.86-6.43l0.62-8.64c0.16-2.2,1.51-4.13,3.52-5.04l2.58-1.16
			l-0.88-25.85c-0.08-2.24,1.1-4.33,3.05-5.43l14.93-8.43l1.99-3.57c0.99-1.78,2.8-2.93,4.83-3.07l3.46-0.24l3.31-4.74
			c0.74-1.07,1.81-1.86,3.05-2.27l9.74-3.2c0.61-0.2,1.24-0.3,1.87-0.3c0.96,0,1.91,0.23,2.77,0.68l19.18,10
			c0.83-0.09,1.96-0.18,3.33-0.18c4.89,0,14.28,1.17,22.29,8.97c0.49,0.47,0.89,1.03,1.19,1.64c0.51,1.04,5.19,10.26,11.47,14.93
			c1.33,0.99,2.18,2.48,2.38,4.12s-0.3,3.29-1.37,4.55l-5.12,6.1l4.78,5.16l1.99-0.21c0.21-0.02,0.42-0.03,0.63-0.03
			c0.67,0,1.33,0.11,1.97,0.33c1.05,0.36,4.74,1.55,8.32,1.55c1.77,0,3.17-0.29,4.05-0.85c0.98-0.62,2.09-0.93,3.2-0.93
			c1.39,0,2.76,0.48,3.87,1.42l6.48,5.47c3.54-0.83,9.69-3.05,12.49-7.31c1.15-1.74,3.06-2.7,5.01-2.7c0.8,0,1.61,0.16,2.37,0.49
			l0.49-0.25c0.85-0.43,1.77-0.64,2.69-0.64c1,0,2.01,0.25,2.91,0.75c1.73,0.96,2.88,2.72,3.06,4.69l0.19,2.07l9.23,10.65
			l11.28-4.47c0.71-0.28,1.47-0.42,2.21-0.42c1.28,0,2.55,0.41,3.6,1.2l6.23,4.68l15.86-2.72l12.97-12.2
			c1.12-1.06,2.6-1.63,4.11-1.63c0.38,0,0.77,0.04,1.16,0.11l11.02,2.16c3.05,0.6,5.14,3.43,4.81,6.52l-0.27,2.52l32.85,42.02
			c0.95,1.21,1.39,2.74,1.25,4.27l-0.47,4.89c-0.2,2.1-1.49,3.94-3.4,4.84c-15.5,7.36-36.04,20.76-42.93,34.31
			c-0.88,1.72-2.52,2.91-4.43,3.21l-0.6,0.09l1.61,5.55c0.47,1.62,0.24,3.36-0.64,4.8c-0.88,1.44-2.32,2.44-3.98,2.76
			c-2.53,0.49-8.55,2.08-20.52,7.26c-0.76,0.33-1.57,0.49-2.38,0.49c-0.77,0-1.55-0.15-2.28-0.45l-18.45-7.58l3.3,4.43
			c1.52,2.04,1.59,4.81,0.17,6.92l-1.13,1.69l12.19,0.97c1.74,0.14,3.33,1.03,4.36,2.43s1.4,3.19,1.01,4.89l-2.59,11.29l6.1,17.3
			c0.23,0.64,0.34,1.32,0.34,2v19.95c0,2.48-1.53,4.71-3.84,5.6l-7.95,3.07l-3.47,8.56c-0.42,1.04-1.12,1.93-2.02,2.59l-8.16,5.97
			c-1.05,0.77-2.29,1.16-3.54,1.16c-1.11,0-2.23-0.31-3.21-0.93l-10.89-6.9l-7.93,4.94c-0.98,0.61-2.08,0.91-3.17,0.91
			c-1.49,0-2.97-0.55-4.12-1.63l-22.24-20.95c-1.2-1.13-1.89-2.71-1.89-4.37v-7.71l-0.46,0.21c-0.38,0.17-0.77,0.3-1.17,0.39
			c-0.38,1.17-1.12,2.21-2.13,2.96l-6.69,4.97c-1.06,0.79-2.32,1.18-3.58,1.18c-1.13,0-2.25-0.32-3.25-0.95l-17.04-10.96
			c-1.04-0.67-1.84-1.63-2.3-2.76l-1.39,1.45l-4.91,34.03c-0.39,2.67-2.51,4.76-5.2,5.1l-31.87,3.98
			C59.74,564.34,59.49,564.36,59.24,564.36z M169.87,496.19l3.16-4.24c1.14-1.53,2.93-2.42,4.81-2.42c0.18,0,0.36,0.01,0.54,0.02
			c2.08,0.19,3.91,1.44,4.84,3.3l0.2,0.4l5.38-6.94c-0.04-0.01-9.76-3.04-9.76-3.04c-0.2-0.06-0.39-0.13-0.58-0.21
			c-0.21,0.8-0.59,1.57-1.13,2.23l-7.76,9.66L169.87,496.19z"/>
		<path d="M60.17,295.85l20.31,10.59l1.37,0.19c0.04-0.01,1.42-0.28,3.6-0.28c4.31,0,11.73,1.06,18.1,7.26
			c0.97,1.97,6.05,11.71,13.26,17.08l-7.36,8.76l0.06,2.71l8.5,9.17l1.71,0.64l3.96-0.42c1.54,0.54,5.87,1.88,10.29,1.88
			c2.56,0,5.15-0.45,7.25-1.78l7.92,6.69l1.62,0.46c0.53-0.08,12.84-1.95,18.32-10.27l2.2,1.29l3.36-1.68l0.31,3.34l0.49,1.15
			l11.9,13.72l2.31,0.56l13.88-5.51l7.59,5.7l1.58,0.38l18.71-3.21l1.07-0.53l13.84-13.02l11.02,2.16l-0.43,4.1l0.42,1.48
			l33.84,43.28l-0.47,4.89c-6.19,2.94-35.94,17.83-45.71,37l-5.04,0.78l-1.66,2.6l2.87,9.87c-3.43,0.66-9.95,2.54-21.76,7.64
			l-26.7-10.96l-0.74,9.97l5.2,6.98l-6.68,9.98l-9.62-3l0.73-8.96l-11.86,0.97l2.96,11.97l-9.63,11.98l2.23,8.98l5.92,1.99
			l6.67-8.96l4.46,8.96l17.79-22.95l12.61,1l-2.98,12.99l6.68,18.94v19.95l-10.38,4l-4.44,10.97l-8.16,5.97l-12.6-7.98l5.18-24.93
			l-12.6,8.96l4.44,15.96l-9.62,5.99l-22.24-20.95v-16.97l-8.91,3.99l-14.08-14.96l-3.71,5.99l13.36,12.98l-6.69,4.97l-17.04-10.96
			l2.96-3.99l-8.9-1.99l-6.67,6.96l-5.19,35.93l-31.87,3.98l-13.71-33.02l2.47-0.22l-3.25-36.28l2.92-8.75l-1.03-2.49l-14.94-7.42
			l-17.57-44.64l0.64-15.79l10.75-12.73l0.46-1.69c-2.37-13.19-11.03-22.57-13.98-25.44l2.03-7.03l0.67-9.27l5-2.25l1.21-1.94
			l-0.97-28.5l15.91-8.98l0.78-0.79l2.52-4.54l5.35-0.37l1.54-0.88l4.38-6.29L60.17,295.85 M60.17,283.85c-1.26,0-2.53,0.2-3.75,0.6
			l-9.74,3.2c-2.47,0.81-4.61,2.4-6.1,4.54l-1.66,2.39l-0.59,0.04c-4.05,0.28-7.69,2.59-9.66,6.14l-1.16,2.09l-13.46,7.6
			c-3.9,2.2-6.25,6.39-6.09,10.86l0.75,21.9c-3.42,1.98-5.67,5.53-5.95,9.52l-0.58,8.01l-1.68,5.82c-1.23,4.25-0.02,8.84,3.15,11.92
			c1.72,1.68,6.84,7.12,9.43,14.7l-7.45,8.82c-1.72,2.04-2.72,4.59-2.82,7.26l-0.64,15.79c-0.07,1.67,0.21,3.33,0.82,4.88
			l17.57,44.64c1.09,2.77,3.17,5.03,5.83,6.35l7.18,3.57l-0.18,0.54c-0.52,1.57-0.72,3.23-0.57,4.87l2.6,29.01
			c-0.04,0.07-0.09,0.14-0.13,0.21c-1.98,3.27-2.28,7.29-0.82,10.82l13.71,33.02c1.88,4.52,6.28,7.4,11.08,7.4
			c0.49,0,0.99-0.03,1.49-0.09l31.87-3.98c5.36-0.67,9.62-4.84,10.39-10.19l3.72-25.77l12.74,8.2c1.98,1.27,4.24,1.91,6.49,1.91
			c2.52,0,5.04-0.79,7.16-2.37l1.7-1.26c0.64,1.64,1.64,3.13,2.95,4.36l22.24,20.95c2.29,2.15,5.25,3.26,8.23,3.26
			c2.19,0,4.38-0.6,6.34-1.81l4.73-2.94l7.71,4.88c1.96,1.24,4.19,1.86,6.42,1.86c2.49,0,4.98-0.78,7.08-2.31l8.16-5.97
			c1.8-1.32,3.2-3.11,4.04-5.18l2.49-6.15l5.52-2.13c4.63-1.79,7.68-6.23,7.68-11.2v-19.95c0-1.36-0.23-2.71-0.68-3.99l-5.53-15.66
			l2.2-9.59c0.72-3.15,0.14-6.45-1.59-9.15c0.45-0.13,0.89-0.29,1.32-0.48c11.88-5.13,17.44-6.52,19.28-6.88
			c3.31-0.64,6.2-2.65,7.96-5.53s2.22-6.36,1.28-9.6l-0.16-0.55c1.3-1.05,2.39-2.37,3.16-3.9c6.21-12.2,25.52-24.65,40.16-31.61
			c3.81-1.81,6.39-5.48,6.8-9.68l0.47-4.89c0.3-3.06-0.59-6.12-2.49-8.55l-31.36-40.11l0.01-0.1c0.65-6.18-3.52-11.84-9.62-13.04
			L248.61,339c-0.77-0.15-1.54-0.23-2.31-0.23c-3.03,0-5.98,1.15-8.22,3.26l-11.65,10.96l-11.53,1.98l-4.16-3.13
			c-2.11-1.59-4.65-2.4-7.21-2.4c-1.49,0-2.99,0.28-4.42,0.85l-7.32,2.9l-5.18-5.98l-0.01-0.15c-0.36-3.95-2.66-7.46-6.12-9.39
			c-1.81-1-3.82-1.51-5.83-1.51c-1.21,0-2.43,0.18-3.6,0.55c-0.65-0.11-1.3-0.16-1.95-0.16c-3.91,0-7.73,1.91-10.03,5.4
			c-1.09,1.65-3.61,3.03-6.08,3.93l-4-3.38c-2.22-1.88-4.98-2.84-7.75-2.84c-2.12,0-4.24,0.56-6.14,1.69
			c-0.16,0.03-0.52,0.09-1.11,0.09c-2.1,0-4.73-0.66-6.35-1.22c-0.86-0.3-1.74-0.5-2.64-0.59l1.02-1.22
			c2.13-2.53,3.11-5.82,2.73-9.11c-0.38-3.28-2.1-6.26-4.75-8.24c-4.19-3.12-8.16-9.73-9.67-12.78c-0.6-1.22-1.41-2.32-2.38-3.27
			c-9.53-9.28-20.68-10.67-26.47-10.67c-0.75,0-1.45,0.02-2.09,0.06l-17.64-9.2C63.99,284.31,62.08,283.85,60.17,283.85
			L60.17,283.85z"/>
	</g>
</g>
<g>
	<g>
		<path class="st1" d="M172.99,348.9c-1.64,0-3.25-0.68-4.4-1.92c-1.59-1.71-2.04-4.19-1.16-6.35l0.41-1.02l-5.48-6.06
			c-1.76-1.95-2.05-4.81-0.72-7.07l0.93-1.58c1.01-1.72,2.82-2.82,4.81-2.94l1.55-0.09l-3.44-5.15c-1.25-1.88-1.34-4.31-0.23-6.27
			l2.88-5.1c0.61-1.07,1.53-1.93,2.64-2.47l3.28-1.57l-8.58-1.29c-1.63-0.24-3.08-1.15-4.02-2.49c-0.94-1.35-1.29-3.02-0.96-4.64
			l0.66-3.26c0.5-2.46,2.48-4.35,4.96-4.73l15.21-2.37l6.16-16.87c0.61-1.66,1.92-2.97,3.58-3.58l21.46-7.83
			c0.67-0.25,1.37-0.36,2.06-0.36c1.82,0,3.58,0.83,4.74,2.32l7.91,10.2c1.32,1.7,1.63,3.98,0.81,5.96l-1.33,3.22l1.85,1.85
			c1.97,1.97,2.33,5.03,0.86,7.4l-4.37,7.06l-1.58,12.17c-0.22,1.68-1.14,3.2-2.54,4.16l-0.5,0.35l-3.7,9.52
			c-0.69,1.79-2.2,3.13-4.05,3.63l-15.5,4.13l-2.9,5.7l0.91,2.33c1.13,2.89-0.12,6.17-2.9,7.56l-13.06,6.54
			c-0.85,0.42-1.77,0.63-2.69,0.63c-0.44,0-0.88-0.05-1.31-0.14l-0.42,0.14C174.22,348.81,173.6,348.9,172.99,348.9z"/>
		<path d="M214.58,259.89l7.91,10.2l-2.33,5.66l0.45,2.23l3.71,3.71l-5.05,8.16l-1.74,13.45l-1.5,1.04l-0.74,0.94l-4.13,10.65
			l-17.2,4.58l-1.3,1.05l-4.51,8.85l-0.08,1.68l1.56,3.98l-13.06,6.54l-0.89-0.58l-2.68,0.86l1.35-3.32l-0.38-2.15l-7.14-7.89
			l0.93-1.58l4.8-0.29l1.89-1.64l0.87-4.33l-0.31-1.54l-4.51-6.76l2.88-5.1l7.4-3.54l1.16-1.77l0.18-4.68l-1.74-2.11l-14-2.1
			l0.66-3.26l17.5-2.73l1.61-1.32l6.96-19.06L214.58,259.89 M214.58,247.89c-1.38,0-2.77,0.24-4.11,0.73L189,256.45
			c-3.32,1.21-5.94,3.83-7.16,7.16l-4.94,13.54l-11.71,1.82c-4.96,0.77-8.91,4.55-9.91,9.47l-0.66,3.26
			c-0.65,3.22,0.04,6.58,1.93,9.27c1.25,1.78,2.95,3.18,4.9,4.06l-1.4,2.47c-2,3.55-2.05,7.85-0.2,11.43
			c-0.95,0.83-1.78,1.82-2.44,2.94l-0.93,1.58c-2.66,4.52-2.08,10.25,1.44,14.14l3.2,3.54c-0.53,3.56,0.56,7.22,3.07,9.93
			c2.31,2.49,5.51,3.84,8.8,3.84c0.9,0,1.81-0.1,2.71-0.31c0.28,0.02,0.57,0.03,0.85,0.03c1.83,0,3.67-0.42,5.37-1.27l13.06-6.54
			c5.49-2.75,8.01-9.19,5.87-14.93l0.46-0.91l12.91-3.44c3.7-0.99,6.71-3.68,8.1-7.25l3.08-7.93c2.2-1.92,3.63-4.58,4.01-7.5
			l1.41-10.88l3.69-5.96c2.68-4.33,2.31-9.83-0.78-13.74c1.44-3.88,0.78-8.24-1.77-11.53l-7.91-10.2
			C221.74,249.55,218.21,247.89,214.58,247.89L214.58,247.89z"/>
	</g>
</g>
</svg>
