<?xml version="1.0" encoding="utf-8"?>
<!-- Generator: Adobe Illustrator 27.5.0, SVG Export Plug-In . SVG Version: 6.00 Build 0)  -->
<svg version="1.1" id="Isolation_Mode" xmlns="http://www.w3.org/2000/svg" xmlns:xlink="http://www.w3.org/1999/xlink" x="0px"
	 y="0px" viewBox="0 0 300 320" style="enable-background:new 0 0 300 320;" xml:space="preserve">
<style type="text/css">
	.st0{fill:#D6C9A5;}
	.st1{fill:#EA611C;}
	.st2{fill:#EE8149;}
	.st3{fill:#E8DEBF;}
	.st4{fill:#47A3E2;}
	.st5{fill:#348FD9;}
	.st6{fill:#FFBE1D;}
	.st7{fill:#F8CC6A;}
	.st8{fill:#87CC46;}
	.st9{fill:#5BB234;}
	.st10{fill:#549B2C;}
	.st11{fill:#252525;}
</style>
<g>
	<g>
		<path class="st0" d="M254,249.2l-79.05,39.55c-0.35-7.2-3.75-13.6-8.95-17.95l79.05-39.55C245.4,238.45,248.8,244.85,254,249.2z"
			/>
		<path class="st1" d="M174.95,288.75c0.05,0.4,0.05,0.85,0.05,1.25c0,13.8-11.2,25-25,25v-50c3.55,0,6.95,0.75,10,2.05
			c2.2,1,4.2,2.25,6,3.75C171.2,275.15,174.6,281.55,174.95,288.75z"/>
		<path class="st2" d="M140,267.05c3.05-1.3,6.45-2.05,10-2.05v50c-13.8,0-25-11.2-25-25c0-0.4,0-0.85,0.05-1.25
			c0.35-7.2,3.75-13.6,8.95-17.95C135.8,269.3,137.8,268.05,140,267.05z"/>
		<path class="st3" d="M134,270.8c-5.2,4.35-8.6,10.75-8.95,17.95L46,249.2c5.2-4.35,8.6-10.75,8.95-17.95L134,270.8z"/>
		<path class="st4" d="M20,207.05c3.05-1.3,6.45-2.05,10-2.05v50c-13.8,0-25-11.2-25-25C5,219.75,11.2,210.95,20,207.05z"/>
		<path class="st5" d="M46,249.2c-4.35,3.6-9.9,5.8-16,5.8v-50c3.55,0,6.95,0.75,10,2.05c8.8,3.9,15,12.7,15,22.95
			c0,0.4,0,0.85-0.05,1.25C54.6,238.45,51.2,244.85,46,249.2z"/>
		<path class="st6" d="M280,207.05c8.8,3.9,15,12.7,15,22.95c0,13.8-11.2,25-25,25v-50C273.55,205,276.95,205.75,280,207.05z"/>
		<path class="st5" d="M270,115V65c13.8,0,25,11.2,25,25c0,10.25-6.2,19.05-15,22.95C276.95,114.25,273.55,115,270,115z"/>
		<path class="st4" d="M270,65v50c-3.55,0-6.95-0.75-10-2.05c-8.8-3.9-15-12.7-15-22.95c0-0.45,0-0.9,0.1-1.3
			c0.3-7.2,3.7-13.6,8.9-17.9C258.35,67.2,263.9,65,270,65z"/>
		<path class="st7" d="M270,205v50c-6.1,0-11.65-2.2-16-5.8c-5.2-4.35-8.6-10.75-8.95-17.95C245,230.85,245,230.4,245,230
			c0-10.25,6.2-19.05,15-22.95C263.05,205.75,266.45,205,270,205z"/>
		<path class="st3" d="M280,112.95v94.1c-3.05-1.3-6.45-2.05-10-2.05s-6.95,0.75-10,2.05v-94.1c3.05,1.3,6.45,2.05,10,2.05
			S276.95,114.25,280,112.95z"/>
		<path class="st8" d="M140,200v40c0,0-55,0-55-58.95c0-4.95,0.3-9.7,0.95-14.3L140,200z"/>
		<path class="st9" d="M214.05,166.75c0.65,4.6,0.95,9.35,0.95,14.3C215,240,160,240,160,240v-40L214.05,166.75z"/>
		<path class="st8" d="M214.05,166.75L160,200v-25c0-9.8-0.25-19.1-0.7-27.75l39-24.8C205.85,134.8,211.9,149.55,214.05,166.75z"/>
		<path class="st9" d="M198.3,122.45l-39,24.8C157,103,150,75,150,75S179.05,90.8,198.3,122.45z"/>
		<path class="st10" d="M140.7,147.25C143,103,150,75,150,75s7,28,9.3,72.25c0.45,8.65,0.7,17.95,0.7,27.75v25v40v27.05
			c-3.05-1.3-6.45-2.05-10-2.05s-6.95,0.75-10,2.05V240v-40v-25C140,165.2,140.25,155.9,140.7,147.25z"/>
		<path class="st8" d="M150,75c0,0-7,28-9.3,72.25l-39-24.8C120.95,90.8,150,75,150,75z"/>
		<path class="st9" d="M101.7,122.45l39,24.8c-0.45,8.65-0.7,17.95-0.7,27.75v25l-54.05-33.25C88.1,149.55,94.15,134.8,101.7,122.45
			z"/>
		<path class="st0" d="M30,205c-3.55,0-6.95,0.75-10,2.05v-94.1c3.05,1.3,6.45,2.05,10,2.05s6.95-0.75,10-2.05v94.1
			C36.95,205.75,33.55,205,30,205z"/>
		<path class="st7" d="M20,112.95c-8.8-3.9-15-12.7-15-22.95c0-13.8,11.2-25,25-25v50C26.45,115,23.05,114.25,20,112.95z"/>
		<path class="st6" d="M54.9,88.7C55,89.1,55,89.55,55,90c0,10.25-6.2,19.05-15,22.95c-3.05,1.3-6.45,2.05-10,2.05V65
			c6.1,0,11.65,2.2,16,5.8C51.2,75.1,54.6,81.5,54.9,88.7z"/>
		<path class="st3" d="M134,49.2L54.9,88.7c-0.3-7.2-3.7-13.6-8.9-17.9l79.1-39.5C125.4,38.5,128.8,44.9,134,49.2z"/>
		<path class="st0" d="M254,70.8c-5.2,4.3-8.6,10.7-8.9,17.9L166,49.2c5.2-4.3,8.6-10.7,8.9-17.9L254,70.8z"/>
		<path class="st1" d="M150,55V5c13.8,0,25,11.2,25,25c0,0.45,0,0.9-0.1,1.3c-0.3,7.2-3.7,13.6-8.9,17.9
			C161.65,52.8,156.1,55,150,55z"/>
		<path class="st2" d="M150,5v50c-6.1,0-11.65-2.2-16-5.8c-5.2-4.3-8.6-10.7-8.9-17.9c-0.1-0.4-0.1-0.85-0.1-1.3
			C125,16.2,136.2,5,150,5z"/>
	</g>
	<path class="st11" d="M285,204.07v-88.14c9.19-5.36,15-15.18,15-25.93c0-16.54-13.46-30-30-30c-5.83,0-11.51,1.82-16.39,5.02
		l-73.7-36.81C178.98,12.5,165.94,0,150,0s-28.98,12.5-29.91,28.21l-73.7,36.81C41.51,61.82,35.83,60,30,60C13.46,60,0,73.46,0,90
		c0,10.73,5.79,20.54,15,25.93v88.14C5.81,209.43,0,219.25,0,230c0,16.54,13.46,30,30,30c5.83,0,11.49-1.82,16.39-5.01l73.7,36.88
		C121.06,307.54,134.09,320,150,320s28.94-12.46,29.91-28.14l73.7-36.88c4.89,3.19,10.56,5.01,16.39,5.01c16.54,0,30-13.46,30-30
		C300,219.27,294.21,209.46,285,204.07z M178.66,281.3c-0.98-3.23-2.5-6.27-4.49-9l67.18-33.61c0.98,3.23,2.5,6.26,4.5,8.99
		L178.66,281.3z M121.32,281.29l-67.16-33.6c1.99-2.73,3.51-5.77,4.49-9l67.18,33.61C123.82,275.05,122.29,278.1,121.32,281.29z
		 M210,181.05c0,43.58-32.28,51.95-45,53.56v-31.82l44.82-27.57C209.92,177.12,210,179.03,210,181.05z M165,191.05V175
		c0-8.56-0.22-16.95-0.59-25.07l32.17-20.46c6.11,11.06,10.13,22.7,12.02,34.76L165,191.05z M163.78,138.48
		c-1.59-23.49-4.38-41.66-6.42-52.68c9.09,6.62,22.86,18.35,34.03,35.13L163.78,138.48z M136.22,138.48l-27.6-17.55
		c11.14-16.73,24.93-28.47,34.02-35.11C140.6,96.84,137.81,115,136.22,138.48z M103.42,129.47l32.17,20.46
		c-0.37,8.12-0.59,16.51-0.59,25.07v16.05l-43.61-26.83C93.28,152.21,97.3,140.55,103.42,129.47z M90.19,175.23L135,202.79v31.82
		c-12.72-1.61-45-9.98-45-53.56C90,179.03,90.08,177.12,90.19,175.23z M145,175c0-9.4,0.23-18.65,0.69-27.49
		c0.92-17.74,2.62-32.9,4.31-44.61c1.68,11.72,3.39,26.87,4.31,44.61c0.46,8.84,0.69,18.09,0.69,27.49v85.45
		c-3.3-0.55-6.67-0.55-10,0.01V175z M240.14,228.11l-73.68,36.86c-0.47-0.31-0.96-0.62-1.46-0.91v-19.47
		c14.39-1.74,55-11.27,55-63.56c0-5.36-0.33-10.26-0.99-14.92c-2.02-16.17-7.55-31.74-16.44-46.28
		c-19.73-32.43-48.95-48.57-50.19-49.25c-1.48-0.81-3.29-0.81-4.78,0c-1.24,0.67-30.46,16.82-50.18,49.24
		c-8.89,14.54-14.42,30.12-16.43,46.2c-0.67,4.74-1,9.65-1,15c0,52.29,40.61,61.82,55,63.56v19.46c-0.5,0.29-0.98,0.59-1.46,0.91
		l-73.68-36.86c-0.64-9.99-6.2-18.97-14.86-24.05v-88.14c8.66-5.06,14.25-14.09,14.87-24.12l73.74-36.83
		C138.49,58.18,144.17,60,150,60c5.83,0,11.51-1.82,16.39-5.02l73.74,36.83c0.61,10.01,6.18,19.04,14.87,24.12v88.14
		C246.36,209.11,240.78,218.11,240.14,228.11z M30,120c1.69,0,3.35-0.17,5-0.45v80.9c-3.3-0.55-6.67-0.55-10,0v-80.91
		C26.65,119.83,28.31,120,30,120z M121.36,38.76c0.97,3.21,2.48,6.23,4.46,8.94L58.64,81.24c-0.97-3.21-2.48-6.23-4.46-8.94
		L121.36,38.76z M178.64,38.75l67.18,33.55c-1.98,2.71-3.49,5.73-4.46,8.94l-67.18-33.55C176.16,44.99,177.67,41.97,178.64,38.75z
		 M265,119.55c1.65,0.27,3.31,0.45,5,0.45c1.69,0,3.35-0.17,5-0.45v80.9c-3.3-0.55-6.67-0.55-10,0V119.55z M290,90
		c0,7.93-4.72,15.14-11.96,18.35c-5.14,2.19-11,2.16-16.01,0.03c-7.29-3.23-12.01-10.42-12.02-18.72c0-6.65,2.91-11.47,7.18-15.01
		C260.86,71.61,265.29,70,270,70C281.03,70,290,78.97,290,90z M150,10c11.03,0,20,8.97,20.05,20.11c0,7.56-2.96,11.7-7.24,15.24
		c-7.35,6.09-18.27,6.09-25.63,0c-4.27-3.54-6.62-7.45-7.18-15.35C130,18.97,138.97,10,150,10z M30,70c4.71,0,9.14,1.61,12.82,4.65
		C47.09,78.19,50,82.92,50,90c0,7.93-4.72,15.14-11.96,18.35c-5.14,2.19-11,2.16-16.01,0.03C14.72,105.14,10,97.93,10,90
		C10,78.97,18.97,70,30,70z M10,230c0-7.93,4.72-15.14,11.96-18.35c2.57-1.1,5.27-1.65,8.04-1.65s5.47,0.55,7.97,1.62
		c7.3,3.24,11.98,10.11,11.98,19.38c-0.27,5.54-2.88,10.78-7.14,14.34C39.14,248.39,34.71,250,30,250C18.97,250,10,241.03,10,230z
		 M150,310c-11.03,0-20-8.97-20-20c0-8.42,2.92-11.78,7.2-15.36c1.45-1.21,3.09-2.23,4.76-2.99c2.57-1.1,5.27-1.65,8.04-1.65
		s5.47,0.55,7.93,1.6c1.78,0.81,3.41,1.83,4.86,3.03c4.28,3.58,7.21,8.54,7.21,15.36C170,301.03,161.03,310,150,310z M270,250
		c-4.71,0-9.14-1.61-12.79-4.64c-4.28-3.58-6.89-8.81-7.16-14.36c0-0.09-0.04-0.8-0.04-1.01c0-7.93,4.72-15.14,11.96-18.35
		c2.57-1.1,5.27-1.65,8.04-1.65s5.47,0.55,7.97,1.62c7.3,3.24,12.03,10.45,12.03,18.38C290,241.03,281.03,250,270,250z"/>
</g>
</svg>
