<?xml version="1.0" encoding="utf-8"?>
<!-- Generator: Adobe Illustrator 26.5.3, SVG Export Plug-In . SVG Version: 6.00 Build 0)  -->
<svg version="1.1" id="Isolation_Mode" xmlns="http://www.w3.org/2000/svg" xmlns:xlink="http://www.w3.org/1999/xlink" x="0px"
	 y="0px" viewBox="0 0 543 460.74" style="enable-background:new 0 0 543 460.74;" xml:space="preserve">
<style type="text/css">
	.st0{fill:#A5CCAE;}
	.st1{fill:#FFDE79;}
	.st2{fill:#8EA3D7;}
	.st3{fill:#D18A73;}
	.st4{fill:#FF8585;}
	.st5{fill:#FFDEE7;}
	.st6{fill:#1A1A1A;}
</style>
<g>
	<path class="st0" d="M391.24,329.19l-61.05-12.38c-14.23,11.65-31.44,17.55-48.69,17.55c-17.39,0-34.75-6-49.05-17.85l-30.42,3.11
		c1.13,3.64,1.74,7.51,1.74,11.52v14.7h21.47h56.26c4.46,0,8.07,3.61,8.07,8.07v56.26c0,4.46-3.61,8.07-8.07,8.07h-9.21v30.21
		h132.75l1.13-57.75l16.13,0.32l-1.13,57.43h59.89l-17.14-53.96C453.36,361.16,425.5,336.14,391.24,329.19z"/>
	<polygon class="st1" points="273.44,402.08 273.44,361.96 233.32,361.96 233.32,402.08 264.23,402.08 	"/>
	<rect x="233.32" y="418.22" class="st2" width="22.85" height="30.21"/>
	<path class="st3" d="M178.2,123.73c1.27,0.41,31.3,9.65,51.87-21.9c-3.07-6.41-4.7-13.35-4.7-20.49h16.13
		c0,7.08,2.4,13.9,6.93,19.74c7.48,9.62,19.85,15.37,33.07,15.37c13.23,0,25.59-5.74,33.07-15.37c0.02-0.02,0.03-0.04,0.04-0.06
		c-2.6-5.12-4.9-10.91-6.75-17.48l15.53-4.38c14.61,51.77,60.65,44.62,62.61,44.29c1.67-0.28,3.42-0.04,4.93,0.71
		c0.55,0.27,1.05,0.58,1.59,0.86c-1.19-60.23-50.51-108.86-111.02-108.86S171.68,64.77,170.49,124.99c0.53-0.29,1.04-0.59,1.59-0.86
		C173.98,123.19,176.19,123.05,178.2,123.73z"/>
	<path class="st4" d="M217.18,410.15v-48.19h-21.47h-61.88h-21.47v48.19v38.28h104.83v-34.64V410.15z M195.3,398.91h-62.22v-16.13
		h62.22V398.91z"/>
	<polygon class="st1" points="96.22,402.08 96.22,361.96 56.1,361.96 56.1,402.08 65.31,402.08 	"/>
	<rect x="73.38" y="418.22" class="st2" width="22.85" height="30.21"/>
	<path class="st5" d="M243.06,266.34v38.1c22.48,18.33,54.42,18.33,76.9,0v-38.1c-11.92,4.14-24.81,6.39-38.45,6.39
		C267.87,272.74,254.98,270.49,243.06,266.34z"/>
	<path class="st5" d="M374.79,184.87c0.7-2.39,2.46-4.33,4.78-5.25c4.05-1.6,7.32-3.54,10-5.91c7.03-6.22,9.93-16.22,6.75-23.28
		c-0.88-1.94-2.27-3.91-4.14-5.84c-1.79-1.85-3.91-3.49-6.32-4.89c-5.4,0.54-17.36,0.98-30.74-3.34
		c-9.82-3.17-21.51-9.37-31.35-21.32c-10.59,11.05-26,17.53-42.26,17.53c-15.9,0-30.99-6.18-41.56-16.79
		c-20.2,26.31-47.96,27.95-63.34,24.25c-2.18,1.32-4.12,2.85-5.76,4.55c-1.87,1.94-3.26,3.91-4.14,5.85
		c-3.18,7.06-0.28,17.06,6.75,23.28c2.68,2.37,5.96,4.31,10.01,5.91c2.32,0.92,4.08,2.86,4.78,5.25
		c12.83,44.24,48.57,71.73,93.28,71.73S361.96,229.12,374.79,184.87z M324.24,146.11c6.41,0,11.6,5.19,11.6,11.6
		c0,6.41-5.19,11.6-11.6,11.6c-6.41,0-11.6-5.19-11.6-11.6C312.64,151.3,317.83,146.11,324.24,146.11z M281.51,157.71
		c6.41,0,11.6,5.19,11.6,11.6c0,6.41-5.19,11.6-11.6,11.6c-6.41,0-11.6-5.19-11.6-11.6C269.91,162.9,275.1,157.71,281.51,157.71z
		 M227.18,157.71c0-6.41,5.19-11.6,11.6-11.6c6.41,0,11.6,5.19,11.6,11.6c0,6.41-5.19,11.6-11.6,11.6
		C232.37,169.31,227.18,164.12,227.18,157.71z M257.73,196.55c13.11,13.11,34.45,13.11,47.55,0l11.41,11.41
		c-9.7,9.7-22.44,14.55-35.18,14.55c-12.74,0-25.49-4.85-35.19-14.55L257.73,196.55z"/>
	<path class="st2" d="M187.65,331.13c0-12.61-10.26-22.87-22.87-22.87c-12.61,0-22.87,10.26-22.87,22.87v14.7h45.75V331.13z"/>
	<rect x="133.08" y="382.77" class="st6" width="62.22" height="16.13"/>
	<path class="st6" d="M250.38,157.71c0-6.41-5.19-11.6-11.6-11.6c-6.41,0-11.6,5.19-11.6,11.6c0,6.41,5.19,11.6,11.6,11.6
		C245.19,169.31,250.38,164.12,250.38,157.71z"/>
	<circle class="st6" cx="324.24" cy="157.71" r="11.6"/>
	<path class="st6" d="M281.51,180.91c6.41,0,11.6-5.19,11.6-11.6c0-6.41-5.19-11.6-11.6-11.6c-6.41,0-11.6,5.19-11.6,11.6
		C269.91,175.72,275.1,180.91,281.51,180.91z"/>
	<path class="st6" d="M316.69,207.96l-11.41-11.41c-13.11,13.11-34.45,13.11-47.55,0l-11.41,11.41c9.7,9.7,22.44,14.55,35.19,14.55
		C294.25,222.51,306.99,217.66,316.69,207.96z"/>
	<polygon class="st6" points="406.18,390.68 405.05,448.43 421.19,448.43 422.32,391 	"/>
	<path class="st6" d="M73.38,418.22h22.85v30.21h16.13v-38.28v-48.19h21.47h61.88h21.47v48.19v3.64v34.64h16.13v-30.21h22.85v30.21
		h16.13v-30.21h9.21c4.46,0,8.07-3.61,8.07-8.07v-56.26c0-4.46-3.61-8.07-8.07-8.07h-56.26h-21.47v-14.7
		c0-4.01-0.61-7.88-1.74-11.52l30.42-3.11c14.3,11.85,31.66,17.85,49.05,17.85c17.25,0,34.45-5.9,48.69-17.55l61.05,12.38
		c34.26,6.95,62.12,31.96,72.7,65.28l17.14,53.96h16.93l-18.69-58.84c-12.36-38.89-44.87-68.09-84.87-76.21l-58.36-11.84v-42.34
		c24.66-13.44,43.5-36.32,53.08-66.18c4.22-2.01,7.87-4.39,11.09-7.24c12.31-10.88,16.84-28.55,10.76-42
		c-0.78-1.73-1.75-3.42-2.88-5.07c0.34-3.82,0.57-7.67,0.57-11.52C408.72,57.06,351.65,0,281.51,0
		C211.36,0,154.3,57.06,154.3,127.21c0,3.85,0.23,7.7,0.57,11.52c-1.13,1.66-2.1,3.35-2.88,5.07c-6.08,13.46-1.54,31.12,10.76,42
		c3.21,2.84,6.87,5.23,11.1,7.24c9.57,29.85,28.41,52.73,53.07,66.17v41.65l-32.03,3.27l0.27,2.61
		c-7.16-8.9-18.11-14.61-30.39-14.61c-21.51,0-39.01,17.5-39.01,39.01v14.7h-21.47H48.03c-4.46,0-8.07,3.61-8.07,8.07v56.26
		c0,4.46,3.61,8.07,8.07,8.07h9.21v30.21h16.13V418.22z M233.32,361.96h40.12v40.12h-9.21h-30.92V361.96z M319.96,304.45
		c-22.48,18.33-54.42,18.33-76.9,0v-38.1c11.92,4.14,24.81,6.39,38.45,6.39c13.64,0,26.53-2.25,38.45-6.39V304.45z M281.51,16.13
		c60.5,0,109.83,48.64,111.02,108.86c-0.53-0.29-1.04-0.59-1.59-0.86c-1.52-0.75-3.26-0.99-4.93-0.71
		c-1.95,0.33-48,7.48-62.61-44.29l-15.53,4.38c1.85,6.57,4.15,12.36,6.75,17.48c-0.02,0.02-0.03,0.04-0.04,0.06
		c-7.48,9.62-19.84,15.37-33.07,15.37c-13.23,0-25.59-5.74-33.07-15.37c-4.53-5.83-6.93-12.66-6.93-19.74h-16.13
		c0,7.15,1.63,14.08,4.7,20.49c-20.57,31.56-50.6,22.32-51.87,21.9c-2.02-0.68-4.22-0.53-6.13,0.41c-0.55,0.27-1.05,0.58-1.59,0.86
		C171.68,64.77,221.01,16.13,281.51,16.13z M188.23,184.88c-0.7-2.39-2.46-4.33-4.78-5.25c-4.05-1.61-7.32-3.54-10.01-5.91
		c-7.03-6.21-9.93-16.22-6.75-23.28c0.88-1.94,2.27-3.9,4.14-5.85c1.65-1.71,3.58-3.23,5.76-4.55c15.38,3.7,43.14,2.06,63.34-24.25
		c10.57,10.6,25.67,16.79,41.56,16.79c16.26,0,31.66-6.48,42.26-17.53c9.85,11.95,21.54,18.15,31.35,21.32
		c13.38,4.32,25.34,3.88,30.74,3.34c2.41,1.4,4.53,3.03,6.32,4.89c1.87,1.93,3.26,3.9,4.14,5.84c3.18,7.06,0.28,17.06-6.75,23.28
		c-2.68,2.37-5.96,4.31-10,5.91c-2.32,0.92-4.08,2.86-4.78,5.25c-12.83,44.24-48.57,71.73-93.28,71.73S201.06,229.12,188.23,184.88z
		 M141.9,331.13c0-12.61,10.26-22.87,22.87-22.87c12.61,0,22.87,10.26,22.87,22.87v14.7H141.9V331.13z M56.1,402.08v-40.12h40.12
		v40.12H65.31H56.1z"/>
	<path class="st6" d="M537,460.74H6c-3.31,0-6-2.69-6-6s2.69-6,6-6h531c3.31,0,6,2.69,6,6S540.31,460.74,537,460.74z"/>
</g>
</svg>
