<?xml version="1.0" encoding="utf-8"?>
<!-- Generator: Adobe Illustrator 26.2.1, SVG Export Plug-In . SVG Version: 6.00 Build 0)  -->
<svg version="1.1" id="Layer_1" xmlns="http://www.w3.org/2000/svg" xmlns:xlink="http://www.w3.org/1999/xlink" x="0px" y="0px"
	 viewBox="0 0 320 320" style="enable-background:new 0 0 320 320;" xml:space="preserve">
<style type="text/css">
	.st0{fill:#FCD088;}
	.st1{fill:#F9BB3D;}
	.st2{clip-path:url(#SVGID_00000107563271064198073330000005360134910622207920_);fill:#7296B1;}
	.st3{clip-path:url(#SVGID_00000107563271064198073330000005360134910622207920_);fill:#577F93;}
	.st4{clip-path:url(#SVGID_00000107563271064198073330000005360134910622207920_);fill:#6288A0;}
	.st5{clip-path:url(#SVGID_00000107563271064198073330000005360134910622207920_);fill:#0986CC;}
	.st6{clip-path:url(#SVGID_00000107563271064198073330000005360134910622207920_);fill:#F03A5A;}
	.st7{clip-path:url(#SVGID_00000107563271064198073330000005360134910622207920_);fill:#EDE5DD;}
	.st8{clip-path:url(#SVGID_00000107563271064198073330000005360134910622207920_);fill:#DDC1AC;}
	.st9{clip-path:url(#SVGID_00000107563271064198073330000005360134910622207920_);fill:#E0D0C1;}
	.st10{clip-path:url(#SVGID_00000107563271064198073330000005360134910622207920_);fill:#8EABC1;}
	.st11{clip-path:url(#SVGID_00000107563271064198073330000005360134910622207920_);fill:#FFFFFF;}
	.st12{clip-path:url(#SVGID_00000107563271064198073330000005360134910622207920_);fill:#252525;}
</style>
<polygon class="st0" points="288.4,169.25 267.2,148.05 288.4,126.8 200,95 281.32,176.32 "/>
<polygon class="st1" points="200,95 231.8,183.4 253.05,162.2 274.25,183.4 281.32,176.32 "/>
<g>
	<defs>
		<rect id="SVGID_1_" width="320" height="320"/>
	</defs>
	<clipPath id="SVGID_00000013191899758462109860000015437658326659122324_">
		<use xlink:href="#SVGID_1_"  style="overflow:visible;"/>
	</clipPath>
	<path style="clip-path:url(#SVGID_00000013191899758462109860000015437658326659122324_);fill:#7296B1;" d="M250,305v10H70v-10
		c0-5.5,4.5-10,10-10h30h100h30C245.5,295,250,299.5,250,305"/>
	<path style="clip-path:url(#SVGID_00000013191899758462109860000015437658326659122324_);fill:#577F93;" d="M205,250l5,45H110l5-45
		h25c0,11.05,8.95,20,20,20c5.5,0,10.5-2.25,14.15-5.85c3.6-3.65,5.85-8.65,5.85-14.15H205z"/>
	<path style="clip-path:url(#SVGID_00000013191899758462109860000015437658326659122324_);fill:#7296B1;" d="M315,210v15
		c0,13.8-11.2,25-25,25h-85h-25h-40h-25H30c-13.8,0-25-11.2-25-25v-15h30h95l10,10h40l10-10H315z"/>
	<path style="clip-path:url(#SVGID_00000013191899758462109860000015437658326659122324_);fill:#6288A0;" d="M290,235h-85h-25h-40
		h-25H30c-13.8,0-25-11.2-25-25v15c0,13.8,11.2,25,25,25h85h25h40h25h85c13.8,0,25-11.2,25-25v-15C315,223.8,303.8,235,290,235"/>
	
		<rect x="70" y="145" style="clip-path:url(#SVGID_00000013191899758462109860000015437658326659122324_);fill:#0986CC;" width="40" height="40"/>
	<path style="clip-path:url(#SVGID_00000013191899758462109860000015437658326659122324_);fill:#F03A5A;" d="M90,85
		c11.05,0,20,8.95,20,20c0,11.05-8.95,20-20,20s-20-8.95-20-20C70,93.95,78.95,85,90,85"/>
	<path style="clip-path:url(#SVGID_00000013191899758462109860000015437658326659122324_);fill:#EDE5DD;" d="M315,60v150H190l-10,10
		h-40l-10-10H35V60H315z M267.2,148.05l21.2-21.25L200,95l31.8,88.4l21.25-21.2l21.2,21.2l14.15-14.15L267.2,148.05z M110,145H70v40
		h40V145z M110,105c0-11.05-8.95-20-20-20s-20,8.95-20,20c0,11.05,8.95,20,20,20S110,116.05,110,105"/>
	<path style="clip-path:url(#SVGID_00000013191899758462109860000015437658326659122324_);fill:#7296B1;" d="M315,30H35H5
		c0-6.9,2.8-13.15,7.3-17.7C16.85,7.8,23.1,5,30,5h260C303.8,5,315,16.2,315,30"/>
	<polygon style="clip-path:url(#SVGID_00000013191899758462109860000015437658326659122324_);fill:#DDC1AC;" points="35,60 35,210 
		5,210 5,30 35,30 	"/>
	
		<rect x="35" y="30" style="clip-path:url(#SVGID_00000013191899758462109860000015437658326659122324_);fill:#E0D0C1;" width="280" height="30"/>
	<path style="clip-path:url(#SVGID_00000013191899758462109860000015437658326659122324_);fill:#8EABC1;" d="M30,14.05h260
		c20,0,25,15,25,15c0-13.8-11.2-25-25-25H30c-6.9,0-13.15,2.8-17.7,7.3C7.8,15.9,5,22.15,5,29.05C5,29.05,10,14.05,30,14.05"/>
	<path style="clip-path:url(#SVGID_00000013191899758462109860000015437658326659122324_);fill:#FFFFFF;" d="M300,85
		c0,5.52-4.48,10-10,10c-5.52,0-10-4.48-10-10c0-5.52,4.48-10,10-10C295.52,75,300,79.48,300,85"/>
	<path style="clip-path:url(#SVGID_00000013191899758462109860000015437658326659122324_);fill:#252525;" d="M290,0H30
		C22.02,0,14.48,3.11,8.74,8.78C3.11,14.49,0,22.02,0,30v195c0,16.54,13.46,30,30,30h79.41l-3.89,35H80c-8.27,0-15,6.73-15,15v10
		c0,2.76,2.24,5,5,5h180c2.76,0,5-2.24,5-5v-10c0-8.27-6.73-15-15-15h-25.53l-3.89-35H290c16.54,0,30-13.46,30-30V30
		C320,13.46,306.54,0,290,0 M10,35h20v155c0,2.76,2.24,5,5,5c2.76,0,5-2.24,5-5V65h200c2.76,0,5-2.24,5-5s-2.24-5-5-5H40V35h270v20
		h-45c-2.76,0-5,2.24-5,5s2.24,5,5,5h45v140H190c-1.33,0-2.6,0.53-3.54,1.46l-8.54,8.54h-35.86l-8.54-8.54
		c-0.94-0.94-2.21-1.46-3.54-1.46H10V35z M30,10h260c9.29,0,17.05,6.4,19.29,15H10.71c0.88-3.42,2.58-6.58,5.11-9.15
		C19.63,12.08,24.67,10,30,10 M245,305v5H75v-5c0-2.76,2.24-5,5-5h160C242.76,300,245,302.24,245,305 M204.41,290h-88.83l3.89-35
		h16.03c2.32,11.4,12.42,20,24.49,20c6.62,0,12.89-2.59,17.71-7.34c3.5-3.55,5.81-7.93,6.77-12.66h16.04L204.41,290z M145.92,255
		h28.16c-0.73,2.07-1.87,3.99-3.45,5.59c-2.88,2.84-6.66,4.41-10.64,4.41C153.49,265,147.99,260.81,145.92,255 M290,245H30
		c-11.03,0-20-8.97-20-20v-10h117.93l8.54,8.54c0.94,0.94,2.21,1.46,3.54,1.46h40c1.33,0,2.6-0.53,3.54-1.46l8.53-8.54H310v10
		C310,236.03,301.03,245,290,245"/>
	<path style="clip-path:url(#SVGID_00000013191899758462109860000015437658326659122324_);fill:#252525;" d="M227.09,185.09
		c0.58,1.61,1.94,2.81,3.61,3.18c1.99,0.26,3.68-0.39,4.62-1.34l17.71-17.67l17.67,17.67c1.95,1.95,5.12,1.95,7.07,0l14.15-14.15
		c0.94-0.94,1.47-2.21,1.47-3.54c0-1.33-0.53-2.6-1.47-3.53l-17.67-17.67l17.67-17.71c1.21-1.21,1.71-2.95,1.34-4.62
		c-0.37-1.67-1.58-3.03-3.19-3.61l-88.4-31.8c-1.82-0.64-3.86-0.2-5.23,1.17c-1.37,1.37-1.83,3.4-1.17,5.23L227.09,185.09z
		 M279.3,128.84l-15.64,15.68c-1.95,1.95-1.95,5.12,0.01,7.07l17.67,17.66l-7.08,7.08l-17.67-17.66c-0.98-0.98-2.26-1.46-3.54-1.46
		c-1.28,0-2.56,0.49-3.53,1.46l-15.68,15.64l-25.54-71L279.3,128.84z"/>
	<path style="clip-path:url(#SVGID_00000013191899758462109860000015437658326659122324_);fill:#252525;" d="M110,140H70
		c-2.76,0-5,2.24-5,5v40c0,2.76,2.24,5,5,5h40c2.76,0,5-2.24,5-5v-40C115,142.24,112.76,140,110,140 M105,180H75v-30h30V180z"/>
	<path style="clip-path:url(#SVGID_00000013191899758462109860000015437658326659122324_);fill:#252525;" d="M90,80
		c-13.78,0-25,11.22-25,25c0,13.78,11.22,25,25,25s25-11.22,25-25C115,91.22,103.78,80,90,80 M90,120c-8.27,0-15-6.73-15-15
		c0-8.27,6.73-15,15-15s15,6.73,15,15C105,113.27,98.27,120,90,120"/>
	<path style="clip-path:url(#SVGID_00000013191899758462109860000015437658326659122324_);fill:#252525;" d="M135,100h40
		c2.76,0,5-2.24,5-5c0-2.76-2.24-5-5-5h-40c-2.76,0-5,2.24-5,5C130,97.76,132.24,100,135,100"/>
	<path style="clip-path:url(#SVGID_00000013191899758462109860000015437658326659122324_);fill:#252525;" d="M135,120h20
		c2.76,0,5-2.24,5-5c0-2.76-2.24-5-5-5h-20c-2.76,0-5,2.24-5,5C130,117.76,132.24,120,135,120"/>
	<path style="clip-path:url(#SVGID_00000013191899758462109860000015437658326659122324_);fill:#252525;" d="M135,160h40
		c2.76,0,5-2.24,5-5c0-2.76-2.24-5-5-5h-40c-2.76,0-5,2.24-5,5C130,157.76,132.24,160,135,160"/>
	<path style="clip-path:url(#SVGID_00000013191899758462109860000015437658326659122324_);fill:#252525;" d="M150,175
		c0,2.76,2.24,5,5,5h35c2.76,0,5-2.24,5-5c0-2.76-2.24-5-5-5h-35C152.24,170,150,172.24,150,175"/>
	<path style="clip-path:url(#SVGID_00000013191899758462109860000015437658326659122324_);fill:#252525;" d="M285,225
		c-2.76,0-5,2.24-5,5c0,2.76,2.24,5,5,5c2.76,0,5-2.24,5-5C290,227.24,287.76,225,285,225"/>
	<path style="clip-path:url(#SVGID_00000013191899758462109860000015437658326659122324_);fill:#252525;" d="M265,225
		c-2.76,0-5,2.24-5,5c0,2.76,2.24,5,5,5c2.76,0,5-2.24,5-5C270,227.24,267.76,225,265,225"/>
	<path style="clip-path:url(#SVGID_00000013191899758462109860000015437658326659122324_);fill:#252525;" d="M245,225
		c-2.76,0-5,2.24-5,5c0,2.76,2.24,5,5,5c2.76,0,5-2.24,5-5C250,227.24,247.76,225,245,225"/>
	<path style="clip-path:url(#SVGID_00000013191899758462109860000015437658326659122324_);fill:#252525;" d="M175,110
		c-2.76,0-5,2.24-5,5c0,2.76,2.24,5,5,5c2.76,0,5-2.24,5-5C180,112.24,177.76,110,175,110"/>
	<path style="clip-path:url(#SVGID_00000013191899758462109860000015437658326659122324_);fill:#252525;" d="M135,180
		c2.76,0,5-2.24,5-5c0-2.76-2.24-5-5-5c-2.76,0-5,2.24-5,5C130,177.76,132.24,180,135,180"/>
</g>
</svg>
