<?xml version="1.0" encoding="utf-8"?>
<!-- Generator: Adobe Illustrator 26.2.1, SVG Export Plug-In . SVG Version: 6.00 Build 0)  -->
<svg version="1.1" id="Isolation_Mode" xmlns="http://www.w3.org/2000/svg" xmlns:xlink="http://www.w3.org/1999/xlink" x="0px"
	 y="0px" viewBox="0 0 320 300" style="enable-background:new 0 0 320 300;" xml:space="preserve">
<style type="text/css">
	.st0{fill:#577F93;}
	.st1{fill:#7296B1;}
	.st2{fill:#A3795A;}
	.st3{fill:#E8DEBF;}
	.st4{fill:#D6C9A5;}
	.st5{fill:#FFDD89;}
	.st6{fill:#252525;}
	.st7{fill:#FF5E1F;stroke:#222222;stroke-width:9;stroke-linecap:round;stroke-linejoin:round;stroke-miterlimit:10;}
</style>
<g>
	<g>
		<path class="st0" d="M235,200l13.15,50H230c-5.5,0-10-4.5-10-10v-40H235z"/>
		<path class="st1" d="M248.15,250L235,200h55l3.15,60.05c1,19-14.1,34.95-33.15,34.95L248.15,250z"/>
		<path class="st1" d="M315,110v65c0,13.8-11.2,25-25,25h-55h-15V85h70C303.8,85,315,96.2,315,110z"/>
		<path class="st0" d="M290,175h-55h-15v25h15h55c13.8,0,25-11.2,25-25v-25C315,163.8,303.8,175,290,175z"/>
		<path class="st2" d="M95,219.4V265c0,2.75-1.1,5.25-2.95,7.05c-1.8,1.85-4.3,2.95-7.05,2.95c-5.5,0-10-4.5-10-10v-45.6
			c3.3,0.4,6.6,0.6,10,0.6S91.7,219.8,95,219.4z"/>
		<path class="st2" d="M95,15v45.65C91.7,60.2,88.4,60,85,60s-6.7,0.2-10,0.65V15c0-2.75,1.1-5.25,2.95-7.05C79.75,6.1,82.25,5,85,5
			C90.5,5,95,9.5,95,15z"/>
		<path class="st3" d="M220,85v115L95,265v-45.6c39.45-4.95,70-38.6,70-79.4s-30.55-74.45-70-79.35V15L220,85z"/>
		<path class="st4" d="M175.34,200.4L95,242.18V265l125-65v-48.15l-5.46,10.06C205.6,178.36,191.95,191.77,175.34,200.4z"/>
		<path class="st5" d="M95,60.65c39.45,4.9,70,38.55,70,79.35s-30.55,74.45-70,79.4c-3.3,0.4-6.6,0.6-10,0.6s-6.7-0.2-10-0.6
			C35.55,214.45,5,180.8,5,140s30.55-74.45,70-79.35C78.3,60.2,81.6,60,85,60S91.7,60.2,95,60.65z"/>
	</g>
	<g>
		<path class="st6" d="M290,80h-68.69L99.66,11.88C98.22,5.1,92.2,0,85,0c-4.05,0-7.83,1.58-10.54,4.37C71.58,7.17,70,10.95,70,15
			v25c0,2.76,2.24,5,5,5c2.76,0,5-2.24,5-5V15c0-1.33,0.51-2.57,1.53-3.56C82.43,10.51,83.67,10,85,10c2.76,0,5,2.24,5,5v40.16
			c-5.25-0.32-10.68-0.14-15.62,0.53C31.98,60.95,0,97.2,0,140c0,41.27,29.8,76.4,70,83.6V265c0,8.27,6.73,15,15,15
			c4.05,0,7.83-1.58,10.54-4.37c2.09-2.04,3.48-4.6,4.09-7.4L215,208.24V240c0,8.27,6.73,15,15,15h14.3l10.86,41.27
			c0.58,2.19,2.56,3.73,4.83,3.73c10.59,0,20.43-4.23,27.71-11.9c7.28-7.68,10.99-17.73,10.43-28.31l-2.9-55.28
			C309.29,202.02,320,189.75,320,175v-65C320,93.46,306.54,80,290,80z M90,265c0,1.33-0.51,2.57-1.53,3.56
			C87.57,269.49,86.33,270,85,270c-2.76,0-5-2.24-5-5v-40.15c1.65,0.09,3.31,0.15,5,0.15c3.6,0,7.07-0.21,10.62-0.64
			c13.27-1.67,26.13-6.53,37.19-14.08c2.28-1.56,2.87-4.67,1.31-6.95c-1.56-2.28-4.67-2.87-6.95-1.31
			c-9.76,6.66-21.1,10.95-32.79,12.42c-6.26,0.76-12.55,0.75-18.77,0C38.21,209.75,10,177.74,10,140c0-37.76,28.21-69.74,65.67-74.4
			c5.97-0.81,12.62-0.82,18.71,0.01C131.79,70.26,160,102.24,160,140c0,17.24-5.69,33.45-16.45,46.87c-1.73,2.15-1.38,5.3,0.77,7.03
			c2.16,1.73,5.3,1.38,7.03-0.77c12.03-15,18.65-33.87,18.65-53.13c0-41.32-29.83-76.44-70-83.56V23.53l115,64.4v109.03l-115,59.8
			V240c0-2.76-2.24-5-5-5c-2.76,0-5,2.24-5,5V265z M230,245c-2.76,0-5-2.24-5-5v-35h6.14l10.53,40H230z M280.46,281.22
			c-4.49,4.74-10.31,7.69-16.67,8.53L241.49,205h43.77l2.9,55.31C288.57,268.13,285.83,275.55,280.46,281.22z M310,175
			c0,11.03-8.97,20-20,20h-65V90h65c11.03,0,20,8.97,20,20V175z"/>
		<path class="st6" d="M285,100c-2.76,0-5,2.24-5,5v20c0,2.76,2.24,5,5,5s5-2.24,5-5v-20C290,102.24,287.76,100,285,100z"/>
		<path class="st6" d="M265,100c-2.76,0-5,2.24-5,5v20c0,2.76,2.24,5,5,5s5-2.24,5-5v-20C270,102.24,267.76,100,265,100z"/>
		<path class="st6" d="M245,100c-2.76,0-5,2.24-5,5v20c0,2.76,2.24,5,5,5c2.76,0,5-2.24,5-5v-20C250,102.24,247.76,100,245,100z"/>
		<path class="st6" d="M200,165c2.76,0,5-2.24,5-5v-40c0-2.76-2.24-5-5-5c-2.76,0-5,2.24-5,5v40C195,162.76,197.24,165,200,165z"/>
		<circle class="st6" cx="200" cy="100" r="5"/>
	</g>
</g>
<polyline class="st7" points="95,105.99 71.79,86.45 77.15,116.38 42.92,108.9 66.42,132.32 33.82,141.61 64.6,152.83 49.5,175.86 
	77.37,166.57 76.79,193.23 99.02,170.83 "/>
</svg>
