<?xml version="1.0" encoding="utf-8"?>
<!-- Generator: Adobe Illustrator 26.5.3, SVG Export Plug-In . SVG Version: 6.00 Build 0)  -->
<svg version="1.1" id="Isolation_Mode" xmlns="http://www.w3.org/2000/svg" xmlns:xlink="http://www.w3.org/1999/xlink" x="0px"
	 y="0px" viewBox="0 0 611 506.66" style="enable-background:new 0 0 611 506.66;" xml:space="preserve">
<style type="text/css">
	.st0{fill:none;}
	.st1{fill:#FFDB92;}
	.st2{fill:#FFFFFF;}
	.st3{fill:#FFC9D2;}
	.st4{fill:#AE726D;}
	.st5{fill:#141414;}
	.st6{fill:#1A1A1A;}
</style>
<g>
	<polygon class="st0" points="190.58,496.66 194.6,496.66 194.24,492.34 	"/>
	<rect x="317.11" y="446.93" class="st1" width="174.94" height="49.73"/>
	<path class="st2" d="M310.05,432.81h168.43l2.69-32.6l14.07,1.16l-2.59,31.44h6.46c3.9,0,7.06,3.16,7.06,7.06v26.32
		c5.49,0.4,15.03-0.03,26.96-5.09l-5.89-48.65c-3.8-31.41-27.12-57.08-58.02-63.88l-51.29-11.28l-19.86,70.93
		c-0.54,1.93-1.88,3.54-3.67,4.43c-0.98,0.49-2.05,0.73-3.12,0.73c-0.89,0-1.78-0.17-2.62-0.51l-47.64-19.08l-47.64,19.08
		c-0.84,0.34-1.74,0.51-2.62,0.51c-1.07,0-2.14-0.24-3.12-0.73c-1.8-0.89-3.13-2.5-3.67-4.43l-19.88-71l-57.63,12.53
		c-31.05,6.75-58.52,26.08-75.37,53.03l-23.67,37.87c6.02,10.24,26.96,41.46,65.44,55.15l19.8-23.38l-5.86-71.06l14.07-1.16
		l7.96,96.45h94.22v-56.79C302.99,435.97,306.15,432.81,310.05,432.81z M340.99,408.01c4.78,0,8.65,3.87,8.65,8.65
		c0,4.78-3.87,8.65-8.65,8.65c-4.78,0-8.65-3.87-8.65-8.65C332.33,411.89,336.21,408.01,340.99,408.01z"/>
	<path class="st3" d="M399.47,253.47c12.41-12.09,21.48-28.11,26.98-47.62c0.69-2.44,2.63-4.33,5.09-4.94
		c6.11-1.52,11.15-4,14.97-7.39c6.63-5.86,9.36-15.32,6.34-22c-0.83-1.84-2.14-3.7-3.91-5.52c-3.01-3.12-6.89-5.56-11.24-7.07
		l-1.33-0.15c-37.7-4.39-71.51-26.64-90.45-59.54l-4.9-8.51l-4.38,7.74c-19.19,33.93-53.71,56.49-92.45,60.48
		c-4.33,1.52-8.18,3.95-11.18,7.05c-1.76,1.83-3.08,3.69-3.91,5.52c-3.02,6.68-0.29,16.14,6.34,22.01
		c3.83,3.38,8.87,5.87,14.97,7.39c2.46,0.61,4.41,2.5,5.09,4.94c5.49,19.51,14.57,35.53,26.98,47.62
		c14.72,14.34,36.03,22.93,58.48,23.6C363.44,276.4,384.75,267.81,399.47,253.47z M380.52,159.28c5.93,0,10.73,4.81,10.73,10.73
		s-4.81,10.73-10.73,10.73c-5.93,0-10.73-4.81-10.73-10.73S374.59,159.28,380.52,159.28z M327.34,180.67l17.3-17.31l9.98,9.98
		l-12.31,12.31l12.31,12.31l-9.98,9.98l-17.3-17.31C324.59,187.89,324.59,183.42,327.34,180.67z M290.72,170.02
		c0-5.93,4.81-10.73,10.73-10.73c5.93,0,10.73,4.81,10.73,10.73s-4.81,10.73-10.73,10.73C295.53,180.75,290.72,175.94,290.72,170.02
		z M318.35,215.86c12.48,12.48,32.8,12.48,45.28,0l9.98,9.99c-8.99,8.99-20.81,13.49-32.62,13.49c-11.82,0-23.63-4.5-32.62-13.49
		L318.35,215.86z"/>
	<polygon class="st2" points="329.4,383.22 287.38,332.15 277.86,334.22 295.4,396.84 	"/>
	<path class="st3" d="M99.02,454.01l-26.66,42.65h70.05C120.45,482.88,106.37,465.12,99.02,454.01z"/>
	<path class="st3" d="M534.87,475.57c-10.2,3.76-19.03,4.82-25.57,4.82c-1.12,0-2.16-0.04-3.14-0.09v16.37h31.27L534.87,475.57z"/>
	<path class="st4" d="M242.03,144.97c34.49-3.32,65.27-23.3,82.34-53.46L334.84,73c1.25-2.21,3.58-3.57,6.12-3.58
		c0.01,0,0.02,0,0.03,0c2.53,0,4.86,1.35,6.12,3.54l11.07,19.23c16.71,29.04,46.56,48.69,79.84,52.56l2.07,0.24
		c0.46,0.05,0.92,0.15,1.37,0.3c1.62,0.53,3.2,1.15,4.73,1.85V139c0-61.55-47.19-111.63-105.19-111.63
		c-58,0-105.19,50.08-105.19,111.63v8.13c1.53-0.7,3.11-1.33,4.73-1.85C241.02,145.13,241.52,145.02,242.03,144.97z"/>
	<polygon class="st2" points="352.57,383.22 386.58,396.84 404.1,334.26 394.59,332.16 	"/>
	<path class="st3" d="M384.82,280.6c-13.25,6.44-28.23,10.16-43.64,10.58c-0.06,0-0.13,0-0.19,0c-0.06,0-0.13,0-0.19,0
		c-15.41-0.42-30.39-4.15-43.64-10.58v41.21l43.84,53.27l43.83-53.27V280.6z"/>
	<path class="st4" d="M460.29,139v18.51c2.31,2.61,4.15,5.36,5.43,8.2c5.55,12.29,1.4,28.43-9.86,38.39
		c-4.64,4.11-10.33,7.25-16.96,9.38c-1.97,6.34-4.33,12.31-7.01,17.97c13.45,16.79,40.36,25.91,65.04,27.02
		c-2.9-4.6-4.92-10.04-5.8-15.96c-1.64-11.04,0.51-21.69,3.07-32.54c1.42-6.04,2.92-12.08,4.42-18.11
		c4.45-17.96,9.06-36.53,11.51-54.97c3.65-27.49,1.77-51.42-5.59-71.13c-8.74-23.4-26.05-41.55-46.3-48.56
		c-20.43-7.08-44.31-1.44-57.43,13.05C436.34,52.07,460.29,92.63,460.29,139z"/>
	<path class="st5" d="M99.02,454.01c7.35,11.11,21.43,28.86,43.39,42.65h48.17l3.66-4.33l0.36,4.33h14.17l-7.96-96.45l-14.07,1.16
		l5.86,71.06l-19.8,23.38c-38.48-13.69-59.42-44.9-65.44-55.15l23.67-37.87c16.84-26.95,44.32-46.27,75.37-53.03l57.63-12.53
		l19.88,71c0.54,1.93,1.88,3.54,3.67,4.43c0.98,0.49,2.05,0.73,3.12,0.73c0.89,0,1.78-0.17,2.62-0.51l47.64-19.08l47.64,19.08
		c0.84,0.34,1.74,0.51,2.62,0.51c1.07,0,2.14-0.24,3.12-0.73c1.8-0.89,3.13-2.5,3.67-4.43l19.86-70.93l51.29,11.28
		c30.9,6.8,54.22,32.47,58.02,63.88l5.89,48.65c-11.93,5.06-21.47,5.49-26.96,5.09v-26.32c0-3.9-3.16-7.06-7.06-7.06h-6.46
		l2.59-31.44l-14.07-1.16l-2.69,32.6H310.05c-3.9,0-7.06,3.16-7.06,7.06v56.79h14.12v-49.73h174.94v49.73h14.12V480.3
		c0.99,0.05,2.02,0.09,3.14,0.09c6.54,0,15.37-1.05,25.57-4.82l2.56,21.09h14.22l-10.41-85.91c-4.53-37.35-32.26-67.88-69.01-75.97
		l-73.3-16.12v-46.42c3.69-2.64,7.17-5.54,10.38-8.67c5.77-5.62,10.87-12,15.34-19.01c18.46,19.08,50.08,28.13,77.48,28.13
		c4.67,0,9.22-0.26,13.56-0.78c3.23-0.39,5.77-2.93,6.17-6.15c0.39-3.23-1.47-6.31-4.51-7.46c-6.18-2.34-11-9.36-12.27-17.87
		c-1.28-8.56,0.62-17.76,2.85-27.22c1.41-5.99,2.89-11.97,4.38-17.94c4.55-18.33,9.25-37.29,11.8-56.51
		c3.96-29.81,1.82-56.02-6.36-77.93c-10.2-27.29-30.72-48.59-54.91-56.96c-27.22-9.43-58.27-1.15-74.75,19.62
		c-14.46-6.58-30.39-10.24-47.11-10.24c-65.79,0-119.31,56.41-119.31,125.75v18.51c-2.31,2.61-4.15,5.36-5.43,8.19
		c-5.55,12.29-1.4,28.44,9.86,38.39c4.65,4.11,10.33,7.25,16.96,9.38c6.27,20.23,16.21,37.07,29.59,50.1
		c3.21,3.13,6.69,6.02,10.38,8.67v46.4l-79.62,17.32c-34.75,7.56-65.49,29.18-84.34,59.34L55.7,496.66h16.65L99.02,454.01z
		 M297.15,321.81V280.6c13.25,6.44,28.23,10.16,43.64,10.58c0.06,0,0.13,0,0.19,0c0.06,0,0.13,0,0.19,0
		c15.41-0.42,30.39-4.15,43.64-10.58v41.21l-43.83,53.27L297.15,321.81z M404.1,334.26l-17.53,62.59l-34.01-13.62l42.02-51.06
		L404.1,334.26z M458.23,17.21c20.25,7.01,37.56,25.17,46.3,48.56c7.36,19.71,9.24,43.64,5.59,71.13
		c-2.45,18.44-7.06,37.01-11.51,54.97c-1.5,6.03-2.99,12.06-4.42,18.11c-2.56,10.85-4.72,21.5-3.07,32.54
		c0.88,5.92,2.9,11.36,5.8,15.96c-24.67-1.12-51.58-10.23-65.04-27.02c2.68-5.66,5.05-11.63,7.01-17.97
		c6.62-2.13,12.31-5.28,16.96-9.38c11.26-9.96,15.41-26.1,9.86-38.39c-1.28-2.84-3.13-5.59-5.43-8.2V139
		c0-46.37-23.96-86.94-59.5-108.74C413.92,15.77,437.8,10.13,458.23,17.21z M235.8,139c0-61.55,47.19-111.63,105.19-111.63
		c58,0,105.19,50.08,105.19,111.63v8.13c-1.53-0.7-3.11-1.33-4.73-1.85c-0.44-0.14-0.9-0.24-1.37-0.3l-2.07-0.24
		c-33.28-3.87-63.12-23.52-79.84-52.56L347.1,72.95c-1.26-2.19-3.59-3.54-6.12-3.54c-0.01,0-0.02,0-0.03,0
		c-2.53,0.01-4.87,1.38-6.12,3.58l-10.47,18.51c-17.06,30.16-47.84,50.15-82.34,53.46c-0.51,0.05-1.02,0.15-1.5,0.31
		c-1.62,0.53-3.2,1.15-4.73,1.85V139z M282.5,253.47c-12.41-12.09-21.48-28.11-26.98-47.62c-0.69-2.44-2.63-4.33-5.09-4.94
		c-6.11-1.52-11.15-4-14.97-7.39c-6.63-5.86-9.36-15.32-6.34-22.01c0.83-1.84,2.14-3.69,3.91-5.52c3-3.11,6.85-5.54,11.18-7.05
		c38.74-3.99,73.26-26.56,92.45-60.48l4.38-7.74l4.9,8.51c18.93,32.9,52.74,55.15,90.45,59.54l1.33,0.15
		c4.35,1.52,8.22,3.95,11.24,7.07c1.76,1.83,3.08,3.68,3.91,5.52c3.02,6.68,0.29,16.14-6.34,22c-3.83,3.38-8.87,5.87-14.97,7.39
		c-2.46,0.61-4.41,2.5-5.09,4.94c-5.49,19.51-14.57,35.53-26.98,47.62c-14.72,14.34-36.03,22.93-58.48,23.6
		C318.53,276.4,297.22,267.81,282.5,253.47z M287.38,332.15l42.02,51.07l-34.01,13.62l-17.54-62.62L287.38,332.15z"/>
	<path class="st5" d="M373.61,225.84l-9.98-9.99c-12.49,12.48-32.8,12.48-45.28,0l-9.98,9.98c9,9,20.81,13.49,32.62,13.49
		C352.8,239.33,364.62,234.83,373.61,225.84z"/>
	<path class="st5" d="M344.65,207.95l9.98-9.98l-12.31-12.31l12.31-12.31l-9.98-9.98l-17.3,17.31c-2.76,2.76-2.76,7.23,0,9.98
		L344.65,207.95z"/>
	<path class="st5" d="M312.19,170.02c0-5.93-4.81-10.73-10.73-10.73c-5.93,0-10.73,4.81-10.73,10.73s4.81,10.73,10.73,10.73
		C307.38,180.75,312.19,175.94,312.19,170.02z"/>
	<path class="st5" d="M380.52,180.75c5.93,0,10.73-4.81,10.73-10.73s-4.81-10.73-10.73-10.73c-5.93,0-10.73,4.81-10.73,10.73
		S374.59,180.75,380.52,180.75z"/>
	<path class="st5" d="M340.99,425.32c4.78,0,8.65-3.87,8.65-8.65c0-4.78-3.87-8.65-8.65-8.65c-4.78,0-8.65,3.87-8.65,8.65
		C332.33,421.44,336.21,425.32,340.99,425.32z"/>
	<path class="st6" d="M605,506.66H6c-3.31,0-6-2.69-6-6s2.69-6,6-6h599c3.31,0,6,2.69,6,6S608.31,506.66,605,506.66z"/>
</g>
</svg>
