<?xml version="1.0" encoding="utf-8"?>
<!-- Generator: Adobe Illustrator 26.2.1, SVG Export Plug-In . SVG Version: 6.00 Build 0)  -->
<svg version="1.1" id="Layer_1" xmlns="http://www.w3.org/2000/svg" xmlns:xlink="http://www.w3.org/1999/xlink" x="0px" y="0px"
	 viewBox="0 0 320 270" style="enable-background:new 0 0 320 270;" xml:space="preserve">
<style type="text/css">
	.st0{fill:#049C5C;}
	.st1{fill:#15B76D;}
	.st2{clip-path:url(#SVGID_00000024701163799623674680000017239659981438838199_);fill:#252525;}
</style>
<polygon class="st0" points="130,5 159.4,55 125,110 82.65,84.6 "/>
<polygon class="st1" points="159.4,55 130,5 190,5 249.65,105.2 230,115 155,105 180,90 "/>
<polygon class="st0" points="264,129.35 315,215 255,215 220,155 "/>
<polygon class="st1" points="315,215 280,265 165,265 165,250 215,185 215,215 255,215 "/>
<polygon class="st0" points="135,210 135,265 40,265 70.85,210 "/>
<polygon class="st1" points="70.85,210 40,265 5,215 67.7,109.65 85,120 115.15,190.5 89.15,177.35 "/>
<g>
	<defs>
		<rect id="SVGID_1_" width="320" height="270"/>
	</defs>
	<clipPath id="SVGID_00000135692806238378556330000014954286685588569273_">
		<use xlink:href="#SVGID_1_"  style="overflow:visible;"/>
	</clipPath>
	<path style="clip-path:url(#SVGID_00000135692806238378556330000014954286685588569273_);fill:#252525;" d="M319.3,212.44
		l-51-85.65c-1.4-2.36-4.45-3.15-6.81-1.76l-44,25.65c-1.15,0.67-1.98,1.76-2.32,3.04c-0.34,1.28-0.15,2.65,0.51,3.79l23.33,40
		c1.39,2.38,4.45,3.19,6.84,1.8c2.39-1.39,3.19-4.45,1.8-6.84l-20.81-35.68l35.4-20.64L306.2,210H220v-25
		c0-2.14-1.36-4.04-3.39-4.73c-2.01-0.69-4.26-0.01-5.57,1.68l-50,65c-0.67,0.87-1.04,1.94-1.04,3.05v15c0,2.76,2.24,5,5,5h115
		c1.63,0,3.16-0.8,4.1-2.13l35-50C320.22,216.26,320.3,214.13,319.3,212.44 M277.4,260H170v-8.3l40-52V215c0,2.76,2.24,5,5,5h90.4
		L277.4,260z"/>
	<path style="clip-path:url(#SVGID_00000135692806238378556330000014954286685588569273_);fill:#252525;" d="M232.23,119.48
		l19.98-9.98c2.37-1.41,3.15-4.48,1.74-6.86L194.3,2.44C193.39,0.93,191.76,0,190,0h-60c-1.76,0-3.4,0.93-4.3,2.44l-47.35,79.6
		c-1.41,2.37-0.64,5.43,1.73,6.84l42.35,25.4c0.8,0.48,1.69,0.71,2.57,0.71c1.67,0,3.3-0.84,4.24-2.35l21.89-35
		c1.46-2.34,0.76-5.43-1.59-6.89c-2.34-1.47-5.43-0.75-6.89,1.59l-19.29,30.84L89.49,82.87l40.48-68.05l43.2,73.44l-20.75,12.45
		c-1.82,1.09-2.75,3.22-2.32,5.3c0.43,2.08,2.13,3.66,4.24,3.94l75,10C230.58,120.1,231.54,119.82,232.23,119.48 M169.83,101.93
		l12.74-7.65c2.35-1.41,3.13-4.46,1.74-6.82L138.74,10h48.42l55.44,93.13l-13.46,6.71L169.83,101.93z"/>
	<path style="clip-path:url(#SVGID_00000135692806238378556330000014954286685588569273_);fill:#252525;" d="M135,205H95
		c-2.76,0-5,2.24-5,5s2.24,5,5,5h35v45H48.54l42.63-76.02l21.72,10.99c1.87,0.94,4.14,0.62,5.68-0.82c1.53-1.44,2-3.68,1.18-5.61
		l-30.15-70.5c-0.42-0.97-1.12-1.79-2.03-2.33l-17.3-10.35c-1.14-0.68-2.51-0.88-3.79-0.56c-1.29,0.33-2.39,1.15-3.07,2.29
		L0.7,212.44c-1,1.69-0.93,3.81,0.2,5.42l35,50c0.93,1.34,2.47,2.13,4.1,2.13h95c2.76,0,5-2.24,5-5v-55
		C140,207.24,137.76,205,135,205 M39.53,255.61l-28.58-40.83l58.48-98.27l11.61,6.94l24.11,56.38l-13.75-6.95
		c-2.4-1.2-5.31-0.32-6.62,2.02L39.53,255.61z"/>
	<path style="clip-path:url(#SVGID_00000135692806238378556330000014954286685588569273_);fill:#252525;" d="M250.55,251.88h18.26
		c1.47,0,2.86-0.65,3.81-1.77l10.43-12.31c1.79-2.11,1.53-5.26-0.58-7.05c-2.11-1.79-5.27-1.53-7.05,0.58l-8.93,10.54h-15.94
		c-2.76,0-5,2.24-5,5S247.79,251.88,250.55,251.88"/>
	<path style="clip-path:url(#SVGID_00000135692806238378556330000014954286685588569273_);fill:#252525;" d="M40.43,193.33
		c-2.39-1.38-5.45-0.56-6.83,1.83l-9.41,16.28c-0.95,1.65-0.89,3.7,0.17,5.28l8.27,12.36c0.96,1.44,2.55,2.22,4.16,2.22
		c0.95,0,1.92-0.27,2.78-0.85c2.3-1.54,2.91-4.64,1.37-6.94l-6.54-9.77l7.85-13.59C43.64,197.77,42.82,194.71,40.43,193.33"/>
	<path style="clip-path:url(#SVGID_00000135692806238378556330000014954286685588569273_);fill:#252525;" d="M184.26,21.43
		c-0.91-1.57-2.62-2.59-4.41-2.49l-14.87,0.24c-2.76,0.04-4.96,2.32-4.92,5.08c0.05,2.76,2.44,5.04,5.08,4.92l11.93-0.19l7.67,13.25
		c0.92,1.6,2.6,2.49,4.33,2.49c0.85,0,1.71-0.22,2.5-0.67c2.39-1.38,3.21-4.44,1.82-6.83L184.26,21.43z"/>
</g>
</svg>
