<?xml version="1.0" encoding="utf-8"?>
<!-- Generator: Adobe Illustrator 26.2.1, SVG Export Plug-In . SVG Version: 6.00 Build 0)  -->
<svg version="1.1" id="Layer_3" xmlns="http://www.w3.org/2000/svg" xmlns:xlink="http://www.w3.org/1999/xlink" x="0px" y="0px"
	 viewBox="0 0 58 55.95" style="enable-background:new 0 0 58 55.95;" xml:space="preserve">
<style type="text/css">
	.st0{fill:#FFFFFF;}
	.st1{fill:#CCDCFF;}
	.st2{fill:none;stroke:#000000;stroke-width:2;stroke-linecap:round;stroke-linejoin:round;stroke-miterlimit:10;}
	.st3{fill:#FEBA6F;stroke:#000000;stroke-width:2;stroke-linecap:round;stroke-linejoin:round;stroke-miterlimit:10;}
	.st4{fill:#FFE0B8;stroke:#000000;stroke-width:2;stroke-linecap:round;stroke-linejoin:round;stroke-miterlimit:10;}
	.st5{fill:#FFE0B8;}
	.st6{fill:#FEBA6F;}
	.st7{fill:none;stroke:#FEBA6F;stroke-width:2;stroke-linecap:round;stroke-linejoin:round;stroke-miterlimit:10;}
	.st8{fill:#744100;}
	.st9{fill:#502700;}
</style>
<g>
	<g>
		<path class="st0" d="M55,54.95v-2c0-3.34-1.97-6.37-5.03-7.73L29,35.95L8.03,45.22C4.97,46.57,3,49.6,3,52.95v2H55z"/>
		<path class="st1" d="M29,35.95l-9.92,4.39c0.16,1.49,0.57,2.95,1.22,4.3l1.88,3.92c0.12,0.25,0.34,0.44,0.61,0.52
			c0.27,0.08,0.56,0.04,0.8-0.1l4.8-2.87c0.19-0.11,0.39-0.17,0.6-0.17s0.42,0.06,0.6,0.17l4.8,2.87c0.24,0.14,0.53,0.18,0.8,0.1
			c0.27-0.08,0.49-0.27,0.61-0.52l1.88-3.92c0.65-1.35,1.06-2.81,1.22-4.3L29,35.95z"/>
		<path class="st1" d="M55,52.95c0-3.34-1.97-6.37-5.03-7.73L29,35.95v3.33l17.97,7.95C50.03,48.57,52,51.6,52,54.95h3V52.95z"/>
		<path class="st0" d="M8.03,45.22C4.97,46.57,3,49.6,3,52.95v2h3c0-3.34,1.97-6.37,5.03-7.72L29,39.27v-3.33L8.03,45.22z"/>
		<path class="st2" d="M55,54.95v-2c0-3.34-1.97-6.37-5.03-7.73L29,35.95L8.13,45.18"/>
		<path class="st2" d="M3.67,49.65C3.24,50.67,3,51.79,3,52.95v2"/>
		<path class="st2" d="M5.82,46.64c-0.25,0.22-0.48,0.46-0.71,0.71"/>
		<path class="st0" d="M23,35.95c-1.66,0-3,1.34-3,3c0,1.82,0.41,3.61,1.2,5.25l1.8,3.75l6-5l6,5l1.8-3.75
			c0.79-1.64,1.2-3.43,1.2-5.25c0-1.66-1.34-3-3-3H23z"/>
		<path class="st1" d="M34,38.95c1.66,0,3,1.34,3,3c0,0.77-0.07,1.54-0.22,2.3l0.02-0.05c0.79-1.64,1.2-3.43,1.2-5.25
			c0-1.66-1.34-3-3-3H23c-1.66,0-3,1.34-3,3c0,1.82,0.41,3.61,1.2,5.25l0.02,0.05c-0.15-0.76-0.22-1.53-0.22-2.3c0-1.66,1.34-3,3-3
			H34z"/>
		<path class="st2" d="M23,35.95c-1.66,0-3,1.34-3,3c0,1.82,0.41,3.61,1.2,5.25l1.8,3.75l6-5l6,5l1.8-3.75
			c0.79-1.64,1.2-3.43,1.2-5.25c0-1.66-1.34-3-3-3H23z"/>
		<line class="st2" x1="29" y1="46.95" x2="29" y2="54.95"/>
	</g>
	<g>
		<line class="st2" x1="45" y1="54.95" x2="1" y2="54.95"/>
		<line class="st2" x1="49" y1="54.95" x2="48" y2="54.95"/>
		<line class="st2" x1="57" y1="54.95" x2="52" y2="54.95"/>
	</g>
	<path class="st3" d="M22,33.95v1c0,3.87,3.13,7,7,7s7-3.13,7-7v-1H22z"/>
	<g>
		<path class="st3" d="M42.5,19.95c-1.38,0-2.5,1.12-2.5,2.5v5.5h1c2.49,0,4.5-2.1,4.5-4.7C45.5,21.42,44.16,19.95,42.5,19.95z"/>
		<path class="st4" d="M15.5,19.95c1.38,0,2.5,1.12,2.5,2.5v5.5h-1c-2.49,0-4.5-2.1-4.5-4.7C12.5,21.42,13.84,19.95,15.5,19.95z"/>
		<path class="st5" d="M23,8.95c-3.87,0-7,3.13-7,7v12c0,3.14,1.51,6.09,4.05,7.93l0.43,0.31c2.48,1.79,5.46,2.76,8.52,2.76
			s6.04-0.97,8.52-2.76l0.43-0.31c2.54-1.84,4.05-4.79,4.05-7.93v-12c0-3.87-3.13-7-7-7H23z"/>
		<path class="st6" d="M21.92,15.65c1.71,1.75,4.45,2.89,7.34,2.89c3.14,0,5.68-1.13,7.74-3.18c1.11,1.75,2.29,2.82,5,2.82v-2.24
			c0-3.87-3.13-7-7-7H23c-3.87,0-7,3.13-7,7v1.5C18.19,18.01,20.62,17.45,21.92,15.65z"/>
		<path class="st6" d="M42,15.95c0-3.87-3.13-7-7-7h-3c3.87,0,7,3.13,7,7v12c0,3.14-1.51,6.09-4.05,7.93l-0.43,0.31
			c-2.07,1.5-4.49,2.42-7.02,2.68c0.5,0.05,1,0.08,1.5,0.08c3.06,0,6.04-0.97,8.52-2.76l0.43-0.31c2.54-1.84,4.05-4.79,4.05-7.93
			V15.95z"/>
		<path class="st0" d="M23.05,35.88C20.51,34.04,19,31.09,19,27.95v-12c0-3.87,3.13-7,7-7h-3c-3.87,0-7,3.13-7,7v12
			c0,3.14,1.51,6.09,4.05,7.93l0.43,0.31c2.48,1.79,5.46,2.76,8.52,2.76c0.5,0,1-0.03,1.5-0.08c-2.52-0.26-4.95-1.18-7.02-2.68
			L23.05,35.88z"/>
		<path class="st5" d="M26,8.95h-3c-3.87,0-7,3.13-7,7v1.5c0.99,0.26,2.04,0.28,3,0.06v-1.56C19,12.08,22.13,8.95,26,8.95z"/>
		<path class="st2" d="M26.1,32.45c0.64,0.91,1.7,1.5,2.9,1.5s2.26-0.59,2.9-1.5"/>
		<path class="st6" d="M29.5,29.95c0.72,0,1.3-0.36,1.3-0.8c0-0.11-0.09-0.2-0.2-0.2h-3.2c-0.11,0-0.2,0.09-0.2,0.2
			c0,0.44,0.58,0.8,1.3,0.8H29.5z"/>
		<path class="st6" d="M39,27.45c0-0.83-0.67-1.5-1.5-1.5h-1c-0.83,0-1.5,0.67-1.5,1.5c0,0.83,0.67,1.5,1.5,1.5h1
			C38.33,28.95,39,28.27,39,27.45z"/>
		<path class="st6" d="M20.5,25.95h1c0.83,0,1.5,0.67,1.5,1.5c0,0.83-0.67,1.5-1.5,1.5h-1c-0.83,0-1.5-0.67-1.5-1.5
			C19,26.62,19.67,25.95,20.5,25.95z"/>
		<circle cx="35" cy="23.95" r="1.5"/>
		<circle cx="23" cy="23.95" r="1.5"/>
		<path class="st7" d="M33,19.05c1.69-0.79,3.8-0.8,5.5-0.02"/>
		<path class="st7" d="M25,19.05c-1.69-0.79-3.8-0.8-5.5-0.02"/>
		<path class="st2" d="M23,8.95c-3.87,0-7,3.13-7,7v12c0,3.14,1.51,6.09,4.05,7.93l0.43,0.31c2.48,1.79,5.46,2.76,8.52,2.76
			s6.04-0.97,8.52-2.76l0.43-0.31c2.54-1.84,4.05-4.79,4.05-7.93v-12c0-3.87-3.13-7-7-7H23z"/>
	</g>
	<g>
		<path class="st8" d="M45.45,15.26c0-2.35-1.07-4.45-2.76-5.84c-0.58-4.44-4.38-7.86-8.97-7.86c-0.88,0-1.73,0.13-2.53,0.36
			C29.85,1.33,28.37,1,26.81,1c-4.62,0-8.58,2.87-10.18,6.92c-2.42,1.42-4.05,4.06-4.05,7.07c0,2.74,1.35,5.17,3.42,6.66v-5.71
			c0-0.12,0-0.24,0.01-0.36c0.67,0.32,1.42,0.5,2.21,0.5c1.35,0,2.59-0.53,3.5-1.39c2.01,1.77,4.65,2.84,7.54,2.84
			c3.14,0,5.98-1.27,8.05-3.32c0.84,1.23,2.25,2.03,3.85,2.03c0.29,0,0.57-0.03,0.84-0.08v5.42C44.08,20.26,45.45,17.92,45.45,15.26
			z"/>
		<path class="st9" d="M45.45,15.26c0-2.35-1.07-4.45-2.76-5.84c-0.58-4.44-4.38-7.86-8.97-7.86c-0.51,0-1.01,0.04-1.5,0.12
			c3.9,0.65,6.96,3.8,7.47,7.74c1.68,1.39,2.76,3.49,2.76,5.84c0,0.9-0.16,1.77-0.45,2.57v3.78C44.08,20.26,45.45,17.92,45.45,15.26
			z"/>
		<path class="st0" d="M26.81,1c-4.62,0-8.58,2.87-10.18,6.92c-2.42,1.42-4.05,4.06-4.05,7.07c0,2.74,1.35,5.17,3.42,6.66v-3.07
			c-0.27-0.81-0.42-1.68-0.42-2.59c0-3.02,1.63-5.65,4.05-7.07C21.24,4.87,25.19,2,29.81,2c0.33,0,0.65,0.01,0.96,0.04
			c0.14-0.05,0.27-0.09,0.41-0.13C29.85,1.33,28.37,1,26.81,1z"/>
		<path class="st2" d="M39.65,7.9c1.14,0.27,2.17,0.8,3.04,1.52"/>
		<path class="st2" d="M31.19,1.91c-0.69,0.2-1.35,0.48-1.96,0.83"/>
		<path class="st2" d="M15.92,10.95c0.09-1.06,0.34-2.08,0.72-3.03"/>
		<path class="st2" d="M42,16.18c0.29-0.05,0.57-0.13,0.84-0.24"/>
		<path class="st2" d="M21.72,14.7c-0.57-0.5-1.09-1.06-1.55-1.66"/>
		<path class="st2" d="M15.25,15.14c0.24,0.17,0.48,0.31,0.75,0.44"/>
		<path class="st2" d="M45.45,15.26c0-2.35-1.07-4.45-2.76-5.84c-0.58-4.44-4.38-7.86-8.97-7.86c-0.88,0-1.73,0.13-2.53,0.36
			C29.85,1.33,28.37,1,26.81,1c-4.62,0-8.58,2.87-10.18,6.92c-2.42,1.42-4.05,4.06-4.05,7.07c0,2.74,1.35,5.17,3.42,6.66v-5.71
			c0-0.12,0-0.24,0.01-0.36c0.67,0.32,1.42,0.5,2.21,0.5c1.35,0,2.59-0.53,3.5-1.39c2.01,1.77,4.65,2.84,7.54,2.84
			c3.14,0,5.98-1.27,8.05-3.32c0.84,1.23,2.25,2.03,3.85,2.03c0.29,0,0.57-0.03,0.84-0.08v5.42C44.08,20.26,45.45,17.92,45.45,15.26
			z"/>
	</g>
</g>
</svg>
