<?xml version="1.0" encoding="utf-8"?>
<!-- Generator: Adobe Illustrator 26.2.1, SVG Export Plug-In . SVG Version: 6.00 Build 0)  -->
<svg version="1.1" id="Layer_1" xmlns="http://www.w3.org/2000/svg" xmlns:xlink="http://www.w3.org/1999/xlink" x="0px" y="0px"
	 viewBox="0 0 320 320" style="enable-background:new 0 0 320 320;" xml:space="preserve">
<style type="text/css">
	.st0{clip-path:url(#SVGID_00000167394356120838896840000014421275760783951763_);fill:#D38D81;}
	.st1{clip-path:url(#SVGID_00000167394356120838896840000014421275760783951763_);fill:#F4BAA6;}
	.st2{clip-path:url(#SVGID_00000167394356120838896840000014421275760783951763_);fill:#E09B8D;}
	.st3{clip-path:url(#SVGID_00000167394356120838896840000014421275760783951763_);fill:#15B76D;}
	.st4{clip-path:url(#SVGID_00000167394356120838896840000014421275760783951763_);fill:#65BEEF;}
	.st5{clip-path:url(#SVGID_00000167394356120838896840000014421275760783951763_);fill:#73D4A7;}
	.st6{clip-path:url(#SVGID_00000167394356120838896840000014421275760783951763_);fill:#252525;}
</style>
<g>
	<defs>
		<rect id="SVGID_1_" width="320" height="320"/>
	</defs>
	<clipPath id="SVGID_00000010304805313805717530000016303385684099212716_">
		<use xlink:href="#SVGID_1_"  style="overflow:visible;"/>
	</clipPath>
	<path style="clip-path:url(#SVGID_00000010304805313805717530000016303385684099212716_);fill:#D38D81;" d="M76.65,167.95
		c0,1.4-0.25,2.85-0.7,4.25l-4.75,14.25c-5.75-1.25-12,0.8-15.95,5.7c-1.45,1.8-2.4,3.75-2.95,5.85l-5.3-4l13.1-39.4
		c2.55-0.6,5.3-0.4,7.95,0.65C73.35,157.35,76.65,162.5,76.65,167.95"/>
	<path style="clip-path:url(#SVGID_00000010304805313805717530000016303385684099212716_);fill:#F4BAA6;" d="M52.3,198
		c0.55-2.1,1.5-4.05,2.95-5.85c3.95-4.9,10.2-6.95,15.95-5.7c2.25,0.4,4.4,1.35,6.35,2.75l43.85,32.25
		c7.45,5.85,13.35,13.25,17.4,21.55c4,8.3,6.2,17.5,6.2,27v45H80v-20c0-9.5-4.3-18.45-11.7-24.35l-51.6-41.3
		c-3.7-2.95-6.6-6.65-8.6-10.85c-2-4.15-3.1-8.75-3.1-13.5v-75c0-4.15,1.7-7.9,4.4-10.6c2.7-2.7,6.45-4.4,10.6-4.4
		c8.3,0,15,6.7,15,15v11.85v38c0,3.25,1.5,6.3,4.1,8.25L47,194L52.3,198z"/>
	<path style="clip-path:url(#SVGID_00000010304805313805717530000016303385684099212716_);fill:#E09B8D;" d="M96.06,305
		c21.51,0,38.94-17.43,38.94-38.94V260c0-9.5-2.2-18.7-6.2-27c-1.97-4.03-4.39-7.83-7.19-11.36c7.35,5.82,13.18,13.15,17.19,21.36
		c4,8.3,6.2,17.5,6.2,27v45H80v-10H96.06z"/>
	<path style="clip-path:url(#SVGID_00000010304805313805717530000016303385684099212716_);fill:#E09B8D;" d="M58,215.1L90,240
		c-6.13,3.07-13.46,2.4-18.94-1.71L46.6,219.95c-4.16-3.12-6.6-8.01-6.6-13.21v-17.97l7,5.23l5.3,4c-0.4,1.4-0.6,2.8-0.6,4.25
		C51.7,207.1,53.85,211.9,58,215.1"/>
	<path style="clip-path:url(#SVGID_00000010304805313805717530000016303385684099212716_);fill:#E09B8D;" d="M61.5,148.1
		c0,1.5-1.4,6.5-1.4,6.5L47,194l-7.9-5.9c-2.6-1.95-4.1-5-4.1-8.25v-38c3.2-6.5,10.9-9.5,17.7-6.75
		C58.15,137.3,61.5,142.5,61.5,148.1"/>
	<path style="clip-path:url(#SVGID_00000010304805313805717530000016303385684099212716_);fill:#F4BAA6;" d="M267.7,198l5.3-4
		l7.9-5.9c2.6-1.95,4.1-5,4.1-8.25v-38V130c0-8.3,6.7-15,15-15c4.15,0,7.9,1.7,10.6,4.4c2.7,2.7,4.4,6.45,4.4,10.6v75
		c0,4.75-1.1,9.35-3.1,13.5c-2,4.2-4.9,7.9-8.6,10.85l-51.6,41.3c-7.4,5.9-11.7,14.85-11.7,24.35v20h-65v-45c0-9.5,2.2-18.7,6.2-27
		c4.05-8.3,9.95-15.7,17.4-21.55l43.85-32.25c1.95-1.4,4.1-2.35,6.35-2.75c5.75-1.25,12,0.8,15.95,5.7
		C266.2,193.95,267.15,195.9,267.7,198"/>
	<path style="clip-path:url(#SVGID_00000010304805313805717530000016303385684099212716_);fill:#E09B8D;" d="M223.94,305
		c-21.51,0-38.94-17.43-38.94-38.94V260c0-9.5,2.2-18.7,6.2-27c1.96-4.03,4.38-7.83,7.19-11.36c-7.35,5.82-13.18,13.15-17.19,21.36
		c-4,8.3-6.2,17.5-6.2,27v45h65v-10H223.94z"/>
	<path style="clip-path:url(#SVGID_00000010304805313805717530000016303385684099212716_);fill:#E09B8D;" d="M262,215.1L230,240
		c6.13,3.07,13.46,2.4,18.94-1.71l24.45-18.34c4.16-3.12,6.61-8.01,6.61-13.21v-17.97l-7,5.23l-5.3,4c0.4,1.4,0.6,2.8,0.6,4.25
		C268.3,207.1,266.15,211.9,262,215.1"/>
	<path style="clip-path:url(#SVGID_00000010304805313805717530000016303385684099212716_);fill:#E09B8D;" d="M285,141.85v38
		c0,3.25-1.5,6.3-4.1,8.25L273,194l-13.1-39.4c0,0-1.4-5-1.4-6.5c0-5.6,3.35-10.8,8.8-13C274.1,132.35,281.8,135.35,285,141.85"/>
	<path style="clip-path:url(#SVGID_00000010304805313805717530000016303385684099212716_);fill:#D38D81;" d="M259.9,154.6L273,194
		l-5.3,4c-0.55-2.1-1.5-4.05-2.95-5.85c-3.95-4.9-10.2-6.95-15.95-5.7l-4.75-14.25c-0.45-1.4-0.7-2.85-0.7-4.25
		c0-5.45,3.3-10.6,8.6-12.7C254.6,154.2,257.35,154,259.9,154.6"/>
	<path style="clip-path:url(#SVGID_00000010304805313805717530000016303385684099212716_);fill:#15B76D;" d="M111.63,102.88
		l-10.3-20.61l10.3-10.3l25.76,5.15l10.3-15.45l-10.3-25.76l5.15-10.3L134.3,9.12C100.25,20.2,75.57,52.24,75.57,90
		c0,9.38,1.49,18.34,4.33,26.74l21.43-3.55L111.63,102.88z"/>
	<path style="clip-path:url(#SVGID_00000010304805313805717530000016303385684099212716_);fill:#15B76D;" d="M168.3,149.24
		l-5.15-25.76h-20.61l-20.61,15.45l-28.23,3.5c15.56,19.83,39.72,32.56,66.87,32.56c12.11,0,23.59-2.53,34-7.11l-10.82-13.5
		L168.3,149.24z"/>
	<path style="clip-path:url(#SVGID_00000010304805313805717530000016303385684099212716_);fill:#65BEEF;" d="M194.06,97.73
		l20.61-20.61l-15.45-20.61l-15.46-5.15V30.76l21.64-12.98C192.36,9.69,177,5,160.57,5c-9.17,0-18.03,1.44-26.27,4.12l8.24,16.49
		l-5.15,10.3l10.3,25.76l-10.3,15.46l-25.76-5.15l-10.3,10.3l10.3,20.61l-10.3,10.3l-21.43,3.55c3.09,9.43,7.78,18.08,13.81,25.71
		l28.23-3.5l20.61-15.45h20.61l5.15,25.76l15.45,5.15l10.82,13.5c12.57-5.46,23.54-13.91,32.04-24.42l-22.26-14.84L194.06,97.73z"/>
	<path style="clip-path:url(#SVGID_00000010304805313805717530000016303385684099212716_);fill:#15B76D;" d="M205.39,17.78
		l-21.64,12.98v20.61l15.45,5.15l15.46,20.61l-20.61,20.6l10.3,30.91l22.25,14.84c11.85-14.63,18.96-33.18,18.96-53.47
		C245.57,59.5,229.5,32.77,205.39,17.78"/>
	<path style="clip-path:url(#SVGID_00000010304805313805717530000016303385684099212716_);fill:#73D4A7;" d="M120.57,47.5
		c0,4.14-3.36,7.5-7.5,7.5c-4.14,0-7.5-3.36-7.5-7.5c0-4.14,3.36-7.5,7.5-7.5C117.21,40,120.57,43.36,120.57,47.5"/>
	<path style="clip-path:url(#SVGID_00000010304805313805717530000016303385684099212716_);fill:#252525;" d="M124.36,217.42
		l-43.9-32.28c-0.96-0.69-1.98-1.2-2.99-1.71l3.24-9.7c0.62-1.94,0.94-3.88,0.94-5.78c0-7.59-4.72-14.56-11.76-17.35
		c-1.15-0.46-2.33-0.75-3.51-0.98c0.04-0.51,0.12-1,0.12-1.52c0-7.79-4.68-14.71-11.92-17.64c-4.85-1.96-10.07-1.69-14.57,0.25V130
		c0-11.03-8.97-20-20-20c-5.33,0-10.36,2.08-14.14,5.86C2.08,119.65,0,124.66,0,130v75c0,5.38,1.24,10.79,3.58,15.65
		c2.36,4.96,5.72,9.2,9.99,12.6l51.61,41.3C71.42,279.53,75,286.98,75,295v20c0,2.76,2.24,5,5,5h65c2.76,0,5-2.24,5-5v-45
		c0-9.99-2.31-20.08-6.71-29.19C138.89,231.77,132.39,223.72,124.36,217.42 M71.65,167.95c0,0.85-0.16,1.79-0.44,2.67l-3.51,10.53
		c-4.52,0.05-8.94,1.54-12.58,4.28l8.68-26.11c0.8,0.08,1.61,0.26,2.41,0.58C69.46,161.19,71.65,164.42,71.65,167.95 M50.83,139.74
		c3.44,1.39,5.67,4.67,5.67,8.37c0,1.06-0.14,1.99-0.43,2.83l-11.62,34.92l-2.34-1.75c-1.33-1-2.1-2.55-2.1-4.25v-36.62
		C42.27,139.67,46.83,138.12,50.83,139.74 M140,310H85v-15c0-11.07-4.95-21.37-13.57-28.25l-51.61-41.3
		c-3.08-2.45-5.5-5.51-7.21-9.11C10.9,212.8,10,208.88,10,205v-75c0-2.66,1.04-5.17,2.93-7.07c1.89-1.89,4.4-2.93,7.07-2.93
		c5.51,0,10,4.49,10,10v49.85c0,4.81,2.28,9.39,6.11,12.26l10.74,8.05c-0.07,0.69-0.15,1.38-0.15,2.09c0,6.64,3,12.77,8.23,16.79
		l32,24.9c0.91,0.71,1.99,1.05,3.07,1.05c1.49,0,2.96-0.66,3.95-1.93c1.69-2.18,1.3-5.32-0.87-7.02l-32.02-24.91
		c-2.76-2.13-4.35-5.37-4.35-8.89c0-0.98,0.13-1.92,0.41-2.87c0-0.01,0-0.03,0-0.04c0.01-0.02,0.02-0.04,0.03-0.07
		c0.39-1.49,1.05-2.8,2.01-3.98c2.64-3.28,6.97-4.82,11.19-3.92c1.48,0.26,2.93,0.9,4.26,1.85l43.73,32.15
		c6.72,5.28,12.25,12.13,15.99,19.79c3.73,7.75,5.7,16.33,5.7,24.83V310z"/>
	<path style="clip-path:url(#SVGID_00000010304805313805717530000016303385684099212716_);fill:#252525;" d="M314.14,115.86
		c-3.78-3.78-8.8-5.86-14.14-5.86c-11.03,0-20,8.97-20,20v0.71c-4.51-1.95-9.73-2.21-14.57-0.25c-7.25,2.93-11.93,9.85-11.93,17.64
		c0,0.52,0.08,1.01,0.12,1.52c-1.18,0.22-2.36,0.52-3.52,0.98c-7.03,2.79-11.75,9.76-11.75,17.35c0,1.9,0.32,3.84,0.96,5.83
		l3.22,9.66c-1.03,0.52-2.06,1.03-3.04,1.73l-43.98,32.35c-7.9,6.2-14.39,14.25-18.81,23.31c-4.39,9.09-6.7,19.18-6.7,29.17v45
		c0,2.76,2.24,5,5,5h65c2.76,0,5-2.24,5-5v-20c0-8.02,3.58-15.47,9.82-20.45l51.59-41.29c4.28-3.41,7.64-7.65,9.98-12.58
		c2.35-4.88,3.6-10.3,3.6-15.67v-75C320,124.67,317.92,119.65,314.14,115.86 M269.17,139.74c4-1.61,8.55-0.07,10.83,3.49v36.62
		c0,1.7-0.77,3.25-2.1,4.24l-2.35,1.75l-10.93-32.87c0,0-1.13-3.81-1.13-4.88C263.5,144.41,265.73,141.13,269.17,139.74
		 M253.79,159.9c0.79-0.32,1.6-0.5,2.39-0.58l8.69,26.1c-3.65-2.75-8.09-4.25-12.58-4.29l-3.49-10.46c-0.3-0.93-0.46-1.88-0.46-2.72
		C248.35,164.42,250.54,161.19,253.79,159.9 M310,205c0,3.88-0.9,7.8-2.62,11.35c-1.7,3.58-4.12,6.64-7.21,9.1l-51.6,41.29
		C239.95,273.63,235,283.93,235,295v15h-55v-40c0-8.5,1.97-17.08,5.69-24.81c3.75-7.69,9.28-14.54,15.87-19.71l43.8-32.22
		c1.38-0.99,2.83-1.63,4.49-1.93c4.05-0.87,8.35,0.67,11,3.95c0.92,1.14,1.56,2.39,1.98,3.9c0.02,0.1,0.05,0.19,0.08,0.29
		c0.25,0.93,0.38,1.84,0.38,2.78c0,3.52-1.59,6.76-4.37,8.9l-32,24.9c-2.18,1.69-2.57,4.84-0.87,7.02c1.7,2.18,4.83,2.58,7.02,0.87
		l31.98-24.89c5.24-4.04,8.25-10.17,8.25-16.81c0-0.72-0.04-1.43-0.11-2.13l10.7-8.02c3.82-2.86,6.1-7.44,6.1-12.25V130
		c0-5.51,4.49-10,10-10c2.66,0,5.17,1.04,7.06,2.93c1.9,1.89,2.94,4.4,2.94,7.07V205z"/>
	<path style="clip-path:url(#SVGID_00000010304805313805717530000016303385684099212716_);fill:#252525;" d="M230.5,146.62
		c13.13-16.21,20.07-35.79,20.07-56.62c0-31.32-15.9-59.91-42.54-76.47C193.76,4.68,177.35,0,160.57,0
		c-9.55,0-18.91,1.47-27.82,4.37h-0.01C95.56,16.46,70.57,50.88,70.57,90c0,9.78,1.54,19.31,4.57,28.29
		c3.25,9.91,8.17,19.08,14.62,27.23c17.18,21.91,42.99,34.47,70.8,34.47c12.55,0,24.67-2.53,35.99-7.52
		C209.7,166.77,221.44,157.82,230.5,146.62 M240.57,90c0,16.99-5.26,33.01-15.13,46.68l-16.88-11.25l-8.78-26.35l18.42-18.42
		c1.76-1.76,1.96-4.54,0.46-6.54l-15.45-20.61c-0.61-0.81-1.46-1.42-2.42-1.74l-12.04-4.01V33.59l16.5-9.9
		C227.41,38.62,240.57,63.17,240.57,90 M131.83,15.36l5.12,10.24l-4.03,8.07c-0.64,1.28-0.7,2.77-0.17,4.1l9.33,23.32l-6.99,10.48
		l-22.47-4.49c-1.65-0.33-3.34,0.18-4.52,1.37l-10.3,10.3c-1.52,1.52-1.9,3.85-0.94,5.77l8.69,17.38l-6.62,6.62l-15.47,2.57
		c-1.88-6.78-2.88-13.84-2.88-21.08C80.57,56.66,101.01,27.22,131.83,15.36 M86.72,120.67l15.43-2.56c1.03-0.17,1.98-0.66,2.72-1.4
		l10.3-10.3c1.52-1.52,1.9-3.85,0.94-5.77l-8.69-17.38l5.86-5.86l23.13,4.63c1.98,0.4,4.02-0.44,5.14-2.13l10.3-15.45
		c0.91-1.37,1.09-3.1,0.48-4.63l-9.47-23.67l4.15-8.29c0.7-1.41,0.7-3.06,0-4.47l-5.54-11.08c6.2-1.51,12.6-2.29,19.1-2.29
		c12.09,0,23.93,2.77,34.74,7.99l-14.13,8.48c-1.5,0.9-2.43,2.53-2.43,4.29v20.61c0,2.15,1.38,4.06,3.42,4.74l13.97,4.66
		l11.91,15.89l-17.54,17.54c-1.34,1.34-1.81,3.32-1.21,5.12l10.3,30.91c0.35,1.05,1.04,1.96,1.97,2.58L219,144.41
		c-6.59,7.08-14.42,12.92-23.07,17.19l-8.28-10.33c-0.6-0.75-1.41-1.31-2.32-1.62l-12.71-4.23l-4.59-22.92
		c-0.47-2.34-2.52-4.02-4.9-4.02h-20.6c-1.08,0-2.13,0.35-3,1L120,134.14l-23.98,2.97C92.27,132.02,89.14,126.53,86.72,120.67
		 M103.7,146.24l18.85-2.34c0.86-0.11,1.69-0.44,2.38-0.96l19.27-14.46h14.84l4.35,21.74c0.35,1.76,1.62,3.2,3.32,3.76l14.06,4.68
		l5.6,6.99c-8.25,2.84-16.89,4.34-25.81,4.34C138.94,170,118.67,161.44,103.7,146.24"/>
</g>
</svg>
