<?xml version="1.0" encoding="utf-8"?>
<!-- Generator: Adobe Illustrator 26.2.1, SVG Export Plug-In . SVG Version: 6.00 Build 0)  -->
<svg version="1.1" id="Layer_1" xmlns="http://www.w3.org/2000/svg" xmlns:xlink="http://www.w3.org/1999/xlink" x="0px" y="0px"
	 viewBox="0 0 248.65 236.75" style="enable-background:new 0 0 248.65 236.75;" xml:space="preserve">
<style type="text/css">
	.st0{fill:#65BEEF;}
	.st1{fill:#222222;}
	.st2{fill:#87CC46;}
	.st3{fill:#5BB234;}
	.st4{fill:#B9E28A;}
	.st5{fill:#549B2C;}
	.st6{fill:#FFBE1D;}
	.st7{opacity:0.6;fill:#007DC9;}
	.st8{opacity:0.5;fill:#FFFFFF;}
</style>
<g>
	<path class="st0" d="M121.28,232.61c-41.58,0-64.02-28.98-64.02-80.15c0-50.41,23.69-84.68,67.29-84.68
		c41.58,0,63.51,29.99,63.51,80.65C188.06,198.58,164.88,232.61,121.28,232.61z M124.3,204.88c15.12,0,20.67-18.15,20.67-53.43
		c0-33.52-4.28-55.7-23.69-55.7c-15.37,0-21.17,18.15-21.17,53.93C100.11,183.21,104.64,204.88,124.3,204.88z"/>
</g>
<g>
	<path class="st1" d="M121.28,236.75c-21.89,0-38.96-7.54-50.74-22.4c-11.46-14.47-17.28-35.25-17.28-61.74
		c0-54.7,27.32-88.68,71.29-88.68c42.9,0,67.51,30.85,67.51,84.65c0,26.07-6.18,47.97-17.86,63.32
		C161.83,228.16,143.52,236.75,121.28,236.75z M124.55,71.93c-39.63,0-63.29,30.16-63.29,80.68c0,24.65,5.23,43.75,15.55,56.77
		c10.18,12.85,25.14,19.37,44.47,19.37c39.32,0,62.79-29.97,62.79-80.18C184.06,99.15,162.93,71.93,124.55,71.93z M124.3,209.03
		c-24.78,0-28.2-28.45-28.2-59.19c0-28.65,2.99-57.93,25.17-57.93c24.34,0,27.69,28.69,27.69,59.7
		C148.97,180,146.04,209.03,124.3,209.03z M121.28,99.9c-7.99,0-17.17,5.68-17.17,49.93c0,36.36,5.85,51.19,20.2,51.19
		c7.76,0,16.67-5.62,16.67-49.43C140.97,114.88,135.26,99.9,121.28,99.9z"/>
</g>
<g>
	<g>
		<path class="st2" d="M179.74,10.32l-57.2,23.17C136.26-19.79,179.74,10.32,179.74,10.32z"/>
		<path class="st2" d="M65.34,10.32c0,0,43.47-30.11,57.2,23.17L65.34,10.32z"/>
		<path class="st3" d="M179.74,10.32c0,0,4.58,46.75-52.62,30.48v26.04h-9.17V40.8c-57.2,16.27-52.62-30.48-52.62-30.48l57.2,23.17
			L179.74,10.32z"/>
		<path class="st4" d="M103.29,17.08c-0.45-0.06-0.88-0.25-1.24-0.58c-6.1-5.57-13.84-4.41-13.91-4.4c-1.24,0.2-2.42-0.64-2.63-1.89
			c-0.2-1.25,0.63-2.42,1.88-2.63c0.4-0.07,9.96-1.58,17.75,5.54c0.93,0.85,1,2.3,0.15,3.24C104.76,16.93,104.01,17.17,103.29,17.08
			z"/>
		<path class="st5" d="M151.92,37.27c-1.35,0.1-2.8,0.1-4.33-0.05c-1.26-0.12-2.19-1.24-2.07-2.5c0.12-1.26,1.23-2.2,2.5-2.07
			c8.83,0.84,13.9-4.02,14.11-4.23c0.9-0.88,2.35-0.87,3.24,0.03c0.89,0.9,0.88,2.34-0.01,3.23
			C165.12,31.92,160.29,36.63,151.92,37.27z"/>
	</g>
	<g>
		<path class="st1" d="M129.66,67.6V43.92c18.4,4.73,32.31,3.28,41.39-4.3c12.49-10.43,10.89-28.39,10.81-29.15
			c-0.06-0.66-0.42-1.27-0.97-1.65c-0.8-0.56-19.85-13.53-37.41-6.99c-9.2,3.42-16.13,11.51-20.65,24.08
			c-4.52-12.57-11.45-20.66-20.65-24.08C84.62-4.71,65.58,8.28,64.77,8.83c-0.55,0.38-0.9,0.98-0.97,1.65
			c-0.08,0.76-1.68,18.71,10.81,29.15c9.08,7.58,22.99,9.02,41.39,4.3V67.6 M145.05,6.11c11.06-4.12,23.35,0.99,29.42,4.22
			l-48.15,19.5C130.35,17.24,136.64,9.25,145.05,6.11z M100.62,6.11c8.42,3.14,14.7,11.12,18.73,23.72l-48.15-19.5
			C77.27,7.1,89.56,1.99,100.62,6.11z M119.66,39.14c-0.57-0.43-1.31-0.57-1.99-0.37c-18.29,5.2-31.78,4.32-40.11-2.61
			c-7.81-6.5-9.13-16.93-9.28-22.1l53.86,21.82c0.38,0.15,1,0.15,1.38,0l53.86-21.82c-0.15,5.18-1.47,15.6-9.28,22.1
			c-8.33,6.93-21.82,7.81-40.11,2.61c-0.68-0.19-1.42-0.06-1.99,0.37c-0.57,0.43-0.9,1.1-0.9,1.81V67.6h-4.55V40.95
			C120.56,40.24,120.23,39.57,119.66,39.14z"/>
	</g>
</g>
<path class="st6" d="M76.9,173.32c23.75-0.29,44.93-2.49,50.86-3.16c4.21-0.47,26.41-3.11,50.28-8.27
	c45.06-9.75,69.05-22.48,67.54-35.85c-1.31-11.57-21.6-18.52-57.3-19.72c0.67,1.92,1.25,3.85,1.73,5.79
	c17.17,2.66,26.37,8.42,27.35,17.12c1.16,10.25-9.17,13.72-31.59,20.88c-23.52,7.51-52.77,11.05-58.39,11.69
	c-5.62,0.64-34.94,3.7-59.53,1.64c-23.45-1.97-35.41-2.92-36.57-13.17c-0.98-8.7,6.7-16.36,22.84-22.78
	c0.04-2.01,0.17-4.02,0.4-6.04c-34.53,9.13-52.76,20.44-51.45,32.01C4.58,166.83,30.69,173.85,76.9,173.32z"/>
<path class="st1" d="M73.53,179.34c-43.63,0-71.65-9.69-73.45-25.55c-1.51-13.37,17.05-25.56,53.67-35.25l4.22-1.12l-0.48,4.34
	c-0.18,1.62-0.32,5.74-0.38,8.77l-0.04,1.99l-1.85,0.74c-16.76,6.67-21.66,10.56-20.97,16.66c0.84,7.45,10.27,8.54,33.42,10.49
	l0.42,0.04c24.33,2.04,53.37-1,58.94-1.63c5.58-0.63,34.62-4.16,57.82-11.57c22.99-7.34,30.35-10.33,29.52-17.69
	c-0.67-5.96-6.47-8.64-24.83-11.49l-1.97-0.3l-0.48-1.93c-0.23-0.91-0.44-2.2-0.69-3.69c-0.29-1.76-0.66-3.95-0.97-4.84l-1.44-4.13
	l4.37,0.15c37.86,1.26,58.67,9,60.18,22.38c1.84,16.25-24.94,32.39-69.88,42.12c-24.02,5.2-46.35,7.84-50.58,8.32
	c-5.96,0.67-27.26,2.89-51.16,3.18h0C75.79,179.34,74.65,179.34,73.53,179.34z M51.27,125.44c-29.44,8.26-46.26,18.51-45.23,27.68
	c1.14,10.1,23.79,20.73,70.82,20.2l0,0c23.62-0.28,44.67-2.48,50.56-3.14c4.18-0.47,26.25-3.08,49.99-8.22
	c46.42-10.04,66.33-25.48,65.19-35.58c-1.04-9.2-19.84-15.44-50.55-16.9c0.1,0.56,0.19,1.13,0.29,1.69
	c0.07,0.44,0.15,0.89,0.22,1.31c15.12,2.43,26.56,5.49,27.79,16.41c1.45,12.86-11.02,16.84-33.66,24.08
	c-23.74,7.58-53.29,11.17-58.97,11.81c-5.67,0.64-35.23,3.73-60.12,1.65l-0.42-0.04c-24.15-2.03-37.45-3.15-38.88-15.79
	c-1.25-11.1,8.99-16.55,22.87-22.17C51.2,127.56,51.23,126.5,51.27,125.44z"/>
<path class="st7" d="M145.05,218.09c-1.67,0-3.23-1.03-3.84-2.69c-0.77-2.12,0.32-4.46,2.44-5.24c15.34-5.59,22.4-25.55,22.47-25.75
	c0.74-2.13,3.06-3.26,5.2-2.52c2.13,0.74,3.26,3.06,2.52,5.2c-0.34,0.97-8.44,23.84-27.39,30.75
	C145.99,218.01,145.52,218.09,145.05,218.09z"/>
<path class="st8" d="M104.9,81.69c1.67,0,3.23,1.03,3.84,2.69c0.77,2.12-0.32,4.46-2.44,5.24c-15.34,5.59-22.4,25.55-22.47,25.75
	c-0.74,2.13-3.06,3.26-5.2,2.52c-2.13-0.74-3.26-3.06-2.52-5.2c0.34-0.97,8.44-23.84,27.39-30.75
	C103.96,81.77,104.43,81.69,104.9,81.69z"/>
</svg>
