<?xml version="1.0" encoding="utf-8"?>
<!-- Generator: Adobe Illustrator 26.2.1, SVG Export Plug-In . SVG Version: 6.00 Build 0)  -->
<svg version="1.1" id="Layer_3" xmlns="http://www.w3.org/2000/svg" xmlns:xlink="http://www.w3.org/1999/xlink" x="0px" y="0px"
	 viewBox="0 0 52 55" style="enable-background:new 0 0 52 55;" xml:space="preserve">
<style type="text/css">
	.st0{fill:#FF8C00;}
	.st1{fill:#EF5700;}
	.st2{fill:#FFFFFF;}
	.st3{fill:#CCDCFF;}
	.st4{fill:none;stroke:#000000;stroke-width:2;stroke-linecap:round;stroke-linejoin:round;stroke-miterlimit:10;}
	.st5{fill:#FFE0B8;}
	.st6{fill:#FEBA6F;}
	.st7{fill:#FEBA6F;stroke:#000000;stroke-width:2;stroke-linecap:round;stroke-linejoin:round;stroke-miterlimit:10;}
	.st8{fill:#FFE0B8;stroke:#000000;stroke-width:2;stroke-linecap:round;stroke-linejoin:round;stroke-miterlimit:10;}
	.st9{fill:#B1681E;}
	.st10{fill:#864008;}
</style>
<g>
	<g>
		<path class="st0" d="M22,38L8.63,42.93C5.25,44.17,3,47.4,3,51v3h46v-3c0-3.61-2.25-6.83-5.63-8.07L30,38H22z"/>
		<path class="st1" d="M49,51c0-3.61-2.25-6.83-5.63-8.07L30,38h-4v2h1l13.37,4.93C43.75,46.17,46,49.4,46,53v1h3V51z"/>
		<path class="st2" d="M22,38L8.63,42.93C5.25,44.17,3,47.4,3,51v3h3v-1c0-3.61,2.25-6.83,5.63-8.07L25,40h1v-2H22z"/>
		<path class="st2" d="M26,49c5.12,0,9.34-3.85,9.93-8.82L30,38h-8l-5.93,2.18C16.66,45.15,20.88,49,26,49z"/>
		<path class="st3" d="M30,41l5.2,1.92c0.36-0.86,0.61-1.77,0.73-2.73L30,38h-8l-5.93,2.18c0.11,0.96,0.36,1.88,0.73,2.73L22,41H30z
			"/>
		<path class="st4" d="M26,49c5.12,0,9.34-3.85,9.93-8.82L30,38h-8l-5.93,2.18C16.66,45.15,20.88,49,26,49z"/>
		<path class="st4" d="M49,54v-3c0-3.61-2.25-6.83-5.63-8.07L30,38h-8L8.63,42.93c-0.91,0.34-1.74,0.82-2.47,1.41"/>
		<path class="st4" d="M4.3,46.46c-0.21,0.33-0.39,0.68-0.55,1.04"/>
		<path class="st4" d="M3.04,50.17C3.01,50.44,3,50.72,3,51v3"/>
		<line class="st4" x1="51" y1="54" x2="43" y2="54"/>
		<line class="st4" x1="39" y1="54" x2="1" y2="54"/>
	</g>
	<g>
		<path class="st5" d="M26,45c3.31,0,6-2.69,6-6v-6H20v6C20,42.31,22.69,45,26,45z"/>
		<path class="st6" d="M26,40c2.39,0,4.53-1.05,6-2.71V33H20v4.29C21.47,38.95,23.61,40,26,40z"/>
		<path class="st4" d="M20,33v6c0,3.31,2.69,6,6,6s6-2.69,6-6v-6"/>
	</g>
	<g>
		<path class="st7" d="M39.5,19c-1.38,0-2.5,1.12-2.5,2.5V27h1c2.49,0,4.5-2.1,4.5-4.7C42.5,20.48,41.16,19,39.5,19z"/>
		<path class="st8" d="M12.5,19c1.38,0,2.5,1.12,2.5,2.5V27h-1c-2.49,0-4.5-2.1-4.5-4.7C9.5,20.48,10.84,19,12.5,19z"/>
		<path class="st5" d="M26,38c1.37,0,2.73-0.25,4.03-0.76C35.31,35.16,39,29.99,39,24v-8c0-3.87-3.13-7-7-7H20c-3.87,0-7,3.13-7,7v8
			c0,5.99,3.69,11.16,8.97,13.24C23.27,37.75,24.63,38,26,38z"/>
		<path class="st6" d="M32,9H20c-3.87,0-7,3.13-7,7v8c0,5.62,3.24,10.51,8,12.81c0-2.79,0-4.81,0-4.81c0-9.37,1.52-14.91,7-20
			c1.36,4.77,5.98,8.97,11,10.45V16C39,12.13,35.87,9,32,9z"/>
		<path class="st6" d="M39,16c0-3.87-3.13-7-7-7h-3c3.87,0,7,3.13,7,7v8c0,5.99-3.69,11.16-8.97,13.24
			c-0.82,0.32-1.67,0.54-2.53,0.66c0.5,0.07,1,0.1,1.5,0.1c1.37,0,2.73-0.25,4.03-0.76C35.31,35.16,39,29.99,39,24V16z"/>
		<path class="st6" d="M16,24v-8c0-3.87,3.13-7,7-7h-3c-3.87,0-7,3.13-7,7v8c0,5.99,3.69,11.16,8.97,13.24
			C23.27,37.75,24.63,38,26,38c0.5,0,1-0.03,1.5-0.1c-0.86-0.12-1.71-0.34-2.53-0.66C19.69,35.16,16,29.99,16,24z"/>
		<path class="st4" d="M26,38c1.37,0,2.73-0.25,4.03-0.76C35.31,35.16,39,29.99,39,24v-8c0-3.87-3.13-7-7-7H20c-3.87,0-7,3.13-7,7v8
			c0,5.99,3.69,11.16,8.97,13.24C23.27,37.75,24.63,38,26,38z"/>
		<path class="st4" d="M29,31c0,1.1-0.9,2-2,2h-2"/>
		<path class="st6" d="M26.5,29c0.72,0,1.3-0.36,1.3-0.8c0-0.11-0.09-0.2-0.2-0.2h-3.2c-0.11,0-0.2,0.09-0.2,0.2
			c0,0.44,0.58,0.8,1.3,0.8H26.5z"/>
		<path class="st6" d="M35,26.5c0-0.83-0.67-1.5-1.5-1.5c-0.18,0-0.82,0-1,0c-0.83,0-1.5,0.67-1.5,1.5s0.67,1.5,1.5,1.5
			c0.18,0,0.82,0,1,0C34.33,28,35,27.33,35,26.5z"/>
		<path class="st6" d="M17,26.5c0-0.83,0.67-1.5,1.5-1.5c0.18,0,0.82,0,1,0c0.83,0,1.5,0.67,1.5,1.5S20.33,28,19.5,28
			c-0.18,0-0.82,0-1,0C17.67,28,17,27.33,17,26.5z"/>
		<path d="M32.5,21c0.83,0,1.5,0.67,1.5,1.5S33.33,24,32.5,24c-0.65,0-1.21-0.42-1.41-1H30c-0.55,0-1-0.45-1-1s0.45-1,1-1H32.5z"/>
		<path d="M20.5,21c0.83,0,1.5,0.67,1.5,1.5S21.33,24,20.5,24c-0.65,0-1.21-0.42-1.41-1H18c-0.55,0-1-0.45-1-1s0.45-1,1-1H20.5z"/>
	</g>
	<g>
		<path class="st9" d="M26,1C16.61,1,9,8.61,9,18v24c0,3.02,1.84,5.74,4.64,6.86L19,51l0-21c0-9.37,3.52-14.91,9-20
			c1.66,5.8,8.11,10.75,14.26,11.01c0.15,0.4,0.24,0.83,0.24,1.29c0,2.35-1.65,4.3-3.8,4.64c-0.83,3.97-3.3,7.34-6.7,9.33v2.46
			l11,4.05V21v-3C43,8.61,35.39,1,26,1z"/>
		<path class="st10" d="M29.86,1.44C35.83,4.08,40,10.05,40,17v3v0.71c0.75,0.16,1.51,0.27,2.26,0.3c0.15,0.4,0.24,0.83,0.24,1.29
			c0,1.85-1.02,3.44-2.5,4.21v15.17l3,1.11V21v-3C43,9.94,37.39,3.19,29.86,1.44z"/>
		<path class="st2" d="M12,43V19c0-9.39,7.61-17,17-17c1.33,0,2.62,0.15,3.86,0.44C30.76,1.51,28.44,1,26,1C16.61,1,9,8.61,9,18v24
			c0,3.02,1.84,5.74,4.64,6.86L19,51c0,0,0-0.07,0-0.2l-2.36-0.94C13.84,48.74,12,46.02,12,43z"/>
		<path class="st4" d="M39.54,7.72c-0.2-0.26-0.41-0.52-0.62-0.77"/>
		<path class="st4" d="M36.78,4.85C33.84,2.44,30.09,1,26,1C16.61,1,9,8.61,9,18v24c0,3.02,1.84,5.74,4.64,6.86L19,51l0-21
			c0-9.37,3.52-14.91,9-20c1.66,5.8,8.11,10.75,14.26,11.01c0.15,0.4,0.24,0.83,0.24,1.29c0,2.35-1.65,4.3-3.8,4.64
			c-0.83,3.97-3.3,7.34-6.7,9.33v2.46l11,4.05V21v-3c0-2.84-0.69-5.51-1.92-7.86"/>
	</g>
</g>
</svg>
