<?xml version="1.0" encoding="utf-8"?>
<!-- Generator: Adobe Illustrator 26.2.1, SVG Export Plug-In . SVG Version: 6.00 Build 0)  -->
<svg version="1.1" id="Isolation_Mode" xmlns="http://www.w3.org/2000/svg" xmlns:xlink="http://www.w3.org/1999/xlink" x="0px"
	 y="0px" viewBox="0 0 287.32 263" style="enable-background:new 0 0 287.32 263;" xml:space="preserve">
<style type="text/css">
	.st0{fill:#C4BBA0;stroke:#252525;stroke-width:8;stroke-linecap:round;stroke-linejoin:round;stroke-miterlimit:10;}
	.st1{fill:#E8DEBF;stroke:#252525;stroke-width:8;stroke-linecap:round;stroke-linejoin:round;stroke-miterlimit:10;}
	.st2{fill:#15B76D;}
	.st3{fill:#65BEEF;}
	.st4{fill:#73D4A7;}
	.st5{fill:#252525;}
</style>
<path class="st0" d="M253.11,259H57.42c-16.69,0-30.22-13.53-30.22-30.22V59.22C27.2,42.53,40.73,29,57.42,29h195.69
	c16.69,0,30.22,13.53,30.22,30.22v169.57C283.32,245.47,269.79,259,253.11,259z"/>
<g>
	<path class="st1" d="M69,4h155c16.55,0,30,13.45,30,30v170c0,16.55-13.45,30-30,30H109H44H34c-8.3,0-15.8-3.35-21.2-8.8
		C7.35,219.8,4,212.3,4,204V34C4,17.45,17.45,4,34,4h25H69z M62.15,171.45C77.7,191.3,101.85,204,129,204c12.1,0,23.6-2.5,34-7.1
		c12.55-5.45,23.55-13.9,32.05-24.45C206.9,157.85,214,139.3,214,119c0-30.5-16.05-57.25-40.2-72.2C160.8,38.7,145.45,34,129,34
		c-9.15,0-18.05,1.45-26.25,4.1C68.7,49.2,44,81.25,44,119c0,9.4,1.5,18.35,4.35,26.75C51.4,155.15,56.1,163.8,62.15,171.45z"/>
	<path class="st2" d="M173.8,46.8C197.95,61.75,214,88.5,214,119c0,20.3-7.1,38.85-18.95,53.45l-22.25-14.8l-10.3-30.9l20.6-20.65
		l-15.45-20.6l-15.45-5.15v-20.6L173.8,46.8z"/>
	<path class="st3" d="M173.8,46.8l-21.6,12.95v20.6l15.45,5.15l15.45,20.6l-20.6,20.65l10.3,30.9l22.25,14.8
		c-8.5,10.55-19.5,19-32.05,24.45l-10.8-13.5l-15.45-5.15l-5.15-25.75h-20.65l-20.6,15.45l-28.2,3.5
		c-6.05-7.65-10.75-16.3-13.8-25.7l21.4-3.55l10.3-10.3l-10.3-20.65l10.3-10.3l25.75,5.15l10.3-15.45L105.8,64.9l5.15-10.3
		l-8.2-16.5c8.2-2.65,17.1-4.1,26.25-4.1C145.45,34,160.8,38.7,173.8,46.8z"/>
	<path class="st2" d="M129,204c-27.15,0-51.3-12.7-66.85-32.55l28.2-3.5l20.6-15.45h20.65l5.15,25.75l15.45,5.15l10.8,13.5
		C152.6,201.5,141.1,204,129,204z"/>
	<path class="st2" d="M105.8,64.9l10.3,25.75l-10.3,15.45l-25.75-5.15l-10.3,10.3l10.3,20.65l-10.3,10.3l-21.4,3.55
		C45.5,137.35,44,128.4,44,119c0-37.75,24.7-69.8,58.75-80.9l8.2,16.5L105.8,64.9z"/>
	<circle class="st4" cx="86.5" cy="76.5" r="7.5"/>
</g>
<path class="st5" d="M176.44,42.56C162.21,33.69,145.8,29,129,29c-9.52,0-18.87,1.46-27.79,4.34c0,0-0.01,0-0.01,0
	C64,45.47,39,79.9,39,119c0,9.79,1.55,19.33,4.59,28.29c3.2,9.85,8.12,19.02,14.62,27.24C75.37,196.44,101.18,209,129,209
	c12.61,0,24.73-2.53,35.99-7.51c13.16-5.72,24.9-14.67,33.94-25.89C212.06,159.43,219,139.85,219,119
	C219,87.63,203.09,59.05,176.44,42.56z M100.27,44.35l5.09,10.25l-4.04,8.07c-0.64,1.28-0.7,2.77-0.17,4.09l9.32,23.31l-6.98,10.48
	l-22.47-4.49c-1.64-0.33-3.33,0.18-4.52,1.37l-10.3,10.3c-1.52,1.52-1.9,3.84-0.94,5.77l8.69,17.43l-6.62,6.62l-15.45,2.56
	C50.01,133.31,49,126.25,49,119C49,85.68,69.45,56.23,100.27,44.35z M72.13,175.25l18.83-2.34c0.87-0.11,1.69-0.44,2.39-0.96
	l19.27-14.45h14.88l4.35,21.73c0.35,1.76,1.62,3.2,3.32,3.76l14.05,4.68l5.6,7c-8.22,2.83-16.87,4.33-25.82,4.33
	C107.36,199,87.09,190.45,72.13,175.25z M164.36,190.6l-8.26-10.33c-0.6-0.75-1.41-1.32-2.32-1.62l-12.7-4.23l-4.58-22.91
	c-0.47-2.34-2.52-4.02-4.9-4.02h-20.65c-1.08,0-2.13,0.35-3,1l-19.54,14.65l-23.95,2.97c-3.77-5.13-6.9-10.61-9.3-16.44l15.41-2.56
	c1.03-0.17,1.98-0.66,2.72-1.4l10.3-10.3c1.52-1.52,1.9-3.84,0.94-5.77l-8.69-17.43l5.86-5.86l23.12,4.62c2,0.4,4.02-0.44,5.14-2.13
	l10.3-15.45c0.91-1.37,1.09-3.1,0.48-4.63l-9.47-23.66l4.15-8.29c0.7-1.4,0.7-3.06,0-4.46l-5.51-11.09
	C116.11,39.78,122.51,39,129,39c12.1,0,23.94,2.78,34.73,8l-14.1,8.46c-1.51,0.91-2.43,2.53-2.43,4.29v20.6
	c0,2.15,1.38,4.06,3.42,4.74l13.97,4.66l11.91,15.89l-17.54,17.58c-1.34,1.34-1.8,3.32-1.2,5.11l10.3,30.9
	c0.35,1.06,1.05,1.97,1.98,2.58l17.41,11.58C180.85,180.49,173.03,186.33,164.36,190.6z M193.87,165.66L177,154.44l-8.78-26.34
	l18.42-18.47c1.76-1.76,1.95-4.54,0.46-6.53l-15.45-20.6c-0.61-0.81-1.45-1.42-2.42-1.74l-12.03-4.01V62.58l16.47-9.87
	C195.83,67.58,209,92.12,209,119C209,136,203.75,152.02,193.87,165.66z"/>
<path class="st5" d="M24,49c-2.76,0-5,2.24-5,5v50c0,2.76,2.24,5,5,5c2.76,0,5-2.24,5-5V54C29,51.24,26.76,49,24,49z"/>
<path class="st5" d="M234,129c-2.76,0-5,2.24-5,5v50c0,2.76,2.24,5,5,5c2.76,0,5-2.24,5-5v-50C239,131.24,236.76,129,234,129z"/>
<circle class="st5" cx="24" cy="34" r="5"/>
<circle class="st5" cx="234" cy="204" r="5"/>
</svg>
