<?xml version="1.0" encoding="utf-8"?>
<!-- Generator: Adobe Illustrator 26.2.1, SVG Export Plug-In . SVG Version: 6.00 Build 0)  -->
<svg version="1.1" id="Layer_1" xmlns="http://www.w3.org/2000/svg" xmlns:xlink="http://www.w3.org/1999/xlink" x="0px" y="0px"
	 viewBox="0 0 250 320" style="enable-background:new 0 0 250 320;" xml:space="preserve">
<style type="text/css">
	.st0{clip-path:url(#SVGID_00000178927161804343023660000003637596259639599761_);fill:#BCAB86;}
	.st1{clip-path:url(#SVGID_00000178927161804343023660000003637596259639599761_);fill:#D6C9A5;}
	.st2{clip-path:url(#SVGID_00000178927161804343023660000003637596259639599761_);fill:#808080;}
	.st3{clip-path:url(#SVGID_00000178927161804343023660000003637596259639599761_);fill:#B3B3B3;}
	.st4{clip-path:url(#SVGID_00000178927161804343023660000003637596259639599761_);fill:#E8DEBF;}
	.st5{clip-path:url(#SVGID_00000178927161804343023660000003637596259639599761_);fill:#47A3E2;}
	.st6{clip-path:url(#SVGID_00000178927161804343023660000003637596259639599761_);fill:#8C6239;}
	.st7{clip-path:url(#SVGID_00000178927161804343023660000003637596259639599761_);fill:#87CC46;}
	.st8{clip-path:url(#SVGID_00000178927161804343023660000003637596259639599761_);fill:#5BB234;}
	.st9{clip-path:url(#SVGID_00000178927161804343023660000003637596259639599761_);fill:#65BEEF;}
	.st10{clip-path:url(#SVGID_00000178927161804343023660000003637596259639599761_);fill:#252525;}
</style>
<g>
	<defs>
		<rect id="SVGID_1_" width="250" height="320"/>
	</defs>
	<clipPath id="SVGID_00000054945839492118879220000013649685691420833437_">
		<use xlink:href="#SVGID_1_"  style="overflow:visible;"/>
	</clipPath>
	<path style="clip-path:url(#SVGID_00000054945839492118879220000013649685691420833437_);fill:#BCAB86;" d="M245,290v9.99
		c0,8.29-6.72,15.01-15.01,15.01H20.01C11.72,315,5,308.28,5,299.99V290H245z"/>
	<path style="clip-path:url(#SVGID_00000054945839492118879220000013649685691420833437_);fill:#D6C9A5;" d="M245,35.01V45h-70V20
		h54.99C238.28,20,245,26.72,245,35.01"/>
	<path style="clip-path:url(#SVGID_00000054945839492118879220000013649685691420833437_);fill:#D6C9A5;" d="M75,20v25H5v-9.99
		C5,26.72,11.72,20,20.01,20H75z"/>
	
		<rect x="100" y="5" style="clip-path:url(#SVGID_00000054945839492118879220000013649685691420833437_);fill:#808080;" width="50" height="25"/>
	<path style="clip-path:url(#SVGID_00000054945839492118879220000013649685691420833437_);fill:#B3B3B3;" d="M175,45v10H75V45V20
		c0-8.28,6.72-15,15-15h10v25h50V5h10c8.28,0,15,6.72,15,15V45z"/>
	<path style="clip-path:url(#SVGID_00000054945839492118879220000013649685691420833437_);fill:#E8DEBF;" d="M192.15,229.85
		c14.2-15.9,22.85-36.9,22.85-59.85c0-6.25-0.65-12.4-1.9-18.3c9.25-17.35,6.75-37.85,6.75-37.85s-17.55-12-38.05-13.65
		C166.3,87.55,146.55,80,125,80s-41.35,7.55-56.8,20.2c-20.5,1.65-38.05,13.65-38.05,13.65s-2.5,20.5,6.75,37.85
		c-1.25,5.9-1.9,12.05-1.9,18.3c0,22.95,8.65,43.95,22.85,59.85C74.25,248.35,98.25,260,125,260S175.75,248.35,192.15,229.85
		 M245,45v245H5V45h70v10h100V45H245z"/>
	<path style="clip-path:url(#SVGID_00000054945839492118879220000013649685691420833437_);fill:#47A3E2;" d="M115,170v35
		c-28.95,0-47.6,14.5-57.15,24.85C43.65,213.95,35,192.95,35,170c0-6.25,0.65-12.4,1.9-18.3C46.15,169.15,67.35,183.4,115,170"/>
	<path style="clip-path:url(#SVGID_00000054945839492118879220000013649685691420833437_);fill:#8C6239;" d="M192.15,229.85
		C175.75,248.35,151.75,260,125,260s-50.75-11.65-67.15-30.15C67.4,219.5,86.05,205,115,205v20c0,5.5,4.5,10,10,10
		c2.75,0,5.25-1.1,7.05-2.95c1.85-1.8,2.95-4.3,2.95-7.05v-20C163.95,205,182.6,219.5,192.15,229.85"/>
	<path style="clip-path:url(#SVGID_00000054945839492118879220000013649685691420833437_);fill:#47A3E2;" d="M213.1,151.7
		c1.25,5.9,1.9,12.05,1.9,18.3c0,22.95-8.65,43.95-22.85,59.85C182.6,219.5,163.95,205,135,205v-35
		C182.65,183.4,203.85,169.15,213.1,151.7"/>
	<path style="clip-path:url(#SVGID_00000054945839492118879220000013649685691420833437_);fill:#87CC46;" d="M181.8,100.2
		c20.5,1.65,38.05,13.65,38.05,13.65L125,151.8C136.55,107.6,160.75,98.45,181.8,100.2"/>
	<path style="clip-path:url(#SVGID_00000054945839492118879220000013649685691420833437_);fill:#5BB234;" d="M213.1,151.7
		c-9.25,17.45-30.45,31.7-78.1,18.3v35v20c0,2.75-1.1,5.25-2.95,7.05c-1.8,1.85-4.3,2.95-7.05,2.95c-5.5,0-10-4.5-10-10v-20v-35
		c-47.65,13.4-68.85-0.85-78.1-18.3c-9.25-17.35-6.75-37.85-6.75-37.85L125,151.8l94.85-37.95
		C219.85,113.85,222.35,134.35,213.1,151.7"/>
	<path style="clip-path:url(#SVGID_00000054945839492118879220000013649685691420833437_);fill:#87CC46;" d="M68.2,100.2
		c21.05-1.75,45.25,7.4,56.8,51.6l-94.85-37.95C30.15,113.85,47.7,101.85,68.2,100.2"/>
	<path style="clip-path:url(#SVGID_00000054945839492118879220000013649685691420833437_);fill:#65BEEF;" d="M181.8,100.2
		c-21.05-1.75-45.25,7.4-56.8,51.6c-11.55-44.2-35.75-53.35-56.8-51.6C83.65,87.55,103.45,80,125,80S166.3,87.55,181.8,100.2"/>
	<path style="clip-path:url(#SVGID_00000054945839492118879220000013649685691420833437_);fill:#252525;" d="M229.99,15h-50.7
		c-2.24-8.6-10-15-19.29-15H90c-9.29,0-17.05,6.4-19.29,15H20.01C8.98,15,0,23.98,0,35.02v264.97C0,311.02,8.98,320,20.01,320
		h209.97c11.03,0,20.01-8.98,20.01-20.02V35.02C250,23.98,241.02,15,229.99,15 M10,50h60v5c0,2.76,2.24,5,5,5h100c2.76,0,5-2.24,5-5
		v-5h60v235H10V50z M240,35.02V40h-60V25h49.99C235.51,25,240,29.49,240,35.02 M105,10h40v15h-40V10z M90,10h5v20c0,2.76,2.24,5,5,5
		h50c2.76,0,5-2.24,5-5V10h5c5.51,0,10,4.49,10,10v30H80V20C80,14.49,84.48,10,90,10 M20.01,25H70v15H10v-4.98
		C10,29.49,14.49,25,20.01,25 M229.99,310H20.01C14.49,310,10,305.51,10,299.98V295h230v4.98C240,305.51,235.51,310,229.99,310"/>
	<path style="clip-path:url(#SVGID_00000054945839492118879220000013649685691420833437_);fill:#252525;" d="M222.67,109.72
		c-0.76-0.52-18.9-12.77-40.46-14.5c-18.88-1.61-43.08,4.69-57.21,40.37c-14.14-35.68-38.35-41.93-57.2-40.38
		c-21.58,1.74-39.71,13.99-40.47,14.51c-1.19,0.81-1.97,2.1-2.14,3.52c-0.11,0.9-2.58,22.28,7.3,40.8
		c8.95,16.88,29.65,34.03,77.52,22.44v23.68c-24.86,1.4-41.98,13.02-51.74,22.19c-6.72-8.56-11.91-18.35-14.92-28.74
		c-0.77-2.65-3.56-4.15-6.19-3.41c-2.65,0.77-4.18,3.54-3.41,6.2c3.92,13.52,10.97,26.24,20.37,36.77c0.11,0.12,0.24,0.23,0.35,0.36
		c0,0,0,0,0,0C72.38,253.52,98.05,265,125,265c26.96,0,52.63-11.48,70.54-31.48c0,0,0,0,0,0c0,0,0,0,0,0
		c0.11-0.12,0.23-0.22,0.34-0.34c9.42-10.55,16.47-23.27,20.39-36.79c0.77-2.65-0.76-5.43-3.41-6.2c-2.64-0.75-5.42,0.76-6.19,3.41
		c-3.01,10.39-8.19,20.17-14.92,28.74c-9.76-9.17-26.88-20.78-51.74-22.18v-23.68c47.86,11.59,68.57-5.56,77.51-22.43
		c9.88-18.53,7.41-39.91,7.3-40.81C224.64,111.82,223.86,110.53,222.67,109.72 M181.4,105.19c10.49,0.84,20.22,4.66,26.87,7.91
		l-75.43,30.18C142.34,116.13,158.6,103.29,181.4,105.19 M68.61,105.18c22.77-1.81,39.04,10.97,48.54,38.1L41.73,113.1
		C48.39,109.84,58.11,106.03,68.61,105.18 M185.13,229.86C169.3,245.83,147.69,255,125,255c-22.68,0-44.28-9.16-60.13-25.14
		c8.46-8.02,23.38-18.3,45.13-19.69V225c0,8.27,6.73,15,15,15c4.05,0,7.83-1.58,10.54-4.37c2.87-2.8,4.46-6.58,4.46-10.63v-14.84
		C161.75,211.56,176.67,221.84,185.13,229.86 M136.35,165.19c-1.5-0.41-3.12-0.12-4.37,0.83c-1.25,0.94-1.98,2.42-1.98,3.98v55
		c0,1.33-0.51,2.56-1.53,3.57c-0.9,0.92-2.13,1.43-3.47,1.43c-2.76,0-5-2.24-5-5v-55c0-1.57-0.73-3.04-1.98-3.98
		c-0.88-0.67-2.38-1.5-4.37-0.83c-36.93,10.38-61.26,5.05-72.34-15.84c-5.32-9.98-6.37-21.25-6.44-28.22l88.58,35.44
		c0.85,0.34,2.25,0.34,3.11,0l88.58-35.44c-0.07,6.97-1.12,18.24-6.45,28.23C197.62,170.24,173.28,175.58,136.35,165.19"/>
	<path style="clip-path:url(#SVGID_00000054945839492118879220000013649685691420833437_);fill:#252525;" d="M25,255h15
		c2.76,0,5-2.24,5-5s-2.24-5-5-5H25c-2.76,0-5,2.24-5,5S22.24,255,25,255"/>
	<path style="clip-path:url(#SVGID_00000054945839492118879220000013649685691420833437_);fill:#252525;" d="M55,265H25
		c-2.76,0-5,2.24-5,5s2.24,5,5,5h30c2.76,0,5-2.24,5-5S57.76,265,55,265"/>
	<path style="clip-path:url(#SVGID_00000054945839492118879220000013649685691420833437_);fill:#252525;" d="M225,80h-15
		c-2.76,0-5,2.24-5,5c0,2.76,2.24,5,5,5h15c2.76,0,5-2.24,5-5C230,82.24,227.76,80,225,80"/>
	<path style="clip-path:url(#SVGID_00000054945839492118879220000013649685691420833437_);fill:#252525;" d="M195,70h30
		c2.76,0,5-2.24,5-5c0-2.76-2.24-5-5-5h-30c-2.76,0-5,2.24-5,5C190,67.76,192.24,70,195,70"/>
	<path style="clip-path:url(#SVGID_00000054945839492118879220000013649685691420833437_);fill:#252525;" d="M125,110
		c2.76,0,5-2.24,5-5c0-2.76-2.24-5-5-5c-2.76,0-5,2.24-5,5C120,107.76,122.24,110,125,110"/>
	<path style="clip-path:url(#SVGID_00000054945839492118879220000013649685691420833437_);fill:#252525;" d="M125,90
		c2.76,0,5-2.24,5-5c0-2.76-2.24-5-5-5c-2.76,0-5,2.24-5,5C120,87.76,122.24,90,125,90"/>
</g>
</svg>
