<?xml version="1.0" encoding="utf-8"?>
<!-- Generator: Adobe Illustrator 26.2.1, SVG Export Plug-In . SVG Version: 6.00 Build 0)  -->
<svg version="1.1" id="Layer_1" xmlns="http://www.w3.org/2000/svg" xmlns:xlink="http://www.w3.org/1999/xlink" x="0px" y="0px"
	 viewBox="0 0 313.46 231.54" style="enable-background:new 0 0 313.46 231.54;" xml:space="preserve">
<style type="text/css">
	.st0{fill:#40BD60;}
	.st1{fill:#5BB234;}
	.st2{fill:#65BEEF;}
	.st3{fill:#222222;}
	.st4{fill:#87CC46;}
	.st5{fill:#252525;}
	.st6{opacity:0.5;fill:none;stroke:#FFFFFF;stroke-width:8;stroke-linecap:round;stroke-linejoin:round;stroke-miterlimit:10;}
</style>
<g>
	<path class="st0" d="M76.9,169.29H36.25v31.48H76.9c6.49,0,11.76,5.26,11.76,11.76v0.9c0,6.49-5.26,11.76-11.76,11.76H15.52
		c-6.09,0-11.02-4.93-11.02-11.02V104.52c0-6.09,4.93-11.02,11.02-11.02H76.9c6.49,0,11.76,5.26,11.76,11.76v0.99
		c0,6.49-5.26,11.76-11.76,11.76H36.25v27.77H76.9c6.49,0,11.76,5.26,11.76,11.76l0,0C88.65,164.03,83.39,169.29,76.9,169.29z"/>
</g>
<path class="st1" d="M308.96,195.56c0,10.46-6.13,19.95-15.68,24.22c-1.82,0.81-3.73,1.57-5.76,2.29
	c-9.41,3.32-19.72,4.97-30.93,4.97c-17.25,0-31.02-5.28-41.33-15.83c-10.31-10.55-15.83-25.24-16.55-44.05l-0.09-11.4
	c0-12.96,2.29-24.29,6.87-33.96c4.58-9.68,11.14-17.12,19.67-22.34c8.53-5.21,18.41-7.82,29.62-7.82c16.4,0,29.14,3.75,38.21,11.26
	c3.89,3.21,7.08,7.11,9.58,11.67c5.4,9.87-1.77,21.93-13.02,21.93h0c-5.96,0-11.31-3.58-13.66-9.06c-1.2-2.81-2.75-5.04-4.65-6.68
	c-3.62-3.13-8.74-4.7-15.38-4.7c-7.96,0-14.11,3.38-18.45,10.13c-4.34,6.75-6.54,16.4-6.6,28.94v7.96c0,13.15,2.25,23.02,6.74,29.62
	c4.49,6.6,11.56,9.9,21.21,9.9c8.26,0,14.41-1.84,18.45-5.52v-20.44h-11.17c-6.02,0-10.9-4.88-10.9-10.9l0,0
	c0-6.02,4.88-10.9,10.9-10.9h31.03c6.56,0,11.88,5.32,11.88,11.88V195.56z"/>
<path class="st2" d="M161.66,190.19c0-4.64-1.64-8.26-4.93-10.85c-3.29-2.59-9.06-5.28-17.32-8.05c-8.26-2.77-15.01-5.46-20.26-8.05
	c-17.06-8.38-25.6-19.9-25.6-34.55c0-7.3,2.13-13.73,6.38-19.31c4.25-5.58,10.27-9.92,18.04-13.02c7.78-3.1,16.52-4.66,26.23-4.66
	c9.47,0,17.95,1.69,25.46,5.07c7.51,3.38,13.34,8.19,17.5,14.43c0.04,0.06,0.08,0.12,0.12,0.19c5.99,9.1-0.56,21.2-11.45,21.2h-3.24
	c-5.34,0-10.18-3.12-12.43-7.96c-0.81-1.73-1.92-3.24-3.35-4.52c-3.29-2.95-7.73-4.43-13.34-4.43c-5.67,0-10.15,1.25-13.43,3.75
	c-3.29,2.5-4.93,5.68-4.93,9.54c0,3.38,1.81,6.44,5.43,9.18c3.62,2.74,9.98,5.58,19.08,8.5c9.1,2.93,16.58,6.08,22.43,9.45
	c14.23,8.2,21.35,19.51,21.35,33.92c0,11.52-4.34,20.56-13.02,27.13c-8.68,6.57-20.59,9.86-35.73,9.86
	c-10.67,0-20.34-1.91-28.99-5.74c-8.65-3.83-15.17-9.07-19.54-15.74c-0.59-0.91-1.15-1.83-1.66-2.77
	c-4.97-9.13,1.63-20.25,12.02-20.25h3.44c5.81,0,10.92,3.71,12.84,9.19c0.91,2.6,2.28,4.74,4.1,6.41c3.65,3.35,9.57,5.02,17.77,5.02
	c5.25,0,9.39-1.13,12.44-3.39C160.13,197.47,161.66,194.29,161.66,190.19z"/>
<g>
	<path class="st3" d="M76.9,229.69H15.52C6.96,229.69,0,222.73,0,214.17V104.52C0,95.96,6.96,89,15.52,89H76.9
		c8.96,0,16.26,7.29,16.26,16.26v1c0,8.96-7.29,16.26-16.26,16.26H40.75v18.77H76.9c8.96,0,16.26,7.29,16.26,16.26
		s-7.29,16.26-16.26,16.26H40.75v22.48H76.9c8.96,0,16.26,7.29,16.26,16.26v0.9C93.15,222.4,85.86,229.69,76.9,229.69z M15.52,98
		C11.92,98,9,100.92,9,104.52v109.66c0,3.59,2.92,6.52,6.52,6.52H76.9c4,0,7.26-3.26,7.26-7.26v-0.9c0-4-3.26-7.26-7.26-7.26H31.75
		v-40.48H76.9c4,0,7.26-3.26,7.26-7.26c0-4-3.26-7.26-7.26-7.26H31.75v-36.77H76.9c4,0,7.26-3.26,7.26-7.26v-1
		c0-4-3.26-7.26-7.26-7.26H15.52z"/>
</g>
<path class="st3" d="M256.6,231.54c-18.42,0-33.41-5.78-44.55-17.18c-11.07-11.32-17.07-27.14-17.83-47.02l0-0.14l-0.09-11.4
	c0-13.61,2.46-25.69,7.31-35.93c4.94-10.44,12.14-18.6,21.39-24.25c9.21-5.63,19.96-8.48,31.97-8.48c17.4,0,31.22,4.14,41.08,12.29
	c4.31,3.57,7.89,7.93,10.66,12.98c3.3,6.04,3.18,13.18-0.34,19.11c-3.52,5.93-9.74,9.48-16.63,9.48c-7.75,0-14.73-4.63-17.8-11.79
	c-0.92-2.16-2.09-3.86-3.46-5.05c-2.76-2.39-6.94-3.6-12.43-3.6c-6.47,0-11.13,2.56-14.67,8.06c-3.85,5.99-5.83,14.92-5.89,26.53
	v7.94c0,12.16,2,21.28,5.96,27.09c3.63,5.34,9.35,7.94,17.49,7.94c6.06,0,10.74-1.08,13.95-3.2v-13.75h-6.67
	c-8.49,0-15.4-6.91-15.4-15.4s6.91-15.4,15.4-15.4h31.03c9.03,0,16.38,7.35,16.38,16.38v28.81c0,12.23-7.2,23.35-18.34,28.33
	c-1.91,0.85-3.96,1.67-6.1,2.42C279.18,229.78,268.27,231.54,256.6,231.54z M203.21,167.06c0.69,17.54,5.82,31.34,15.27,41.01
	c9.52,9.74,21.98,14.47,38.12,14.47c10.65,0,20.55-1.59,29.44-4.72c1.91-0.67,3.73-1.4,5.42-2.15c7.91-3.53,13.01-11.43,13.01-20.11
	v-28.81c0-4.07-3.31-7.38-7.38-7.38h-31.03c-3.53,0-6.4,2.87-6.4,6.4s2.87,6.4,6.4,6.4h15.67v26.93l-1.47,1.34
	c-4.88,4.44-12.1,6.69-21.48,6.69c-11.18,0-19.57-4-24.93-11.87c-5.06-7.43-7.52-17.95-7.52-32.15v-7.96
	c0.06-13.37,2.53-23.92,7.32-31.38c5.2-8.09,12.69-12.2,22.24-12.2c7.71,0,13.88,1.95,18.32,5.8c2.41,2.09,4.38,4.89,5.84,8.31
	c1.64,3.84,5.38,6.33,9.52,6.33c3.69,0,7.01-1.89,8.89-5.07c1.88-3.16,1.94-6.98,0.18-10.2c-2.21-4.04-5.07-7.53-8.5-10.37
	c-8.21-6.79-20.1-10.23-35.35-10.23c-10.32,0-19.5,2.41-27.27,7.16c-7.73,4.73-13.77,11.6-17.95,20.43
	c-4.27,9.03-6.44,19.8-6.44,32.04L203.21,167.06z"/>
<path class="st3" d="M144.65,231.5c-11.26,0-21.62-2.06-30.81-6.13c-9.42-4.17-16.64-10.02-21.48-17.38c-0.66-1-1.28-2.04-1.85-3.09
	c-3.1-5.7-2.98-12.42,0.34-18c3.31-5.57,9.16-8.9,15.64-8.9h3.44c7.66,0,14.53,4.9,17.09,12.2c0.67,1.91,1.62,3.41,2.9,4.58
	c2.78,2.55,7.73,3.84,14.73,3.84c4.23,0,7.52-0.84,9.75-2.5c1.9-1.41,2.75-3.24,2.75-5.93c0-3.26-1.02-5.59-3.22-7.32
	c-1.97-1.55-6.34-4.09-15.97-7.32c-8.41-2.82-15.42-5.61-20.82-8.28c-18.64-9.16-28.1-22.14-28.1-38.59c0-8.27,2.46-15.68,7.3-22.04
	c4.73-6.21,11.45-11.08,19.95-14.48c8.28-3.3,17.67-4.98,27.9-4.98c10.06,0,19.25,1.84,27.31,5.46c8.26,3.72,14.78,9.11,19.4,16.04
	l0.14,0.21c3.73,5.67,4.03,12.62,0.81,18.6c-3.23,5.99-9.22,9.57-16.02,9.57h-3.24c-7.05,0-13.53-4.15-16.51-10.56
	c-0.55-1.19-1.3-2.19-2.28-3.07c-2.46-2.21-5.83-3.28-10.33-3.28c-4.63,0-8.24,0.95-10.71,2.83c-2.18,1.66-3.16,3.5-3.16,5.96
	c0,0.7,0,2.83,3.65,5.59c2.2,1.67,7.06,4.37,17.74,7.8c9.37,3.01,17.21,6.32,23.3,9.84c15.66,9.02,23.6,21.75,23.6,37.82
	c0,12.95-4.98,23.29-14.81,30.72C173.65,227.88,160.72,231.5,144.65,231.5z M106.49,187c-3.28,0-6.23,1.68-7.9,4.5
	c-1.67,2.82-1.74,6.22-0.17,9.1c0.45,0.83,0.95,1.66,1.47,2.46c3.87,5.9,9.79,10.64,17.6,14.09c8.03,3.56,17.17,5.36,27.17,5.36
	c14.06,0,25.17-3.01,33.01-8.95c7.56-5.72,11.24-13.43,11.24-23.55c0-12.8-6.25-22.62-19.09-30.02c-5.54-3.2-12.79-6.25-21.56-9.07
	c-9.68-3.11-16.36-6.12-20.43-9.2c-4.78-3.63-7.21-7.92-7.21-12.77c0-5.25,2.32-9.78,6.7-13.12c4.07-3.1,9.51-4.67,16.16-4.67
	c6.72,0,12.22,1.88,16.35,5.59c1.87,1.68,3.36,3.69,4.42,5.97c1.51,3.26,4.79,5.36,8.35,5.36h3.24c3.44,0,6.47-1.81,8.1-4.84
	c1.63-3.02,1.47-6.53-0.41-9.39l-0.13-0.19c-3.65-5.47-8.9-9.78-15.59-12.79c-6.89-3.1-14.83-4.67-23.61-4.67
	c-9.09,0-17.35,1.46-24.56,4.34c-6.97,2.79-12.4,6.68-16.13,11.57c-3.67,4.82-5.46,10.24-5.46,16.58c0,12.9,7.55,22.88,23.08,30.51
	c5.05,2.5,11.68,5.13,19.71,7.82c8.83,2.96,14.94,5.84,18.67,8.78c4.35,3.43,6.64,8.4,6.64,14.39c0,5.5-2.21,10.05-6.38,13.15
	c-3.82,2.84-8.91,4.28-15.12,4.28c-9.46,0-16.26-2.03-20.82-6.2c-2.37-2.17-4.15-4.94-5.31-8.24c-1.3-3.7-4.75-6.18-8.6-6.18H106.49
	z"/>
<path class="st1" d="M238.51,38.08c0.61,1.2,1.15,2.51,1.66,3.83c11.46,29.77-17.47,40.91-17.47,40.91l-7.43-19.29L238.51,38.08z"/>
<path class="st4" d="M215.27,63.52l7.43,19.29c0,0-28.93,11.14-40.4-18.63c-0.51-1.32-0.98-2.65-1.34-3.95L215.27,63.52z"/>
<path class="st1" d="M223.25,18.19L205.37,37.8L191.75,2.44C191.75,2.44,208.63,5.62,223.25,18.19z"/>
<path class="st4" d="M191.75,2.44l13.62,35.36l-26.42-2.56C181.36,16.11,191.75,2.44,191.75,2.44z"/>
<path class="st1" d="M205.37,37.8l9.9,25.72l-34.31-3.29c-2.74-8.84-3.03-17.36-2.02-24.99L205.37,37.8z"/>
<path class="st4" d="M238.51,38.08l-23.24,25.45l-9.9-25.72l17.88-19.62C229.11,23.16,234.62,29.68,238.51,38.08z"/>
<path class="st5" d="M225.88,16.58C210.73,3.56,193.5,0.2,192.78,0.06c-1.28-0.24-2.59,0.26-3.38,1.3
	c-0.45,0.59-10.98,14.64-13.48,34.43c-1.21,9.07-0.49,17.98,2.11,26.35c0.34,1.24,0.78,2.56,1.45,4.29
	C189.62,92.79,212.45,90.08,221,88l2.58,6.7c0.68,1.78,2.68,2.66,4.45,1.98c1.78-0.68,2.66-2.68,1.98-4.45l-2.58-6.7
	c7.73-4.2,26.49-17.5,16.34-43.86c-0.66-1.73-1.22-3.01-1.75-4.04C238.28,29.57,232.84,22.48,225.88,16.58z M234.71,38.55
	l-17.84,19.54l-7.14-18.53l14.09-15.46C228.28,28.33,231.92,33.16,234.71,38.55z M218.6,19.6l-11.63,12.77l-9.14-23.74
	C203.13,10.42,211,13.79,218.6,19.6z M191.4,11.1l9.14,23.74l-17.19-1.67C185.09,23.77,188.66,15.99,191.4,11.1z M182.48,40.01
	l20.82,2.02l7.14,18.53l-26.34-2.53C182.56,52.21,182.02,46.18,182.48,40.01z M186.47,65.19l26.74,2.57l5.32,13.82
	C211.41,83.25,194.72,84.7,186.47,65.19z M224.95,79.08l-5.31-13.8l18.12-19.84C244.67,65.35,231.35,75.52,224.95,79.08z"/>
<path class="st6" d="M107.1,119.1c0,0,4.9-9.79,16.52-12.65"/>
<path class="st6" d="M220.84,119.51c0,0,4.9-9.79,16.52-12.65"/>
<path class="st6" d="M15.07,119.1c0,0-0.33-13.92,5.83-14.5"/>
</svg>
