<?xml version="1.0" encoding="utf-8"?>
<!-- Generator: Adobe Illustrator 26.2.1, SVG Export Plug-In . SVG Version: 6.00 Build 0)  -->
<svg version="1.1" id="Isolation_Mode" xmlns="http://www.w3.org/2000/svg" xmlns:xlink="http://www.w3.org/1999/xlink" x="0px"
	 y="0px" viewBox="0 0 470.29 293.52" style="enable-background:new 0 0 470.29 293.52;" xml:space="preserve">
<style type="text/css">
	.st0{fill:#999999;}
	.st1{fill:#222222;}
	.st2{fill:#32B34A;}
</style>
<g>
	<g>
		<g>
			<path class="st0" d="M264.81,289.52c-0.74,0-1.49-0.21-2.15-0.63l-13.21-8.43l-4.96-2.29c-1-0.46-1.77-1.32-2.12-2.37
				c-0.35-1.05-0.25-2.19,0.27-3.16l1.43-2.64l-5.46-4.42c-0.85-0.69-1.38-1.7-1.47-2.79l-0.35-4.47l-5.86-3.84l-2.06,5.09
				c-0.36,0.89-1.03,1.62-1.88,2.06c-2.37,1.21-10.88,5.18-21,5.18c-3.5,0-6.88-0.48-10.04-1.42c-1.32-0.39-2.34-1.43-2.71-2.75
				c-0.52-1.86-1.81-6.94-1.84-11.7c-2.07,1.28-4.88,2.41-8.32,2.41c-0.61,0-1.24-0.04-1.86-0.11c-0.23-0.03-0.46-0.08-0.68-0.14
				c-7.53-2.28-13.97-3.69-16.81-3.69c-0.08,0-0.15,0-0.22,0l-5.87,6.22l-0.04,0.11c-0.11,2.81-1.11,10.38-8.25,14.76
				c-0.63,0.39-1.35,0.59-2.09,0.59c-0.08,0-0.17,0-0.25-0.01l-3.8-0.24l-10.43,8.54c-0.45,0.37-0.97,0.63-1.53,0.78l-13.38,3.47
				c-0.33,0.09-0.67,0.13-1.01,0.13c-1.53,0-2.97-0.88-3.63-2.33l-9.65-20.94l-19.08-10.65c-1.85-1.03-2.57-3.33-1.65-5.24
				l5.38-11.12l0.98-15.4l-3.73-3.85c-1.09-1.13-1.42-2.79-0.84-4.26l3.05-7.7c0.6-1.52,2.08-2.53,3.72-2.53h1.83l-8.24-9.25
				c-0.73-0.82-1.1-1.92-1-3.02c0.1-1.1,0.65-2.11,1.51-2.79l2.88-2.26l-0.14,0.04c-0.34,0.09-0.69,0.14-1.04,0.14
				c-0.75,0-1.5-0.21-2.15-0.63c-0.95-0.6-1.6-1.58-1.79-2.69l-1.52-8.73c-0.23-1.31,0.21-2.64,1.16-3.56l0.64-0.61l-5.33-11.8
				c-0.25-0.55-0.37-1.14-0.35-1.74l0.13-5.68l-1.16,1.28c-0.77,0.85-1.86,1.31-2.97,1.31c-0.43,0-0.86-0.07-1.28-0.21l-0.5-0.17
				l14,50.74c0.39,1.4-0.01,2.89-1.04,3.91c-0.76,0.75-1.78,1.16-2.81,1.16c-0.37,0-0.74-0.05-1.1-0.15l-12.58-3.61
				c-1.1-0.32-2.02-1.09-2.51-2.13l-5.41-11.36l-5.34-2c-1.56-0.58-2.6-2.08-2.6-3.75v-5.5l-1.67-2.6c-0.51-0.79-0.72-1.73-0.6-2.67
				l2.01-15.71l-5.44-4.23c-1.07-0.83-1.65-2.16-1.53-3.51l1.04-11.74l-3.87-7.97l-11.02,2.4c-0.28,0.06-0.57,0.09-0.85,0.09
				c-0.51,0-1.01-0.1-1.48-0.29l-14.11-5.63c-1.35-0.54-2.31-1.78-2.49-3.22c-0.09-0.69-1.95-17.22,11.46-34.75
				c0.77-1.01,1.96-1.57,3.18-1.57c0.47,0,0.95,0.08,1.41,0.26l0.75,0.28l0.39-9.36c0.08-2.01,1.65-3.65,3.66-3.82l9.24-0.78v-8.47
				c0-1.06,0.42-2.07,1.16-2.82l13.11-13.22c0.75-0.76,1.78-1.18,2.84-1.18c0.04,0,16.53,0.56,16.53,0.56
				c0.17,0.01,0.15,0,0.32,0.02l0.04-0.01c0.87,0,5.42-0.31,9.78-6.35c0.78-1.08,2-1.66,3.25-1.66c0.68,0,1.36,0.17,1.99,0.53
				l23.24,13.35l21.09,2.4c1.44,0.16,2.68,1.09,3.24,2.43l9.51,22.66c0.36-1.13,1.21-2.05,2.32-2.5l18.59-7.44
				c0.48-0.19,0.98-0.29,1.49-0.29c0.41,0,0.82,0.06,1.22,0.19l8.31-2.73c0.41-0.13,0.83-0.2,1.25-0.2c0.58,0,1.15,0.12,1.68,0.37
				l4.4,2.04l0.03,0c2.38-1.49,8.88-4.95,17.77-4.95c6.62,0,13.21,1.88,19.58,5.59c0.52,0.3,0.97,0.72,1.3,1.22l6.39,9.48
				c0.27,0.41,0.47,0.86,0.58,1.33l0.96,4.15l0.01,0.02c2.54,2.54,14.85,15.25,18.82,26.56c0.45,1.29,0.22,2.73-0.63,3.8
				c-0.76,0.97-1.92,1.52-3.14,1.52c-0.14,0-0.27-0.01-0.41-0.02l-4.69-0.48l-2.3,6.64c-0.34,0.98-1.05,1.79-1.98,2.26l-7.63,3.85
				v1.14c0,0.68-0.18,1.36-0.51,1.95l-1.8,3.22c-0.73,1.3-2.09,2.05-3.49,2.05c-0.56,0-1.13-0.12-1.67-0.37l-3.65-1.68l-4.09,2.15
				l-3.53,5.29l18.5,22.34c0.4,0.48,0.68,1.05,0.82,1.66l4.08,17.87c0.35,1.52-0.22,3.11-1.46,4.06l-0.96,0.74
				c-0.49,0.38-1.06,0.63-1.67,0.75l-1.75,0.34l-3.97,16.3l2.01,3.43c0.4,0.69,0.59,1.48,0.54,2.27l-0.17,2.72l1,3.86
				c0.18,0.68,0.17,1.4-0.02,2.08l-0.79,2.83l2.61,0.67c0.83,0.21,1.57,0.69,2.11,1.35l4,4.91l3.73-1.89
				c0.57-0.29,1.18-0.43,1.81-0.43c0.47,0,0.94,0.08,1.38,0.25l6.34,2.34l4.43,0.92c1.18-4.99,5.3-8.07,10.89-8.07
				c0.17,0,0.32,0,0.46,0.01c0.78,0.03,1.53,0.28,2.16,0.72l17.09,11.98c1.16,0.81,1.81,2.19,1.69,3.6l-0.57,6.96l9.01,9.87
				c1.19,1.3,1.38,3.22,0.49,4.74l-2.92,4.94l-0.38,8.64c-0.09,2.03-1.69,3.67-3.72,3.81l-7.06,0.48c-0.09,0.01-0.18,0.01-0.27,0.01
				c-0.85,0-1.69-0.27-2.38-0.78l-3.01-2.23l-10.51,10.05C266.81,289.15,265.82,289.52,264.81,289.52z"/>
			<path class="st1" d="M89.8,42.75l23.96,13.77l21.92,2.49l15.16,36.1l1.85-13.78l18.59-7.44l0.24,0.72l10.54-3.46l5.41,2.51
				l2.1-0.23c0.1-0.07,6.5-4.82,16.37-4.82c5.07,0,11.06,1.26,17.57,5.05l6.39,9.48l1.09,4.71l0.57,1.01
				c0.15,0.15,14.21,13.91,18.26,25.44l-6.22-0.64l-2.15,1.37l-2.8,8.1l-8.7,4.39l-1.12,1.83v2.34l-1.8,3.22l-4.52-2.08l-1.81,0.05
				l-5.38,2.82l-0.76,0.68l-4.61,6.92l0.12,2.45l19.42,23.45l4.08,17.87l-0.96,0.74l-2.98,0.58l-1.59,1.53l-4.46,18.28l0.22,1.52
				l2.4,4.11l-0.21,3.36l1.16,4.47l-1.33,4.76l1.47,2.54l4.54,1.16l4.99,6.13l2.52,0.54l5.13-2.6l6.62,2.44l6.42,1.33l2.33-1.28
				l0.6-1.68c0.9-4.85,5.22-5.37,7.08-5.37c0.12,0,0.23,0,0.33,0.01l17.09,11.98l-0.64,7.8l0.53,1.55l9.58,10.5l-3.17,5.35
				l-0.29,0.96l-0.41,9.14l-7.06,0.48l-4.33-3.2l-2.64,0.16l-11.7,11.19l-13.44-8.57l-5.21-2.4l2.2-4.07l-0.52-2.56l-6.71-5.43
				l-0.43-5.42l-0.92-1.56l-8.64-5.66l-3.03,0.94l-2.95,7.29c-2.17,1.11-9.97,4.74-19.17,4.74c-2.88,0-5.89-0.35-8.91-1.25
				c-0.98-3.49-2.5-10.72-1.19-14.68l-3.54-1.92c-0.15,0.19-3.63,4.4-9.27,4.4c-0.45,0-0.91-0.03-1.38-0.08
				c-3.25-0.98-13.14-3.87-17.97-3.87c-0.71,0-1.31,0.06-1.76,0.2l-0.89,0.55l-6.9,7.31l-0.56,1.51c0.01,0.08,0.32,8.03-6.35,12.11
				l-4.57-0.29l-1.43,0.46l-11.03,9.02l-13.38,3.47l-10.2-22.12l-20.21-11.29l5.73-11.83l1.14-17.95l-4.96-5.13l3.05-7.7h5.72
				l2.29-3.08l-11.44-12.83l18.3-14.37l-19.06,5.13l-1.52-8.73l2.66-2.57l-6.48-14.37l0.38-16.42l-8.37,9.25l-7.64-2.58l16.01,58
				l-12.58-3.61l-6.1-12.82l-6.85-2.57v-6.67l-2.3-3.59l2.3-17.98l-7.25-5.63l1.14-12.84l-5.72-11.8l-14.1,3.08l-14.11-5.63
				c0,0-1.91-15.4,10.67-31.82l5.93,2.23l0.61-14.88l12.9-1.09V63.41L59.9,50.19l16.39,0.56c0,0,0.17,0.02,0.49,0.02
				C78.5,50.76,84.44,50.18,89.8,42.75 M89.81,34.75c-2.5,0-4.94,1.17-6.49,3.32c-2.9,4.02-5.6,4.6-6.34,4.68
				c-0.04-0.01-0.06-0.01-0.08-0.01c-0.04,0-0.06,0.01-0.2,0.01c-0.04,0-0.08,0-0.13,0l-16.39-0.56c-0.09,0-0.18,0-0.27,0
				c-2.13,0-4.18,0.85-5.68,2.37L41.11,57.77c-1.49,1.5-2.32,3.52-2.32,5.63v4.79l-5.57,0.47c-4.02,0.34-7.15,3.61-7.32,7.64
				l-0.21,5.16c-1.82,0.39-3.5,1.41-4.69,2.96c-14.4,18.81-12.35,36.91-12.26,37.67c0.36,2.89,2.26,5.36,4.97,6.45l14.11,5.63
				c0.95,0.38,1.96,0.57,2.97,0.57c0.57,0,1.14-0.06,1.71-0.18l7.94-1.73l2.01,4.14l-0.94,10.64c-0.24,2.71,0.91,5.35,3.06,7.02
				l3.64,2.83l-1.72,13.45c-0.24,1.86,0.19,3.75,1.2,5.33l1.04,1.62v4.33c0,3.34,2.07,6.32,5.19,7.49l3.82,1.43l4.72,9.9
				c0.99,2.07,2.81,3.62,5.02,4.25l12.58,3.61c0.22,0.06,0.45,0.12,0.68,0.16c-0.88,2.78-0.17,5.85,1.88,7.97l2.5,2.58l-0.82,12.85
				l-5.04,10.41c-1.85,3.81-0.4,8.41,3.3,10.47l17.94,10.02l9.11,19.76c1.33,2.89,4.2,4.65,7.26,4.65c0.67,0,1.34-0.08,2.01-0.26
				l13.38-3.47c1.12-0.29,2.16-0.82,3.06-1.55l9.22-7.54l2.23,0.14c0.17,0.01,0.34,0.02,0.51,0.02c1.47,0,2.92-0.41,4.18-1.18
				c7.71-4.72,9.61-12.32,10.05-16.53l3.65-3.87c2.67,0.33,7.64,1.42,14.24,3.42c0.45,0.13,0.9,0.23,1.36,0.29
				c0.77,0.09,1.56,0.14,2.33,0.14c1.72,0,3.32-0.23,4.79-0.61c0.41,2.69,1.01,5.15,1.52,6.97c0.74,2.65,2.79,4.73,5.43,5.51
				c3.53,1.05,7.3,1.58,11.18,1.58c11.02,0,20.26-4.3,22.82-5.62c1.71-0.88,3.04-2.34,3.76-4.12l0.23-0.57l0.14,0.09l0.2,2.52
				c0.17,2.19,1.24,4.21,2.94,5.59l2.89,2.34c-0.92,1.88-1.07,4.05-0.4,6.05c0.7,2.09,2.23,3.81,4.24,4.73l4.71,2.17l12.98,8.28
				c1.32,0.84,2.81,1.26,4.3,1.26c2.01,0,4-0.75,5.53-2.22l8.07-7.72l0.3,0.22c1.38,1.02,3.05,1.57,4.76,1.57
				c0.18,0,0.36-0.01,0.54-0.02l7.06-0.48c4.06-0.28,7.27-3.56,7.45-7.63l0.34-7.65l2.41-4.07c1.8-3.03,1.4-6.87-0.97-9.47
				l-7.84-8.59l0.43-5.23c0.23-2.83-1.06-5.57-3.38-7.2l-17.09-11.98c-1.27-0.89-2.77-1.39-4.32-1.44
				c-0.18-0.01-0.38-0.01-0.59-0.01c-6,0-10.88,2.82-13.39,7.46l-0.83-0.17l-6.06-2.23c-0.89-0.33-1.83-0.49-2.76-0.49
				c-1.24,0-2.48,0.29-3.61,0.86l-0.86,0.43l-1.97-2.42c-0.8-0.98-1.81-1.75-2.96-2.26c0.15-1.05,0.09-2.11-0.17-3.14l-0.84-3.24
				l0.13-2.09c0.1-1.59-0.28-3.17-1.08-4.54l-1.19-2.04l2.99-12.29c0.92-0.28,1.79-0.72,2.56-1.31l0.96-0.74
				c2.48-1.9,3.62-5.08,2.93-8.13l-4.08-17.87c-0.28-1.22-0.84-2.36-1.64-3.32l-16.6-20.05l1.31-1.97l1.44-0.76l1.87,0.86
				c1.08,0.5,2.22,0.73,3.34,0.73c2.81,0,5.53-1.49,6.98-4.09l1.8-3.22c0.44-0.79,0.74-1.64,0.9-2.53l5.55-2.8
				c1.86-0.94,3.28-2.56,3.96-4.53l1.26-3.65l1.53,0.16c0.27,0.03,0.55,0.04,0.82,0.04c2.43,0,4.76-1.11,6.28-3.05
				c1.7-2.15,2.17-5.02,1.27-7.61c-3.97-11.29-15.09-23.3-18.96-27.26l-0.71-3.05c-0.22-0.95-0.61-1.86-1.16-2.67l-6.39-9.48
				c-0.67-1-1.57-1.84-2.61-2.44c-6.99-4.07-14.26-6.14-21.6-6.14c-8.14,0-14.44,2.56-17.99,4.46l-2.52-1.17
				c-1.06-0.49-2.21-0.74-3.37-0.74c-0.84,0-1.68,0.13-2.49,0.4l-7.31,2.4c-0.32-0.04-0.65-0.06-0.97-0.06
				c-1.01,0-2.02,0.19-2.97,0.57l-17.83,7.13l-7.43-17.69c-1.12-2.67-3.6-4.52-6.47-4.85l-20.27-2.31L93.79,35.81
				C92.54,35.09,91.17,34.75,89.81,34.75L89.81,34.75z"/>
		</g>
	</g>
</g>
<g>
	<g>
		<g>
			<path class="st0" d="M59.73,213.8c-0.57,0-1.15-0.12-1.68-0.37c-1.45-0.67-2.36-2.15-2.31-3.75l0.38-12.51
				c0.04-1.38,0.79-2.64,1.98-3.33c0.62-0.36,1.32-0.54,2.01-0.54c0.64,0,1.28,0.15,1.86,0.46l8.55,4.5
				c1.16,0.61,1.94,1.75,2.11,3.05c0.16,1.3-0.32,2.59-1.3,3.47l-8.93,8.01C61.66,213.45,60.7,213.8,59.73,213.8z"/>
			<path class="st1" d="M60.12,197.29l8.55,4.5l-8.93,8.01L60.12,197.29 M60.12,189.29c-1.39,0-2.79,0.36-4.03,1.09
				c-2.38,1.39-3.88,3.91-3.97,6.67l-0.38,12.51c-0.1,3.2,1.72,6.15,4.63,7.5c1.08,0.5,2.23,0.74,3.37,0.74
				c1.93,0,3.85-0.7,5.35-2.05l8.93-8.01c1.95-1.75,2.92-4.34,2.6-6.94c-0.32-2.6-1.9-4.87-4.21-6.09l-8.55-4.5
				C62.67,189.6,61.39,189.29,60.12,189.29L60.12,189.29z"/>
		</g>
	</g>
</g>
<g>
	<g>
		<g>
			<path class="st0" d="M8,242.36c-1.1,0-2.16-0.45-2.92-1.27c-0.88-0.94-1.26-2.25-1-3.52l2.61-13.03c0.31-1.55,1.5-2.77,3.05-3.12
				c0.29-0.06,0.58-0.1,0.87-0.1c1.25,0,2.45,0.59,3.21,1.62l8.56,11.54c0.84,1.14,1.02,2.64,0.47,3.94
				c-0.55,1.3-1.75,2.22-3.16,2.41l-11.17,1.49C8.35,242.35,8.17,242.36,8,242.36z"/>
			<path class="st1" d="M10.61,225.33l8.56,11.54L8,238.36L10.61,225.33 M10.61,217.33c-0.58,0-1.17,0.06-1.75,0.19
				c-3.09,0.69-5.48,3.13-6.1,6.24l-2.61,13.03c-0.51,2.53,0.24,5.16,2.01,7.04c1.52,1.63,3.64,2.53,5.84,2.53
				c0.35,0,0.7-0.02,1.06-0.07l11.17-1.49c2.81-0.37,5.21-2.2,6.31-4.81c1.1-2.61,0.74-5.61-0.94-7.88l-8.56-11.54
				C15.51,218.51,13.11,217.33,10.61,217.33L10.61,217.33z"/>
		</g>
	</g>
</g>
<g>
	<g>
		<path class="st2" d="M328.89,275.81c-10.22,0-21.63-1.8-33.9-5.36c-1.19-0.34-2.15-1.22-2.6-2.37c-0.46-1.15-0.35-2.45,0.28-3.51
			l1.86-3.14l-9.03-9.9c-0.75-0.82-1.12-1.91-1.03-3.02l0.56-6.97l-16.99-11.91c-0.78-0.54-1.33-1.35-1.57-2.26l-4.49-17.19
			c-0.32-1.24-0.03-2.56,0.78-3.55l8.57-10.44l-3.52-2.17c-0.65-0.4-1.18-0.99-1.51-1.68l-5.89-12.31h-5.49
			c-1.42,0-2.74-0.76-3.46-1.98l-2.05-3.52c-0.11-0.18-0.2-0.37-0.27-0.56l-9.7-24.88l-11.33-7.63c-1.62-1.09-2.22-3.21-1.4-4.99
			l0.08-0.18c0.05-0.56,0.21-1.11,0.5-1.62l1.65-2.96v-1.1c0-1.51,0.85-2.89,2.2-3.57l7.61-3.84l2.28-6.6
			c0.56-1.62,2.09-2.69,3.78-2.69c0.14,0,0.27,0.01,0.41,0.02l4.76,0.49c-2.86-8.21-11.16-18.47-17.94-25.24
			c-0.53-0.53-0.9-1.2-1.07-1.93l-0.88-3.8l-0.37-0.57c-0.92-1.38-0.88-3.19,0.08-4.54l5.56-7.76c0.61-0.86,1.54-1.44,2.58-1.61
			l8.53-1.46c0.22-0.04,0.45-0.06,0.67-0.06c0.12,0,0.25,0.01,0.37,0.02c0.04,0,0.09,0.01,0.15,0.01c0.27,0,0.46-0.05,0.56-0.08
			c0.01-0.05,0.02-0.13,0.01-0.26l-0.03-0.04c-0.91-0.82-2.33-2.47-2.26-4.68c0.02-2.07,1.36-4,4-5.63
			c0.03-0.02,13.88-8.06,13.88-8.06c0.61-0.35,1.3-0.54,2.01-0.54c0.09,0,0.18,0,0.27,0.01l8.21,0.56l13.03-11.27
			c0.25-0.22,0.53-0.4,0.83-0.55l7.66-3.83l1.62-5.47c0.14-0.48,0.37-0.92,0.67-1.32l8.1-10.44c0.72-0.93,1.81-1.49,2.98-1.54
			c0.06,0,0.12,0,0.18,0c1.11,0,2.17,0.46,2.93,1.28l9.12,9.84l16.8-1.86c0.15-0.02,0.29-0.02,0.44-0.02c0.16,0,0.32,0.01,0.48,0.03
			c0,0,0.01,0,0.01,0c0.17,0,0.43-0.04,0.78-0.25c1.04-0.64,1.92-2.32,2.49-4.74c0.06-0.26,0.15-0.52,0.27-0.77l5.08-10.92
			c0.5-1.07,1.44-1.86,2.57-2.17c0.35-0.1,0.7-0.14,1.06-0.14c0.8,0,1.59,0.24,2.26,0.7l12.54,8.59l13.15-0.29l4.57-7.21
			c0.68-1.07,1.82-1.75,3.08-1.85l7.18-0.53c0.1-0.01,0.2-0.01,0.3-0.01c1.05,0,2.06,0.41,2.81,1.15l6.19,6.1h6.62
			c1.31,0,2.54,0.64,3.28,1.72c0.75,1.07,0.92,2.45,0.47,3.68l-1.08,2.91l23.04,11.55c0.75,0.38,1.37,0.99,1.76,1.74l2.05,3.96
			l5.53-4.42c0.66-0.53,1.48-0.84,2.33-0.87l6.22-0.27c0.06,0,0.12,0,0.17,0c1.2,0,2.33,0.54,3.09,1.46l8.42,10.28
			c0.96,1.17,1.18,2.79,0.56,4.17c-1.88,4.2-9.21,17.78-25.38,18.51c-0.45,0.57-1.22,1.89-1.16,4.16c0.03,1.07-0.37,2.11-1.11,2.89
			l-4.03,4.2l0.92,3.1l6.63,8.02c1.05,1.27,1.21,3.05,0.41,4.49l-7.29,13.09c-0.73,1.3-2.08,2.05-3.5,2.05
			c-0.52,0-1.05-0.1-1.56-0.32l-9.52-4.04c-0.25,0.96-0.85,1.81-1.72,2.36c-0.66,0.42-1.4,0.63-2.15,0.63
			c-0.78,0-1.56-0.23-2.23-0.68l-1.55-1.04c-0.61-0.41-1.1-0.98-1.4-1.65l-3.54-7.73l-6.44-5.28c-0.87,2.36-1.99,5.63-2.45,8.01
			c-0.36,1.85-1.96,3.19-3.84,3.23l-0.33,0c-3.5,0-8.91-1.13-15.55-6.22c-0.42,1.4-0.86,3.17-0.98,4.84
			c-0.14,2.11-1.9,3.73-3.99,3.73c-0.06,0-0.12,0-0.18,0l-3.12-0.14l0.13,3c0.03,0.67-0.11,1.34-0.41,1.94l-3.08,6.23l4.64,4.56
			c1.15,1.13,1.51,2.84,0.92,4.33s-2.03,2.49-3.64,2.52c0,0-12.35,0.23-12.38,0.23c-0.43,0-0.86-0.07-1.27-0.21l-4.45-1.49
			l-4.98,5.1l4.72,4.98c1.09,1.15,1.4,2.85,0.78,4.31l-1.88,4.43c-0.43,1-1.24,1.79-2.26,2.18c-0.46,0.17-0.94,0.26-1.42,0.26
			c-0.59,0-1.17-0.13-1.72-0.39l-8.79-4.18l-2.84,6.91l7.26,14.67c0.84,1.7,0.38,3.75-1.11,4.92l-4.28,3.37
			c-0.24,0.8-0.9,4.72,4.93,14.02c0.75,1.19,0.82,2.68,0.18,3.94l-3.28,6.47l2.07,5.1c0.65,1.61,0.19,3.45-1.14,4.57l-2.75,2.31
			c-0.15,0.18-0.8,1.06-0.54,2.44c0.38,1.96,3.12,7.21,20.17,13.97l3.87-1.75l0.04-0.04c0.76-0.68,1.71-1.02,2.66-1.02
			c0.96,0,1.91,0.34,2.67,1.02c1.34,1.2,2.61,3.33,3.89,6.5c0.08,0.2,0.14,0.4,0.19,0.61c0.52,2.29,1.99,10.03-0.91,13.26
			c-0.02,0.03-0.05,0.05-0.08,0.08c-0.42,0.45-0.93,0.81-1.5,1.04l-0.32,0.29c-0.54,4.42-3.1,15.83-15.23,28.09
			c-0.37,0.38-0.82,0.68-1.31,0.88C346.74,273.53,340.35,275.81,328.89,275.81z"/>
		<path class="st1" d="M394.48,8l6.76,6.66l1.44,0.59h7.43l-1.69,4.55l1.01,2.55l24.59,12.33l3.14,6.07l3.11,0.65l7.38-5.9
			l6.22-0.27l8.42,10.28c-1.66,3.71-8.19,15.9-22.6,16.17l-1.17,0.4c-1.27,0.93-3.24,3.58-3.12,7.85l-4.81,5.01l-0.49,2.01
			l1.48,4.97l7.14,8.64l-7.29,13.09l-12.39-5.26l-2.82,2.21l0.26,1.68l-1.55-1.04l-3.72-8.12l-0.55-0.73l-8.9-7.3l-3.2,0.82
			c-0.32,0.8-2.8,7.07-3.62,11.23c-0.08,0-0.16,0-0.25,0c-2.47,0-7.92-0.79-15.12-7.04l-3.24,0.77c-0.22,0.55-1.88,4.7-2.15,8.61
			l-5.25-0.24l-2.14,2.13l0.22,5.13l-3.71,7.5l0.4,2.38l5.65,5.55l-12.3,0.23l-5.6-1.87l-2.12,0.51l-7.15,7.31l-0.03,2.84l6.01,6.35
			l-1.88,4.43l-10.65-5.06l-2.78,1.07l-3.96,9.64l0.06,1.69l7.65,15.46l-4.61,3.63l-0.34,0.33c-0.67,0.84-3.53,5.61,4.69,18.69
			l-3.68,7.26l-0.08,1.7l2.41,5.93l-2.9,2.43c-0.92,0.87-2.33,3.13-1.75,6.14c1.13,5.82,8.99,11.62,23.4,17.24l1.59-0.04l5.18-2.34
			l0.5-0.44c0.45,0.41,1.48,1.62,2.85,5.02c0.85,3.75,1.06,8.54,0.02,9.7c-0.05,0.05-0.1,0.12-0.31,0.12c-0.05,0-0.11,0-0.18-0.01
			l-2.29,2.06c0,0.13-0.06,12.88-14.22,27.19c-1.3,0.54-7.19,2.68-18,2.68c-8.11,0-19-1.21-32.79-5.21l2.59-4.38l-0.25-2.42
			l-10.01-10.97l0.65-8.09l-0.87-1.84l-17.91-12.55l-4.49-17.19l9.99-12.17l-0.52-3.05l-5.42-3.33l-6.42-13.41l-1.85-1.17h-6.72
			l-2.05-3.52l-9.92-25.44l-0.76-0.96l-11.84-7.98l0.65-1.41l-0.22-0.1l1.9-3.4l0.26-1v-1.61l8.32-4.19l1.02-1.16l2.54-7.36
			l7.6,0.79l2.23-2.45c-2.49-12.18-16.99-27.12-19.77-29.9l-1.04-4.5l-0.77-1.17l5.56-7.76l8.53-1.46c0.14,0.01,0.32,0.02,0.52,0.02
			c0.96,0,2.47-0.22,3.53-1.37c0.7-0.76,1.42-2.17,0.83-4.54l-0.84-1.2c-0.21-0.14-1.26-1.03-1.24-1.84
			c0.01-0.67,0.8-1.53,2.11-2.35l13.78-8l9,0.62l1.48-0.49l13.64-11.79l8.42-4.21l1.05-1.25l1.86-6.28l8.1-10.44l9.79,10.56
			l1.73,0.65l17.77-1.97c0.15,0.02,0.32,0.03,0.52,0.03c0.72,0,1.74-0.17,2.84-0.85c2.01-1.23,3.45-3.67,4.29-7.23L351.4,8.6
			l13.06,8.95l1.21,0.36l14.82-0.33l1.69-0.95l5.13-8.1L394.48,8 M394.48,0c-0.2,0-0.39,0.01-0.59,0.02l-7.18,0.53
			c-2.52,0.19-4.81,1.56-6.17,3.7l-3.42,5.4l-9.72,0.21L355.92,2c-1.35-0.92-2.92-1.4-4.52-1.4c-0.71,0-1.42,0.09-2.11,0.28
			c-2.27,0.62-4.15,2.21-5.14,4.34l-5.08,10.92c-0.23,0.49-0.41,1.01-0.53,1.53c-0.22,0.94-0.45,1.55-0.63,1.92
			c-0.04,0-0.08,0.01-0.12,0.01l-14.79,1.64l-7.75-8.36c-1.52-1.64-3.64-2.56-5.87-2.56c-0.12,0-0.23,0-0.35,0.01
			c-2.35,0.1-4.53,1.23-5.97,3.09l-8.1,10.44c-0.61,0.79-1.07,1.68-1.35,2.63l-1.13,3.81l-6.11,3.05c-0.6,0.3-1.15,0.67-1.66,1.1
			l-11.79,10.19l-6.56-0.45c-0.18-0.01-0.37-0.02-0.55-0.02c-1.41,0-2.79,0.37-4.02,1.08l-13.78,8c-0.07,0.04-0.14,0.08-0.21,0.12
			c-4.78,2.97-5.85,6.52-5.89,8.99c-0.01,0.64,0.04,1.25,0.15,1.82l-4.82,0.82c-2.08,0.35-3.93,1.51-5.16,3.23l-5.56,7.76
			c-1.92,2.68-2,6.27-0.19,9.03l0.71,3.09c0.34,1.46,1.08,2.8,2.14,3.86c5.23,5.22,10.79,11.97,14.28,18.01
			c-2.84,0.47-5.28,2.46-6.25,5.28l-1.75,5.07l-6.16,3.11c-2.7,1.36-4.4,4.12-4.4,7.14v0.07l-1.14,2.05
			c-0.43,0.78-0.73,1.61-0.89,2.47c-1.38,3.48-0.16,7.47,2.97,9.58l10.3,6.93l9.24,23.71c0.15,0.39,0.33,0.76,0.54,1.12l2.05,3.52
			c1.43,2.46,4.07,3.97,6.91,3.97h2.97l4.8,10.03c0.6,1.25,1.51,2.33,2.65,3.12l-5.67,6.91c-1.63,1.98-2.2,4.62-1.56,7.1l4.49,17.19
			c0.48,1.84,1.6,3.44,3.15,4.53l15.12,10.59l-0.38,4.69c-0.18,2.21,0.57,4.4,2.06,6.04l7.03,7.71l-0.35,0.59
			c-1.26,2.13-1.47,4.72-0.56,7.02c0.91,2.3,2.83,4.05,5.21,4.74c12.64,3.66,24.42,5.52,35.01,5.52c12.2,0,19.21-2.52,21.07-3.3
			c0.98-0.41,1.87-1.01,2.62-1.76c11.56-11.69,15.04-22.69,16.09-28.56c0.38-0.29,0.74-0.62,1.08-0.98c0.03-0.03,0.06-0.07,0.09-0.1
			c3.92-4.36,2.83-12.41,1.83-16.81c-0.09-0.42-0.22-0.82-0.38-1.22c-1.53-3.81-3.1-6.35-4.93-7.99c-1.52-1.36-3.43-2.04-5.34-2.04
			c-1.7,0-3.41,0.54-4.83,1.62l-1.83,0.82c-11.95-4.93-15.12-8.6-15.91-9.89l1.68-1.41c2.66-2.23,3.58-5.92,2.27-9.14l-1.39-3.42
			l2.46-4.85c1.27-2.51,1.13-5.49-0.36-7.87c-3.35-5.34-4.22-8.44-4.43-9.86l2.86-2.25c2.98-2.34,3.9-6.45,2.22-9.84l-6.46-13.05
			l0.55-1.33l4.98,2.37c1.08,0.52,2.26,0.77,3.43,0.77c0.96,0,1.92-0.17,2.84-0.52c2.04-0.78,3.67-2.35,4.52-4.36l1.88-4.43
			c1.24-2.93,0.63-6.31-1.56-8.62l-2.07-2.19l0.54-0.55l2.07,0.69c0.82,0.27,1.67,0.41,2.54,0.41c0.05,0,0.1,0,0.15,0l12.3-0.23
			c3.22-0.06,6.09-2.05,7.28-5.04c1.19-2.99,0.47-6.41-1.83-8.67l-2.58-2.53l1.8-3.64c0.41-0.82,0.67-1.71,0.77-2.61
			c3.34-0.32,6.12-2.71,6.97-5.93c5.24,2.88,9.64,3.62,12.77,3.62c0.15,0,0.29,0,0.42,0c3.76-0.08,6.96-2.77,7.68-6.47
			c0.11-0.58,0.28-1.26,0.49-1.99l1.23,1.01l3.16,6.89c0.61,1.34,1.59,2.48,2.81,3.31l1.55,1.04c1.35,0.91,2.91,1.36,4.46,1.36
			c1.49,0,2.98-0.42,4.3-1.25c0.37-0.23,0.71-0.49,1.02-0.77l6.51,2.76c1.02,0.43,2.08,0.64,3.12,0.64c2.82,0,5.54-1.5,6.99-4.11
			l7.29-13.09c1.6-2.88,1.28-6.45-0.82-8.99l-6.11-7.39l-0.03-0.08l2.42-2.51c1.49-1.55,2.29-3.63,2.23-5.77c0-0.1,0-0.19,0-0.28
			c16.59-2.09,24.17-16.15,26.19-20.65c1.24-2.77,0.81-6-1.11-8.34l-8.42-10.28c-1.52-1.86-3.8-2.93-6.19-2.93
			c-0.11,0-0.23,0-0.34,0.01l-6.22,0.27c-1.7,0.07-3.33,0.68-4.65,1.74l-1.73,1.38c-0.78-1.33-1.93-2.42-3.32-3.11l-19.85-9.95
			c0.71-2.33,0.31-4.87-1.09-6.89c-1.5-2.15-3.95-3.43-6.57-3.43h-4.99l-5.02-4.95C398.59,0.82,396.57,0,394.48,0L394.48,0z"/>
	</g>
</g>
<g>
	<g>
		<path class="st0" d="M256.56,237.57c-0.26,0-0.53-0.03-0.8-0.08l-4.35-0.89c-0.2-0.04-0.4-0.1-0.59-0.17l-6.36-2.36l-3.71,1.87
			c-0.57,0.29-1.19,0.43-1.8,0.43c-1.17,0-2.32-0.52-3.1-1.47l-3.97-4.87l-2.54-0.65c-1.04-0.27-1.93-0.94-2.47-1.87
			c-0.54-0.93-0.68-2.04-0.39-3.08l0.77-2.77l-0.99-3.46c-0.13-0.44-0.18-0.9-0.15-1.36l0.2-3.04l-2-3.41
			c-0.53-0.9-0.68-1.96-0.44-2.97l3.95-16.2c0.37-1.51,1.58-2.67,3.11-2.98l1.72-0.34l1.97-1.52c0.19-0.14,0.38-0.27,0.59-0.38
			c0.15-0.16,0.31-0.31,0.49-0.45l3.49-2.7l8.88-8.54c0.75-0.72,1.75-1.12,2.77-1.12c0.19,0,0.37,0.01,0.56,0.04
			c1.22,0.17,2.29,0.9,2.9,1.96l0.54,0.94h5.48c1.54,0,2.94,0.88,3.61,2.27l5.88,12.28l3.44,2.12c0.98,0.61,1.66,1.61,1.85,2.75
			c0.19,1.14-0.12,2.3-0.85,3.2l-8.52,10.39l4.04,15.44c0.29,1.12,0.09,2.31-0.57,3.27c-0.65,0.96-1.69,1.58-2.84,1.72
			c-2.29,0.27-5.16,1.32-5.88,4.81C260.09,236.27,258.42,237.57,256.56,237.57z"/>
		<path class="st1" d="M250.84,177.19l1.11,1.92l1.78,1.03h6.6l6.12,12.8l0.77,0.86l3.93,2.42L262,207.38l-0.4,1.82l4.29,16.4
			c-3.65,0.43-8.19,2.42-9.33,7.98l-4.35-0.89l-7.16-2.66l-1.64,0.1l-4.46,2.25l-4.38-5.37l-1.08-0.69l-3.16-0.81l0.92-3.3l0-1.11
			l-1.14-3.99l0.24-3.63l-0.27-1.17l-2.31-3.94l3.95-16.2l2.17-0.43l0.85-0.38l2.34-1.81l1.21-0.28l-0.13-0.55l3.66-2.83
			L250.84,177.19 M250.84,169.19c-2.05,0-4.04,0.79-5.54,2.23l-8.73,8.39l-3.32,2.57c-0.17,0.13-0.34,0.27-0.49,0.41
			c-0.2,0.13-0.39,0.26-0.58,0.41l-1.23,0.95l-0.8,0.16c-3.05,0.61-5.48,2.93-6.21,5.95l-3.95,16.2c-0.49,2.02-0.18,4.15,0.87,5.95
			l1.38,2.35l-0.12,1.81c-0.06,0.92,0.04,1.84,0.29,2.72l0.68,2.37l-0.47,1.68c-0.58,2.07-0.29,4.29,0.78,6.15
			c1.08,1.86,2.86,3.21,4.95,3.74l1.26,0.32l3.13,3.85c1.56,1.92,3.86,2.95,6.21,2.95c1.22,0,2.45-0.28,3.6-0.86l2.15-1.08
			l4.73,1.76c0.39,0.14,0.78,0.26,1.19,0.34l4.35,0.89c0.54,0.11,1.08,0.16,1.61,0.16c3.72,0,7.05-2.6,7.83-6.38
			c0.11-0.52,0.29-1.4,2.43-1.65c2.3-0.27,4.37-1.52,5.67-3.44c1.31-1.91,1.72-4.3,1.13-6.53l-3.52-13.47l7.23-8.82
			c1.46-1.79,2.09-4.12,1.7-6.39c-0.38-2.28-1.73-4.28-3.69-5.49l-2.44-1.5l-5.37-11.22c-1.33-2.78-4.14-4.55-7.22-4.55h-3.29
			c-1.26-1.55-3.07-2.58-5.08-2.86C251.59,169.22,251.21,169.19,250.84,169.19L250.84,169.19z"/>
	</g>
</g>
<g>
	<g>
		<path class="st0" d="M237.14,188.31c-0.46,0-0.92-0.08-1.36-0.24c-1.28-0.46-2.24-1.55-2.54-2.87l-3.66-16.04l-18.47-22.3
			c-1.13-1.36-1.23-3.3-0.25-4.77l3.47-5.22c0.37-0.56,0.88-1.01,1.47-1.33l4.03-2.11c0.58-0.3,1.22-0.46,1.86-0.46
			c0.57,0,1.14,0.12,1.67,0.37l4.13,1.9c1.08,0.5,1.88,1.45,2.19,2.6l11.89,8c0.68,0.45,1.2,1.1,1.49,1.86l9.49,24.27
			c0.59,1.5,0.21,3.22-0.95,4.34l-9.7,9.34c-0.11,0.1-0.22,0.2-0.34,0.29l-1.99,1.53C238.86,188.02,238,188.31,237.14,188.31z"/>
		<path class="st1" d="M221.69,136.97l4.13,1.9l0.34,1.42l13.17,8.87l9.49,24.27l-9.7,9.34l-1.99,1.53l-3.76-16.5l-0.42-0.85
			l-18.76-22.66l3.47-5.22L221.69,136.97 M221.69,128.97c-1.28,0-2.55,0.31-3.71,0.91l-4.03,2.11c-1.19,0.62-2.2,1.53-2.95,2.65
			l-3.47,5.22c-1.96,2.94-1.76,6.82,0.5,9.54l17.87,21.58l3.44,15.11c0.61,2.66,2.52,4.82,5.09,5.75c0.88,0.32,1.8,0.47,2.71,0.47
			c1.74,0,3.45-0.57,4.87-1.65l1.99-1.53c0.24-0.18,0.46-0.38,0.68-0.58l9.7-9.34c2.33-2.24,3.08-5.66,1.9-8.67l-9.49-24.27
			c-0.59-1.52-1.63-2.82-2.98-3.72l-10.88-7.32c-0.81-1.57-2.12-2.84-3.76-3.59l-4.13-1.9
			C223.98,129.21,222.83,128.97,221.69,128.97L221.69,128.97z"/>
	</g>
</g>
</svg>
