<?xml version="1.0" encoding="utf-8"?>
<!-- Generator: Adobe Illustrator 26.2.1, SVG Export Plug-In . SVG Version: 6.00 Build 0)  -->
<svg version="1.1" id="Isolation_Mode" xmlns="http://www.w3.org/2000/svg" xmlns:xlink="http://www.w3.org/1999/xlink" x="0px"
	 y="0px" viewBox="0 0 530.24 503.81" style="enable-background:new 0 0 530.24 503.81;" xml:space="preserve">
<style type="text/css">
	.st0{fill:#999999;}
	.st1{fill:#222222;}
	.st2{fill:#32B34A;}
</style>
<g>
	<g>
		<path class="st0" d="M379.93,206.36c-1.35,0-2.68-0.54-3.67-1.6l-8.47-9.13c-1.03-1.11-1.5-2.63-1.28-4.13l0.75-5.09l-4.45-7.79
			c-0.48-0.84-0.71-1.8-0.65-2.77l0.29-5.1c-1.93,1.2-3.24,4.07-3.42,4.47c-0.35,0.8-0.91,1.5-1.61,2.02l-4.17,3.07
			c-0.88,0.65-1.92,0.97-2.96,0.97c-1.01,0-2.01-0.3-2.87-0.91c-6.69-4.7-12.32-13.6-15.19-18.72l-5.37,5.09
			c-0.94,0.89-2.17,1.37-3.44,1.37c-0.29,0-0.59-0.03-0.88-0.08l-4.46-0.8c-7,18.2-13.58,27.82-20.1,29.37
			c-0.59,0.14-1.21,0.22-1.82,0.22c-1,0-1.96-0.2-2.84-0.59l-0.22-0.05c-2.52,0.78-5.01,1.18-7.42,1.18c-3.14,0-6.16-0.66-9-1.97
			c-10.12-4.69-14.93-16.11-15.79-18.35c-2.06-5.55-4.58-6.46-5.08-6.59c-0.05,0-0.1,0-0.15,0c-1.5,0-2.93-0.67-3.89-1.86
			c-1.13-1.39-1.42-3.28-0.77-4.95l3.78-9.74c0.41-1.05,1.17-1.94,2.14-2.51l23.88-13.92l-20.32-1.93
			c-2.19-0.21-3.98-1.82-4.42-3.97l-1.89-9.24c-0.41-1.99,0.42-4.02,2.11-5.15l26.58-17.9l3.75-16.05c0.53-2.26,2.55-3.86,4.87-3.86
			h12.12l-0.99-0.74c-1.35-1.01-2.11-2.63-2.01-4.31c0.1-1.68,1.04-3.2,2.5-4.04l5.07-2.91l-17.95,0.94c-0.09,0-0.18,0.01-0.27,0.01
			c-2.64,0-4.84-2.06-4.99-4.72l-0.77-13.86c-0.09-1.67,0.65-3.27,1.98-4.27l9.53-7.18c0.87-0.66,1.93-1.01,3.01-1.01
			c0.28,0,0.56,0.02,0.84,0.07c0.94,0.16,1.81,0.59,2.51,1.22l9.5-2.47l10.69-8.53c0.89-0.71,1.99-1.09,3.12-1.09
			c0.11,0,0.21,0,0.32,0.01l3.49,0.22c4.9-3.15,5.6-8.43,5.67-10.63c0.04-1.22,0.52-2.39,1.36-3.28l5.89-6.23
			c0.9-0.96,2.15-1.52,3.47-1.56C345.67,5,345.78,5,345.9,5c3.92,0,13.29,2.47,18.09,3.88c0.37,0.03,0.73,0.05,1.09,0.05
			c2.04,0,3.99-0.55,5.8-1.62c0.79-0.47,1.67-0.7,2.56-0.7c0.84,0,1.68,0.21,2.45,0.64c1.56,0.87,2.53,2.52,2.55,4.3
			c0.04,3.65,0.97,7.69,1.54,9.83c2.62,0.73,5.4,1.1,8.28,1.1c8.64,0,15.95-3.29,18.35-4.51l1.89-4.67c0.56-1.39,1.72-2.45,3.14-2.9
			c0.49-0.15,0.99-0.23,1.49-0.23c0.96,0,1.92,0.28,2.74,0.82l5.71,3.75c1.29,0.85,2.12,2.25,2.24,3.79l0.32,4.03l5.1,4.12
			c1.87,1.51,2.4,4.14,1.26,6.25l-0.93,1.73l4.07,1.86c0.21,0.1,0.41,0.21,0.61,0.33l12.61,8.06l9.92-9.5
			c0.96-0.92,2.21-1.39,3.46-1.39c1.04,0,2.09,0.32,2.97,0.98l2.67,1.98l5.93-0.4l0.25-5.74c0.07-1.53,0.84-2.95,2.08-3.84
			c0.86-0.61,1.88-0.94,2.91-0.94c0.47,0,0.94,0.07,1.4,0.2c11.99,3.49,22.96,5.26,32.62,5.26c0.89,0,1.71-0.04,2.53-0.07
			c0,0,0.48-0.02,0.55-0.02c2.17,0,4.1,1.4,4.76,3.48L525,53.95c0.55,1.72,0.13,3.6-1.09,4.92l-4.17,4.5l1.2,3.69
			c0.85,2.62-0.58,5.44-3.19,6.3l-8.7,2.86l-3.64,5.24c-0.86,1.24-2.24,2.03-3.75,2.13l-3.9,0.27l-2,3.61
			c-0.45,0.81-1.11,1.47-1.91,1.93l-14.92,8.43l0.9,26.58c0.07,2.03-1.09,3.89-2.94,4.73l-3.25,1.47l-0.55,8.08
			c-0.02,0.36-0.09,0.71-0.19,1.06l-1.83,6.31c3.19,3.22,11.09,12.22,13.65,24.47c0.31,1.51-0.08,3.08-1.08,4.25l-9.93,11.74
			l-0.41,10.02c-0.06,1.39-0.69,2.69-1.74,3.59c-0.91,0.78-2.07,1.2-3.25,1.2c-0.19,0-0.38-0.01-0.57-0.03
			c-8.92-1.02-14.78-7.17-16.37-9.04l-0.09-0.1c-2.83-2.34-5.84-3.53-8.97-3.53c-2.55,0-4.71,0.81-5.89,1.57
			c-5.56,6.17-15.07,7.48-22.13,7.48c-3.46,0-6.27-0.32-7.06-0.44c-1.08-0.14-2.19-0.21-3.29-0.21c-9.97,0-17.87,5.71-20.8,8.17
			C382.2,205.97,381.06,206.36,379.93,206.36z"/>
		<path class="st1" d="M345.9,10c2.6,0,10.34,1.78,17.1,3.8c0.72,0.09,1.41,0.13,2.08,0.13c3.45,0,6.28-1.09,8.35-2.32
			c0.07,5.95,2.08,12.38,2.18,12.73l1.3,1.33c3.87,1.31,7.71,1.81,11.33,1.81c11.78,0,21.2-5.33,21.71-5.63l0.88-1.01l2.29-5.66
			l5.71,3.75l0.42,5.3l0.76,1.43l6.08,4.92l-2.42,4.5l0.94,2.83l6.94,3.18l14.56,9.3l2.52-0.24l11.6-11.11l3.55,2.63l1.36,0.39
			l9.64-0.65l1.91-1.95l0.37-8.37c14.24,4.15,25.54,5.46,34.01,5.46c1.09,0,2.07-0.05,3.07-0.09l6.09,19.03l-5.35,5.78l-0.44,2.03
			l1.74,5.34l-9.64,3.17l-1.04,0.78l-4.21,6.05l-5.49,0.39l-1.65,1.05l-2.78,5.01l-16.48,9.31l-1.04,1.85l0.96,28.37l-4.86,2.19
			l-1.21,1.73l-0.67,9.85l-2.33,8.03l0.63,2.11c0.11,0.1,10.57,9.34,13.43,23.05l-10.58,12.52l-0.48,1.24l-0.45,11.04
			c-8.17-0.93-13.23-7.41-13.28-7.49l-0.31-0.33c-4.31-3.66-8.66-4.88-12.4-4.88c-3.95,0-7.22,1.36-9.03,2.66l-0.37,0.34
			c-4.34,5.07-12.75,6.05-18.61,6.05c-3.63,0-6.28-0.38-6.37-0.39c-1.36-0.18-2.69-0.26-3.98-0.26c-11.49,0-20.51,6.4-24.01,9.34
			l-8.47-9.13l0.9-6.09l-0.25-1.32l-4.95-8.67l0.49-8.59l-1.6-2.12c-0.66-0.15-1.3-0.21-1.9-0.21c-5.71,0-8.83,6.02-9.69,7.98
			l-4.17,3.07c-8.35-5.86-15.36-20.18-15.43-20.33l-3.26-0.59l-8.18,7.76l-6.87-1.23l-2.28,1.3c-8.98,24.15-15.18,28.01-17.44,28.55
			c-0.25,0.06-0.47,0.09-0.67,0.09c-0.7,0-1.04-0.31-1.06-0.31l-2.23-0.54c-2.48,0.92-4.88,1.38-7.19,1.38
			c-2.41,0-4.72-0.5-6.9-1.51c-8.97-4.16-13.18-15.5-13.23-15.63c-3.27-8.81-8.38-9.78-9.66-9.78c-0.1,0-0.17,0.01-0.22,0.01
			l3.78-9.74l25.55-14.9l5.33,0.51l9.92-3.08l0.38-7.18l-2.67-1.54l-4.57,4.11l-32.42-3.08l-1.89-9.24l28.21-19l4.2-17.96h19.82
			l10.31,12.31l-1.52-11.29l-14.5-10.77l23.26-13.34l-38.89,2.04l-0.77-13.86l9.53-7.18l1.32,1.98l13.82-3.59l11.52-9.19l4.39,0.28
			l1.13-0.25c7.89-4.38,8.87-12.52,8.95-15.27l5.89-6.23C345.79,10,345.84,10,345.9,10 M345.9,0C345.9,0,345.9,0,345.9,0
			c-0.17,0-0.34,0-0.5,0.01c-2.63,0.09-5.12,1.21-6.93,3.13l-5.89,6.23c-1.68,1.78-2.65,4.11-2.73,6.55
			c-0.04,1.18-0.35,3.77-2.26,5.68l-1.58-0.1c-0.21-0.01-0.43-0.02-0.64-0.02c-2.26,0-4.46,0.77-6.24,2.18l-9.86,7.87l-6.4,1.66
			c-0.78-0.36-1.62-0.62-2.48-0.77c-0.56-0.1-1.12-0.14-1.68-0.14c-2.16,0-4.27,0.7-6.01,2.01l-9.53,7.18
			c-2.67,2.01-4.15,5.21-3.97,8.54l0.77,13.86c0.3,5.32,4.71,9.45,9.98,9.45c0.18,0,0.35,0,0.53-0.01l5.23-0.27
			c-0.05,0.33-0.09,0.66-0.11,0.99c-0.01,0.11-0.01,0.23-0.01,0.34h-4.11c-4.65,0-8.68,3.2-9.74,7.73l-3.3,14.13l-24.95,16.8
			c-3.36,2.26-5.03,6.33-4.21,10.3l1.89,9.24c0.88,4.31,4.47,7.53,8.85,7.95l4.85,0.46l-10.46,6.1c-1.95,1.14-3.47,2.91-4.28,5.02
			l-3.78,9.74c-1.3,3.34-0.71,7.12,1.54,9.9c1.63,2.02,3.96,3.3,6.47,3.63c0.38,0.41,1.08,1.36,1.81,3.33
			c0.02,0.05,0.04,0.1,0.06,0.15c1.01,2.62,6.52,15.59,18.34,21.07c3.51,1.62,7.24,2.44,11.11,2.44c2.4,0,4.84-0.32,7.3-0.95
			c1.02,0.28,2.08,0.42,3.17,0.42c1,0,2.02-0.12,3.02-0.37c7.89-1.9,14.8-10.8,22.05-28.58l0.44,0.08c0.58,0.1,1.17,0.16,1.76,0.16
			c2.54,0,5.01-0.97,6.88-2.75l0.85-0.81c3.36,5.16,7.99,11.11,13.39,14.9c1.73,1.21,3.74,1.82,5.75,1.82
			c2.08,0,4.16-0.65,5.93-1.94l2.89-2.12l2.96,5.18l-0.5,3.38c-0.44,3,0.5,6.04,2.56,8.26l8.47,9.13c1.96,2.12,4.64,3.2,7.33,3.2
			c2.27,0,4.55-0.77,6.42-2.33c1.96-1.64,9.03-7,17.59-7c0.9,0,1.8,0.06,2.69,0.17l0,0c0.95,0.13,3.83,0.48,7.66,0.48
			c11.1,0,19.79-2.92,25.23-8.48c0.56-0.25,1.56-0.57,2.79-0.57c1.83,0,3.67,0.72,5.48,2.14c2.36,2.72,9.04,9.31,19.38,10.5
			c0.38,0.04,0.76,0.06,1.14,0.06c2.37,0,4.68-0.85,6.51-2.41c2.11-1.81,3.37-4.41,3.49-7.19l0.34-8.3l8.82-10.43
			c1.99-2.35,2.78-5.49,2.15-8.5c-2.38-11.4-8.75-20.09-12.95-24.8l1.03-3.57c0.2-0.69,0.32-1.4,0.37-2.11l0.34-5.09l0.52-0.24
			c3.7-1.67,6.02-5.4,5.88-9.45l-0.8-23.55l12.28-6.94c1.61-0.91,2.93-2.24,3.82-3.85l0.69-1.24l1.19-0.08
			c3.02-0.21,5.78-1.78,7.51-4.27l2.69-3.87l7.11-2.34c5.24-1.72,8.09-7.35,6.39-12.6l-0.29-0.9l2.18-2.35
			c2.45-2.65,3.29-6.41,2.19-9.84l-6.09-19.03c-1.33-4.16-5.19-6.95-9.52-6.95c-0.14,0-0.29,0-0.43,0.01l-0.34,0.01
			c-0.83,0.04-1.55,0.07-2.31,0.07c-9.18,0-19.69-1.7-31.22-5.06c-0.92-0.27-1.86-0.4-2.8-0.4c-2.07,0-4.11,0.64-5.82,1.87
			c-2.49,1.79-4.03,4.62-4.17,7.69l-0.04,0.99L466.18,31c-1.78-1.32-3.87-1.96-5.95-1.96c-2.51,0-5,0.94-6.92,2.78l-7.08,6.79
			l-9.3-5.94c-0.31-0.2-0.63-0.38-0.96-0.54c0.54-3.44-0.76-7.02-3.59-9.32l-3.42-2.77l-0.15-1.89c-0.24-3.08-1.9-5.88-4.48-7.58
			l-5.71-3.75c-1.65-1.08-3.56-1.64-5.49-1.64c-1,0-2,0.15-2.98,0.45c-2.86,0.89-5.16,3.02-6.29,5.79l-1.16,2.86
			c-2.89,1.26-8.32,3.2-14.45,3.2c-1.41,0-2.79-0.1-4.13-0.31c-0.37-1.84-0.67-3.87-0.69-5.67c-0.04-3.58-1.99-6.86-5.11-8.61
			c-1.52-0.85-3.21-1.28-4.89-1.28c-1.77,0-3.54,0.47-5.12,1.41c-1.02,0.61-2.11,0.92-3.24,0.92c-0.07,0-0.14,0-0.21,0
			C361.4,2.93,350.89,0,345.9,0L345.9,0z"/>
	</g>
</g>
<g>
	<g>
		<path class="st0" d="M243.36,88.55c-1.18,0-2.34-0.42-3.25-1.2c-1.13-0.97-1.78-2.4-1.75-3.89l0.37-20.03
			c0.03-1.87,1.11-3.56,2.78-4.39c0.7-0.35,1.46-0.52,2.22-0.52c1.05,0,2.09,0.33,2.96,0.97l10.25,7.53l10.63-3.27
			c0.48-0.15,0.98-0.22,1.47-0.22c1.06,0,2.1,0.34,2.97,0.98c1.28,0.94,2.03,2.44,2.03,4.02v10.51c0,2.43-1.74,4.5-4.13,4.92
			l-25.69,4.51C243.94,88.52,243.65,88.55,243.36,88.55z"/>
		<path class="st1" d="M243.73,63.51l12.28,9.02l13.04-4.01v10.51l-25.69,4.51L243.73,63.51 M243.73,53.51
			c-1.51,0-3.03,0.34-4.43,1.04c-3.35,1.66-5.49,5.04-5.56,8.78l-0.37,20.03c-0.06,2.99,1.23,5.84,3.5,7.78
			c1.83,1.56,4.14,2.4,6.5,2.4c0.58,0,1.15-0.05,1.73-0.15l25.69-4.51c4.78-0.84,8.27-4.99,8.27-9.85V68.53
			c0-3.17-1.51-6.16-4.06-8.04c-1.74-1.29-3.83-1.96-5.94-1.96c-0.98,0-1.97,0.15-2.94,0.44l-8.23,2.53l-8.23-6.04
			C247.9,54.17,245.83,53.51,243.73,53.51L243.73,53.51z"/>
	</g>
</g>
<g>
	<g>
		<path class="st0" d="M231.46,131.11c-0.75,0-1.5-0.17-2.19-0.51l-8.19-3.99c-1.54-0.75-2.59-2.24-2.78-3.95
			c-0.19-1.71,0.51-3.39,1.85-4.46l10.05-8.01c0.91-0.72,2.01-1.09,3.12-1.09c0.86,0,1.73,0.22,2.51,0.67
			c1.78,1.03,2.75,3.05,2.43,5.09l-1.86,12c-0.24,1.57-1.22,2.93-2.62,3.67C233.05,130.92,232.25,131.11,231.46,131.11z"/>
		<path class="st1" d="M233.31,114.1L233.31,114.1 M233.31,114.1l-1.86,12l-8.19-3.99L233.31,114.1 M233.31,104.1
			c-0.06,0-0.12,0-0.18,0c0,0,0,0,0,0c0,0,0,0,0,0c-2.32,0.04-4.44,0.87-6.11,2.23l-9.99,7.96c-2.68,2.14-4.08,5.5-3.71,8.91
			c0.38,3.41,2.47,6.39,5.56,7.89l8.19,3.99c1.38,0.67,2.88,1.01,4.38,1.01c1.59,0,3.18-0.38,4.63-1.14
			c2.81-1.47,4.76-4.19,5.25-7.33l1.81-11.72c0.11-0.59,0.16-1.19,0.16-1.81c0-5.48-4.41-9.94-9.88-10c0,0,0,0,0,0c0,0,0,0,0,0
			C233.39,104.1,233.35,104.1,233.31,104.1L233.31,104.1z M233.31,124.1L233.31,124.1L233.31,124.1L233.31,124.1z"/>
	</g>
</g>
<g>
	<g>
		<g>
			<path class="st0" d="M340.35,279.11c-1.72,0-3.32-0.88-4.24-2.35l-5.62-9.02l-10.25,1.86c-0.3,0.05-0.6,0.08-0.89,0.08
				c-1.15,0-2.27-0.4-3.17-1.14l-3.16-2.59c-1.36-1.12-2.03-2.87-1.77-4.61l2.65-17.66c0.36-2.39,2.38-4.19,4.8-4.25l2.32-0.06
				l2.47-6.23c0.62-1.56,1.98-2.71,3.62-3.05l3.39-0.71c0.34-0.07,0.68-0.11,1.02-0.11c0.97,0,1.93,0.28,2.76,0.83
				c1.11,0.74,1.89,1.89,2.15,3.2l0.44,2.23l6.93-0.55l4.65-5.44c0.85-1,2.07-1.62,3.38-1.74l5.99-0.51
				c0.14-0.01,0.28-0.02,0.42-0.02c1.66,0,3.23,0.83,4.16,2.23l8.74,13.11l5.88,0.21c1.44,0.05,2.79,0.72,3.7,1.84
				c0.91,1.12,1.29,2.58,1.05,4l-2.54,14.79c-0.22,1.3-0.96,2.47-2.03,3.23l-7.93,5.63c-0.85,0.61-1.87,0.92-2.89,0.92
				c-0.42,0-0.83-0.05-1.25-0.16c-1.42-0.37-2.62-1.34-3.26-2.67l-0.16-0.32l-14.67,8.04c-0.61,0.33-1.28,0.54-1.97,0.6l-4.3,0.37
				C340.63,279.1,340.49,279.11,340.35,279.11z"/>
			<path class="st1" d="M358.24,232.27l9.58,14.37l1.63,0.91l7.39,0.26l-2.54,14.79l-7.93,5.63l-1.51-3.12l-2.83-0.9l-17.39,9.53
				l-4.3,0.37l-6.69-10.72l-2.11-0.93l-12.22,2.22l-3.16-2.59l2.65-17.66l4.26-0.12l1.85-1.29l3.18-8.04l3.39-0.71l0.96,4.8
				l2.18,1.64l10.77-0.86l1.39-0.71l5.44-6.37L358.24,232.27 M358.24,222.27c-0.28,0-0.56,0.01-0.84,0.04l-5.99,0.51
				c-2.62,0.22-5.05,1.47-6.76,3.47l-3.31,3.87l-0.68,0.05c-0.77-1.73-2.02-3.22-3.62-4.28c-1.65-1.09-3.57-1.66-5.51-1.66
				c-0.68,0-1.37,0.07-2.05,0.21l-3.39,0.71c-3.29,0.69-6.01,2.98-7.25,6.1l-1.27,3.21c-4.39,0.56-7.94,3.98-8.61,8.43l-2.65,17.66
				c-0.52,3.48,0.82,6.98,3.54,9.22l3.16,2.59c1.8,1.48,4.05,2.27,6.34,2.27c0.6,0,1.19-0.05,1.79-0.16l6.91-1.26l3.83,6.14
				c1.84,2.94,5.05,4.71,8.48,4.71c0.29,0,0.57-0.01,0.86-0.04l4.3-0.37c1.38-0.12,2.73-0.53,3.95-1.19l11.16-6.11
				c0.98,0.69,2.09,1.21,3.28,1.52c0.82,0.21,1.66,0.32,2.49,0.32c2.05,0,4.08-0.63,5.79-1.85l7.93-5.63
				c2.16-1.53,3.62-3.86,4.07-6.46l2.54-14.79c0.49-2.85-0.28-5.76-2.1-8s-4.52-3.58-7.41-3.68l-3.32-0.12l-7.32-10.98
				C364.69,223.92,361.56,222.27,358.24,222.27L358.24,222.27z"/>
		</g>
	</g>
</g>
<g>
	<g>
		<path class="st2" d="M416.06,498.81c-0.27,0-0.54-0.02-0.81-0.07c-1.77-0.29-3.25-1.51-3.88-3.2l-5.94-16.03
			c-0.67-1.81-0.24-3.84,1.1-5.22c0.96-0.99,2.26-1.52,3.59-1.52c0.53,0,1.07,0.08,1.59,0.26l14.88,5.01
			c1.55,0.52,2.75,1.77,3.21,3.34c0.46,1.57,0.11,3.27-0.92,4.54l-8.94,11.03C418.98,498.14,417.55,498.81,416.06,498.81z
			 M10.74,475.26c-0.97,0-1.94-0.28-2.77-0.84c-1.34-0.89-2.17-2.37-2.23-3.98L5,450.4c-0.08-2.28,1.38-4.33,3.57-4.98
			c0.47-0.14,0.95-0.21,1.42-0.21c1.72,0,3.36,0.89,4.29,2.42l5.38,8.95l8.67,2.9c2.01,0.67,3.37,2.53,3.41,4.65
			c0.04,2.11-1.26,4.03-3.24,4.77l-16,6.03C11.94,475.15,11.34,475.26,10.74,475.26z M298.45,467.75c-0.56,0-1.12-0.09-1.66-0.28
			l-8.56-3.02c-1.96-0.69-3.27-2.52-3.34-4.56l-0.7-0.04l-6.05,4.05c-0.83,0.56-1.8,0.84-2.78,0.84c-0.54,0-1.08-0.09-1.6-0.26
			l-7.44-2.52c-2.38-0.8-3.79-3.24-3.3-5.7l1.87-9.5c0.22-1.11,0.81-2.12,1.68-2.85l2-1.69l4.27-11.05l-4.66-4.52
			c-0.91-0.88-1.45-2.08-1.51-3.34l-0.24-4.95l-6.73-3.76c-1.64-0.92-2.63-2.67-2.56-4.55l0.33-8.73l-1.12-1.8
			c-0.36-0.58-0.59-1.22-0.7-1.89l-3.34-21.97l-0.7-1.71l-1.67-0.4l0.87,3.26c0.26,0.97,0.22,1.99-0.11,2.94l-5.59,16.02
			c-0.31,0.88-0.85,1.66-1.58,2.24l-11.16,9.03c-0.9,0.73-2.01,1.11-3.14,1.11c-0.37,0-0.74-0.04-1.1-0.12l-5.89-1.33l-2.89,3.6
			c-0.95,1.18-2.38,1.87-3.9,1.87h-12.65c-1.9,0-3.64-1.08-4.48-2.78c-3.92-7.93-7.9-10.42-8.42-10.72
			c-2.07-0.83-3.1-2.84-2.86-5.07l1.12-10.51c0.16-1.54,1.03-2.92,2.35-3.73l28.08-17.27l0.83-7.1c0.21-1.76,1.31-3.24,2.87-3.96
			l-1.17-2.4c-0.52,1.13-1.44,2.04-2.62,2.53l-14.79,6.17c-0.07,1.27-0.62,2.51-1.63,3.42l-13.77,12.54
			c-0.93,0.85-2.13,1.3-3.37,1.3c-0.38,0-0.75-0.04-1.13-0.13c-1.6-0.37-2.92-1.5-3.52-3.03l-4.21-10.62
			c-0.93,1.4-2.49,2.24-4.17,2.24c-0.01,0-0.03,0-0.04,0c-1.71-0.01-3.29-0.9-4.2-2.35l-5.96-9.52c-0.68-1.09-0.92-2.4-0.66-3.66
			l1.01-4.9l-2.41-0.95c-1.11-0.44-2.03-1.26-2.59-2.31l-3.72-7.02c-0.57-1.09-0.73-2.34-0.44-3.54l1.79-7.27l1.09-7.75
			c0.24-1.7,1.34-3.16,2.91-3.87l12.28-5.5c0.65-0.29,1.35-0.44,2.04-0.44c1.07,0,2.13,0.34,3.01,1.01c1.46,1.1,2.2,2.9,1.94,4.7
			l-1.28,9l5.66,11.65c0.66,1.36,0.67,2.95,0.02,4.32l-3.62,7.64l0.19,0.17c0,0,11.86-0.44,11.92-0.44c0.59,0,1.17,0.1,1.71,0.3
			c0.08-1.87,1.21-3.61,3.02-4.39l8.19-3.52c0.21-0.09,0.42-0.16,0.63-0.22l-19.06-13.65c-1.56-1.12-2.34-3.02-2.02-4.91l2.1-12.22
			l-6.37-5.4l-9.96,0.41c-0.07,0-0.14,0-0.21,0c-1.99,0-3.81-1.19-4.6-3.03c-0.82-1.91-0.37-4.12,1.12-5.56l17.11-16.53
			c0.96-0.93,2.21-1.4,3.48-1.4c0.92,0,1.85,0.25,2.67,0.77l6.34,4c1.96,1.24,2.81,3.66,2.06,5.85l-0.76,2.21l1.42-0.96
			c0.84-0.56,1.81-0.85,2.79-0.85c0.7,0,1.39,0.14,2.05,0.44l5.58,2.5c1.95,0.87,3.13,2.89,2.93,5.02l-0.74,8.01
			c-0.07,0.75-0.31,1.46-0.68,2.1l2.91,1.57c2.2,1.18,3.18,3.8,2.31,6.14l-1.42,3.81l2.8,19.77c0.28,1.98-0.65,3.94-2.36,4.98
			c-0.37,0.23-0.77,0.4-1.17,0.52l4.65,3.24l-0.98-2.01c-0.63-1.29-0.67-2.78-0.13-4.1l11.84-28.66l-7.79-0.89
			c-2.45-0.28-4.33-2.31-4.43-4.78l-0.33-8.92l-5.4-8.62c-0.79-1.26-0.98-2.82-0.51-4.23c0.47-1.42,1.55-2.55,2.95-3.08l8.03-3.09
			c-0.53-0.38-0.99-0.87-1.35-1.46l-4.56-7.53l0.08,0.88c0.16,1.68-0.55,3.33-1.88,4.38l-6.48,5.13c-0.9,0.71-2,1.08-3.1,1.08
			c-0.75,0-1.51-0.17-2.21-0.52l-7.25-3.58c-2.14-1.05-3.23-3.47-2.62-5.77l2.45-9.16l-17.68-10.38c-1.27-0.74-2.14-2.01-2.4-3.46
			l-1.15-6.67c-0.24-1.38,0.11-2.8,0.97-3.91c0.86-1.11,2.14-1.81,3.54-1.93l11-0.93l10.41-6.54c0.63-0.4,1.35-0.65,2.09-0.73
			l4.56-0.52c0.19-0.02,0.38-0.03,0.57-0.03c1.59,0,3.11,0.76,4.05,2.07c1.06,1.46,1.24,3.38,0.49,5.02l-2.09,4.53l24.16-5.88
			c-1.29-0.33-2.39-1.15-3.07-2.3l-4.56-7.7c-0.83-1.4-0.93-3.12-0.26-4.6c0.67-1.48,2.02-2.55,3.62-2.86l7.82-1.5l14.3-41.92
			c0.02-0.07,0.05-0.13,0.07-0.2l0.77-1.99c0.76-1.95,2.63-3.19,4.66-3.19c0.31,0,0.62,0.03,0.94,0.09
			c2.37,0.45,4.08,2.52,4.07,4.93l0,0.92c1.94,1.44,4.09,3.98,5.74,8.43c0.05,0.14,4.14,11.13,12.75,15.13
			c2.07,0.96,4.27,1.45,6.54,1.45c1.92,0,3.94-0.35,6.02-1.03c0.51-0.17,1.03-0.25,1.56-0.25c0.85,0,1.7,0.22,2.46,0.65
			c0.12,0.07,0.25,0.1,0.42,0.1c0.11,0,0.23-0.01,0.36-0.04c1.15-0.22,7.24-2.53,16.34-26.45c0.75-1.97,2.63-3.22,4.67-3.22
			c0.29,0,0.59,0.03,0.88,0.08l4.75,0.85l5.87-5.58c0.94-0.89,2.17-1.38,3.44-1.38c0.26,0,0.52,0.02,0.78,0.06
			c1.54,0.24,2.87,1.18,3.61,2.55c4.23,7.79,9.14,14.09,13.45,17.35l3.44-2.53c0.97-2.16,3.68-7.08,8.7-8.11
			c0.33-0.07,0.67-0.1,1.01-0.1c1.19,0,2.35,0.42,3.27,1.22c1.17,1.02,1.81,2.52,1.72,4.07l-0.36,6.23l4.46,7.82
			c0.56,0.97,0.77,2.1,0.6,3.21l-0.73,4.97l7.62,8.22c4.04-3.21,12.9-9.02,23.95-9.02c1.35,0,2.7,0.09,4.03,0.26
			c0.04,0,0.08,0.01,0.12,0.02c0.02,0,2.55,0.39,6.15,0.39c4.79,0,13.48-0.73,17.82-5.6c0.32-0.36,0.69-0.67,1.1-0.93
			c1.23-0.76,4.59-2.53,9.18-2.53c4.51,0,8.79,1.66,12.72,4.93c0.26,0.22,0.5,0.46,0.72,0.73c0.51,0.64,5.22,6.32,12.82,7.06
			c2.63,0.26,4.61,2.53,4.51,5.17l-0.03,0.75l17.37,44.57l13.02,6.47c2.23,1.11,3.31,3.7,2.52,6.06l-2.3,6.9l2.99,33.25
			c0.05,0.06,0.09,0.11,0.13,0.17c1.04,1.36,1.31,3.16,0.72,4.77l-4.8,12.97c2.2,7.04,9.25,31.2,6.53,42.26
			c-0.56,2.27-2.6,3.8-4.85,3.8c-0.33,0-0.67-0.03-1.01-0.1l-2.85-0.58l1.98,3.55l13.17,7c2.19,1.16,3.19,3.75,2.36,6.09l-8.38,23.6
			c-0.46,1.29-1.42,2.33-2.67,2.89c-0.65,0.29-1.34,0.44-2.04,0.44c-0.64,0-1.29-0.12-1.89-0.37l-8.77-3.59
			c-2.23-0.91-3.49-3.28-3-5.64l3.1-14.98l-27.07-16.14c-0.55-0.33-1.03-0.76-1.41-1.25c-0.83,0.59-1.83,0.92-2.9,0.92h-8.04
			l11.8,27.21c0.54,1.24,0.55,2.65,0.03,3.9c-0.52,1.25-1.52,2.24-2.78,2.74l-6.33,2.51c-0.6,0.24-1.22,0.35-1.84,0.35
			c-1.03,0-2.06-0.32-2.92-0.94l-16.01-11.52c-1.47-1.06-2.26-2.84-2.05-4.64l0.41-3.54l-3.16,3.71c-0.77,0.91-1.84,1.51-3.02,1.7
			l-2.47,0.4l-0.19,4.15c-0.01,0.24-0.04,0.47-0.08,0.7l-0.39,2.06c-0.35,1.85-1.71,3.34-3.51,3.87c-0.46,0.13-0.93,0.2-1.4,0.2
			c-1.36,0-2.68-0.55-3.64-1.57l-11.11-11.79l-2.11,8.98c-0.48,2.06-2.21,3.59-4.31,3.82l-9.14,1.02c-0.19,0.02-0.37,0.03-0.56,0.03
			c-0.86,0-1.71-0.22-2.46-0.65l-11.09-6.26l11.31,30.05c0.63,1.69,0.31,3.58-0.84,4.97c-0.96,1.15-2.37,1.79-3.84,1.79
			c-0.3,0-0.6-0.03-0.9-0.08l-7.47-1.37l-21.98,2.43c-0.19,0.02-0.37,0.03-0.56,0.03c-2.49,0-4.64-1.86-4.96-4.39l-1.05-8.51
			l-7.29,6.81c-0.93,0.87-2.15,1.35-3.41,1.35c-0.07,0-0.14,0-0.22,0l-18.42-0.8c-0.04,2.25-1.57,4.19-3.75,4.75l-8.01,2.06
			c-0.41,0.11-0.83,0.16-1.24,0.16c-1.12,0-2.23-0.38-3.13-1.1l-8.28-6.63l0.33,1.88c0.22,1.3-0.08,2.59-0.78,3.64l6.91,8.4
			l5.49,3.04c1.63,0.9,2.62,2.63,2.58,4.49l-0.38,16.54c-0.04,1.53-0.77,2.96-1.99,3.88l-3.34,2.51
			C300.57,467.41,299.52,467.75,298.45,467.75z M351.66,393.79c1.06,0.42,1.95,1.2,2.51,2.22c0.75,1.36,0.83,2.98,0.21,4.4
			l-3.69,8.52l8.85-6.35c0.87-0.62,1.89-0.94,2.92-0.94c0.27,0,0.54,0.02,0.81,0.07l0.53-17.76c0.07-2.39,1.82-4.39,4.18-4.78
			c0.28-0.05,0.55-0.07,0.83-0.07c2.05,0,3.93,1.27,4.68,3.24l0.24,0.62c0.69-6.08,2.7-21.09,6.54-30.56
			c0.69-1.7,2.25-2.89,4.07-3.09l1.53-0.17l3.13-8.41c0.62-1.67,2.09-2.89,3.85-3.19c0.28-0.05,0.56-0.07,0.84-0.07
			c0.66,0,1.31,0.13,1.92,0.38c0,0-0.07-3.06-0.07-3.1l-31.37,17.44l-0.96,15.23c-0.03,0.49-0.13,0.97-0.3,1.43l-1.95,5.23
			l0.35,11.33c0.06,1.89-0.95,3.64-2.61,4.54L351.66,393.79z M481.4,351.5l1.51-0.48l1.11-8.66c0.06-0.47,0.19-0.93,0.38-1.36
			l2.22-5.08l-3.6-2.66l-1.61,3.62V351.5z M450.71,346.12l7.2-0.2l-0.63-0.76c-1.19-1.44-1.48-3.41-0.75-5.13
			c0.08-0.18,7.72-18.86-2.38-26.73l-2.4-1.39c-1.37-0.79-2.28-2.19-2.45-3.76l-0.33-2.89l-3.71,3.79c-0.9,0.92-2.11,1.45-3.39,1.5
			l-2.66,0.1c-0.05,0.17-0.12,0.33-0.19,0.5l-4.96,11.27L450.71,346.12z M330.92,261.73c1.7,0,3.32,0.87,4.24,2.35l5.66,9.08
			l3.15-0.27l15.79-8.46c0.73-0.39,1.55-0.59,2.36-0.59c0.52,0,1.04,0.08,1.55,0.25c1.29,0.42,2.36,1.35,2.96,2.58l0.11,0.22
			l6.76-4.8l2.3-13.41l-5.31-0.18c-1.61-0.06-3.09-0.88-3.99-2.22l-8.7-13.06l-5.1,0.44l-4.64,5.44c-0.86,1.01-2.09,1.63-3.41,1.74
			l-8.1,0.64c-0.13,0.01-0.27,0.02-0.4,0.02c-2.37,0-4.43-1.67-4.9-4.03l-0.42-2.12l-2.03,0.43l-2.5,6.32
			c-0.74,1.86-2.51,3.1-4.51,3.16l-2.16,0.06l-2.46,16.41l2.44,2l10.44-1.9C330.33,261.76,330.63,261.73,330.92,261.73z
			 M232.32,258.6l1.25-1.63l-1.18,0.58l-0.13,0.97L232.32,258.6z M343.48,466.75c-0.49,0-0.99-0.07-1.47-0.22l-16.38-5.02
			c-1.44-0.44-2.61-1.51-3.17-2.91s-0.46-2.98,0.27-4.3l6.69-12.01c0.91-1.63,2.61-2.57,4.37-2.57c0.68,0,1.38,0.14,2.04,0.44
			l11.18,5c2.01,0.9,3.19,3,2.92,5.18l-1.49,12.04c-0.18,1.47-1,2.78-2.24,3.58C345.38,466.48,344.44,466.75,343.48,466.75z
			 M408.98,458.73c-0.55,0-1.11-0.09-1.64-0.28l-11.53-4.01c-1.49-0.52-2.65-1.71-3.12-3.21c-0.48-1.5-0.22-3.14,0.7-4.42
			l9.68-13.52c0.95-1.33,2.48-2.09,4.07-2.09c0.42,0,0.85,0.05,1.28,0.17c2.01,0.53,3.48,2.24,3.7,4.31l1.86,17.53
			c0.18,1.7-0.52,3.38-1.87,4.44C411.19,458.36,410.09,458.73,408.98,458.73z M72.89,441.69c-1.47,0-2.89-0.65-3.85-1.82
			c-1.23-1.49-1.49-3.54-0.68-5.29l5.58-12c0.75-1.62,2.31-2.71,4.09-2.87c0.15-0.01,0.3-0.02,0.44-0.02c1.62,0,3.15,0.79,4.09,2.12
			l6.34,9.01c0.95,1.35,1.17,3.08,0.6,4.62c-0.57,1.54-1.87,2.71-3.47,3.11l-11.92,2.99C73.71,441.64,73.3,441.69,72.89,441.69z
			 M187.33,436.69l-35.74-1.5c-2.45-0.1-4.46-1.96-4.75-4.39s1.21-4.72,3.57-5.4l19.7-5.74l4.07-13.89
			c0.42-1.43,1.46-2.61,2.84-3.19c0.63-0.27,1.3-0.4,1.96-0.4c0.79,0,1.58,0.19,2.31,0.56l16.38,8.51c2.41,1.25,3.38,4.19,2.19,6.63
			l-7.81,16.02c-0.84,1.72-2.59,2.81-4.49,2.81C187.47,436.69,187.4,436.69,187.33,436.69z M419.04,428.18
			c-1.55,0-3.05-0.73-4.01-2.01c-1.21-1.62-1.32-3.82-0.28-5.56l7.81-13.02c0.89-1.49,2.5-2.41,4.24-2.43c0.02,0,0.03,0,0.05,0
			c1.72,0,3.32,0.89,4.24,2.35l5.94,9.5c0.85,1.35,1,3.03,0.4,4.51s-1.86,2.59-3.4,2.99l-13.76,3.53
			C419.87,428.13,419.45,428.18,419.04,428.18z M142.87,355.53c-0.46,0-0.93-0.06-1.38-0.2c-1.87-0.54-3.26-2.12-3.56-4.04
			l-1.86-12.02c-0.26-1.71,0.37-3.43,1.68-4.55c0.92-0.79,2.08-1.21,3.26-1.21c0.5,0,1,0.07,1.49,0.23l9.67,3.01
			c1.61,0.5,2.86,1.78,3.32,3.41s0.07,3.37-1.03,4.65l-7.81,9.01C145.69,354.92,144.3,355.53,142.87,355.53z M67.31,354.55
			c-0.73,0-1.47-0.16-2.16-0.49c-1.84-0.88-2.96-2.79-2.83-4.82l0.3-4.74l-1.33-2.86c-0.78-1.67-0.57-3.63,0.53-5.11l1.87-2.5
			l0.92-5.81c0.31-1.97,1.76-3.57,3.7-4.06l5.13-1.32l2.52-7.88c0.67-2.08,2.6-3.48,4.76-3.48c0.15,0,0.29,0.01,0.44,0.02
			c2.33,0.2,4.21,1.99,4.52,4.31l1.49,11.02c0.09,0.69,0.04,1.4-0.16,2.07l-3.36,11.51c-0.26,0.88-0.75,1.67-1.43,2.29l-11.54,10.53
			C69.74,354.1,68.54,354.55,67.31,354.55z M28.99,349.53c-1.31,0-2.58-0.52-3.52-1.45l-8.56-8.5c-1.66-1.65-1.95-4.23-0.71-6.21
			l6.32-10.03c0.92-1.46,2.53-2.33,4.23-2.33c0.17,0,0.35,0.01,0.53,0.03l14.15,1.5c1.76,0.19,3.29,1.29,4.02,2.9
			c0.73,1.61,0.56,3.49-0.45,4.94L33.08,347.4c-0.84,1.21-2.18,1.98-3.65,2.12C29.28,349.52,29.13,349.53,28.99,349.53z
			 M186.42,205.75c-1.45,0-2.87-0.63-3.83-1.79l-10.05-12.01c-1.25-1.49-1.52-3.57-0.7-5.33c0.82-1.76,2.59-2.88,4.53-2.88h10.42
			c1.35,0,2.65,0.55,3.59,1.52c0.94,0.97,1.45,2.28,1.41,3.64l-0.23,7.41c0.14-0.73,0.44-1.42,0.9-2.03l4.84-6.51
			c0.94-1.27,2.43-2.02,4.01-2.02c0.04,0,0.09,0,0.13,0c1.63,0.04,3.13,0.88,4.03,2.23l6.33,9.52c1.15,1.73,1.11,4-0.11,5.69
			c-0.95,1.33-2.48,2.08-4.06,2.08c-0.43,0-0.87-0.06-1.3-0.17l-11.17-3.01c-1.6-0.43-2.88-1.62-3.42-3.19
			c-0.11-0.33-0.19-0.66-0.23-0.99l-0.09,3c-0.06,2.07-1.4,3.89-3.36,4.57C187.51,205.66,186.96,205.75,186.42,205.75z"/>
		<path class="st1" d="M332.45,160.19c2.67,4.9,9.17,15.73,16.85,20.32l2.27-0.1l5.77-4.24l0.71-0.94c0.02-0.05,1.94-5.11,5.38-5.81
			l-0.41,7.1l0.26,1.13l4.9,8.58l-0.94,6.37l0.53,1.69l10.51,11.33l2.95,0.06c0.1-0.11,9.86-9.57,22.74-9.57
			c1.1,0,2.23,0.07,3.37,0.22c0.3,0.05,3.09,0.45,6.92,0.45c6.54,0,16.12-1.17,21.56-7.28c0.65-0.4,3.12-1.78,6.55-1.78
			c2.72,0,6.03,0.87,9.53,3.77c1.04,1.3,6.88,8.01,16.24,8.93l-0.07,1.79l18.16,46.61l1,1.08l14.04,6.97l-2.49,7.47l-0.1,0.84
			l3.3,36.71l0.89-0.08l-5.39,14.58c0,0,9.73,29.93,6.96,41.19l-13.54-2.78l8.02,14.37l14.47,7.7l-8.38,23.6l-8.77-3.59l3.82-18.47
			l-30.13-17.96l5.13-1.65l-13.89-16.83c0,0,9.53-22.58-4.2-32.84l-2.67-1.55l-1.52-13.34l-11.06,11.31l-13.34,0.5l6.1,3.08
			l-6.1,13.85l19.81,28.22l17.55-0.5l-2.67,8.72h-21.72l-5.36,2.58l4.59,4.61l-12.2,14.34l-6.49,1.04l-0.38,8.21l-0.39,2.06
			l-12.58-13.33l-9.54-6.69l-14.48,1.03l-0.76,7.2c0,0,4.02-0.8,8.45-0.8c3.51,0,7.28,0.51,9.47,2.32l-2.29,9.75l-9.14,1.02
			l-11.82-6.67c0,0,1.9-20.51,6.47-31.81l4.58-0.52l4.2-11.29l7.23,8.72l-0.38-16.42l6.88-7.17l4.57,10.78l3.43-4.12l0.39-8.21
			l-13.36-4.61l-8,8.2l-35.09,19.51l-1.13,17.96l-2.29,6.15l0.38,12.31l-19.83,10.79l13.34,2.06l-5.33,12.32l-8.77,8.2l-23.64-1.02
			v5.13l-8.01,2.06l-17.93-14.36l0.77,7.69l1.15,6.67l-9.54,4.61l-6.86-6.65l-0.38-7.71l-9.15-5.12l0.39-10.26l-1.92-3.1
			l-3.43-22.56l-1.9-4.63l-10.68-2.56l-6.48-7.19l-7.1-2.39l11.64,8.03l3.35,12.53l-5.59,16.02l-11.16,9.03l-8.93-2.01l-4.84,6.03
			h-12.65c-5.21-10.54-10.79-13.04-10.79-13.04l1.12-10.51l30.14-18.54l1.11-9.5l2.98-0.52l1.46,1.01l-0.65-4.34l-7.24-14.88
			l13.35-32.32c0,0,1.91-2.57,1.53-5.13l-3.06-1.03l-3.05,3.06l-8.77-1.01l-0.38-10.26l-6.11-9.75l10.68-4.12l15.25-20.01
			l-3.44-4.62l-0.38-8.21l-4.57,8.73l-4.19,2.05l-0.77,5.64l3.06,4.11l-2.68,2.57l-3.8,2.04l-8.39-13.85l-6.1,2.05l0.76,8.21
			l-6.48,5.13l-7.25-3.58l3.43-12.84l-20.96-12.3l-1.15-6.67l12.21-1.03l11.44-7.18l4.56-0.52l-3.79,8.22l5.72,10.79l0.38-7.2
			l31.65-7.7l-1.91,7.7l16.4,5.64l-7.24-8.2l-3.82-11.31l-9.54-2.04l-4.56-7.7l10.67-2.04l15.24-44.67l0.77-1.99l-0.02,4.04
			c0.15,0,3.54,0.27,6.07,7.08c0.19,0.53,4.81,13.04,15.33,17.93c2.75,1.28,5.64,1.92,8.64,1.92c2.45,0,4.99-0.43,7.58-1.28
			c0.68,0.38,1.64,0.74,2.87,0.74c0.42,0,0.86-0.04,1.34-0.14c6.3-1.23,13.04-11.18,20.04-29.57l6.22,1.11l1.78-0.53L332.45,160.19
			 M336.14,236.48l-1-5.05l-2.43-1.6l-6.5,1.37l-1.48,1.25l-3.09,7.8l-4.63,0.13l-1.97,1.75l-3.07,20.51l0.73,1.89l4.79,3.93
			l1.67,0.43l11.78-2.15l6.61,10.61l1.91,0.96l5.98-0.51l16.69-8.95l1.62,3.36l3.03,0.78l10.59-7.52l0.84-1.33l3.07-17.94l-1.95-2.4
			l-8.69-0.3l-9.67-14.51l-1.88-0.91l-8.04,0.69l-1.39,0.71l-5.43,6.36L336.14,236.48 M476.4,358.36l11.06-3.56l1.52-11.81
			l3.82-8.73l-11.82-8.71l-4.58,10.26V358.36 M186.79,188.75L186.79,188.75 M186.79,188.75l-0.37,12.01l-10.05-12.01H186.79
			 M201.31,190.75l6.33,9.52l-11.17-3.01L201.31,190.75 M186.04,276.9l6.34,4l-2.24,6.52l4.47,4.51l5.95-4.01l5.58,2.5l-0.74,8.01
			l-4.47,3.51l9.3,5.02l-1.86,5l2.97,21.03l-23.06-16.52l2.59-15.04l-10.04-8.5l-11.91,0.49L186.04,276.9 M173.02,308.98
			L173.02,308.98 M173.02,308.98l-1.5,10.51l6.33,13.03l-5.21,11.01l4.46,4.01l13.76-0.52l7.83,10.03l-13.77,12.54l-5.96-15.04
			l-4.47-0.5l-2.6,4l-5.96-9.52l1.86-9.02l-6.32-2.49l-3.72-7.02l1.86-7.52l1.13-8.01L173.02,308.98 M80.72,316.48l1.49,11.02
			l-3.36,11.51l-11.54,10.53l0.38-6.01l-1.87-4.01l2.61-3.49l1.11-7.03l7.81-2L80.72,316.48 M26.75,326l14.15,1.5l-11.91,17.03
			l-8.56-8.5L26.75,326 M141.02,338.52l9.67,3.01l-7.81,9.01L141.02,338.52 M205.77,339.01l10.79,7.53l-15.63,6.52l-3.35-10.53
			L205.77,339.01 M449.18,363.56l13.03,30.05l-6.33,2.51l-16.01-11.52l2.23-19.04L449.18,363.56 M368.8,384.11l14.51,38.56
			l-8.19-1.5l-22.71,2.51l-1.11-9.02l11.17-8.01l5.58,3L368.8,384.11 M178.97,407.16l16.38,8.51l-7.81,16.02l-35.74-1.5l22.34-6.51
			L178.97,407.16 M426.85,410.15l5.94,9.5l-13.76,3.53L426.85,410.15 M78.47,424.69l6.34,9.01l-11.92,2.99L78.47,424.69
			 M288.02,430.69l7.83,9.52l6.33,3.5l-0.38,16.54l-3.34,2.51l-8.56-3.02l0.37-4.51l-7.44-0.48l-7.46,4.99l-7.44-2.52l1.87-9.5
			l2.97-2.51l4.84-12.52L288.02,430.69 M407.12,436.2l1.86,17.53l-11.53-4.01L407.12,436.2 M333.79,444.72l11.18,5l-1.49,12.04
			l-16.38-5.02L333.79,444.72 M10,450.21l6.33,10.53l10.42,3.49l-16,6.03L10,450.21 M410.11,477.78l14.88,5.01l-8.94,11.03
			L410.11,477.78 M332.45,150.19c-2.54,0-5.02,0.97-6.89,2.75l-4.04,3.84l-2.26-0.4c-0.59-0.11-1.18-0.16-1.77-0.16
			c-4.09,0-7.84,2.51-9.34,6.44c-6.21,16.32-10.58,21.41-12.25,22.88c-0.86-0.24-1.76-0.36-2.65-0.36c-1.05,0-2.1,0.16-3.11,0.5
			c-1.58,0.52-3.08,0.78-4.47,0.78c-1.56,0-3-0.32-4.43-0.98c-5.57-2.59-9.22-9.75-10.15-12.29c0-0.01-0.02-0.05-0.02-0.06
			c-1.55-4.18-3.52-7.07-5.53-9.08c-0.61-4.16-3.79-7.57-8.03-8.38c-0.63-0.12-1.25-0.18-1.87-0.18c-4.06,0-7.8,2.48-9.32,6.38
			l-0.77,1.99c-0.05,0.13-0.1,0.26-0.14,0.39l-13.37,39.16l-4.97,0.95c-3.2,0.61-5.9,2.74-7.24,5.71c-1.34,2.97-1.15,6.4,0.51,9.21
			l2.7,4.55l-7.38,1.8c-0.07-1.95-0.71-3.87-1.89-5.5c-1.89-2.62-4.92-4.14-8.1-4.14c-0.38,0-0.75,0.02-1.13,0.06l-4.56,0.52
			c-1.49,0.17-2.92,0.67-4.19,1.47l-9.38,5.89l-9.79,0.83c-2.79,0.24-5.36,1.63-7.07,3.85c-1.71,2.22-2.42,5.05-1.94,7.82l1.15,6.67
			c0.5,2.9,2.25,5.43,4.79,6.92l14.4,8.45l-1.47,5.49c-0.26,0.98-0.37,1.97-0.33,2.94c-0.03,0-0.07,0-0.1,0
			c-2.53,0-5.03,0.95-6.95,2.81l-17.11,16.53c-2.99,2.88-3.88,7.31-2.25,11.13c0.87,2.03,2.36,3.67,4.2,4.73l-7.28,3.26
			c-3.14,1.41-5.34,4.33-5.81,7.73l-1.05,7.5l-1.73,7.02c-0.21,0.84-0.3,1.69-0.29,2.54l-3.77-1.17c-0.98-0.3-1.98-0.45-2.97-0.45
			c-2.36,0-4.69,0.84-6.53,2.42c-2.61,2.25-3.88,5.69-3.36,9.1l1.86,12.02c0.6,3.85,3.37,7,7.11,8.08c0.91,0.26,1.85,0.39,2.77,0.39
			c2.85,0,5.63-1.22,7.56-3.45l5.71-6.59c0.24,1.18,0.68,2.31,1.33,3.35l5.96,9.52c1.81,2.9,4.98,4.67,8.39,4.69
			c0.03,0,0.06,0,0.08,0c0.54,0,1.08-0.04,1.61-0.13l2.12,5.35c1.21,3.05,3.84,5.32,7.04,6.06c0.43,0.1,0.87,0.17,1.31,0.21
			c-0.42,0.94-0.69,1.95-0.81,3l-1.12,10.51c-0.18,1.69,0.07,3.34,0.68,4.84c-1.21-0.49-2.49-0.74-3.77-0.74
			c-1.33,0-2.67,0.27-3.92,0.8c-2.75,1.17-4.83,3.52-5.67,6.39l-3.3,11.26L149,420.59c-4.7,1.37-7.72,5.94-7.13,10.81
			c0.59,4.86,4.61,8.58,9.51,8.79l35.74,1.5c0.14,0.01,0.28,0.01,0.42,0.01c3.81,0,7.31-2.17,8.99-5.62l7.81-16.02
			c0.46-0.94,0.75-1.91,0.9-2.89h10.2c3.03,0,5.9-1.38,7.8-3.74l0.93-1.16l2.84,0.64c0.73,0.16,1.47,0.24,2.2,0.24
			c2.27,0,4.49-0.77,6.29-2.22l11.16-9.03c1.45-1.17,2.54-2.72,3.15-4.48l0.5-1.44l0.36,2.4c0.2,1.34,0.68,2.62,1.39,3.77l0.31,0.5
			l-0.27,7.21c-0.14,3.75,1.83,7.27,5.11,9.1l4.31,2.41l0.11,2.18c0.12,2.53,1.21,4.92,3.03,6.69l2.29,2.22l-2.62,6.77l-1.02,0.86
			c-1.73,1.47-2.92,3.48-3.35,5.71l-1.87,9.5c-0.97,4.92,1.86,9.79,6.61,11.4l7.44,2.52c1.04,0.35,2.13,0.53,3.2,0.53
			c1.96,0,3.9-0.57,5.56-1.69l1.88-1.26c1.04,1.04,2.31,1.86,3.76,2.38l8.56,3.02c1.08,0.38,2.21,0.57,3.32,0.57
			c2.14,0,4.26-0.69,6.01-2.01l3.34-2.51c2.45-1.84,3.91-4.7,3.98-7.76l0.38-16.54c0.09-3.72-1.9-7.18-5.16-8.98l-0.35-0.19
			l7.88-2.03c2.58-0.66,4.7-2.29,6.03-4.44l14.69,0.64c0.14,0.01,0.29,0.01,0.43,0.01c2.53,0,4.97-0.96,6.83-2.69l0.17-0.16
			c1.1,4.45,5.11,7.6,9.7,7.6c0.37,0,0.74-0.02,1.11-0.06l21.25-2.35l6.75,1.24c0.6,0.11,1.2,0.16,1.8,0.16
			c2.93,0,5.75-1.29,7.67-3.59c2.31-2.77,2.95-6.56,1.69-9.93l-6.49-17.24c1.27,0.56,2.65,0.86,4.05,0.86
			c0.37,0,0.74-0.02,1.11-0.06l9.14-1.02c4.18-0.47,7.62-3.5,8.61-7.58l4.74,5.02c1.83,1.94,4.32,3.03,6.89,3.13
			c-0.96,0.75-1.8,1.68-2.44,2.75l-7.81,13.02c-1.56,2.6-1.83,5.72-0.85,8.49c-0.83-0.21-1.66-0.31-2.49-0.31
			c-3.17,0-6.22,1.52-8.13,4.18l-9.68,13.52c-1.84,2.56-2.35,5.84-1.4,8.85c0.95,3,3.27,5.38,6.25,6.42l11.53,4.01
			c1.07,0.37,2.18,0.56,3.29,0.56c2.23,0,4.42-0.74,6.22-2.17c2.68-2.13,4.09-5.48,3.73-8.89l-1.86-17.53
			c-0.08-0.79-0.26-1.56-0.52-2.29c0.81,0.21,1.64,0.31,2.49,0.31c0.83,0,1.66-0.1,2.48-0.31l13.76-3.53
			c3.09-0.79,5.62-3.01,6.8-5.97c1.18-2.96,0.88-6.31-0.81-9.02l-5.94-9.5c-1.76-2.81-4.8-4.56-8.1-4.69
			c1.89-1.47,3.23-3.6,3.69-6.03l0.39-2.06c0.09-0.46,0.14-0.93,0.17-1.41l0.01-0.21c0.07-0.02,0.15-0.05,0.22-0.07
			c0.63,0.89,1.41,1.69,2.33,2.35l16.01,11.52c1.73,1.24,3.78,1.88,5.84,1.88c1.25,0,2.5-0.23,3.69-0.71l6.33-2.51
			c2.52-1,4.52-2.97,5.55-5.48c1.03-2.5,1.01-5.31-0.07-7.8l-8.77-20.22h0.42c0.69,0,1.37-0.07,2.03-0.21l23.73,14.14l-2.38,11.5
			c-0.97,4.71,1.55,9.45,6,11.28l8.77,3.59c1.22,0.5,2.5,0.75,3.79,0.75c1.39,0,2.78-0.29,4.08-0.87c2.5-1.12,4.43-3.21,5.34-5.78
			l8.38-23.6c1.66-4.67-0.35-9.85-4.73-12.17l-6.5-3.46c1.21-1.24,2.12-2.81,2.57-4.61c0.99-4.02,1.82-11.45-2.41-29.49
			c-1.32-5.61-2.75-10.65-3.7-13.8l4.22-11.4c1.03-2.78,0.76-5.85-0.67-8.39l-2.78-30.94l1.97-5.91c1.58-4.73-0.57-9.91-5.04-12.13
			l-11.29-5.61l-16.29-41.81c0.05-5.16-3.86-9.53-9.02-10.04c-5.64-0.55-9.35-5.15-9.39-5.2c-0.43-0.54-0.91-1.03-1.43-1.47
			c-4.78-3.98-10.29-6.09-15.92-6.09c-5.87,0-10.21,2.29-11.81,3.28c-0.82,0.51-1.57,1.13-2.21,1.86
			c-2.19,2.46-7.46,3.93-14.09,3.93c-3.13,0-5.37-0.33-5.4-0.33c-0.08-0.01-0.14-0.02-0.22-0.03c-1.54-0.2-3.11-0.31-4.68-0.31
			c-9.81,0-17.98,3.91-23.29,7.38l-2.99-3.22l0.38-2.59c0.33-2.21-0.1-4.48-1.21-6.42l-3.73-6.53l0.27-4.75
			c0.18-3.1-1.1-6.11-3.44-8.14c-1.83-1.58-4.16-2.43-6.54-2.43c-0.67,0-1.34,0.07-2.01,0.2c-5.77,1.18-9.28,5.54-11.15,8.78
			c-2.97-3.14-6.18-7.72-9.04-12.99c-1.49-2.73-4.16-4.62-7.23-5.1C333.48,150.23,332.96,150.19,332.45,150.19L332.45,150.19z
			 M355.16,238.45l0.11-0.01l7.06,10.59c1.71,2.57,4.51,4.2,7.57,4.43l-0.98,5.74l-1.57,1.11c-0.66-0.41-1.38-0.74-2.13-0.98
			c-1.01-0.33-2.05-0.49-3.09-0.49c-1.63,0-3.26,0.4-4.72,1.19l-14.14,7.58l-3.84-6.16c-1.85-2.96-5.08-4.71-8.48-4.71
			c-0.59,0-1.19,0.05-1.79,0.16l-6.38,1.16l1.21-8.09c2.83-0.68,5.25-2.57,6.58-5.2c1.61,1.08,3.54,1.71,5.58,1.71
			c0.27,0,0.53-0.01,0.8-0.03l8.1-0.64c2.64-0.21,5.09-1.46,6.81-3.48L355.16,238.45L355.16,238.45z M218.63,313.08l0.98-2.62
			c0.02-0.04,0.03-0.09,0.05-0.13c0.05,0.01,0.09,0.01,0.14,0.02l1.21,0.14l-2.04,4.93L218.63,313.08L218.63,313.08z M442.57,315.51
			c1.49-0.13,2.91-0.59,4.18-1.34c0.7,0.8,1.54,1.5,2.49,2.05l2.06,1.2c6.47,5.51,0.67,20.55,0.61,20.7
			c-0.09,0.22-0.17,0.43-0.25,0.65l-11.88-16.93L442.57,315.51L442.57,315.51z M186.72,337.17l0.18-0.38
			c1.3-2.74,1.28-5.92-0.05-8.65l-0.29-0.59l7.71,5.52l-0.64,0.27c-1.88,0.81-3.39,2.13-4.44,3.74L186.72,337.17L186.72,337.17z
			 M368.96,355.24l6.15-3.42c-2.53,6.78-4.23,15.49-5.28,22.34c-0.34-0.04-0.69-0.05-1.03-0.05c-0.55,0-1.1,0.04-1.65,0.14
			c-0.35,0.06-0.69,0.13-1.02,0.22l1.44-3.86c0.34-0.92,0.55-1.88,0.61-2.86L368.96,355.24L368.96,355.24z M207.89,360.99l6.08-2.53
			l-0.07,0.63l-8.03,4.94C206.74,363.13,207.42,362.1,207.89,360.99L207.89,360.99z M186.79,178.75L186.79,178.75h-10.43
			c-3.88,0-7.42,2.25-9.06,5.77c-1.64,3.52-1.1,7.67,1.39,10.65l10.05,12.01c1.94,2.31,4.76,3.58,7.67,3.58
			c1.09,0,2.2-0.18,3.27-0.55c1.82-0.63,3.38-1.75,4.53-3.19l10.82,2.91c0.86,0.23,1.74,0.34,2.6,0.34c3.17,0,6.21-1.51,8.12-4.16
			c2.43-3.38,2.51-7.91,0.21-11.38l-6.33-9.52c-1.8-2.71-4.81-4.37-8.06-4.46c-0.09,0-0.18,0-0.26,0c-2.33,0-4.56,0.81-6.33,2.26
			C193.17,180.43,190.18,178.75,186.79,178.75L186.79,178.75z M80.72,306.48c-4.31,0-8.19,2.78-9.52,6.96l-1.68,5.24l-2.45,0.63
			c-3.86,0.99-6.77,4.18-7.39,8.12l-0.73,4.59l-1.13,1.51c-2.21,2.95-2.61,6.87-1.06,10.21l0.79,1.71l-0.22,3.47
			c-0.26,4.07,1.98,7.88,5.66,9.65c1.38,0.66,2.85,0.98,4.32,0.98c2.45,0,4.86-0.9,6.74-2.61L85.6,346.4
			c1.36-1.24,2.34-2.82,2.86-4.59l3.36-11.51c0.39-1.34,0.5-2.76,0.31-4.14l-1.49-11.02c-0.63-4.63-4.38-8.21-9.04-8.62
			C81.3,306.5,81.01,306.48,80.72,306.48L80.72,306.48z M26.74,316c-3.41,0-6.62,1.74-8.46,4.67l-6.32,10.03
			c-2.5,3.96-1.91,9.12,1.41,12.42l8.56,8.5c1.88,1.87,4.42,2.91,7.05,2.91c0.3,0,0.59-0.01,0.89-0.04c2.94-0.26,5.61-1.81,7.3-4.23
			l11.91-17.03c2.03-2.9,2.37-6.66,0.9-9.88s-4.53-5.42-8.05-5.8l-14.15-1.5C27.45,316.02,27.09,316,26.74,316L26.74,316z
			 M78.48,414.69c-0.3,0-0.59,0.01-0.89,0.04c-3.56,0.32-6.67,2.51-8.18,5.74l-5.58,12c-1.63,3.5-1.1,7.62,1.36,10.59
			c1.93,2.33,4.77,3.63,7.71,3.63c0.81,0,1.63-0.1,2.43-0.3l11.92-2.99c3.2-0.8,5.79-3.13,6.94-6.21c1.15-3.09,0.7-6.54-1.19-9.24
			l-6.34-9.01C84.77,416.26,81.71,414.69,78.48,414.69L78.48,414.69z M333.8,434.72c-3.53,0-6.92,1.87-8.74,5.14l-6.69,12.01
			c-1.47,2.64-1.67,5.8-0.54,8.6c1.13,2.8,3.46,4.94,6.34,5.83l16.38,5.02c0.96,0.29,1.95,0.44,2.93,0.44c1.91,0,3.8-0.55,5.44-1.61
			c2.48-1.61,4.12-4.23,4.49-7.16l1.49-12.04c0.54-4.36-1.83-8.56-5.84-10.36l-11.18-5C336.56,435,335.17,434.72,333.8,434.72
			L333.8,434.72z M10,440.21c-0.95,0-1.91,0.14-2.85,0.42c-4.37,1.3-7.31,5.4-7.14,9.96l0.74,20.05c0.12,3.21,1.78,6.18,4.46,7.96
			c1.66,1.11,3.59,1.67,5.54,1.67c1.19,0,2.38-0.21,3.52-0.64l16-6.03c3.96-1.49,6.55-5.31,6.47-9.54c-0.08-4.23-2.81-7.95-6.82-9.3
			L23,452.43l-4.43-7.37C16.73,442,13.44,440.21,10,440.21L10,440.21z M410.11,467.78c-2.66,0-5.26,1.06-7.18,3.04
			c-2.68,2.77-3.54,6.83-2.2,10.44l5.94,16.03c1.25,3.37,4.21,5.81,7.75,6.39c0.54,0.09,1.09,0.13,1.62,0.13
			c2.99,0,5.85-1.34,7.77-3.7l8.94-11.03c2.06-2.55,2.75-5.94,1.84-9.09c-0.91-3.15-3.31-5.65-6.42-6.69l-14.88-5.01
			C412.25,467.95,411.18,467.78,410.11,467.78L410.11,467.78z"/>
	</g>
</g>
</svg>
