<?xml version="1.0" encoding="utf-8"?>
<!-- Generator: Adobe Illustrator 26.2.1, SVG Export Plug-In . SVG Version: 6.00 Build 0)  -->
<svg version="1.1" id="Layer_1" xmlns="http://www.w3.org/2000/svg" xmlns:xlink="http://www.w3.org/1999/xlink" x="0px" y="0px"
	 viewBox="0 0 320 320" style="enable-background:new 0 0 320 320;" xml:space="preserve">
<style type="text/css">
	.st0{clip-path:url(#SVGID_00000133491654839258127380000005976216124860608384_);fill:#049C5C;}
	.st1{clip-path:url(#SVGID_00000133491654839258127380000005976216124860608384_);fill:#15B76D;}
	.st2{clip-path:url(#SVGID_00000133491654839258127380000005976216124860608384_);fill:#F49D2A;}
	.st3{clip-path:url(#SVGID_00000133491654839258127380000005976216124860608384_);fill:#F8CC6A;}
	.st4{clip-path:url(#SVGID_00000133491654839258127380000005976216124860608384_);fill:#252525;}
</style>
<g>
	<defs>
		<rect id="SVGID_1_" width="320" height="320"/>
	</defs>
	<clipPath id="SVGID_00000084506061135474924930000004688329689596728723_">
		<use xlink:href="#SVGID_1_"  style="overflow:visible;"/>
	</clipPath>
	<path style="clip-path:url(#SVGID_00000084506061135474924930000004688329689596728723_);fill:#049C5C;" d="M253.8,36.6H285v-25
		h-80l-7.3,24C251.1,51.7,290,101.3,290,160c0,71.8-58.2,130-130,130v25c85.6,0,155-69.4,155-155C315,109.65,291,64.95,253.8,36.6"
		/>
	<path style="clip-path:url(#SVGID_00000084506061135474924930000004688329689596728723_);fill:#15B76D;" d="M30,160
		C30,88.2,88.2,30,160,30V5C74.4,5,5,74.4,5,160s69.4,155,155,155v-25C88.2,290,30,231.8,30,160"/>
	<polygon style="clip-path:url(#SVGID_00000084506061135474924930000004688329689596728723_);fill:#F49D2A;" points="190,160 
		145,265 240,140 175,140 175,55 130,160 	"/>
	<polygon style="clip-path:url(#SVGID_00000084506061135474924930000004688329689596728723_);fill:#F8CC6A;" points="190,160 
		130,160 175,55 80,180 145,180 145,265 	"/>
	<path style="clip-path:url(#SVGID_00000084506061135474924930000004688329689596728723_);fill:#252525;" d="M267.63,41.6H285
		c2.76,0,5-2.24,5-5v-25c0-2.76-2.24-5-5-5h-80c-2.2,0-4.15,1.44-4.79,3.55l-7.3,24c-0.39,1.27-0.25,2.64,0.38,3.81
		c0.62,1.17,1.69,2.05,2.96,2.43C248.51,56.14,285,105.33,285,160c0,68.93-56.07,125-125,125S35,228.93,35,160S91.07,35,160,35
		c2.76,0,5-2.24,5-5V5c0-2.76-2.24-5-5-5C71.78,0,0,71.77,0,160s71.78,160,160,160s160-71.77,160-160
		C320,114.35,301.07,71.92,267.63,41.6 M160,310c-82.71,0-150-67.29-150-150C10,78.96,74.59,12.73,155,10.08v15.01
		C82.87,27.73,25,87.23,25,160c0,74.44,60.56,135,135,135c74.44,0,135-60.56,135-135c0-57.37-37.21-109.15-91.08-127.65l4.79-15.75
		H280v15h-26.2c-2.14,0-4.05,1.37-4.74,3.4c-0.69,2.03,0,4.27,1.71,5.58C288.41,69.26,310,112.79,310,160
		C310,242.71,242.71,310,160,310"/>
	<path style="clip-path:url(#SVGID_00000084506061135474924930000004688329689596728723_);fill:#252525;" d="M75.52,182.22
		c0.84,1.7,2.58,2.78,4.48,2.78h60v80c0,2.15,1.37,4.05,3.4,4.74c0.53,0.18,1.06,0.26,1.6,0.26c1.53,0,3.02-0.71,3.98-1.98l95-125
		c1.15-1.51,1.34-3.54,0.5-5.25c-0.84-1.7-2.58-2.78-4.48-2.78h-60V55c0-2.15-1.37-4.05-3.4-4.74c-2.04-0.68-4.28,0-5.58,1.71
		l-95,125C74.87,178.49,74.68,180.52,75.52,182.22 M170,69.84V140c0,2.76,2.24,5,5,5h54.92L150,250.16V180c0-2.76-2.24-5-5-5H90.08
		L170,69.84z"/>
</g>
</svg>
