<?xml version="1.0" encoding="utf-8"?>
<!-- Generator: Adobe Illustrator 26.5.3, SVG Export Plug-In . SVG Version: 6.00 Build 0)  -->
<svg version="1.1" id="Layer_1" xmlns="http://www.w3.org/2000/svg" xmlns:xlink="http://www.w3.org/1999/xlink" x="0px" y="0px"
	 viewBox="0 0 686.68 590.44" style="enable-background:new 0 0 686.68 590.44;" xml:space="preserve">
<style type="text/css">
	.st0{clip-path:url(#SVGID_00000054241889203446185260000002967349777517091224_);fill:#FFD6D9;}
	.st1{clip-path:url(#SVGID_00000054241889203446185260000002967349777517091224_);fill:#B47E63;}
	.st2{clip-path:url(#SVGID_00000054241889203446185260000002967349777517091224_);fill:#FFFFFF;}
	.st3{clip-path:url(#SVGID_00000054241889203446185260000002967349777517091224_);fill:#FF7C79;}
	.st4{clip-path:url(#SVGID_00000054241889203446185260000002967349777517091224_);fill:#7C94C3;}
	.st5{clip-path:url(#SVGID_00000054241889203446185260000002967349777517091224_);fill:#141414;}
</style>
<g>
	<defs>
		<rect id="SVGID_1_" width="686.68" height="590.44"/>
	</defs>
	<clipPath id="SVGID_00000070089568924709054670000010702645102784305286_">
		<use xlink:href="#SVGID_1_"  style="overflow:visible;"/>
	</clipPath>
	<path style="clip-path:url(#SVGID_00000070089568924709054670000010702645102784305286_);fill:#FFD6D9;" d="M516.86,500.96
		c-18.94,8.84-28.48,30.53-22.21,50.46c4.62,14.65,18.04,24.5,33.4,24.5h49.51c19.31,0,35.02-15.71,35.02-35.02
		c0-13.15-7.25-25.07-18.93-31.1l-14.64-7.57C559.74,492.26,536.51,491.78,516.86,500.96"/>
	<path style="clip-path:url(#SVGID_00000070089568924709054670000010702645102784305286_);fill:#B47E63;" d="M364.12,71.93
		c2.43-1.86,8.33-6.69,21.15-18.52l11.55,12.52c-6.55,6.04-14.28,13.01-19.88,17.56c6.35,16.92,29.78,67.26,86.21,75.49
		c0.47,0.07,0.94,0.18,1.4,0.33c1.96,0.64,3.86,1.39,5.71,2.24v-9.81c0-74.27-56.94-134.69-126.92-134.69
		c-69.98,0-126.92,60.42-126.92,134.69v9.87c0.73-0.33,1.43-0.71,2.17-1.01C227.08,143.88,268.64,73.29,364.12,71.93"/>
	<path style="clip-path:url(#SVGID_00000070089568924709054670000010702645102784305286_);fill:#FFFFFF;" d="M446.19,391.89
		l-3.14,9.9c-6.69,21.09-22.36,37.73-43.01,45.67c-4.96,1.91-10.05,3.18-15.18,3.96c-2.35,7.22-7.7,19.24-18.92,27.66
		c4.88,14.97,17.62,57.4,19.32,96.84h104.28c-4.94-5.45-8.8-11.99-11.13-19.38c-8.83-28.05,4.6-58.58,31.25-71.02
		c18.65-8.7,39.88-10.39,59.54-5.19l-7.47-22.52c-9.61-28.95-34.2-50.48-64.18-56.17L446.19,391.89z"/>
	<path style="clip-path:url(#SVGID_00000070089568924709054670000010702645102784305286_);fill:#FF7C79;" d="M343.34,276.62
		c11.02,0,20.42-7.05,23.93-16.88h-47.86C322.92,269.56,332.32,276.62,343.34,276.62"/>
	<path style="clip-path:url(#SVGID_00000070089568924709054670000010702645102784305286_);fill:#B47E63;" d="M461.5,241.6
		c-7.56,24.41-19.56,44.72-35.7,60.45c-3.88,3.77-8.07,7.27-12.53,10.46v55.8l87.45,16.6c0.94,0.18,1.86,0.43,2.79,0.63
		c-20.45-51.8-29.85-119.33-33.08-147.63C467.62,239.31,464.67,240.58,461.5,241.6"/>
	<path style="clip-path:url(#SVGID_00000070089568924709054670000010702645102784305286_);fill:#FFD6D9;" d="M343.34,335.35
		c-0.08,0-0.16,0-0.24,0c-18.6-0.51-36.67-5-52.66-12.77v49.18l52.89,51.38l52.89-51.38v-49.18c-15.99,7.77-34.06,12.26-52.66,12.77
		C343.5,335.35,343.42,335.35,343.34,335.35"/>
	<path style="clip-path:url(#SVGID_00000070089568924709054670000010702645102784305286_);fill:#7C94C3;" d="M368.21,575.92
		c-1.66-34.95-12.75-73.44-17.76-89.27c-1.84,0.51-3.76,0.94-5.78,1.26c-0.44,0.07-0.89,0.1-1.33,0.1c-0.45,0-0.89-0.03-1.33-0.1
		c-2.02-0.32-3.94-0.75-5.78-1.26c-5.01,15.83-16.1,54.32-17.76,89.27H368.21z"/>
	<path style="clip-path:url(#SVGID_00000070089568924709054670000010702645102784305286_);fill:#FFD6D9;" d="M234.08,226.43
		c2.97,0.74,5.32,3.01,6.15,5.96c6.62,23.54,17.58,42.87,32.55,57.45c17.76,17.3,43.47,27.67,70.57,28.47
		c27.1-0.8,52.81-11.17,70.57-28.47c14.97-14.59,25.92-33.92,32.55-57.46c0.83-2.95,3.17-5.22,6.15-5.96
		c7.37-1.83,13.45-4.83,18.07-8.91c8-7.07,11.29-18.49,7.65-26.55c-1-2.22-2.59-4.46-4.71-6.66c-3.66-3.8-8.38-6.75-13.68-8.58
		c-65.2-9.92-91.89-67.35-99.11-86.72C267.15,92.15,234,167.46,232.6,170.73c-0.96,2.27-2.87,4.02-5.21,4.78
		c-5.56,1.8-10.51,4.84-14.32,8.79c-2.12,2.2-3.71,4.45-4.71,6.66c-3.64,8.06-0.35,19.47,7.66,26.55
		C220.63,221.6,226.71,224.6,234.08,226.43 M391.04,176.2c7.15,0,12.95,5.8,12.95,12.95c0,7.15-5.8,12.95-12.95,12.95
		c-7.15,0-12.95-5.8-12.95-12.95C378.09,182,383.89,176.2,391.04,176.2 M326.88,202l20.88-20.88l12.04,12.05l-14.86,14.86
		l14.86,14.86l-12.04,12.05l-20.88-20.88c-1.6-1.6-2.5-3.76-2.5-6.02S325.28,203.6,326.88,202 M377.26,242.7
		c4.7,0,8.52,3.81,8.52,8.52c0,23.4-19.04,42.43-42.43,42.43c-23.4,0-42.43-19.04-42.43-42.43c0-4.7,3.81-8.52,8.52-8.52H377.26z
		 M295.64,176.2c7.15,0,12.95,5.8,12.95,12.95c0,7.15-5.8,12.95-12.95,12.95c-7.15,0-12.95-5.8-12.95-12.95
		C282.69,182,288.49,176.2,295.64,176.2"/>
	<path style="clip-path:url(#SVGID_00000070089568924709054670000010702645102784305286_);fill:#FFD6D9;" d="M109.12,575.92h49.51
		c15.36,0,28.79-9.84,33.4-24.5c0,0,0,0,0,0c6.28-19.93-3.27-41.63-22.2-50.46c-9.38-4.38-19.58-6.56-29.77-6.56
		c-11.16,0-22.31,2.62-32.39,7.83l-14.64,7.57c-11.68,6.04-18.93,17.96-18.93,31.1C74.1,560.21,89.81,575.92,109.12,575.92"/>
	<path style="clip-path:url(#SVGID_00000070089568924709054670000010702645102784305286_);fill:#B47E63;" d="M273.41,368.3v-55.8
		c-4.46-3.19-8.65-6.68-12.53-10.46c-16.14-15.72-28.14-36.04-35.7-60.44c-3.18-1.02-6.12-2.29-8.94-3.7
		c-3.23,28.3-12.63,95.83-33.08,147.64c0.93-0.21,1.85-0.45,2.79-0.63L273.41,368.3z"/>
	<path style="clip-path:url(#SVGID_00000070089568924709054670000010702645102784305286_);fill:#FFFFFF;" d="M177.03,485.52
		c26.65,12.44,40.09,42.97,31.25,71.02l0,0c-2.33,7.39-6.19,13.93-11.13,19.38h104.28c1.7-39.44,14.45-81.87,19.32-96.84
		c-11.1-8.34-16.46-20.2-18.85-27.44c-5.67-0.73-11.3-2.08-16.78-4.18c-20.65-7.94-36.33-24.58-43.01-45.67l-3.05-9.63l-49.91,9.48
		c-29.97,5.69-54.56,27.21-64.18,56.17l-7.47,22.52C137.15,475.13,158.39,476.82,177.03,485.52"/>
	<path style="clip-path:url(#SVGID_00000070089568924709054670000010702645102784305286_);fill:#7C94C3;" d="M343.34,470.85
		c12.76-2.55,19.56-11.7,23.04-18.98c-8.19-0.88-16.23-3.15-23.8-6.83c-7.12,3.46-14.66,5.7-22.35,6.68
		C323.69,459.02,330.49,468.28,343.34,470.85"/>
	<path style="clip-path:url(#SVGID_00000070089568924709054670000010702645102784305286_);fill:#FFFFFF;" d="M393.92,431.56
		c15.79-6.07,27.77-18.79,32.89-34.92l2.52-7.95l-21.82-4.14l-49.68,48.26C369.54,436.42,382.18,436.07,393.92,431.56"/>
	<path style="clip-path:url(#SVGID_00000070089568924709054670000010702645102784305286_);fill:#FFFFFF;" d="M255.91,388.96
		l2.43,7.68c5.11,16.12,17.1,28.85,32.89,34.92c12.12,4.66,25.19,4.86,37.22,0.86l-49.28-47.87L255.91,388.96z"/>
	<path style="clip-path:url(#SVGID_00000070089568924709054670000010702645102784305286_);fill:#141414;" d="M686.68,590.44
		c0-4.71-3.81-14.52-8.52-14.52h-62.21c8.45-9.26,13.65-21.53,13.65-35.02c0-19.54-10.78-37.26-28.14-46.24l-11.56-5.98
		l-12.03-36.24c-8.8-26.51-28.06-47.81-52.65-59.5c-27.02-57.5-37.28-150.32-38.95-167.11c10.24-12.01,13.49-28.76,7.56-41.88
		c-1.55-3.43-3.77-6.74-6.55-9.89v-22.34C487.3,68.06,422.72,0,343.34,0c-79.38,0-143.96,68.06-143.96,151.73v22.34
		c-2.78,3.15-5.01,6.46-6.56,9.89c-5.92,13.12-2.67,29.88,7.57,41.88c-1.67,16.79-11.93,109.61-38.95,167.11
		c-24.59,11.69-43.85,32.99-52.65,59.5l-12.03,36.24l-11.56,5.98c-17.36,8.98-28.14,26.7-28.14,46.24c0,13.49,5.2,25.76,13.65,35.02
		H8.52c-4.7,0-8.52,9.81-8.52,14.52 M579.01,502.22l14.64,7.57c11.68,6.04,18.93,17.96,18.93,31.11c0,19.31-15.71,35.02-35.02,35.02
		h-49.51c-15.36,0-28.79-9.85-33.4-24.5c-6.28-19.93,3.27-41.63,22.21-50.46C536.51,491.78,559.74,492.26,579.01,502.22
		 M561.72,457.81l7.47,22.51c-19.66-5.19-40.89-3.51-59.54,5.19c-26.65,12.44-40.09,42.97-31.25,71.02
		c2.33,7.39,6.19,13.93,11.13,19.38H385.26c-1.7-39.44-14.44-81.87-19.32-96.84c11.22-8.42,16.57-20.44,18.92-27.67
		c5.13-0.78,10.22-2.05,15.18-3.96c20.65-7.93,36.33-24.58,43.01-45.67l3.14-9.9l51.36,9.75
		C527.52,407.33,552.11,428.86,561.72,457.81 M396.23,371.75l-52.89,51.38l-52.89-51.38v-49.18c15.99,7.77,34.06,12.26,52.66,12.77
		c0.08,0,0.16,0,0.23,0c0.08,0,0.16,0,0.23,0c18.6-0.51,36.67-5,52.66-12.77V371.75z M407.51,384.55l21.82,4.14l-2.52,7.95
		c-5.11,16.12-17.1,28.85-32.89,34.92c-11.74,4.51-24.38,4.87-36.09,1.25L407.51,384.55z M328.45,432.42
		c-12.03,4-25.1,3.8-37.22-0.86c-15.79-6.07-27.77-18.79-32.89-34.92l-2.43-7.68l23.26-4.42L328.45,432.42z M342.58,445.04
		c7.57,3.68,15.62,5.95,23.8,6.83c-3.48,7.28-10.28,16.43-23.04,18.98c-12.85-2.57-19.65-11.83-23.11-19.13
		C327.91,450.74,335.45,448.5,342.58,445.04 M336.23,486.65c1.84,0.51,3.76,0.94,5.78,1.26c0.44,0.07,0.89,0.1,1.33,0.1
		c0.45,0,0.89-0.03,1.33-0.1c2.02-0.32,3.94-0.75,5.78-1.26c5.01,15.83,16.1,54.32,17.76,89.27h-49.73
		C320.13,540.97,331.22,502.48,336.23,486.65 M503.51,385.53c-0.93-0.21-1.85-0.45-2.79-0.63l-87.45-16.61v-55.8
		c4.46-3.19,8.65-6.68,12.53-10.46c16.14-15.72,28.14-36.04,35.7-60.44c3.18-1.02,6.12-2.29,8.94-3.7
		C473.67,266.2,483.06,333.73,503.51,385.53 M216.42,151.73c0-74.27,56.94-134.69,126.92-134.69c69.99,0,126.92,60.42,126.92,134.69
		v9.81c-1.85-0.84-3.75-1.6-5.71-2.24c-0.45-0.15-0.92-0.26-1.4-0.33c-56.43-8.23-79.86-58.56-86.21-75.49
		c5.59-4.54,13.32-11.51,19.88-17.55l-11.55-12.52c-12.81,11.82-18.72,16.66-21.15,18.52c-95.48,1.36-137.04,71.95-145.53,88.66
		c-0.74,0.3-1.44,0.67-2.17,1.01V151.73z M208.36,190.96c1-2.22,2.59-4.46,4.71-6.66c3.81-3.95,8.76-6.99,14.32-8.79
		c2.34-0.76,4.25-2.51,5.21-4.78C234,167.46,267.15,92.15,360.82,89c7.22,19.36,33.91,76.8,99.11,86.72
		c5.3,1.83,10.02,4.78,13.68,8.58c2.13,2.2,3.71,4.44,4.71,6.66c3.64,8.06,0.35,19.48-7.65,26.55c-4.62,4.08-10.7,7.08-18.07,8.91
		c-2.97,0.74-5.32,3.01-6.14,5.96c-6.63,23.54-17.58,42.87-32.55,57.45c-17.76,17.3-43.47,27.67-70.57,28.47
		c-27.1-0.8-52.81-11.17-70.57-28.47c-14.97-14.58-25.92-33.91-32.55-57.45c-0.83-2.95-3.18-5.22-6.15-5.96
		c-7.37-1.83-13.45-4.83-18.07-8.91C208.01,210.44,204.72,199.02,208.36,190.96 M216.25,237.9c2.81,1.4,5.76,2.68,8.94,3.7
		c7.57,24.4,19.56,44.72,35.7,60.44c3.88,3.77,8.07,7.27,12.53,10.46v55.8l-87.45,16.61c-0.94,0.18-1.86,0.42-2.79,0.63
		C203.62,333.73,213.02,266.2,216.25,237.9 M124.96,457.81c9.61-28.96,34.2-50.48,64.18-56.17l49.91-9.48l3.05,9.63
		c6.69,21.09,22.37,37.73,43.01,45.67c5.48,2.11,11.11,3.45,16.78,4.18c2.39,7.25,7.75,19.11,18.85,27.44
		c-4.88,14.97-17.62,57.4-19.32,96.84H197.15c4.94-5.45,8.8-11.99,11.13-19.38l0,0c8.84-28.05-4.6-58.58-31.25-71.02
		c-18.65-8.7-39.88-10.39-59.54-5.19L124.96,457.81z M93.03,509.8l14.64-7.57c10.07-5.21,21.22-7.83,32.39-7.83
		c10.19,0,20.39,2.18,29.77,6.56c18.94,8.84,28.48,30.53,22.2,50.46c0,0,0,0,0,0c-4.62,14.65-18.04,24.5-33.4,24.5h-49.51
		c-19.31,0-35.02-15.71-35.02-35.02C74.1,527.75,81.36,515.83,93.03,509.8"/>
	<path style="clip-path:url(#SVGID_00000070089568924709054670000010702645102784305286_);fill:#141414;" d="M347.76,234.92
		l12.04-12.04l-14.86-14.86l14.86-14.86l-12.04-12.05L326.88,202c-1.6,1.6-2.5,3.76-2.5,6.02c0,2.26,0.9,4.42,2.5,6.02
		L347.76,234.92z"/>
	<path style="clip-path:url(#SVGID_00000070089568924709054670000010702645102784305286_);fill:#141414;" d="M295.64,202.1
		c7.15,0,12.95-5.8,12.95-12.95c0-7.15-5.8-12.95-12.95-12.95c-7.15,0-12.95,5.8-12.95,12.95
		C282.69,196.3,288.49,202.1,295.64,202.1"/>
	<path style="clip-path:url(#SVGID_00000070089568924709054670000010702645102784305286_);fill:#141414;" d="M391.04,202.1
		c7.15,0,12.95-5.8,12.95-12.95c0-7.15-5.8-12.95-12.95-12.95c-7.15,0-12.95,5.8-12.95,12.95
		C378.09,196.3,383.89,202.1,391.04,202.1"/>
	<path style="clip-path:url(#SVGID_00000070089568924709054670000010702645102784305286_);fill:#141414;" d="M300.91,251.22
		c0,23.4,19.03,42.43,42.43,42.43c23.4,0,42.43-19.04,42.43-42.43c0-4.71-3.81-8.52-8.52-8.52h-67.83
		C304.72,242.7,300.91,246.51,300.91,251.22 M367.27,259.74c-3.51,9.83-12.91,16.88-23.93,16.88c-11.02,0-20.42-7.05-23.93-16.88
		H367.27z"/>
</g>
</svg>
