<svg xmlns="http://www.w3.org/2000/svg" xml:space="preserve" x="0" y="0" version="1.1" viewBox="0 0 43.99 44" class="svg11">
    <path class="st0 svg-elem-1" d="M43.05 42.11H27.61c-.25 0-.46-.21-.46-.46V10.77c0-.39-.23-.74-.6-.88L1.28.06C1.17.02 1.06 0 .94 0 .75 0 .57.06.41.17.15.35 0 .64 0 .95v42.11c0 .52.42.94.94.94s30.35-.01 30.35-.01h11.76c.52 0 .94-.42.94-.94s-.42-.94-.94-.94zm-17.79-.46c0 .25-.21.46-.46.46h-2.81c-.25 0-.46-.21-.46-.46v-4.21c0-.52-.42-.94-.94-.94h-.01c-.52.01-.94.43-.94.95v4.21c0 .25-.21.46-.46.46H7.95c-.25 0-.46-.21-.46-.46v-4.21c0-.52-.42-.94-.94-.94s-.94.42-.94.94v4.21c0 .25-.21.46-.46.46H2.34c-.25 0-.46-.21-.46-.46V3c0-.15.07-.29.2-.38.08-.05.17-.08.26-.08.06 0 .12.01.17.03l22.46 8.73c.17.07.29.24.29.43v29.92z" />
    <path class="st0 svg-elem-2" d="M11.47 37.2c.69 0 1.25.56 1.25 1.25s-.56 1.25-1.25 1.25-1.25-.56-1.25-1.25.56-1.25 1.25-1.25m4.21 0c.69 0 1.25.56 1.25 1.25s-.56 1.25-1.25 1.25-1.25-.56-1.25-1.25.56-1.25 1.25-1.25M5.15 31.58c.69 0 1.25.56 1.25 1.25s-.56 1.25-1.25 1.25-1.25-.56-1.25-1.25.56-1.25 1.25-1.25m4.21 0c.69 0 1.25.56 1.25 1.25s-.56 1.25-1.25 1.25-1.25-.56-1.25-1.25.56-1.25 1.25-1.25m4.22 0c.69 0 1.25.56 1.25 1.25s-.56 1.25-1.25 1.25-1.25-.56-1.25-1.25.56-1.25 1.25-1.25m4.21 0c.69 0 1.25.56 1.25 1.25s-.56 1.25-1.25 1.25-1.25-.56-1.25-1.25.56-1.25 1.25-1.25m4.21 0c.69 0 1.25.56 1.25 1.25s-.56 1.25-1.25 1.25-1.25-.56-1.25-1.25.56-1.25 1.25-1.25M5.15 25.97c.69 0 1.25.56 1.25 1.25s-.56 1.25-1.25 1.25-1.25-.56-1.25-1.25.56-1.25 1.25-1.25m4.21 0c.69 0 1.25.56 1.25 1.25s-.56 1.25-1.25 1.25-1.25-.56-1.25-1.25.56-1.25 1.25-1.25m4.22 0c.69 0 1.25.56 1.25 1.25s-.56 1.25-1.25 1.25-1.25-.56-1.25-1.25.56-1.25 1.25-1.25m4.21 0c.69 0 1.25.56 1.25 1.25s-.56 1.25-1.25 1.25-1.25-.56-1.25-1.25.56-1.25 1.25-1.25m4.21 0c.69 0 1.25.56 1.25 1.25s-.56 1.25-1.25 1.25-1.25-.56-1.25-1.25.56-1.25 1.25-1.25M5.15 20.35c.69 0 1.25.56 1.25 1.25s-.56 1.25-1.25 1.25-1.25-.56-1.25-1.25.56-1.25 1.25-1.25m4.21 0c.69 0 1.25.56 1.25 1.25s-.56 1.25-1.25 1.25-1.25-.56-1.25-1.25.56-1.25 1.25-1.25m4.22 0c.69 0 1.25.56 1.25 1.25s-.56 1.25-1.25 1.25-1.25-.56-1.25-1.25.56-1.25 1.25-1.25m4.21 0c.69 0 1.25.56 1.25 1.25s-.56 1.25-1.25 1.25-1.25-.56-1.25-1.25.56-1.25 1.25-1.25m4.21 0c.69 0 1.25.56 1.25 1.25s-.56 1.25-1.25 1.25-1.25-.56-1.25-1.25.56-1.25 1.25-1.25M5.15 14.74c.69 0 1.25.56 1.25 1.25s-.56 1.25-1.25 1.25-1.25-.56-1.25-1.25.56-1.25 1.25-1.25m4.21 0c.69 0 1.25.56 1.25 1.25s-.56 1.25-1.25 1.25-1.25-.56-1.25-1.25.56-1.25 1.25-1.25m4.22 0c.69 0 1.25.56 1.25 1.25s-.56 1.25-1.25 1.25-1.25-.56-1.25-1.25.56-1.25 1.25-1.25m4.21 0c.69 0 1.25.56 1.25 1.25s-.56 1.25-1.25 1.25-1.25-.56-1.25-1.25.56-1.25 1.25-1.25m4.21 0c.69 0 1.25.56 1.25 1.25s-.56 1.25-1.25 1.25-1.25-.56-1.25-1.25.56-1.25 1.25-1.25M5.15 9.12c.69 0 1.25.56 1.25 1.25s-.56 1.25-1.25 1.25-1.25-.56-1.25-1.25.56-1.25 1.25-1.25m4.21 0c.69 0 1.25.56 1.25 1.25s-.56 1.25-1.25 1.25-1.25-.56-1.25-1.25.56-1.25 1.25-1.25m4.22 0c.69 0 1.25.56 1.25 1.25s-.56 1.25-1.25 1.25-1.25-.56-1.25-1.25.56-1.25 1.25-1.25" />
    <path class="st1 svg-elem-3" d="M38.84 36.98c2.84 0 5.15-2.31 5.15-5.15V20.6c0-2.84-2.31-5.15-5.15-5.15h-2.81c-2.84 0-5.15 2.31-5.15 5.15v11.23c0 2.84 2.31 5.15 5.15 5.15.25 0 .46.21.46.46v4.21c0 .25-.21.46-.46.46h2.81c-.25 0-.46-.21-.46-.46v-4.21c0-.25.21-.46.46-.46zm-1.4-11.71c-.53 0-.95.42-.95.94v8.42c0 .25-.21.46-.46.46-1.8 0-3.27-1.47-3.27-3.27V20.59c0-1.8 1.47-3.27 3.27-3.27h2.81c1.8 0 3.27 1.47 3.27 3.27v11.23c0 1.8-1.47 3.27-3.27 3.27-.25 0-.46-.21-.46-.46v-8.42c0-.52-.42-.94-.94-.94z"/>
</svg>