<svg xmlns="http://www.w3.org/2000/svg" xml:space="preserve" x="0" y="0" version="1.1" viewBox="0 0 19.88 24" class="svg02">
    <path class="st0 svg-elem-1" d="M.67 19.88c-.37 0-.67-.3-.67-.67V2.04C0 .92.92 0 2.04 0h17.17c.37 0 .67.3.67.67v17.51c0 .37-.3.67-.67.67s-.37-.6-.37-.97L18.78 1.7c0-.2-.16-.36-.36-.36L1.89 1.21c-.39 0-.7.31-.7.7l-.12 17.3c0 .37-.03.67-.4.67Z" />
    <path class="st0 svg-elem-2" d="M6.85 7.42c-.37 0-.67-.25-.67-.57s.3-.57.67-.57h6.18c.37 0 .67.25.67.57s-.3.57-.67.57H6.85Zm0 4.12c-.37 0-.67-.25-.67-.57s.3-.57.67-.57h6.18c.37 0 .67.25.67.57s-.3.57-.67.57H6.85Zm12.36 4.94H2.73c-1.5 0-2.73 1.23-2.73 2.73s1.23 2.73 2.73 2.73h1.39v-1.15H2.8c-.77 0-1.46-.81-1.46-1.58s.56-1.57 1.33-1.57h15.45c.2 0 .36.16.36.36l.06 2.48c0 .2-.16.36-.36.36h-5.15c-.37 0-.67.06-.67.43s.3.67.67.67h6.18c.37 0 .67-.3.67-.67v-4.12c0-.37-.3-.67-.67-.67Z" />
    <path class="st1 svg-elem-3" d="M4.12 17.64v5.69c0 .27.16.52.41.62.08.03.17.05.26.05.18 0 .35-.07.47-.2l1.33-1.33c.07-.07.16-.1.25-.1s.18.04.25.1l1.33 1.33c.13.13.29.2.47.2.09 0 .18-.02.26-.05.25-.1.41-.35.41-.62v-5.69H4.1Zm4.12 3.2c0 .15-.09.28-.22.33-.04.02-.09.03-.14.03-.09 0-.19-.04-.25-.1l-.3-.3c-.13-.13-.3-.2-.47-.2s-.35.07-.47.2l-.3.3c-.07.07-.16.1-.25.1-.05 0-.09 0-.14-.03-.13-.06-.22-.19-.22-.33v-2.66c0-.2.16-.36.36-.36H7.9c.2 0 .36.16.36.36v2.66Z" />
</svg>