<svg xmlns="http://www.w3.org/2000/svg" xml:space="preserve" x="0" y="0" version="1.1" viewBox="0 0 24 23.8" class="svg03">
    <path class="st0 svg-elem-1" d="M.7 23.8c-.4 0-.7-.1-.7-.4 0-.3.3-.6.7-.6h6.2c.4 0 .7.2.7.6 0 .3-.3.4-.7.4H.7zm16.4 0c-.4 0-.7-.1-.7-.4s.3-.6.7-.6h6.2c.4 0 .7.2.7.6 0 .3-.3.4-.7.4h-6.2z" />
    <path class="st0 svg-elem-2" d="M6.1 23.8c-.7 0-1.3-.3-1.5-.9l-1.5-6.8c-.1-.4 0-.8.3-1.1.3-.4.7-.2 1.2-.2h14.8c.5 0 .9-.1 1.2.2.3.3.4.7.3 1.1l-1.5 6.8c-.1.6-.8.9-1.5.9H6.1zm-1.2-8c-.1 0-.2.1-.3.1s-.1.2-.1.3l1.4 6.2c0 .2.2.3.3.3h11.4c.2 0 .3-.1.4-.3l1.4-6.2c0-.1 0-.2-.1-.3-.1-.1-.2-.1-.3-.1H4.9z" />
    <path class="st1 svg-elem-3" d="M5.8 14.8c.3-1.2.8-2.1 1.6-2.9 1.2-1.3 2.9-2 4.6-2s3.4.7 4.6 2c.3.3.2.7 0 .9-.1.1-.3.2-.5.2s-.4-.1-.5-.2c-1-1-2.3-1.6-3.6-1.6s-2.7.6-3.6 1.6c-.7.7-1 1.1-1.2 2M12 8.5c-2 0-3.6-1.9-3.6-4.3C8.4 1.9 10 0 12 0s3.6 1.9 3.6 4.3c0 2.3-1.6 4.2-3.6 4.2zm0-7.2c-1.2 0-2.2 1.3-2.2 2.9s1 2.9 2.2 2.9 2.2-1.3 2.2-2.9-1-2.9-2.2-2.9zM5.8 14.7h1.4" />
</svg>