<svg xmlns="http://www.w3.org/2000/svg" xml:space="preserve" x="0" y="0" version="1.1" viewBox="0 0 24 24" class="svg04">
    <path class="st0 svg-elem-1" d="M1.76 24C.79 24 0 23.21 0 22.24V1.76C0 .79.79 0 1.76 0h16.35c.97 0 1.76.79 1.76 1.76v3.03c0 .37-.3.67-.67.67-.37 0-.43-.51-.43-.88l-.1-3c0-.2-.16-.36-.36-.36L1.53 1.17c-.2 0-.36.16-.36.36L1.1 22.37c0 .2.16.36.36.36l5.39-.07c.37 0 .67.3.67.67 0 .37-.3.67-.67.67H1.76zM15.09 24c-.37 0-.67-.3-.67-.67 0-.37.3-.67.67-.67h3.09c.2 0 .36-.16.36-.36v-3.09c0-.37.3-.67.67-.67.37 0 .67.3.67.67v3.03c0 .97-.79 1.76-1.76 1.76h-3.03z"/>
    <path class="st0 svg-elem-2" d="M4.79 9.48c-.37 0-.67-.25-.67-.57 0-.31.3-.57.67-.57h2.06c.37 0 .67.25.67.57 0 .31-.3.57-.67.57H4.79zM9.94 9.48c-.37 0-.67-.25-.67-.57 0-.31.3-.57.67-.57h4.12c.37 0 .67.25.67.57 0 .31-.3.57-.67.57H9.94zM7.88 5.36c-.37 0-.67-.25-.67-.57 0-.31.3-.57.67-.57H12c.37 0 .67.25.67.57 0 .31-.3.57-.67.57H7.88zM4.79 13.6c-.37 0-.67-.25-.67-.57 0-.31.3-.57.67-.57h5.15c.37 0 .67.25.67.57 0 .31-.3.57-.67.57H4.79zM4.79 17.72c-.37 0-.67-.25-.67-.57 0-.31.3-.57.67-.57h2.06c.37 0 .67.25.67.57 0 .31-.3.57-.67.57H4.79z"/>
    <path class="st1 svg-elem-3" d="M9.94 21.94c-.18 0-.35-.07-.47-.2-.16-.17-.23-.41-.18-.63l1.03-4.12c.03-.12.09-.23.17-.31l9.27-9.27c.13-.13.29-.2.47-.2s.35.07.47.2l3.09 3.09c.13.13.2.29.2.47s-.07.35-.2.47l-9.27 9.27c-.09.09-.19.15-.31.17l-4.12 1.03c-.04.02-.1.03-.15.03zm10.3-12.96c-.09 0-.18.04-.25.11l-8.34 8.34c-.05.05-.08.1-.1.17L11 19.78c-.03.12.01.25.1.34.07.07.16.11.25.11.03 0 .06 0 .09-.01l2.18-.55c.06-.02.12-.05.17-.1l8.34-8.34c.07-.07.11-.16.11-.25 0-.1-.04-.19-.11-.25L20.5 9.1c-.08-.09-.17-.12-.26-.12z"/>
    <path class="st1 svg-elem-4" d="M15.77 19.03c-.18 0-.35-.07-.47-.2l-2.91-2.91c-.26-.26-.26-.69 0-.95.13-.13.29-.2.47-.2s.35.07.47.2l2.91 2.91c.26.26.26.69 0 .95-.13.13-.29.2-.47.2z"/>
</svg>