<svg xmlns="http://www.w3.org/2000/svg" xml:space="preserve" x="0" y="0" version="1.1" viewBox="0 0 44 44" class="svg07">
    <path class="st0 svg-elem-1" d="M40.63 0H3.37C1.61 0 0 1.42 0 2.99v37.26C0 42.39 1.45 44 3.37 44h37.26c1.92 0 3.37-1.61 3.37-3.75V2.99C44 1.45 42.36 0 40.63 0m1.48 40.25c0 1.1-.61 1.86-1.48 1.86H3.37c-.87 0-1.49-.77-1.49-1.86V10.81c0-.26.21-.46.46-.46h39.31c.26 0 .46.21.46.46v29.44zm0-32.25c0 .25-.21.46-.46.46H2.35c-.26 0-.46-.2-.46-.46V2.94c.06-.42.68-1.05 1.48-1.05h37.26c.8 0 1.42.62 1.48 1.04 0 .02.01.04.01.07v5z" />
    <path class="st0 svg-elem-2" d="M6.56 3.9c-.69 0-1.25.56-1.25 1.25S5.87 6.4 6.56 6.4s1.25-.56 1.25-1.25c0-.68-.56-1.25-1.25-1.25M11.56 3.9c-.69 0-1.25.56-1.25 1.25s.56 1.25 1.25 1.25 1.25-.56 1.25-1.25c0-.68-.56-1.25-1.25-1.25M16.56 3.9c-.69 0-1.25.56-1.25 1.25s.56 1.25 1.25 1.25 1.25-.56 1.25-1.25c0-.68-.56-1.25-1.25-1.25" />
    <path class="st1 svg-elem-3" d="M22 13.94c-6.71 0-12.17 5.46-12.17 12.17S15.29 38.28 22 38.28s12.17-5.46 12.17-12.17S28.71 13.94 22 13.94m0 1.89c1.12 0 2.38 2.58 2.94 6 .02.13-.02.27-.1.37-.09.1-.22.16-.35.16h-4.97c-.14 0-.26-.06-.35-.16-.09-.1-.12-.24-.1-.37.55-3.42 1.81-6 2.93-6M11.83 27.58c-.08-.55-.12-1.02-.12-1.47 0-.45.04-.92.12-1.47.03-.23.23-.39.46-.39h4.14c.13 0 .25.05.33.14.09.09.13.21.13.34-.02.53-.03.97-.03 1.38 0 .41.01.85.03 1.38.01.12-.04.25-.13.34-.09.09-.21.14-.33.14h-4.14c-.23.01-.43-.16-.46-.39m6.41 7.79c-.09.09-.2.13-.32.13-.06 0-.13-.02-.19-.04-2.19-1-3.97-2.76-5.01-4.94-.07-.14-.06-.31.03-.44.08-.13.23-.22.39-.22h3.55c.23 0 .42.17.46.4.25 1.74.67 3.34 1.21 4.6.06.18.02.38-.12.51m.11-18.01c-.54 1.27-.95 2.86-1.21 4.61-.03.23-.23.39-.46.39h-3.55c-.16 0-.31-.08-.39-.22-.08-.13-.09-.3-.03-.44 1.04-2.18 2.82-3.93 5.01-4.94.06-.03.13-.04.19-.04.12 0 .23.05.32.13.15.13.19.34.12.51M22 36.4c-1.12 0-2.38-2.58-2.94-6-.02-.13.02-.27.1-.37.09-.1.22-.16.35-.16h4.97c.14 0 .26.06.35.16.09.1.12.24.1.37-.55 3.42-1.81 6-2.93 6m3.23-8.86c-.01.25-.21.44-.46.44h-5.54c-.25 0-.45-.19-.46-.44-.03-.53-.04-.98-.04-1.43 0-.45.01-.9.04-1.43.01-.25.21-.44.46-.44h5.54c.25 0 .45.19.46.44.03.53.04.98.04 1.43 0 .45-.01.9-.04 1.43m6.05 2.98c-1.04 2.18-2.82 3.93-5.01 4.94-.06.03-.13.04-.19.04-.12 0-.23-.05-.32-.13-.14-.13-.18-.33-.1-.51.54-1.27.95-2.86 1.21-4.6.03-.23.23-.4.46-.4h3.55c.16 0 .31.08.39.22.07.13.08.3.01.44m.89-5.88c.08.55.12 1.02.12 1.47 0 .45-.04.92-.12 1.47-.03.23-.23.39-.46.39h-4.14c-.13 0-.25-.05-.33-.14-.09-.09-.13-.21-.13-.34.02-.53.03-.97.03-1.38 0-.42-.01-.86-.03-1.38-.01-.13.04-.25.13-.34s.21-.14.33-.14h4.14c.23 0 .43.17.46.39m-.92-2.49c-.08.13-.23.22-.39.22h-3.55c-.23 0-.42-.17-.46-.39-.25-1.74-.67-3.34-1.21-4.61-.07-.17-.03-.38.1-.51.09-.08.2-.13.32-.13.07 0 .13.01.19.04 2.19 1.01 3.97 2.76 5.01 4.94.09.14.08.3-.01.44"/>
</svg>