<svg xmlns="http://www.w3.org/2000/svg" xml:space="preserve" x="0" y="0" version="1.1" viewBox="0 0 66 66" class="svg09">
    <path class="st0 svg-elem-1" d="M49.21 40.73c-.4 0-.76-.16-1.03-.45-.53-.57-.5-1.47.07-2 4.19-3.92 6.51-9.17 6.51-14.76 0-11.41-9.76-20.7-21.75-20.7s-21.75 9.28-21.75 20.7c0 5.29 2.1 10.33 5.91 14.18.27.27.41.62.41 1s-.15.73-.42 1c-.27.26-.62.41-.99.41-.38 0-.74-.15-1.01-.42-4.34-4.39-6.73-10.13-6.73-16.17C8.42 10.55 19.45 0 33 0s24.58 10.55 24.58 23.52c0 6.39-2.63 12.36-7.4 16.83-.27.25-.61.38-.97.38" />
    <path class="st0 svg-elem-2" d="M33 66c-3.1 0-5.63-2.52-5.63-5.63 0-.38-.31-.69-.69-.69h-1.05c-2.52 0-4.57-2.05-4.57-4.57 0-.98.32-1.93.94-2.74.19-.25.19-.59 0-.84-.61-.81-.94-1.76-.94-2.74 0-2.52 2.05-4.57 4.57-4.57h1.05c.38 0 .69-.31.69-.69v-6.32c0-.78.64-1.42 1.41-1.42.78 0 1.41.64 1.41 1.42v6.32c0 .38.31.69.69.69h4.21c.38 0 .69-.31.69-.69v-6.32c0-.78.63-1.42 1.41-1.42.78 0 1.42.64 1.42 1.42v6.32c0 .38.31.69.69.69h1.05c2.52 0 4.57 2.05 4.57 4.57 0 .98-.33 1.93-.94 2.74-.19.25-.19.59 0 .84.61.81.94 1.76.94 2.74 0 2.52-2.05 4.57-4.57 4.57H39.3c-.38 0-.69.31-.69.69C38.63 63.48 36.1 66 33 66m-2.11-6.32c-.38 0-.69.31-.69.69 0 1.54 1.25 2.8 2.8 2.8s2.8-1.26 2.8-2.8c0-.38-.31-.69-.69-.69h-4.22zm-5.26-6.31c-.95 0-1.74.8-1.74 1.74s.8 1.74 1.74 1.74h14.74c.94 0 1.74-.8 1.74-1.74s-.8-1.74-1.74-1.74H25.63zm0-6.32c-.95 0-1.74.8-1.74 1.74s.8 1.74 1.74 1.74h14.74c.94 0 1.74-.8 1.74-1.74s-.8-1.74-1.74-1.74H25.63zM60.37 7.04c-.38 0-.73-.15-1-.41-.55-.55-.55-1.45 0-2L63.58.42c.27-.27.62-.42 1-.42s.73.15 1 .42c.55.55.55 1.45 0 2l-4.21 4.21c-.26.26-.62.41-1 .41M5.63 7.04c-.38 0-.73-.15-1-.41L.41 2.41c-.55-.55-.55-1.45 0-2 .27-.26.63-.41 1-.41.38 0 .73.15 1 .42l4.21 4.21c.55.55.55 1.45 0 2-.26.26-.62.41-.99.41M1.41 47.05c-.38 0-.73-.15-1-.41-.55-.55-.55-1.45 0-2l4.21-4.21c.27-.27.62-.41 1-.41s.73.15 1 .41c.55.55.55 1.45 0 2l-4.21 4.21c-.26.26-.62.41-1 .41M64.58 47.05c-.38 0-.73-.15-1-.41l-4.21-4.21c-.55-.55-.55-1.45 0-2 .27-.27.62-.41 1-.41s.73.15 1 .41l4.21 4.21c.55.55.55 1.45 0 2-.26.26-.62.41-1 .41" />
    <path class="st1 svg-elem-3" d="M22.25 39.35c-.59 0-1.12-.37-1.33-.92-.9-2.39-.34-4.09.28-5.1 1.8-2.91 6.14-3.48 6.73-3.54 3.68-.14 6.47-1.32 8.53-3.61 4.26-4.73 4.25-12.75 4.04-15.98-.01-.21-.12-.41-.3-.53-.12-.08-.25-.12-.39-.12-.07 0-.14.01-.21.03-6.24 2.02-13.78 5.89-16.23 10.69-.98 1.93-1.12 3.88-.43 5.96.25.74-.16 1.54-.9 1.79-.15.05-.3.07-.44.07-.61 0-1.15-.39-1.35-.97-.93-2.79-.73-5.53.59-8.13 3.5-6.88 13.79-10.79 18.05-12.15.33-.11.68-.16 1.03-.16.58 0 1.15.15 1.65.43 1.01.56 1.66 1.57 1.74 2.71.25 3.62.29 12.65-4.75 18.25-2.58 2.86-6.08 4.39-10.42 4.54h-.06c-.88.1-3.58.73-4.49 2.21-.16.25-.63 1.02-.03 2.61.27.73-.1 1.55-.83 1.82-.14.07-.31.1-.48.1" />
    <path class="st1 svg-elem-4" d="M28.79 25.99c-.61 0-1.15-.39-1.34-.97-.25-.74.15-1.54.89-1.79 3.65-1.22 4.66-2.21 5.39-5.3.15-.64.71-1.09 1.37-1.09.11 0 .22.01.33.04.76.18 1.23.94 1.06 1.7-1.07 4.54-3.19 5.98-7.25 7.33-.15.06-.3.08-.45.08" />
</svg>