<svg xmlns="http://www.w3.org/2000/svg" xml:space="preserve" x="0" y="0" version="1.1" viewBox="0 0 66 66" class="svg01">
    <path class="st0 svg-elem-1" d="M1.41 34.41c-.5 0-.97-.27-1.22-.7s-.26-.97-.02-1.41L10.7 13.35c.25-.45.72-.73 1.24-.73h9.54c.21 0 .4-.09.53-.25L31.87.54c.05-.04.1-.07.14-.12.03-.03.06-.07.09-.1.05-.02.09-.05.13-.07.1-.06.17-.11.24-.13.08-.03.16-.06.25-.07.1-.02.19-.03.27-.03s.17.01.26.03.17.04.26.07c.07.03.15.07.25.14.04.03.08.05.13.07.03.03.05.06.08.09.05.05.1.09.15.12l4.17 5.01c.5.6.42 1.49-.18 1.99-.26.21-.57.33-.9.33-.42 0-.82-.19-1.09-.51l-2.59-3.11c-.13-.15-.33-.24-.53-.24s-.4.09-.53.25l-8.91 10.69c-.27.32-.67.51-1.09.51h-9.29c-.25 0-.48.14-.6.36L4.39 30.56c-.12.21-.12.48.01.69.12.21.35.34.6.34h16.4c.22 0 .43-.11.56-.29l9.9-13.86s.01-.01.03-.02c.05-.04.1-.08.15-.13.05-.05.09-.1.14-.15l.01-.01c.02-.01.03-.02.05-.03.04-.03.11-.06.19-.08l.08-.03c.05-.02.09-.04.13-.06.04-.02.07-.03.11-.04h.53c.03.01.06.02.09.04.05.02.09.04.14.06l.08.03c.08.03.16.06.2.08l.06.03.01.01c.04.05.08.1.13.15s.1.09.15.14c.01.01.03.02.04.04l2.99 4.19c.22.31.31.68.24 1.06-.06.37-.27.7-.57.92-.24.17-.52.26-.82.26-.46 0-.89-.22-1.15-.59l-1.29-1.81c-.13-.18-.34-.29-.56-.29-.22 0-.43.11-.56.29l-8.82 12.34c-.26.37-.69.59-1.15.59H1.41v-.02zM43.53 34.41c-.78 0-1.41-.63-1.41-1.41s.63-1.41 1.41-1.41h17.48c.25 0 .47-.13.6-.34.12-.21.13-.47.01-.69l-2.94-5.29c-.18-.33-.23-.71-.12-1.08.1-.36.34-.66.67-.85.21-.12.45-.18.68-.18.51 0 .99.28 1.24.73l4.68 8.42c.24.44.24.98-.02 1.4-.25.43-.72.7-1.22.7H43.53zM5.63 66c-.78 0-1.41-.63-1.41-1.41V39.32c0-.78.63-1.41 1.41-1.41s1.41.63 1.41 1.41v23.16c0 .38.31.69.69.69h6.32c.38 0 .69-.31.69-.69V49.32c0-3.97 3-7.21 6.68-7.21s6.68 3.23 6.68 7.21v13.16c0 .38.31.69.69.69h29.48c.38 0 .69-.31.69-.69V39.32c0-.78.63-1.41 1.41-1.41s1.41.63 1.41 1.41v25.27c0 .78-.63 1.41-1.41 1.41H5.63zm15.79-21.06c-2.09 0-3.85 2-3.85 4.38v13.16c0 .38.31.69.69.69h6.32c.38 0 .69-.31.69-.69V49.32c0-2.37-1.76-4.38-3.85-4.38z"></path>
    <path class="st0 svg-elem-2" d="M35.11 59.68c-.78 0-1.41-.63-1.41-1.41V41.42c0-.78.63-1.41 1.41-1.41h16.85c.78 0 1.41.63 1.41 1.41v16.85c0 .78-.63 1.41-1.41 1.41H35.11zm10.52-8.42c-.38 0-.69.31-.69.69v4.21c0 .38.31.69.69.69h4.21c.38 0 .69-.31.69-.69v-4.21c0-.38-.31-.69-.69-.69h-4.21zm-8.42 0c-.38 0-.69.31-.69.69v4.21c0 .38.31.69.69.69h4.21c.38 0 .69-.31.69-.69v-4.21c0-.38-.31-.69-.69-.69h-4.21zm8.42-8.42c-.38 0-.69.31-.69.69v4.21c0 .38.31.69.69.69h4.21c.38 0 .69-.31.69-.69v-4.21c0-.38-.31-.69-.69-.69h-4.21zm-8.42 0c-.38 0-.69.31-.69.69v4.21c0 .38.31.69.69.69h4.21c.38 0 .69-.31.69-.69v-4.21c0-.38-.31-.69-.69-.69h-4.21z"></path>
    <path class="st1 svg-elem-3" d="M41.42 28.1c-.68 0-1.27-.49-1.39-1.16-.5-2.78.37-4.4 1.18-5.27 1.45-1.54 3.61-1.77 4.76-1.77.42 0 .71.03.78.04.87.13 1.74.2 2.56.2 2.69 0 4.96-.73 6.94-2.23 4.98-3.77 6.47-11.24 6.88-14.29.03-.21-.04-.42-.19-.57-.13-.13-.31-.21-.49-.21h-.08c-6.83.76-15.3 3.08-18.62 7.34-1.25 1.6-1.72 3.37-1.43 5.4.05.37-.04.75-.27 1.05s-.56.5-.93.55c-.07.01-.13.01-.2.01-.7 0-1.3-.52-1.4-1.22-.39-2.79.28-5.32 2-7.53 4.74-6.09 16-7.92 20.63-8.42.13-.01.26-.02.39-.02.81 0 1.57.27 2.2.77.91.73 1.37 1.84 1.23 2.98-.43 3.44-2.07 11.93-8.01 16.42-2.46 1.86-5.38 2.8-8.66 2.8-.94 0-1.92-.08-2.93-.23h-.04c-.09-.01-.21-.01-.34-.01-.45 0-1.96.06-2.73.89-.53.58-.69 1.52-.45 2.82.14.77-.37 1.5-1.14 1.64-.08.01-.16.02-.25.02z"></path>
    <path class="st1 svg-elem-4" d="M48.55 16.54c-.71 0-1.32-.54-1.4-1.24-.09-.77.46-1.48 1.24-1.57 3.93-.48 5.13-1.23 6.45-4.05.23-.5.73-.82 1.28-.82.21 0 .41.05.6.14.34.16.6.44.73.8.13.36.11.74-.05 1.08-1.95 4.15-4.35 5.13-8.68 5.66-.06-.01-.12 0-.17 0z"></path>
</svg>