<svg xmlns="http://www.w3.org/2000/svg" xml:space="preserve" x="0" y="0" version="1.1" viewBox="0 0 44 44" class="svg10">
    <path class="st0 svg-elem-1" d="M2.35 44C1.06 44 0 42.95 0 41.65V7.96c0-1.29 1.05-2.35 2.35-2.35h4.21c.25 0 .46-.21.46-.46v-1.4c0-.52.42-.94.94-.94h4.98c.16 0 .32-.09.4-.23C14.26.99 15.96 0 17.79 0s3.53.99 4.45 2.58c.08.14.23.23.4.23h4.98c.52 0 .94.42.94.94v1.4c0 .25.21.46.46.46h4.21c1.29 0 2.35 1.05 2.35 2.35v8.42c0 .52-.42.94-.94.94s-.94-.42-.94-.94V7.96c0-.25-.21-.46-.46-.46h-4.21c-.25 0-.46.21-.46.46v1.4c0 .52-.42.94-.94.94H7.98c-.52 0-.94-.42-.94-.94v-1.4c0-.25-.21-.46-.46-.46H2.37c-.25 0-.46.21-.46.46v33.69c0 .25.21.46.46.46h30.88c.25 0 .46-.21.46-.46v-4.21c0-.52.42-.94.94-.94s.94.42.94.94v4.21c0 1.29-1.05 2.35-2.35 2.35H2.35zM9.37 4.69c-.25 0-.46.21-.46.46v2.81c0 .25.21.46.46.46h16.85c.25 0 .46-.21.46-.46V5.15c0-.25-.21-.46-.46-.46h-4.47c-.4 0-.75-.25-.89-.63-.46-1.3-1.69-2.18-3.06-2.18s-2.6.88-3.06 2.18c-.13.37-.49.63-.89.63H9.37z" />
    <path class="st0 svg-elem-2" d="M24.81 38.38c-.25 0-.49-.1-.67-.28-.23-.23-.33-.57-.25-.89l1.4-5.61c.04-.17.13-.32.25-.44l12.63-12.63c.17-.17.41-.26.67-.26.26 0 .5.09.67.26l4.21 4.21c.37.37.37.97 0 1.33L31.09 36.7c-.12.12-.27.21-.44.25l-5.62 1.4c-.08.02-.15.03-.23.03h.01zm4.21-7.84c-.12 0-.24.05-.33.14l-1.54 1.54c-.06.06-.1.13-.12.21l-.74 2.97c-.04.16 0 .32.12.44.09.09.21.13.33.13.04 0 .07 0 .11-.01l2.97-.74c.08-.02.15-.06.21-.12l1.54-1.54c.09-.09.14-.2.14-.33s-.05-.24-.14-.33l-2.23-2.23c-.09-.09-.2-.14-.33-.14l.01.01zm3.68-3.68c-.12 0-.24.04-.33.13l-1.69 1.69c-.09.09-.13.2-.13.33s.05.24.13.33l2.23 2.23c.09.09.21.13.33.13.12 0 .24-.04.33-.13l1.69-1.69c.09-.09.13-.2.13-.33s-.05-.24-.13-.33l-2.23-2.23c-.09-.09-.21-.13-.33-.13m6.15-6.15c-.12 0-.24.05-.33.14l-4.16 4.16c-.18.18-.18.47 0 .65l2.23 2.23c.09.09.2.13.33.13s.24-.05.33-.13l4.16-4.16c.18-.18.18-.47 0-.65l-2.23-2.23c-.09-.09-.2-.14-.33-.14M17.79 18.73c-.52 0-.94-.42-.94-.94s.42-.94.94-.94h8.42c.52 0 .94.42.94.94s-.42.94-.94.94h-8.42zM17.79 27.15c-.52 0-.94-.42-.94-.94s.42-.94.94-.94h7.02c.52 0 .94.42.94.94s-.42.94-.94.94h-7.02zM17.79 35.58c-.52 0-.94-.42-.94-.94s.42-.94.94-.94h2.81c.52 0 .94.42.94.94s-.42.94-.94.94h-2.81z" />
    <path class="st0 svg-elem-3" d="M9.37 38.38c-.1 0-.21-.02-.32-.07 0 0-.02 0-.03-.02-.02-.01-.05-.03-.07-.04-.03-.02-.06-.03-.09-.04-.01 0-.02 0-.03-.01-.02-.02-.04-.04-.06-.07-.03-.03-.07-.05-.09-.07l-2.77-2.77c-.37-.37-.37-.97 0-1.33.18-.18.41-.28.67-.28.26 0 .49.1.67.28l1.66 1.66c.09.09.2.14.33.14h.03c.13 0 .26-.08.34-.18l3.24-4.32c.18-.24.45-.38.75-.38.21 0 .4.07.57.19.2.15.33.37.37.62s-.03.5-.18.7l-4.18 5.57s-.05.04-.08.07c-.03.03-.05.06-.07.09-.02.01-.04.03-.06.04l-.09.06-.09.06s-.02.01-.03.02c-.12.05-.25.08-.37.08h-.02z" />
    <path class="st1 svg-elem-4" d="M9.37 21.54c-.1 0-.21-.02-.32-.07 0 0-.02 0-.03-.02-.02-.01-.05-.03-.07-.04-.03-.02-.06-.03-.09-.04-.01 0-.02 0-.03-.01-.02-.02-.04-.04-.06-.07-.03-.03-.07-.05-.09-.07l-2.77-2.78c-.37-.37-.37-.97 0-1.33.18-.18.41-.28.67-.28.26 0 .49.1.67.28l1.66 1.66c.09.09.2.13.33.13h.03c.13 0 .26-.08.34-.18l3.24-4.32c.18-.24.45-.38.75-.38.21 0 .4.07.57.19.2.15.33.37.37.62s-.03.5-.18.7l-4.18 5.57s-.05.04-.08.07-.05.06-.07.09c-.02.01-.04.03-.06.04l-.09.06-.09.06s-.02.01-.03.02c-.12.05-.25.08-.37.08l-.02.02zM9.37 29.96c-.1 0-.21-.02-.32-.07 0 0-.02 0-.03-.02-.02-.01-.05-.03-.07-.04-.03-.02-.06-.03-.09-.04-.01 0-.02 0-.03-.01-.02-.02-.04-.04-.06-.07-.03-.03-.07-.05-.09-.07l-2.77-2.77c-.37-.37-.37-.97 0-1.33.18-.18.41-.28.67-.28.26 0 .49.1.67.28l1.66 1.66c.09.09.2.14.33.14h.03c.13 0 .26-.08.34-.18l3.24-4.32c.18-.24.45-.38.75-.38.21 0 .4.07.57.19.2.15.33.37.37.62s-.03.5-.18.7l-4.18 5.57s-.05.04-.08.07-.05.06-.07.09c-.02.01-.04.03-.06.04l-.09.06-.09.06s-.02.01-.03.02c-.12.05-.25.08-.37.08h-.02z" />
</svg>