<svg xmlns="http://www.w3.org/2000/svg" xml:space="preserve" x="0" y="0" version="1.1" viewBox="0 0 44 44" class="svg06">
    <path class="st0 svg-elem-1" d="M38.14 37.9H19.89c-.63 0-1.16-.53-1.16-1.16 0-.63.53-1.16 1.16-1.16h14.74c.52 0 .94-.42.94-.94v-5.56c.01-.22.09-.66.5-.9l.02-.02c4.88-2.63 7.9-7.64 7.9-13.17C44 6.72 37.28 0 29.02 0c-8.26 0-14.98 6.72-14.98 14.98 0 .88.08 1.77.26 2.72.02.14-.01.27-.1.38-.09.1-.22.17-.35.17H.94c-.52 0-.94.42-.94.94v15.44c0 .52.42.94.94.94h12.59c.52 0 .94-.42.94-.94s-.42-.94-.94-.94H2.35c-.25 0-.46-.21-.46-.46V20.6c0-.25.21-.46.46-.46h12.3c.19 0 .36.12.43.29 2.27 5.79 7.74 9.53 13.94 9.53 1.35 0 2.73-.2 4.08-.58.04-.01.08-.02.13-.02.1 0 .2.03.28.09.12.09.18.22.18.37v3.41c0 .25-.21.46-.46.46H19.89c-1.68 0-3.05 1.37-3.05 3.05 0 1.68 1.37 3.05 3.05 3.05h18.25c.63 0 1.16.53 1.16 1.16 0 .63-.53 1.16-1.16 1.16H11.47c-.52 0-.94.42-.94.94s.42.94.94.94h26.67c1.68 0 3.05-1.37 3.05-3.05s-1.37-3.04-3.05-3.04m3.64-25.83c.22.98.34 1.96.34 2.91 0 .95-.11 1.93-.34 2.91-.05.21-.23.36-.45.36h-5.4c-.13 0-.25-.05-.34-.15-.09-.1-.13-.22-.12-.35.07-.92.11-1.85.11-2.77s-.04-1.85-.11-2.77c-.01-.13.03-.25.12-.35.09-.1.21-.15.34-.15h5.4c.21 0 .4.15.45.36m-8.44-9.13c.09-.1.21-.15.34-.15.06 0 .11.01.17.03 2.99 1.19 5.44 3.45 6.88 6.34.07.14.06.31-.02.45-.08.13-.23.22-.39.22h-4.75c-.23 0-.42-.16-.45-.38-.39-2.33-1.03-4.4-1.85-5.98-.08-.18-.06-.39.07-.53m.35 12.04c0 .96-.04 1.92-.12 2.85-.02.24-.22.42-.46.42h-8.19c-.24 0-.44-.18-.46-.42-.08-.93-.12-1.89-.12-2.85s.04-1.92.12-2.85c.02-.24.22-.42.46-.42h8.19c.24 0 .44.18.46.42.08.94.12 1.89.12 2.85M29.02 1.89c1.66 0 3.37 3.04 4.17 7.4.02.13-.01.27-.1.38-.09.1-.22.17-.36.17H25.3c-.14 0-.27-.06-.35-.17-.09-.1-.12-.24-.1-.38.8-4.36 2.51-7.4 4.17-7.4M17.3 9.16c1.44-2.89 3.89-5.14 6.88-6.34.06-.02.11-.03.17-.03.13 0 .25.05.34.15.13.14.16.35.07.52-.81 1.59-1.45 3.66-1.85 5.98-.04.22-.23.38-.45.38h-4.75c-.16 0-.31-.08-.39-.22-.08-.13-.09-.3-.02-.44m-1.04 8.73c-.22-.98-.34-1.96-.34-2.91 0-.95.11-1.93.34-2.91.05-.21.23-.36.45-.36h5.4c.13 0 .25.05.34.15.09.09.13.22.12.35-.08.92-.11 1.85-.11 2.77s.04 1.85.11 2.77c.01.13-.03.25-.12.35-.09.09-.21.15-.34.15h-5.4c-.22 0-.4-.15-.45-.36m8.43 9.13c-.09.1-.21.15-.34.15-.06 0-.11-.01-.17-.03-2.99-1.19-5.43-3.44-6.88-6.34-.07-.14-.06-.31.02-.45s.23-.22.39-.22h4.75c.23 0 .42.16.45.38.39 2.33 1.03 4.4 1.85 5.98.09.18.06.39-.07.53m4.33 1.06c-1.66 0-3.37-3.04-4.17-7.4-.02-.13.01-.27.1-.38.09-.11.22-.17.35-.17h7.44c.14 0 .27.06.36.17.09.1.12.24.1.38-.81 4.35-2.53 7.4-4.18 7.4m4.66-.91c-.13 0-.25-.05-.34-.15-.13-.14-.16-.35-.07-.52.81-1.59 1.45-3.66 1.85-5.98.04-.22.23-.38.45-.38h4.75c.16 0 .31.08.39.22.08.14.09.3.02.45-1.44 2.89-3.88 5.14-6.88 6.34-.05.01-.11.02-.17.02" />
    <path class="st1 svg-elem-2" d="M10.77 29.96h7.02c.52 0 .94-.42.94-.94s-.42-.94-.94-.94h-7.02c-.52 0-.94.42-.94.94s.42.94.94.94M6.56 28.08h-1.4c-.52 0-.94.42-.94.94s.42.94.94.94h1.4c.52 0 .94-.42.94-.94s-.42-.94-.94-.94M6.56 23.86h-1.4c-.52 0-.94.42-.94.94s.42.94.94.94h1.4c.52 0 .94-.42.94-.94s-.42-.94-.94-.94M10.77 25.75h2.81c.52 0 .94-.42.94-.94s-.42-.94-.94-.94h-2.81c-.52 0-.94.42-.94.94s.42.94.94.94" />
</svg>