<svg xmlns="http://www.w3.org/2000/svg" xml:space="preserve" x="0" y="0" version="1.1" viewBox="0 0 44 44" class="svg12">
    <path class="st0 svg-elem-1" d="M30.42 44c-.52 0-.94-.42-.94-.94v-2.81c0-.25-.21-.46-.46-.46H14.98c-.26 0-.46.21-.46.46v2.81c0 .52-.42.94-.94.94H7.96c-.52 0-.94-.42-.94-.94v-2.81c0-.25-.21-.46-.46-.46h-1.4c-.52 0-.94-.42-.94-.94v-24.9c0-.25-.21-.46-.46-.46h-1.4c-.26 0-.46.21-.46.46v2.81c0 .52-.42.94-.94.94-.54 0-.96-.42-.96-.94v-4.21c0-.52.42-.94.94-.94h2.81c.25 0 .46-.21.46-.46v-1.4c0-3.1 2.21-5.81 5.25-6.43.21-.04.37-.23.37-.45V.94c0-.52.42-.94.94-.94s.94.42.94.94v1.78c0 .25.21.46.46.46h18.25c.25 0 .46-.21.46-.46V.94c0-.52.42-.94.94-.94s.94.42.94.94v1.78c0 .25.21.46.46.46 3.62 0 6.56 2.94 6.56 6.56v1.4c0 .25.21.46.46.46h2.81c.52 0 .94.42.94.94v4.21c0 .52-.42.94-.94.94s-.94-.42-.94-.94v-2.81c0-.25-.21-.46-.46-.46h-1.4c-.25 0-.46.21-.46.46v24.9c0 .52-.42.94-.94.94h-1.4c-.26 0-.46.21-.46.46v2.81c0 .52-.42.94-.94.94h-5.63zm1.41-4.21c-.25 0-.46.21-.46.46v1.4c0 .25.21.46.46.46h2.81c.25 0 .46-.21.46-.46v-1.4c0-.25-.21-.46-.46-.46h-2.81zm-22.46 0c-.26 0-.46.21-.46.46v1.4c0 .25.21.46.46.46h2.81c.26 0 .46-.21.46-.46v-1.4c0-.25-.21-.46-.46-.46H9.37zM6.56 27.15c-.25 0-.46.21-.46.46v9.83c0 .26.21.46.46.46h30.88c.25 0 .46-.21.46-.46v-9.83c0-.25-.21-.46-.46-.46H6.56zm23.86-19.1c2.87 0 5.2 2.48 5.2 5.53v11.23c0 .25.21.46.46.46h1.36c.25 0 .46-.21.46-.46V9.74c0-2.58-2.1-4.67-4.67-4.67H10.77c-2.58 0-4.67 2.1-4.67 4.67v15.07c0 .25.21.46.46.46h1.36c.25 0 .46-.21.46-.46V13.58c0-3.05 2.33-5.53 5.2-5.53h16.84zm-2.1 10.2c1.68 0 3.05 1.37 3.05 3.05v3.51c0 .25.21.46.46.46h1.45c.25 0 .46-.21.46-.46V13.58c0-2.01-1.49-3.64-3.31-3.64H23.4c-.26 0-.46.21-.46.46v14.41c0 .25.21.46.46.46h1.4c.25 0 .46-.21.46-.46V21.3c.01-1.68 1.38-3.05 3.06-3.05m0 1.89c-.63 0-1.16.53-1.16 1.16v3.51c0 .25.21.46.46.46h1.4c.25 0 .46-.21.46-.46V21.3c0-.63-.53-1.16-1.16-1.16M13.58 9.94c-1.83 0-3.31 1.63-3.31 3.64v11.23c0 .25.21.46.46.46h9.87c.26 0 .46-.21.46-.46V10.4c0-.26-.21-.46-.46-.46h-7.02z" />
    <path class="st0 svg-elem-2" d="M16.38 34.17c-.52 0-.94-.42-.94-.94s.42-.94.94-.94h11.23c.52 0 .94.42.94.94s-.42.94-.94.94H16.38z" />
    <path class="st1 svg-elem-3" d="M9.97 34.17c-.52 0-.94-.42-.94-.94s.42-.94.94-.94h1.6c.52 0 .94.42.94.94s-.42.94-.94.94h-1.6zM32.43 34.17c-.52 0-.94-.42-.94-.94s.42-.94.94-.94h1.6c.52 0 .94.42.94.94s-.42.94-.94.94h-1.6z" />
</svg>