<?xml version="1.0" encoding="UTF-8"?>
<svg id="Layer_2" data-name="Layer 2" xmlns="http://www.w3.org/2000/svg" viewBox="0 0 14 20">

    <style>
      .cls-1 {
        fill: #666;
      }
    </style>
  <g id="Layer_2-2" class="cls-1" data-name="Layer 2">
    <path d="m7.76,2c-.21-1.14-1.18-2-2.36-2s-2.15.86-2.36,2H0v18h10l4-4V2h-6.24Zm-2.36-.38c.28,0,.51.16.66.38h-1.31c.14-.22.38-.38.66-.38Zm-3.9,1.88h1.5v3.85c0,1.35,1.08,2.45,2.4,2.45s2.4-1.1,2.4-2.45v-2.26h-1.6v2.26c0,.46-.36.83-.8.83s-.8-.37-.8-.83v-3.85h7.9v10.6h-4.4v4.4H1.5V3.5Zm8.4,14.48v-2.08h2.08l-2.08,2.08Z"/>
  </g>
</svg>