<?xml version="1.0" encoding="UTF-8"?>
<svg id="Layer_2" data-name="Layer 2" xmlns="http://www.w3.org/2000/svg" viewBox="0 0 16 15.75">
  <defs>
    <style>
      .cls-1 {
        fill: #237db1;
      }
    </style>
  </defs>
  <g id="Layer_1-2" data-name="Layer 1">
    <path class="cls-1" d="m13,3.75h-1.25v-1c0-1.52-1.23-2.75-2.75-2.75h-2c-1.52,0-2.75,1.23-2.75,2.75v1h-1.25c-1.66,0-3,1.34-3,3v6c0,1.66,1.34,3,3,3h10c1.66,0,3-1.34,3-3v-6c0-1.66-1.34-3-3-3Zm-7.25-1c0-.69.56-1.25,1.25-1.25h2c.69,0,1.25.56,1.25,1.25v1h-4.5v-1Zm-2.75,2.5h10c.83,0,1.5.67,1.5,1.5v2.25h-4.5v-.25c0-.55-.45-1-1-1h-2c-.55,0-1,.45-1,1v.25H1.5v-2.25c0-.83.67-1.5,1.5-1.5Zm5.5,4v1h-1v-1h1Zm4.5,5H3c-.83,0-1.5-.67-1.5-1.5v-2.25h4.5v.25c0,.55.45,1,1,1h2c.55,0,1-.45,1-1v-.25h4.5v2.25c0,.83-.67,1.5-1.5,1.5Z"/>
  </g>
</svg>