<?xml version="1.0" encoding="UTF-8"?>
<svg id="Layer_2" data-name="Layer 2" xmlns="http://www.w3.org/2000/svg" viewBox="0 0 17.1 17">
  <defs>
    <style>
      .cls-1 {
        fill: #1c1c1c;
      }
    </style>
  </defs>
  <g id="Layer_1-2" data-name="Layer 1">
    <path class="cls-1" d="m14.8,5.4h-.8V.8c0-.5-.3-.8-.8-.8H3.9c-.5,0-.8.3-.8.8v4.6h-.8c-1.3,0-2.3,1-2.3,2.3v3.9c0,1.3,1,2.3,2.3,2.3h.8v2.3c0,.5.3.8.8.8h9.3c.5,0,.8-.3.8-.8v-2.3h.8c1.3,0,2.3-1,2.3-2.3v-3.9c0-1.3-1-2.3-2.3-2.3ZM4.7,1.5h7.7v3.9h-7.7s0-3.9,0-3.9Zm7.8,14h-7.7v-4.6h7.7s0,4.6,0,4.6Zm3.1-3.9c0,.5-.3.8-.8.8h-.8v-2.3c0-.5-.3-.8-.8-.8H3.9c-.5,0-.8.3-.8.8v2.3h-.8c-.5,0-.8-.3-.8-.8v-3.9c0-.5.3-.8.8-.8h12.4c.5,0,.8.3.8.8v3.9h.1Z"/>
  </g>
</svg>