<?xml version="1.0" encoding="UTF-8"?>
<svg id="Layer_2" data-name="Layer 2" xmlns="http://www.w3.org/2000/svg" viewBox="0 0 26.87 38.4">

    <style>
      .cls-1 {
        fill: #666;
      }
    </style>
  <g id="Layer_1-2" class="cls-1" data-name="Layer 1">
    <path d="m23.74,12h-14.55v-2.8c0-2.43.93-4.8,4.24-4.8,3.06,0,4.07,2.05,4.21,4.25h3.89c-.26-4.81-3.79-8.64-8.11-8.64S5.3,4.13,5.3,9.2v2.8h-2.18c-1.72,0-3.12,1.58-3.12,3.53v19.33c0,1.95,1.4,3.53,3.12,3.53h20.62c1.72,0,3.12-1.58,3.12-3.53V15.53c0-1.95-1.4-3.53-3.12-3.53Zm0,22.01c0,.57-.41,1.03-.91,1.03H4.04c-.5,0-.91-.46-.91-1.03v-17.62c0-.57.41-1.03.91-1.03h18.79c.5,0,.91.46.91,1.03v17.62Z"/>
    <rect x="11.63" y="21.01" width="3.61" height="7.66"/>
  </g>
</svg>