<?xml version="1.0" encoding="UTF-8"?>
<svg id="Layer_2" data-name="Layer 2" xmlns="http://www.w3.org/2000/svg" viewBox="0 0 16 16">
  <defs>
    <style>
      .cls-1 {
        fill: #333;
      }
    </style>
  </defs>
  <g id="Layer_1-2" data-name="Layer 1">
    <g>
      <path class="cls-1" d="m4.36,10.67s-.1,0-.15-.02c-.36-.08-.58-.44-.5-.8.18-.79.58-1.52,1.14-2.11.84-.87,1.95-1.34,3.15-1.34s2.31.48,3.15,1.34c.26.26.25.69-.02.94-.26.26-.69.25-.94-.02-.58-.6-1.36-.93-2.19-.93s-1.61.33-2.19.93c-.4.41-.67.92-.8,1.48-.07.31-.34.52-.65.52Z"/>
      <path class="cls-1" d="m8,6c-1.4,0-2.53-1.35-2.53-3s1.14-3,2.53-3,2.53,1.35,2.53,3-1.14,3-2.53,3Zm0-4.67c-.65,0-1.2.76-1.2,1.67s.55,1.67,1.2,1.67,1.2-.76,1.2-1.67-.55-1.67-1.2-1.67Z"/>
      <path class="cls-1" d="m11.79,16h-7.58c-.57,0-1.06-.38-1.18-.9l-1-4.38c-.07-.32,0-.66.21-.93.23-.29.58-.45.97-.45h9.58c.38,0,.73.17.96.45.21.26.29.6.22.93l-1,4.39c-.12.52-.61.9-1.18.9Zm-7.49-1.33h7.4l.91-4H3.38l.91,4Z"/>
      <path class="cls-1" d="m4.67,16H.67c-.37,0-.67-.3-.67-.67s.3-.67.67-.67h4c.37,0,.67.3.67.67s-.3.67-.67.67Z"/>
      <path class="cls-1" d="m15.33,16h-4c-.37,0-.67-.3-.67-.67s.3-.67.67-.67h4c.37,0,.67.3.67.67s-.3.67-.67.67Z"/>
    </g>
  </g>
</svg>