<?xml version="1.0" encoding="UTF-8"?>
<svg id="Layer_2" data-name="Layer 2" xmlns="http://www.w3.org/2000/svg" viewBox="0 0 190.43 255.98">
  <defs>
    <style>
      .cls-1 {
        fill: #666;
      }
    </style>
  </defs>
  <g id="_Ñëîé_1" data-name="Ñëîé 1">
    <path class="cls-1" d="m189.77,203.26c-6.1-18.43-7.44-42.08-5.6-70.82.05-.83.05-1.67-.03-2.5-4.84-50.09-30.31-81.3-63.43-91.38,1.27-3.23,1.97-6.76,1.97-10.46,0-15.52-12.3-28.1-27.47-28.1s-27.47,12.57-27.47,28.1c0,3.86.76,7.54,2.15,10.89-29.96,9.74-53.42,36.97-60.59,80-1.09,6.54-1.41,13.19-1.16,19.82.86,23.4-1.27,45.11-7.5,64.53-2.72,8.48,3.62,16.96,12.27,16.96.45,0,.91-.01,1.37-.06,14.91-1.54,29.82-2.65,44.74-3.35.4,21.66,16.46,39.1,36.19,39.1s35.82-17.47,36.19-39.17c14.9.66,29.79,1.75,44.69,3.25.45.05.9.07,1.35.07,8.63,0,15.13-8.44,12.34-16.87ZM95.21,18.73c4.82,0,8.74,4.2,8.74,9.37,0,2.8-1.15,5.31-2.96,7.01-1.55,1.47-3.57,2.36-5.78,2.36s-4.16-.85-5.68-2.27c-1.87-1.7-3.06-4.25-3.06-7.09,0-5.17,3.92-9.37,8.74-9.37Zm0,218.52c-9.58,0-17.38-9.42-17.48-21.02,6.09-.14,12.19-.21,18.28-.21,5.56,0,11.11.06,16.68.17-.07,11.63-7.89,21.05-17.48,21.05Zm31.38-41.32c-7.79-.3-15.59-.49-23.34-.56-2.43-.02-4.84-.04-7.26-.04-2.94,0-5.89.01-8.84.05-7.76.08-15.55.29-23.34.61-13.62.56-27.27,1.47-40.84,2.72,4.75-18.05,6.64-38.06,5.8-60.9-.21-5.55.1-10.79.9-15.61,3.57-21.42,12.05-38.88,24.57-50.46,8.91-8.25,19.74-13.44,31.73-15.26,3.2-.5,6.49-.74,9.86-.74h.33c3,0,5.91.19,8.75.56,31.98,4.19,53.94,31.59,58.47,73.75.09.85.1,1.71.05,2.56-1.64,27.18-.36,48.47,4.02,65.95-13.57-1.23-27.23-2.1-40.86-2.63Z"/>
  </g>
</svg>