<?xml version="1.0" encoding="UTF-8"?>
<svg id="Layer_2" data-name="Layer 2" xmlns="http://www.w3.org/2000/svg" viewBox="0 0 13.91 16">
  <defs>
    <style>
      .cls-1 {
        fill: #333;
      }
    </style>
  </defs>
  <g id="Layer_1-2" data-name="Layer 1">
    <g>
      <path class="cls-1" d="m.7,13.91c-.38,0-.7-.31-.7-.7V1.62C0,.73.73,0,1.62,0h11.59c.38,0,.7.31.7.7v11.83c0,.38-.31.7-.7.7s-.7-.31-.7-.7V1.39H1.62c-.13,0-.23.1-.23.23v11.59c0,.38-.31.7-.7.7Z"/>
      <path class="cls-1" d="m.7,2.09c-.38,0-.7.31-.7.7v11.59c0,.89.73,1.62,1.62,1.62h11.59c.38,0,.7-.31.7-.7V3.48c0-.38-.31-.7-.7-.7s-.7.31-.7.7v11.13H1.62c-.13,0-.23-.1-.23-.23V2.78c0-.38-.31-.7-.7-.7Z"/>
      <path class="cls-1" d="m9.04,8.7h-4.17c-.38,0-.7-.31-.7-.7s.31-.7.7-.7h4.17c.38,0,.7.31.7.7s-.31.7-.7.7Z"/>
      <path class="cls-1" d="m9.04,11.48h-4.17c-.38,0-.7-.31-.7-.7s.31-.7.7-.7h4.17c.38,0,.7.31.7.7s-.31.7-.7.7Z"/>
      <path class="cls-1" d="m6.26,5.57c-.18,0-.36-.07-.49-.2l-.9-.9-.9.9c-.2.2-.5.26-.76.15-.26-.11-.43-.36-.43-.64V.7c0-.38.31-.7.7-.7h2.78c.38,0,.7.31.7.7v4.17c0,.28-.17.54-.43.64-.09.04-.18.05-.27.05Zm-1.39-2.78c.18,0,.36.07.49.2l.2.2v-1.8h-1.39v1.8l.2-.2c.14-.14.31-.2.49-.2Z"/>
    </g>
  </g>
</svg>