<?xml version="1.0" encoding="UTF-8"?>
<svg id="Layer_2" data-name="Layer 2" xmlns="http://www.w3.org/2000/svg" viewBox="0 0 328.53 328.53">
  <defs>
    <style>
      .cls-1 {
        fill: #666;
      }
    </style>
  </defs>
  <g id="Isolation_Mode" data-name="Isolation Mode">
    <path class="cls-1" d="m164.16,0C73.65,0,0,73.86,0,164.37s73.65,164.16,164.16,164.16,164.37-73.65,164.37-164.16S254.88,0,164.16,0Zm141.62,183.2c-9.06,69.9-69.07,123.98-141.62,123.98-78.77,0-142.81-64.04-142.81-142.81,0-5.98.43-11.95,1.28-17.72.31-2.52.86-4.96,1.29-7.44,14.6,5.93,30.49,13.89,37.51,26.34,6.51,11.31,3.62,24.55,4.58,36.72.72,10.67,5.06,20.71,9.88,30.1,4.82,8.97,21.45,40.77,36.4,34.79,8.2-3.2,9.4-8.97,11.81-16.44,3.62-11.95,13.74-21.56,19.04-33.09,3.86-7.47,6.27-19.64,0-26.68-4.34-5.34-11.81-5.98-18.32-7.47-7.47-1.71-13.98-4.48-20.25-8.11-25.55-14.73-35.92-43.33-10.61-62.97,9.16-7.04,17.6-16.22,17.84-28.18.23-13.33-14.19-28.51-25.95-38.79,8.01-5.45,16.36-10.26,25.35-13.83.73-.3,1.51-.5,2.25-.78,10.55,5.97,25.9,6.43,28.49,12.15,3.2,7.66-9.39,17.53,4.91,20.93,14.52,3.57,28.82-16.51,47.6-19.91,9.71-1.86,16.62-7.77,20.87-13.05.44.17.9.29,1.33.46,11.61,4.5,22.26,10.88,32.23,18.38-10.69,5.86-24.03,14.1-31.72,19.19-20.11,13.66-22.37,24.34-12.66,32.23,16.05,12.81,49.27-8.54,58.76,8.97,2.71,5.12,2.03,11.74-2.04,16.01-8.59,8.75-23.28,3.42-34.12,3.42-13.11-.21-25.54,2.99-33,14.09-6.78,9.82-7.68,24.98,1.58,33.73,7.91,7.26,18.98,6.19,27.12,13.87,12.88,12.6-9.72,66.6,17.4,58.92,27.12-7.9,50.17-48.46,58.76-59.98,2.27-2.92,4.53-5.15,6.79-7Z"/>
  </g>
</svg>