<?xml version="1.0" encoding="UTF-8"?>
<svg id="Layer_2" data-name="Layer 2" xmlns="http://www.w3.org/2000/svg" viewBox="0 0 17 11">
  <defs>
    <style>
      .cls-1 {
        fill: #237db1;
      }
    </style>
  </defs>
  <g id="Layer_1-2" data-name="Layer 1">
    <path class="cls-1" d="m4.5,1.5c.55,0,1,.45,1,1s-.45,1-1,1-1-.45-1-1,.45-1,1-1m0-1.5c-1.38,0-2.5,1.12-2.5,2.5s1.12,2.5,2.5,2.5,2.5-1.12,2.5-2.5S5.88,0,4.5,0h0Z"/>
    <path class="cls-1" d="m5,7.5c1.21,0,2.22.86,2.45,2H1.55c.23-1.14,1.24-2,2.45-2h1m0-1.5h-1C1.79,6,0,7.79,0,10v1h9v-1c0-2.21-1.79-4-4-4h0Z"/>
    <path class="cls-1" d="m12.5,1.5c.55,0,1,.45,1,1s-.45,1-1,1-1-.45-1-1,.45-1,1-1m0-1.5c-1.38,0-2.5,1.12-2.5,2.5s1.12,2.5,2.5,2.5,2.5-1.12,2.5-2.5-1.12-2.5-2.5-2.5h0Z"/>
    <path class="cls-1" d="m13,7.5c1.21,0,2.22.86,2.45,2h-5.9c.23-1.14,1.24-2,2.45-2h1m0-1.5h-1c-2.21,0-4,1.79-4,4v1h9v-1c0-2.21-1.79-4-4-4h0Z"/>
  </g>
</svg>