<?xml version="1.0" encoding="UTF-8"?>
<svg id="Layer_2" data-name="Layer 2" xmlns="http://www.w3.org/2000/svg" viewBox="0 0 16 16">
  <defs>
    <style>
      .cls-1 {
        fill: #237db1;
      }
    </style>
  </defs>
  <g id="Layer_1-2" data-name="Layer 1">
    <path class="cls-1" d="m13,2h-1v-1c0-.55-.45-1-1-1s-1,.45-1,1v1h-4v-1c0-.55-.45-1-1-1s-1,.45-1,1v1h-1c-1.66,0-3,1.34-3,3v8c0,1.66,1.34,3,3,3h10c1.66,0,3-1.34,3-3V5c0-1.66-1.34-3-3-3Zm1.5,11c0,.83-.67,1.5-1.5,1.5H3c-.83,0-1.5-.67-1.5-1.5v-6h13v6Z"/>
    <rect class="cls-1" x="4" y="8" width="2" height="2"/>
    <rect class="cls-1" x="7" y="8" width="2" height="2"/>
    <rect class="cls-1" x="10" y="8" width="2" height="2"/>
    <rect class="cls-1" x="4" y="11" width="2" height="2"/>
    <rect class="cls-1" x="7" y="11" width="2" height="2"/>
  </g>
</svg>