<?xml version="1.0" encoding="UTF-8"?>
<svg id="Layer_2" data-name="Layer 2" xmlns="http://www.w3.org/2000/svg" viewBox="0 0 12 13">
  <defs>
    <style>
      .cls-1 {
        fill: #237db1;
      }
    </style>
  </defs>
  <g id="Layer_1-2" data-name="Layer 1">
    <path class="cls-1" d="m6,1.5c.83,0,1.5.67,1.5,1.5s-.67,1.5-1.5,1.5-1.5-.67-1.5-1.5.67-1.5,1.5-1.5m0-1.5c-1.66,0-3,1.34-3,3s1.34,3,3,3,3-1.34,3-3S7.66,0,6,0h0Z"/>
    <path class="cls-1" d="m7,8.5c1.76,0,3.22,1.31,3.46,3H1.54c.24-1.69,1.7-3,3.46-3h2m0-1.5h-2c-2.76,0-5,2.24-5,5v1h12v-1c0-2.76-2.24-5-5-5h0Z"/>
  </g>
</svg>