<?xml version="1.0" encoding="UTF-8"?>
<svg id="Layer_2" data-name="Layer 2" xmlns="http://www.w3.org/2000/svg" viewBox="0 0 20 15">
  <defs>
    <style>
      .cls-1 {
        fill: #237db1;
      }
    </style>
  </defs>
  <g id="Layer_1-2" data-name="Layer 1">
    <path class="cls-1" d="m17,0H3C1.34,0,0,1.34,0,3v9c0,1.66,1.34,3,3,3h14c1.66,0,3-1.34,3-3V3c0-1.66-1.34-3-3-3Zm0,1.5c.15,0,.29.03.42.07l-6.24,6.24c-.68.68-1.79.68-2.48,0L2.5,1.59c.16-.06.33-.09.5-.09h14Zm1.5,10.5c0,.83-.67,1.5-1.5,1.5H3c-.83,0-1.5-.67-1.5-1.5V3c0-.09.01-.17.03-.26l6.12,6.12c.63.63,1.47.95,2.3.95s1.66-.32,2.3-.95l6.21-6.21c.03.11.04.23.04.34v9Z"/>
  </g>
</svg>