<?xml version="1.0" encoding="UTF-8"?>
<svg id="Layer_2" data-name="Layer 2" xmlns="http://www.w3.org/2000/svg" viewBox="0 0 14 19.4">
  <defs>
    <style>
      .cls-1 {
        fill: #237db1;
      }
    </style>
  </defs>
  <g id="Layer_1-2" data-name="Layer 1">
    <path class="cls-1" d="m7,1.5c3.03,0,5.5,2.47,5.5,5.5s-2.47,5.5-5.5,5.5S1.5,10.03,1.5,7,3.97,1.5,7,1.5m0-1.5C3.13,0,0,3.13,0,7s3.13,7,7,7,7-3.13,7-7S10.87,0,7,0h0Z"/>
    <polygon class="cls-1" points="10.75 19.4 7 16.9 3.25 19.4 3.25 12.56 4.75 12.56 4.75 16.6 7 15.1 9.25 16.6 9.25 12.72 10.75 12.72 10.75 19.4"/>
    <path class="cls-1" d="m9.65,10.95l-2.65-1.4-2.65,1.4.51-2.95-2.15-2.09,2.96-.43,1.33-2.69,1.33,2.69,2.96.43-2.15,2.09.51,2.95Zm-2.65-2.75l1.06.56-.2-1.18.85-.83-1.18-.17-.53-1.07-.53,1.07-1.18.17.85.83-.2,1.18,1.06-.56Z"/>
  </g>
</svg>