<?xml version="1.0" encoding="UTF-8"?>
<svg id="Layer_2" data-name="Layer 2" xmlns="http://www.w3.org/2000/svg" viewBox="0 0 15.91 18">
  <defs>
    <style>
      .cls-1 {
        fill: #666;
      }
    </style>
  </defs>
  <g id="Layer_1-2" data-name="Layer 1">
    <path class="cls-1" d="m12.8,11.5c-.9,0-1.7.4-2.2,1l-4.3-2.6c0-.3.1-.6.1-.9s-.1-.6-.2-.9l4.2-2.5c.6.6,1.4,1,2.3,1,1.8,0,3.2-1.5,3.2-3.3s-1.3-3.3-3.1-3.3-3.2,1.5-3.2,3.3c0,.3.1.6.2.9l-4.4,2.5c-.6-.6-1.4-1-2.2-1-1.8,0-3.2,1.5-3.2,3.3s1.4,3.3,3.2,3.3c.9,0,1.7-.4,2.2-1l4.2,2.5c0,.3-.1.6-.1.9,0,1.8,1.4,3.3,3.2,3.3s3.2-1.5,3.2-3.3c.1-1.8-1.3-3.2-3.1-3.2Zm0-9.9c.9,0,1.6.7,1.6,1.6s-.7,1.6-1.6,1.6-1.6-.7-1.6-1.6c0-.8.7-1.6,1.6-1.6ZM3.2,10.6c-.9,0-1.6-.7-1.6-1.6s.7-1.6,1.6-1.6,1.6.7,1.6,1.6-.7,1.6-1.6,1.6Zm9.6,5.8c-.9,0-1.6-.7-1.6-1.6,0-.3.1-.6.2-.8.2-.5.8-.8,1.4-.8.9,0,1.6.7,1.6,1.6,0,.8-.7,1.6-1.6,1.6Z"/>
  </g>
</svg>