<?xml version="1.0" encoding="UTF-8"?>
<svg id="Layer_2" data-name="Layer 2" xmlns="http://www.w3.org/2000/svg" viewBox="0 0 13 17">
  <defs>
    <style>
      .cls-1 {
        fill: #237db1;
      }
    </style>
  </defs>
  <g id="Layer_1-2" data-name="Layer 1">
    <path class="cls-1" d="m6.5,1.5c2.76,0,5,2.19,5,4.88,0,2.18-1.68,5.04-5,8.49C3.18,11.41,1.5,8.56,1.5,6.38,1.5,3.69,3.74,1.5,6.5,1.5m0-1.5C2.91,0,0,2.85,0,6.38s3.25,7.44,6.5,10.62c3.25-3.19,6.5-7.1,6.5-10.62S10.09,0,6.5,0h0Z"/>
    <path class="cls-1" d="m6.5,4.5c1.1,0,2,.9,2,2s-.9,2-2,2-2-.9-2-2,.9-2,2-2m0-1.5c-1.93,0-3.5,1.57-3.5,3.5s1.57,3.5,3.5,3.5,3.5-1.57,3.5-3.5-1.57-3.5-3.5-3.5h0Z"/>
  </g>
</svg>