<?xml version="1.0" encoding="UTF-8"?>
<svg id="Layer_2" data-name="Layer 2" xmlns="http://www.w3.org/2000/svg" viewBox="0 0 20 16.69">

    <style>
      .cls-1 {
        fill: #ff3939;
      }
    </style>
  <g id="_04_bold" class="cls-1" data-name="04 bold">
    <g>
      <path d="m17.53,2.37c-.29-.29-.76-.29-1.06,0-.29.29-.29.76,0,1.06,1.31,1.31,2.04,3.06,2.04,4.91s-.72,3.6-2.04,4.91c-.29.29-.29.76,0,1.06.15.15.34.22.53.22s.38-.07.53-.22c1.59-1.59,2.47-3.72,2.47-5.97s-.88-4.38-2.47-5.97Z"/>
      <path d="m15.03,4.66c-.29-.29-.76-.29-1.06,0-.29.29-.29.76,0,1.06.7.7,1.09,1.64,1.09,2.63s-.39,1.93-1.09,2.63c-.29.29-.29.76,0,1.06.15.15.34.22.53.22s.38-.07.53-.22c.98-.98,1.53-2.29,1.53-3.68s-.54-2.7-1.53-3.69Z"/>
      <path d="m11.1.09c-.25-.13-.54-.11-.77.05l-6.21,4.31H.75c-.41,0-.75.33-.75.75v6.31c0,.41.33.75.75.75h3.38l6.21,4.31c.13.09.28.13.43.13.12,0,.24-.03.35-.09.25-.13.4-.38.4-.66V.75c0-.28-.15-.53-.4-.66ZM1.49,5.93h1.98v4.82h-1.98v-4.82Zm8.52,8.58l-5.23-3.63s-.1-.05-.15-.07v-4.94c.05-.02.1-.04.15-.07l5.23-3.63v12.34Z"/>
    </g>
  </g>
</svg>