<?xml version="1.0" encoding="UTF-8"?>
<svg id="Layer_2" data-name="Layer 2" xmlns="http://www.w3.org/2000/svg" viewBox="0 0 16.05 16.05">
  <defs>
    <style>
      .cls-1 {
        stroke-width: .5px;
      }

      .cls-1, .cls-2 {
        fill: #333;
        stroke: #333;
        stroke-miterlimit: 10;
      }

      .cls-2 {
        stroke-width: .5px;
      }
    </style>
  </defs>
  <g id="_·_ÀÌ_î_1" data-name="·¹ÀÌ¾î_1">
    <g>
      <path class="cls-2" d="m8.02,15.8C3.74,15.8.25,12.31.25,8.02S3.74.25,8.02.25s7.78,3.49,7.78,7.77-3.49,7.77-7.78,7.77Zm0-14.79c-3.87,0-7.01,3.15-7.01,7.01s3.15,7.01,7.01,7.01,7.01-3.15,7.01-7.01S11.89,1.01,8.02,1.01Z"/>
      <path class="cls-1" d="m5.89,8.23c-.26,0-.47-.21-.47-.47v-1.01c0-.26.21-.47.47-.47s.47.21.47.47v1.01c0,.26-.21.47-.47.47Z"/>
      <path class="cls-1" d="m10.27,8.23c-.26,0-.47-.21-.47-.47v-1.01c0-.26.21-.47.47-.47s.47.21.47.47v1.01c0,.26-.21.47-.47.47Z"/>
      <path class="cls-1" d="m8.04,12.5c-2.15,0-3.22-1.64-3.28-1.82-.08-.25.06-.51.3-.59.24-.08.45.07.59.29.09.13.71,1.16,2.39,1.18,1.75.03,2.21-.9,2.36-1.17.13-.25.34-.39.59-.31.25.08.39.34.31.59-.06.19-1.03,1.83-3.26,1.83Z"/>
      <path class="cls-1" d="m5.71,3.49c-.65,0-1.09-.07-1.13-.07-.18-.03-.31-.17-.33-.35-.02-.18.08-.34.25-.41,1.27-.48,1.39-1.73,1.39-1.74.02-.22.21-.38.42-.36.22.02.38.21.36.42,0,.05-.09.97-.82,1.71.7-.01,1.62-.11,2.51-.46.02,0,1.79-.68,2.5-1.17.18-.12.42-.08.54.1.12.18.07.42-.1.54-.79.54-2.59,1.22-2.66,1.25-1.07.42-2.16.51-2.94.51Z"/>
    </g>
  </g>
</svg>