<?xml version="1.0" encoding="UTF-8"?>
<svg id="Layer_2" data-name="Layer 2" xmlns="http://www.w3.org/2000/svg" viewBox="0 0 13.33 16">
  <defs>
    <style>
      .cls-1 {
        fill: #333;
      }
    </style>
  </defs>
  <g id="Layer_1-2" data-name="Layer 1">
    <g>
      <path class="cls-1" d="m7.33,11.33c-2.94,0-5.33-2.39-5.33-5.33S4.39.67,7.33.67s5.33,2.39,5.33,5.33-2.39,5.33-5.33,5.33Zm0-9.33c-2.21,0-4,1.79-4,4s1.79,4,4,4,4-1.79,4-4-1.79-4-4-4Z"/>
      <path class="cls-1" d="m7.33,15.33c-.37,0-.67-.3-.67-.67v-2c0-.37.3-.67.67-.67s.67.3.67.67v2c0,.37-.3.67-.67.67Z"/>
      <path class="cls-1" d="m9.33,16h-4c-.37,0-.67-.3-.67-.67s.3-.67.67-.67h4c.37,0,.67.3.67.67s-.3.67-.67.67Z"/>
      <path class="cls-1" d="m12.67,12c-.19,0-.37-.08-.5-.23l-.55-.63c-.24-.28-.21-.7.06-.94.28-.24.7-.22.94.06l.55.63c.24.28.21.7-.06.94-.13.11-.28.16-.44.16Z"/>
      <path class="cls-1" d="m2.67,2c-.17,0-.34-.07-.47-.2l-.67-.67c-.26-.26-.26-.68,0-.94.26-.26.68-.26.94,0l.67.67c.26.26.26.68,0,.94-.13.13-.3.2-.47.2Z"/>
      <path class="cls-1" d="m7.37,13.33C3.31,13.33,0,10.03,0,5.96,0,4.06.76,2.3,2.2.86c.26-.26.68-.26.94,0,.26.26.26.68,0,.94-1.18,1.18-1.8,2.62-1.8,4.16,0,3.33,2.71,6.04,6.04,6.04,1.54,0,2.98-.62,4.16-1.8.26-.26.68-.26.94,0,.26.26.26.68,0,.94-1.44,1.44-3.2,2.2-5.1,2.2Z"/>
      <path class="cls-1" d="m10.35,9.61c-.17,0-.34-.07-.47-.2L3.92,3.45c-.26-.26-.26-.68,0-.94.26-.26.68-.26.94,0l5.96,5.96c.26.26.26.68,0,.94-.13.13-.3.2-.47.2Z"/>
      <g>
        <path class="cls-1" d="m3.65,8.12c-.17,0-.34-.07-.47-.2-.26-.26-.26-.68,0-.94L8.39,1.76c.26-.26.68-.26.94,0s.26.68,0,.94l-5.22,5.22c-.13.13-.3.2-.47.2Z"/>
        <path class="cls-1" d="m5.88,10.35c-.17,0-.34-.07-.47-.2-.26-.26-.26-.68,0-.94l5.22-5.22c.26-.26.68-.26.94,0s.26.68,0,.94l-5.22,5.22c-.13.13-.3.2-.47.2Z"/>
      </g>
    </g>
  </g>
</svg>